G75*
%MOIN*%
%OFA0B0*%
%FSLAX25Y25*%
%IPPOS*%
%LPD*%
%AMOC8*
5,1,8,0,0,1.08239X$1,22.5*
%
%ADD10C,0.00000*%
%ADD11C,0.01600*%
%ADD12C,0.00600*%
%ADD13C,0.01200*%
%ADD14C,0.00500*%
%ADD15C,0.00700*%
%ADD16C,0.00200*%
%ADD17C,0.00800*%
%ADD18C,0.00400*%
%ADD19R,0.03400X0.02400*%
%ADD20R,0.02400X0.03400*%
D10*
X0025000Y0011500D02*
X0025000Y0326461D01*
X0418701Y0326461D01*
X0418701Y0011500D01*
X0025000Y0011500D01*
X0028295Y0276315D02*
X0028297Y0276412D01*
X0028303Y0276509D01*
X0028313Y0276605D01*
X0028327Y0276701D01*
X0028345Y0276797D01*
X0028366Y0276891D01*
X0028392Y0276985D01*
X0028421Y0277077D01*
X0028455Y0277168D01*
X0028491Y0277258D01*
X0028532Y0277346D01*
X0028576Y0277432D01*
X0028624Y0277517D01*
X0028675Y0277599D01*
X0028729Y0277680D01*
X0028787Y0277758D01*
X0028848Y0277833D01*
X0028911Y0277906D01*
X0028978Y0277977D01*
X0029048Y0278044D01*
X0029120Y0278109D01*
X0029195Y0278170D01*
X0029273Y0278229D01*
X0029352Y0278284D01*
X0029434Y0278336D01*
X0029518Y0278384D01*
X0029604Y0278429D01*
X0029692Y0278471D01*
X0029781Y0278509D01*
X0029872Y0278543D01*
X0029964Y0278573D01*
X0030057Y0278600D01*
X0030152Y0278622D01*
X0030247Y0278641D01*
X0030343Y0278656D01*
X0030439Y0278667D01*
X0030536Y0278674D01*
X0030633Y0278677D01*
X0030730Y0278676D01*
X0030827Y0278671D01*
X0030923Y0278662D01*
X0031019Y0278649D01*
X0031115Y0278632D01*
X0031210Y0278611D01*
X0031303Y0278587D01*
X0031396Y0278558D01*
X0031488Y0278526D01*
X0031578Y0278490D01*
X0031666Y0278451D01*
X0031753Y0278407D01*
X0031838Y0278361D01*
X0031921Y0278310D01*
X0032002Y0278257D01*
X0032080Y0278200D01*
X0032157Y0278140D01*
X0032230Y0278077D01*
X0032301Y0278011D01*
X0032369Y0277942D01*
X0032435Y0277870D01*
X0032497Y0277796D01*
X0032556Y0277719D01*
X0032612Y0277640D01*
X0032665Y0277558D01*
X0032715Y0277475D01*
X0032760Y0277389D01*
X0032803Y0277302D01*
X0032842Y0277213D01*
X0032877Y0277123D01*
X0032908Y0277031D01*
X0032935Y0276938D01*
X0032959Y0276844D01*
X0032979Y0276749D01*
X0032995Y0276653D01*
X0033007Y0276557D01*
X0033015Y0276460D01*
X0033019Y0276363D01*
X0033019Y0276267D01*
X0033015Y0276170D01*
X0033007Y0276073D01*
X0032995Y0275977D01*
X0032979Y0275881D01*
X0032959Y0275786D01*
X0032935Y0275692D01*
X0032908Y0275599D01*
X0032877Y0275507D01*
X0032842Y0275417D01*
X0032803Y0275328D01*
X0032760Y0275241D01*
X0032715Y0275155D01*
X0032665Y0275072D01*
X0032612Y0274990D01*
X0032556Y0274911D01*
X0032497Y0274834D01*
X0032435Y0274760D01*
X0032369Y0274688D01*
X0032301Y0274619D01*
X0032230Y0274553D01*
X0032157Y0274490D01*
X0032080Y0274430D01*
X0032002Y0274373D01*
X0031921Y0274320D01*
X0031838Y0274269D01*
X0031753Y0274223D01*
X0031666Y0274179D01*
X0031578Y0274140D01*
X0031488Y0274104D01*
X0031396Y0274072D01*
X0031303Y0274043D01*
X0031210Y0274019D01*
X0031115Y0273998D01*
X0031019Y0273981D01*
X0030923Y0273968D01*
X0030827Y0273959D01*
X0030730Y0273954D01*
X0030633Y0273953D01*
X0030536Y0273956D01*
X0030439Y0273963D01*
X0030343Y0273974D01*
X0030247Y0273989D01*
X0030152Y0274008D01*
X0030057Y0274030D01*
X0029964Y0274057D01*
X0029872Y0274087D01*
X0029781Y0274121D01*
X0029692Y0274159D01*
X0029604Y0274201D01*
X0029518Y0274246D01*
X0029434Y0274294D01*
X0029352Y0274346D01*
X0029273Y0274401D01*
X0029195Y0274460D01*
X0029120Y0274521D01*
X0029048Y0274586D01*
X0028978Y0274653D01*
X0028911Y0274724D01*
X0028848Y0274797D01*
X0028787Y0274872D01*
X0028729Y0274950D01*
X0028675Y0275031D01*
X0028624Y0275113D01*
X0028576Y0275198D01*
X0028532Y0275284D01*
X0028491Y0275372D01*
X0028455Y0275462D01*
X0028421Y0275553D01*
X0028392Y0275645D01*
X0028366Y0275739D01*
X0028345Y0275833D01*
X0028327Y0275929D01*
X0028313Y0276025D01*
X0028303Y0276121D01*
X0028297Y0276218D01*
X0028295Y0276315D01*
X0038138Y0276315D02*
X0038140Y0276412D01*
X0038146Y0276509D01*
X0038156Y0276605D01*
X0038170Y0276701D01*
X0038188Y0276797D01*
X0038209Y0276891D01*
X0038235Y0276985D01*
X0038264Y0277077D01*
X0038298Y0277168D01*
X0038334Y0277258D01*
X0038375Y0277346D01*
X0038419Y0277432D01*
X0038467Y0277517D01*
X0038518Y0277599D01*
X0038572Y0277680D01*
X0038630Y0277758D01*
X0038691Y0277833D01*
X0038754Y0277906D01*
X0038821Y0277977D01*
X0038891Y0278044D01*
X0038963Y0278109D01*
X0039038Y0278170D01*
X0039116Y0278229D01*
X0039195Y0278284D01*
X0039277Y0278336D01*
X0039361Y0278384D01*
X0039447Y0278429D01*
X0039535Y0278471D01*
X0039624Y0278509D01*
X0039715Y0278543D01*
X0039807Y0278573D01*
X0039900Y0278600D01*
X0039995Y0278622D01*
X0040090Y0278641D01*
X0040186Y0278656D01*
X0040282Y0278667D01*
X0040379Y0278674D01*
X0040476Y0278677D01*
X0040573Y0278676D01*
X0040670Y0278671D01*
X0040766Y0278662D01*
X0040862Y0278649D01*
X0040958Y0278632D01*
X0041053Y0278611D01*
X0041146Y0278587D01*
X0041239Y0278558D01*
X0041331Y0278526D01*
X0041421Y0278490D01*
X0041509Y0278451D01*
X0041596Y0278407D01*
X0041681Y0278361D01*
X0041764Y0278310D01*
X0041845Y0278257D01*
X0041923Y0278200D01*
X0042000Y0278140D01*
X0042073Y0278077D01*
X0042144Y0278011D01*
X0042212Y0277942D01*
X0042278Y0277870D01*
X0042340Y0277796D01*
X0042399Y0277719D01*
X0042455Y0277640D01*
X0042508Y0277558D01*
X0042558Y0277475D01*
X0042603Y0277389D01*
X0042646Y0277302D01*
X0042685Y0277213D01*
X0042720Y0277123D01*
X0042751Y0277031D01*
X0042778Y0276938D01*
X0042802Y0276844D01*
X0042822Y0276749D01*
X0042838Y0276653D01*
X0042850Y0276557D01*
X0042858Y0276460D01*
X0042862Y0276363D01*
X0042862Y0276267D01*
X0042858Y0276170D01*
X0042850Y0276073D01*
X0042838Y0275977D01*
X0042822Y0275881D01*
X0042802Y0275786D01*
X0042778Y0275692D01*
X0042751Y0275599D01*
X0042720Y0275507D01*
X0042685Y0275417D01*
X0042646Y0275328D01*
X0042603Y0275241D01*
X0042558Y0275155D01*
X0042508Y0275072D01*
X0042455Y0274990D01*
X0042399Y0274911D01*
X0042340Y0274834D01*
X0042278Y0274760D01*
X0042212Y0274688D01*
X0042144Y0274619D01*
X0042073Y0274553D01*
X0042000Y0274490D01*
X0041923Y0274430D01*
X0041845Y0274373D01*
X0041764Y0274320D01*
X0041681Y0274269D01*
X0041596Y0274223D01*
X0041509Y0274179D01*
X0041421Y0274140D01*
X0041331Y0274104D01*
X0041239Y0274072D01*
X0041146Y0274043D01*
X0041053Y0274019D01*
X0040958Y0273998D01*
X0040862Y0273981D01*
X0040766Y0273968D01*
X0040670Y0273959D01*
X0040573Y0273954D01*
X0040476Y0273953D01*
X0040379Y0273956D01*
X0040282Y0273963D01*
X0040186Y0273974D01*
X0040090Y0273989D01*
X0039995Y0274008D01*
X0039900Y0274030D01*
X0039807Y0274057D01*
X0039715Y0274087D01*
X0039624Y0274121D01*
X0039535Y0274159D01*
X0039447Y0274201D01*
X0039361Y0274246D01*
X0039277Y0274294D01*
X0039195Y0274346D01*
X0039116Y0274401D01*
X0039038Y0274460D01*
X0038963Y0274521D01*
X0038891Y0274586D01*
X0038821Y0274653D01*
X0038754Y0274724D01*
X0038691Y0274797D01*
X0038630Y0274872D01*
X0038572Y0274950D01*
X0038518Y0275031D01*
X0038467Y0275113D01*
X0038419Y0275198D01*
X0038375Y0275284D01*
X0038334Y0275372D01*
X0038298Y0275462D01*
X0038264Y0275553D01*
X0038235Y0275645D01*
X0038209Y0275739D01*
X0038188Y0275833D01*
X0038170Y0275929D01*
X0038156Y0276025D01*
X0038146Y0276121D01*
X0038140Y0276218D01*
X0038138Y0276315D01*
X0057823Y0296000D02*
X0057825Y0296097D01*
X0057831Y0296194D01*
X0057841Y0296290D01*
X0057855Y0296386D01*
X0057873Y0296482D01*
X0057894Y0296576D01*
X0057920Y0296670D01*
X0057949Y0296762D01*
X0057983Y0296853D01*
X0058019Y0296943D01*
X0058060Y0297031D01*
X0058104Y0297117D01*
X0058152Y0297202D01*
X0058203Y0297284D01*
X0058257Y0297365D01*
X0058315Y0297443D01*
X0058376Y0297518D01*
X0058439Y0297591D01*
X0058506Y0297662D01*
X0058576Y0297729D01*
X0058648Y0297794D01*
X0058723Y0297855D01*
X0058801Y0297914D01*
X0058880Y0297969D01*
X0058962Y0298021D01*
X0059046Y0298069D01*
X0059132Y0298114D01*
X0059220Y0298156D01*
X0059309Y0298194D01*
X0059400Y0298228D01*
X0059492Y0298258D01*
X0059585Y0298285D01*
X0059680Y0298307D01*
X0059775Y0298326D01*
X0059871Y0298341D01*
X0059967Y0298352D01*
X0060064Y0298359D01*
X0060161Y0298362D01*
X0060258Y0298361D01*
X0060355Y0298356D01*
X0060451Y0298347D01*
X0060547Y0298334D01*
X0060643Y0298317D01*
X0060738Y0298296D01*
X0060831Y0298272D01*
X0060924Y0298243D01*
X0061016Y0298211D01*
X0061106Y0298175D01*
X0061194Y0298136D01*
X0061281Y0298092D01*
X0061366Y0298046D01*
X0061449Y0297995D01*
X0061530Y0297942D01*
X0061608Y0297885D01*
X0061685Y0297825D01*
X0061758Y0297762D01*
X0061829Y0297696D01*
X0061897Y0297627D01*
X0061963Y0297555D01*
X0062025Y0297481D01*
X0062084Y0297404D01*
X0062140Y0297325D01*
X0062193Y0297243D01*
X0062243Y0297160D01*
X0062288Y0297074D01*
X0062331Y0296987D01*
X0062370Y0296898D01*
X0062405Y0296808D01*
X0062436Y0296716D01*
X0062463Y0296623D01*
X0062487Y0296529D01*
X0062507Y0296434D01*
X0062523Y0296338D01*
X0062535Y0296242D01*
X0062543Y0296145D01*
X0062547Y0296048D01*
X0062547Y0295952D01*
X0062543Y0295855D01*
X0062535Y0295758D01*
X0062523Y0295662D01*
X0062507Y0295566D01*
X0062487Y0295471D01*
X0062463Y0295377D01*
X0062436Y0295284D01*
X0062405Y0295192D01*
X0062370Y0295102D01*
X0062331Y0295013D01*
X0062288Y0294926D01*
X0062243Y0294840D01*
X0062193Y0294757D01*
X0062140Y0294675D01*
X0062084Y0294596D01*
X0062025Y0294519D01*
X0061963Y0294445D01*
X0061897Y0294373D01*
X0061829Y0294304D01*
X0061758Y0294238D01*
X0061685Y0294175D01*
X0061608Y0294115D01*
X0061530Y0294058D01*
X0061449Y0294005D01*
X0061366Y0293954D01*
X0061281Y0293908D01*
X0061194Y0293864D01*
X0061106Y0293825D01*
X0061016Y0293789D01*
X0060924Y0293757D01*
X0060831Y0293728D01*
X0060738Y0293704D01*
X0060643Y0293683D01*
X0060547Y0293666D01*
X0060451Y0293653D01*
X0060355Y0293644D01*
X0060258Y0293639D01*
X0060161Y0293638D01*
X0060064Y0293641D01*
X0059967Y0293648D01*
X0059871Y0293659D01*
X0059775Y0293674D01*
X0059680Y0293693D01*
X0059585Y0293715D01*
X0059492Y0293742D01*
X0059400Y0293772D01*
X0059309Y0293806D01*
X0059220Y0293844D01*
X0059132Y0293886D01*
X0059046Y0293931D01*
X0058962Y0293979D01*
X0058880Y0294031D01*
X0058801Y0294086D01*
X0058723Y0294145D01*
X0058648Y0294206D01*
X0058576Y0294271D01*
X0058506Y0294338D01*
X0058439Y0294409D01*
X0058376Y0294482D01*
X0058315Y0294557D01*
X0058257Y0294635D01*
X0058203Y0294716D01*
X0058152Y0294798D01*
X0058104Y0294883D01*
X0058060Y0294969D01*
X0058019Y0295057D01*
X0057983Y0295147D01*
X0057949Y0295238D01*
X0057920Y0295330D01*
X0057894Y0295424D01*
X0057873Y0295518D01*
X0057855Y0295614D01*
X0057841Y0295710D01*
X0057831Y0295806D01*
X0057825Y0295903D01*
X0057823Y0296000D01*
X0038138Y0315685D02*
X0038140Y0315782D01*
X0038146Y0315879D01*
X0038156Y0315975D01*
X0038170Y0316071D01*
X0038188Y0316167D01*
X0038209Y0316261D01*
X0038235Y0316355D01*
X0038264Y0316447D01*
X0038298Y0316538D01*
X0038334Y0316628D01*
X0038375Y0316716D01*
X0038419Y0316802D01*
X0038467Y0316887D01*
X0038518Y0316969D01*
X0038572Y0317050D01*
X0038630Y0317128D01*
X0038691Y0317203D01*
X0038754Y0317276D01*
X0038821Y0317347D01*
X0038891Y0317414D01*
X0038963Y0317479D01*
X0039038Y0317540D01*
X0039116Y0317599D01*
X0039195Y0317654D01*
X0039277Y0317706D01*
X0039361Y0317754D01*
X0039447Y0317799D01*
X0039535Y0317841D01*
X0039624Y0317879D01*
X0039715Y0317913D01*
X0039807Y0317943D01*
X0039900Y0317970D01*
X0039995Y0317992D01*
X0040090Y0318011D01*
X0040186Y0318026D01*
X0040282Y0318037D01*
X0040379Y0318044D01*
X0040476Y0318047D01*
X0040573Y0318046D01*
X0040670Y0318041D01*
X0040766Y0318032D01*
X0040862Y0318019D01*
X0040958Y0318002D01*
X0041053Y0317981D01*
X0041146Y0317957D01*
X0041239Y0317928D01*
X0041331Y0317896D01*
X0041421Y0317860D01*
X0041509Y0317821D01*
X0041596Y0317777D01*
X0041681Y0317731D01*
X0041764Y0317680D01*
X0041845Y0317627D01*
X0041923Y0317570D01*
X0042000Y0317510D01*
X0042073Y0317447D01*
X0042144Y0317381D01*
X0042212Y0317312D01*
X0042278Y0317240D01*
X0042340Y0317166D01*
X0042399Y0317089D01*
X0042455Y0317010D01*
X0042508Y0316928D01*
X0042558Y0316845D01*
X0042603Y0316759D01*
X0042646Y0316672D01*
X0042685Y0316583D01*
X0042720Y0316493D01*
X0042751Y0316401D01*
X0042778Y0316308D01*
X0042802Y0316214D01*
X0042822Y0316119D01*
X0042838Y0316023D01*
X0042850Y0315927D01*
X0042858Y0315830D01*
X0042862Y0315733D01*
X0042862Y0315637D01*
X0042858Y0315540D01*
X0042850Y0315443D01*
X0042838Y0315347D01*
X0042822Y0315251D01*
X0042802Y0315156D01*
X0042778Y0315062D01*
X0042751Y0314969D01*
X0042720Y0314877D01*
X0042685Y0314787D01*
X0042646Y0314698D01*
X0042603Y0314611D01*
X0042558Y0314525D01*
X0042508Y0314442D01*
X0042455Y0314360D01*
X0042399Y0314281D01*
X0042340Y0314204D01*
X0042278Y0314130D01*
X0042212Y0314058D01*
X0042144Y0313989D01*
X0042073Y0313923D01*
X0042000Y0313860D01*
X0041923Y0313800D01*
X0041845Y0313743D01*
X0041764Y0313690D01*
X0041681Y0313639D01*
X0041596Y0313593D01*
X0041509Y0313549D01*
X0041421Y0313510D01*
X0041331Y0313474D01*
X0041239Y0313442D01*
X0041146Y0313413D01*
X0041053Y0313389D01*
X0040958Y0313368D01*
X0040862Y0313351D01*
X0040766Y0313338D01*
X0040670Y0313329D01*
X0040573Y0313324D01*
X0040476Y0313323D01*
X0040379Y0313326D01*
X0040282Y0313333D01*
X0040186Y0313344D01*
X0040090Y0313359D01*
X0039995Y0313378D01*
X0039900Y0313400D01*
X0039807Y0313427D01*
X0039715Y0313457D01*
X0039624Y0313491D01*
X0039535Y0313529D01*
X0039447Y0313571D01*
X0039361Y0313616D01*
X0039277Y0313664D01*
X0039195Y0313716D01*
X0039116Y0313771D01*
X0039038Y0313830D01*
X0038963Y0313891D01*
X0038891Y0313956D01*
X0038821Y0314023D01*
X0038754Y0314094D01*
X0038691Y0314167D01*
X0038630Y0314242D01*
X0038572Y0314320D01*
X0038518Y0314401D01*
X0038467Y0314483D01*
X0038419Y0314568D01*
X0038375Y0314654D01*
X0038334Y0314742D01*
X0038298Y0314832D01*
X0038264Y0314923D01*
X0038235Y0315015D01*
X0038209Y0315109D01*
X0038188Y0315203D01*
X0038170Y0315299D01*
X0038156Y0315395D01*
X0038146Y0315491D01*
X0038140Y0315588D01*
X0038138Y0315685D01*
X0028295Y0315685D02*
X0028297Y0315782D01*
X0028303Y0315879D01*
X0028313Y0315975D01*
X0028327Y0316071D01*
X0028345Y0316167D01*
X0028366Y0316261D01*
X0028392Y0316355D01*
X0028421Y0316447D01*
X0028455Y0316538D01*
X0028491Y0316628D01*
X0028532Y0316716D01*
X0028576Y0316802D01*
X0028624Y0316887D01*
X0028675Y0316969D01*
X0028729Y0317050D01*
X0028787Y0317128D01*
X0028848Y0317203D01*
X0028911Y0317276D01*
X0028978Y0317347D01*
X0029048Y0317414D01*
X0029120Y0317479D01*
X0029195Y0317540D01*
X0029273Y0317599D01*
X0029352Y0317654D01*
X0029434Y0317706D01*
X0029518Y0317754D01*
X0029604Y0317799D01*
X0029692Y0317841D01*
X0029781Y0317879D01*
X0029872Y0317913D01*
X0029964Y0317943D01*
X0030057Y0317970D01*
X0030152Y0317992D01*
X0030247Y0318011D01*
X0030343Y0318026D01*
X0030439Y0318037D01*
X0030536Y0318044D01*
X0030633Y0318047D01*
X0030730Y0318046D01*
X0030827Y0318041D01*
X0030923Y0318032D01*
X0031019Y0318019D01*
X0031115Y0318002D01*
X0031210Y0317981D01*
X0031303Y0317957D01*
X0031396Y0317928D01*
X0031488Y0317896D01*
X0031578Y0317860D01*
X0031666Y0317821D01*
X0031753Y0317777D01*
X0031838Y0317731D01*
X0031921Y0317680D01*
X0032002Y0317627D01*
X0032080Y0317570D01*
X0032157Y0317510D01*
X0032230Y0317447D01*
X0032301Y0317381D01*
X0032369Y0317312D01*
X0032435Y0317240D01*
X0032497Y0317166D01*
X0032556Y0317089D01*
X0032612Y0317010D01*
X0032665Y0316928D01*
X0032715Y0316845D01*
X0032760Y0316759D01*
X0032803Y0316672D01*
X0032842Y0316583D01*
X0032877Y0316493D01*
X0032908Y0316401D01*
X0032935Y0316308D01*
X0032959Y0316214D01*
X0032979Y0316119D01*
X0032995Y0316023D01*
X0033007Y0315927D01*
X0033015Y0315830D01*
X0033019Y0315733D01*
X0033019Y0315637D01*
X0033015Y0315540D01*
X0033007Y0315443D01*
X0032995Y0315347D01*
X0032979Y0315251D01*
X0032959Y0315156D01*
X0032935Y0315062D01*
X0032908Y0314969D01*
X0032877Y0314877D01*
X0032842Y0314787D01*
X0032803Y0314698D01*
X0032760Y0314611D01*
X0032715Y0314525D01*
X0032665Y0314442D01*
X0032612Y0314360D01*
X0032556Y0314281D01*
X0032497Y0314204D01*
X0032435Y0314130D01*
X0032369Y0314058D01*
X0032301Y0313989D01*
X0032230Y0313923D01*
X0032157Y0313860D01*
X0032080Y0313800D01*
X0032002Y0313743D01*
X0031921Y0313690D01*
X0031838Y0313639D01*
X0031753Y0313593D01*
X0031666Y0313549D01*
X0031578Y0313510D01*
X0031488Y0313474D01*
X0031396Y0313442D01*
X0031303Y0313413D01*
X0031210Y0313389D01*
X0031115Y0313368D01*
X0031019Y0313351D01*
X0030923Y0313338D01*
X0030827Y0313329D01*
X0030730Y0313324D01*
X0030633Y0313323D01*
X0030536Y0313326D01*
X0030439Y0313333D01*
X0030343Y0313344D01*
X0030247Y0313359D01*
X0030152Y0313378D01*
X0030057Y0313400D01*
X0029964Y0313427D01*
X0029872Y0313457D01*
X0029781Y0313491D01*
X0029692Y0313529D01*
X0029604Y0313571D01*
X0029518Y0313616D01*
X0029434Y0313664D01*
X0029352Y0313716D01*
X0029273Y0313771D01*
X0029195Y0313830D01*
X0029120Y0313891D01*
X0029048Y0313956D01*
X0028978Y0314023D01*
X0028911Y0314094D01*
X0028848Y0314167D01*
X0028787Y0314242D01*
X0028729Y0314320D01*
X0028675Y0314401D01*
X0028624Y0314483D01*
X0028576Y0314568D01*
X0028532Y0314654D01*
X0028491Y0314742D01*
X0028455Y0314832D01*
X0028421Y0314923D01*
X0028392Y0315015D01*
X0028366Y0315109D01*
X0028345Y0315203D01*
X0028327Y0315299D01*
X0028313Y0315395D01*
X0028303Y0315491D01*
X0028297Y0315588D01*
X0028295Y0315685D01*
D11*
X0035800Y0038216D02*
X0045008Y0038216D01*
X0048077Y0035146D01*
X0048077Y0032077D01*
X0045008Y0029008D01*
X0035800Y0029008D01*
X0045008Y0029008D02*
X0048077Y0025939D01*
X0048077Y0022869D01*
X0045008Y0019800D01*
X0035800Y0019800D01*
X0035800Y0038216D01*
X0054216Y0029008D02*
X0057285Y0032077D01*
X0063424Y0032077D01*
X0066493Y0029008D01*
X0066493Y0025939D01*
X0054216Y0025939D01*
X0054216Y0029008D02*
X0054216Y0022869D01*
X0057285Y0019800D01*
X0063424Y0019800D01*
X0072631Y0022869D02*
X0072631Y0029008D01*
X0075701Y0032077D01*
X0081839Y0032077D01*
X0084909Y0029008D01*
X0084909Y0025939D01*
X0072631Y0025939D01*
X0072631Y0022869D02*
X0075701Y0019800D01*
X0081839Y0019800D01*
X0091047Y0019800D02*
X0100255Y0019800D01*
X0103324Y0022869D01*
X0103324Y0029008D01*
X0100255Y0032077D01*
X0091047Y0032077D01*
X0091047Y0038216D02*
X0091047Y0019800D01*
X0109463Y0022869D02*
X0109463Y0035146D01*
X0112532Y0038216D01*
X0118671Y0038216D01*
X0121740Y0035146D01*
X0121740Y0022869D01*
X0118671Y0019800D01*
X0112532Y0019800D01*
X0109463Y0022869D01*
X0127879Y0019800D02*
X0127879Y0038216D01*
X0137087Y0038216D01*
X0140156Y0035146D01*
X0140156Y0029008D01*
X0137087Y0025939D01*
X0127879Y0025939D01*
X0146294Y0019800D02*
X0146294Y0038216D01*
X0146294Y0019800D02*
X0158572Y0019800D01*
D12*
X0145500Y0050500D02*
X0264500Y0050500D01*
X0264500Y0071500D01*
X0264360Y0071502D01*
X0264220Y0071508D01*
X0264080Y0071518D01*
X0263940Y0071531D01*
X0263801Y0071549D01*
X0263662Y0071571D01*
X0263525Y0071596D01*
X0263387Y0071625D01*
X0263251Y0071658D01*
X0263116Y0071695D01*
X0262982Y0071736D01*
X0262849Y0071781D01*
X0262717Y0071829D01*
X0262587Y0071881D01*
X0262458Y0071936D01*
X0262331Y0071995D01*
X0262205Y0072058D01*
X0262081Y0072124D01*
X0261960Y0072193D01*
X0261840Y0072266D01*
X0261722Y0072343D01*
X0261607Y0072422D01*
X0261493Y0072505D01*
X0261383Y0072591D01*
X0261274Y0072680D01*
X0261168Y0072772D01*
X0261065Y0072867D01*
X0260964Y0072964D01*
X0260867Y0073065D01*
X0260772Y0073168D01*
X0260680Y0073274D01*
X0260591Y0073383D01*
X0260505Y0073493D01*
X0260422Y0073607D01*
X0260343Y0073722D01*
X0260266Y0073840D01*
X0260193Y0073960D01*
X0260124Y0074081D01*
X0260058Y0074205D01*
X0259995Y0074331D01*
X0259936Y0074458D01*
X0259881Y0074587D01*
X0259829Y0074717D01*
X0259781Y0074849D01*
X0259736Y0074982D01*
X0259695Y0075116D01*
X0259658Y0075251D01*
X0259625Y0075387D01*
X0259596Y0075525D01*
X0259571Y0075662D01*
X0259549Y0075801D01*
X0259531Y0075940D01*
X0259518Y0076080D01*
X0259508Y0076220D01*
X0259502Y0076360D01*
X0259500Y0076500D01*
X0259502Y0076640D01*
X0259508Y0076780D01*
X0259518Y0076920D01*
X0259531Y0077060D01*
X0259549Y0077199D01*
X0259571Y0077338D01*
X0259596Y0077475D01*
X0259625Y0077613D01*
X0259658Y0077749D01*
X0259695Y0077884D01*
X0259736Y0078018D01*
X0259781Y0078151D01*
X0259829Y0078283D01*
X0259881Y0078413D01*
X0259936Y0078542D01*
X0259995Y0078669D01*
X0260058Y0078795D01*
X0260124Y0078919D01*
X0260193Y0079040D01*
X0260266Y0079160D01*
X0260343Y0079278D01*
X0260422Y0079393D01*
X0260505Y0079507D01*
X0260591Y0079617D01*
X0260680Y0079726D01*
X0260772Y0079832D01*
X0260867Y0079935D01*
X0260964Y0080036D01*
X0261065Y0080133D01*
X0261168Y0080228D01*
X0261274Y0080320D01*
X0261383Y0080409D01*
X0261493Y0080495D01*
X0261607Y0080578D01*
X0261722Y0080657D01*
X0261840Y0080734D01*
X0261960Y0080807D01*
X0262081Y0080876D01*
X0262205Y0080942D01*
X0262331Y0081005D01*
X0262458Y0081064D01*
X0262587Y0081119D01*
X0262717Y0081171D01*
X0262849Y0081219D01*
X0262982Y0081264D01*
X0263116Y0081305D01*
X0263251Y0081342D01*
X0263387Y0081375D01*
X0263525Y0081404D01*
X0263662Y0081429D01*
X0263801Y0081451D01*
X0263940Y0081469D01*
X0264080Y0081482D01*
X0264220Y0081492D01*
X0264360Y0081498D01*
X0264500Y0081500D01*
X0264500Y0102500D01*
X0145500Y0102500D01*
X0145500Y0050500D01*
X0114500Y0060000D02*
X0114500Y0073000D01*
X0114498Y0073087D01*
X0114492Y0073174D01*
X0114483Y0073261D01*
X0114470Y0073347D01*
X0114453Y0073433D01*
X0114432Y0073518D01*
X0114407Y0073601D01*
X0114379Y0073684D01*
X0114348Y0073765D01*
X0114313Y0073845D01*
X0114274Y0073923D01*
X0114232Y0074000D01*
X0114187Y0074075D01*
X0114138Y0074147D01*
X0114087Y0074218D01*
X0114032Y0074286D01*
X0113975Y0074351D01*
X0113914Y0074414D01*
X0113851Y0074475D01*
X0113786Y0074532D01*
X0113718Y0074587D01*
X0113647Y0074638D01*
X0113575Y0074687D01*
X0113500Y0074732D01*
X0113423Y0074774D01*
X0113345Y0074813D01*
X0113265Y0074848D01*
X0113184Y0074879D01*
X0113101Y0074907D01*
X0113018Y0074932D01*
X0112933Y0074953D01*
X0112847Y0074970D01*
X0112761Y0074983D01*
X0112674Y0074992D01*
X0112587Y0074998D01*
X0112500Y0075000D01*
X0110000Y0071500D02*
X0110000Y0067700D01*
X0110000Y0065200D02*
X0110000Y0061500D01*
X0112500Y0058000D02*
X0112587Y0058002D01*
X0112674Y0058008D01*
X0112761Y0058017D01*
X0112847Y0058030D01*
X0112933Y0058047D01*
X0113018Y0058068D01*
X0113101Y0058093D01*
X0113184Y0058121D01*
X0113265Y0058152D01*
X0113345Y0058187D01*
X0113423Y0058226D01*
X0113500Y0058268D01*
X0113575Y0058313D01*
X0113647Y0058362D01*
X0113718Y0058413D01*
X0113786Y0058468D01*
X0113851Y0058525D01*
X0113914Y0058586D01*
X0113975Y0058649D01*
X0114032Y0058714D01*
X0114087Y0058782D01*
X0114138Y0058853D01*
X0114187Y0058925D01*
X0114232Y0059000D01*
X0114274Y0059077D01*
X0114313Y0059155D01*
X0114348Y0059235D01*
X0114379Y0059316D01*
X0114407Y0059399D01*
X0114432Y0059482D01*
X0114453Y0059567D01*
X0114470Y0059653D01*
X0114483Y0059739D01*
X0114492Y0059826D01*
X0114498Y0059913D01*
X0114500Y0060000D01*
X0107500Y0058000D02*
X0107413Y0058002D01*
X0107326Y0058008D01*
X0107239Y0058017D01*
X0107153Y0058030D01*
X0107067Y0058047D01*
X0106982Y0058068D01*
X0106899Y0058093D01*
X0106816Y0058121D01*
X0106735Y0058152D01*
X0106655Y0058187D01*
X0106577Y0058226D01*
X0106500Y0058268D01*
X0106425Y0058313D01*
X0106353Y0058362D01*
X0106282Y0058413D01*
X0106214Y0058468D01*
X0106149Y0058525D01*
X0106086Y0058586D01*
X0106025Y0058649D01*
X0105968Y0058714D01*
X0105913Y0058782D01*
X0105862Y0058853D01*
X0105813Y0058925D01*
X0105768Y0059000D01*
X0105726Y0059077D01*
X0105687Y0059155D01*
X0105652Y0059235D01*
X0105621Y0059316D01*
X0105593Y0059399D01*
X0105568Y0059482D01*
X0105547Y0059567D01*
X0105530Y0059653D01*
X0105517Y0059739D01*
X0105508Y0059826D01*
X0105502Y0059913D01*
X0105500Y0060000D01*
X0105500Y0073000D01*
X0105502Y0073087D01*
X0105508Y0073174D01*
X0105517Y0073261D01*
X0105530Y0073347D01*
X0105547Y0073433D01*
X0105568Y0073518D01*
X0105593Y0073601D01*
X0105621Y0073684D01*
X0105652Y0073765D01*
X0105687Y0073845D01*
X0105726Y0073923D01*
X0105768Y0074000D01*
X0105813Y0074075D01*
X0105862Y0074147D01*
X0105913Y0074218D01*
X0105968Y0074286D01*
X0106025Y0074351D01*
X0106086Y0074414D01*
X0106149Y0074475D01*
X0106214Y0074532D01*
X0106282Y0074587D01*
X0106353Y0074638D01*
X0106425Y0074687D01*
X0106500Y0074732D01*
X0106577Y0074774D01*
X0106655Y0074813D01*
X0106735Y0074848D01*
X0106816Y0074879D01*
X0106899Y0074907D01*
X0106982Y0074932D01*
X0107067Y0074953D01*
X0107153Y0074970D01*
X0107239Y0074983D01*
X0107326Y0074992D01*
X0107413Y0074998D01*
X0107500Y0075000D01*
X0088000Y0070500D02*
X0086000Y0070500D01*
X0087000Y0071500D02*
X0087000Y0069500D01*
X0070000Y0066500D02*
X0070003Y0066745D01*
X0070012Y0066991D01*
X0070027Y0067236D01*
X0070048Y0067480D01*
X0070075Y0067724D01*
X0070108Y0067967D01*
X0070147Y0068210D01*
X0070192Y0068451D01*
X0070243Y0068691D01*
X0070300Y0068930D01*
X0070362Y0069167D01*
X0070431Y0069403D01*
X0070505Y0069637D01*
X0070585Y0069869D01*
X0070670Y0070099D01*
X0070761Y0070327D01*
X0070858Y0070552D01*
X0070960Y0070776D01*
X0071068Y0070996D01*
X0071181Y0071214D01*
X0071299Y0071429D01*
X0071423Y0071641D01*
X0071551Y0071850D01*
X0071685Y0072056D01*
X0071824Y0072258D01*
X0071968Y0072457D01*
X0072117Y0072652D01*
X0072270Y0072844D01*
X0072428Y0073032D01*
X0072590Y0073216D01*
X0072758Y0073395D01*
X0072929Y0073571D01*
X0073105Y0073742D01*
X0073284Y0073910D01*
X0073468Y0074072D01*
X0073656Y0074230D01*
X0073848Y0074383D01*
X0074043Y0074532D01*
X0074242Y0074676D01*
X0074444Y0074815D01*
X0074650Y0074949D01*
X0074859Y0075077D01*
X0075071Y0075201D01*
X0075286Y0075319D01*
X0075504Y0075432D01*
X0075724Y0075540D01*
X0075948Y0075642D01*
X0076173Y0075739D01*
X0076401Y0075830D01*
X0076631Y0075915D01*
X0076863Y0075995D01*
X0077097Y0076069D01*
X0077333Y0076138D01*
X0077570Y0076200D01*
X0077809Y0076257D01*
X0078049Y0076308D01*
X0078290Y0076353D01*
X0078533Y0076392D01*
X0078776Y0076425D01*
X0079020Y0076452D01*
X0079264Y0076473D01*
X0079509Y0076488D01*
X0079755Y0076497D01*
X0080000Y0076500D01*
X0080245Y0076497D01*
X0080491Y0076488D01*
X0080736Y0076473D01*
X0080980Y0076452D01*
X0081224Y0076425D01*
X0081467Y0076392D01*
X0081710Y0076353D01*
X0081951Y0076308D01*
X0082191Y0076257D01*
X0082430Y0076200D01*
X0082667Y0076138D01*
X0082903Y0076069D01*
X0083137Y0075995D01*
X0083369Y0075915D01*
X0083599Y0075830D01*
X0083827Y0075739D01*
X0084052Y0075642D01*
X0084276Y0075540D01*
X0084496Y0075432D01*
X0084714Y0075319D01*
X0084929Y0075201D01*
X0085141Y0075077D01*
X0085350Y0074949D01*
X0085556Y0074815D01*
X0085758Y0074676D01*
X0085957Y0074532D01*
X0086152Y0074383D01*
X0086344Y0074230D01*
X0086532Y0074072D01*
X0086716Y0073910D01*
X0086895Y0073742D01*
X0087071Y0073571D01*
X0087242Y0073395D01*
X0087410Y0073216D01*
X0087572Y0073032D01*
X0087730Y0072844D01*
X0087883Y0072652D01*
X0088032Y0072457D01*
X0088176Y0072258D01*
X0088315Y0072056D01*
X0088449Y0071850D01*
X0088577Y0071641D01*
X0088701Y0071429D01*
X0088819Y0071214D01*
X0088932Y0070996D01*
X0089040Y0070776D01*
X0089142Y0070552D01*
X0089239Y0070327D01*
X0089330Y0070099D01*
X0089415Y0069869D01*
X0089495Y0069637D01*
X0089569Y0069403D01*
X0089638Y0069167D01*
X0089700Y0068930D01*
X0089757Y0068691D01*
X0089808Y0068451D01*
X0089853Y0068210D01*
X0089892Y0067967D01*
X0089925Y0067724D01*
X0089952Y0067480D01*
X0089973Y0067236D01*
X0089988Y0066991D01*
X0089997Y0066745D01*
X0090000Y0066500D01*
X0089997Y0066255D01*
X0089988Y0066009D01*
X0089973Y0065764D01*
X0089952Y0065520D01*
X0089925Y0065276D01*
X0089892Y0065033D01*
X0089853Y0064790D01*
X0089808Y0064549D01*
X0089757Y0064309D01*
X0089700Y0064070D01*
X0089638Y0063833D01*
X0089569Y0063597D01*
X0089495Y0063363D01*
X0089415Y0063131D01*
X0089330Y0062901D01*
X0089239Y0062673D01*
X0089142Y0062448D01*
X0089040Y0062224D01*
X0088932Y0062004D01*
X0088819Y0061786D01*
X0088701Y0061571D01*
X0088577Y0061359D01*
X0088449Y0061150D01*
X0088315Y0060944D01*
X0088176Y0060742D01*
X0088032Y0060543D01*
X0087883Y0060348D01*
X0087730Y0060156D01*
X0087572Y0059968D01*
X0087410Y0059784D01*
X0087242Y0059605D01*
X0087071Y0059429D01*
X0086895Y0059258D01*
X0086716Y0059090D01*
X0086532Y0058928D01*
X0086344Y0058770D01*
X0086152Y0058617D01*
X0085957Y0058468D01*
X0085758Y0058324D01*
X0085556Y0058185D01*
X0085350Y0058051D01*
X0085141Y0057923D01*
X0084929Y0057799D01*
X0084714Y0057681D01*
X0084496Y0057568D01*
X0084276Y0057460D01*
X0084052Y0057358D01*
X0083827Y0057261D01*
X0083599Y0057170D01*
X0083369Y0057085D01*
X0083137Y0057005D01*
X0082903Y0056931D01*
X0082667Y0056862D01*
X0082430Y0056800D01*
X0082191Y0056743D01*
X0081951Y0056692D01*
X0081710Y0056647D01*
X0081467Y0056608D01*
X0081224Y0056575D01*
X0080980Y0056548D01*
X0080736Y0056527D01*
X0080491Y0056512D01*
X0080245Y0056503D01*
X0080000Y0056500D01*
X0079755Y0056503D01*
X0079509Y0056512D01*
X0079264Y0056527D01*
X0079020Y0056548D01*
X0078776Y0056575D01*
X0078533Y0056608D01*
X0078290Y0056647D01*
X0078049Y0056692D01*
X0077809Y0056743D01*
X0077570Y0056800D01*
X0077333Y0056862D01*
X0077097Y0056931D01*
X0076863Y0057005D01*
X0076631Y0057085D01*
X0076401Y0057170D01*
X0076173Y0057261D01*
X0075948Y0057358D01*
X0075724Y0057460D01*
X0075504Y0057568D01*
X0075286Y0057681D01*
X0075071Y0057799D01*
X0074859Y0057923D01*
X0074650Y0058051D01*
X0074444Y0058185D01*
X0074242Y0058324D01*
X0074043Y0058468D01*
X0073848Y0058617D01*
X0073656Y0058770D01*
X0073468Y0058928D01*
X0073284Y0059090D01*
X0073105Y0059258D01*
X0072929Y0059429D01*
X0072758Y0059605D01*
X0072590Y0059784D01*
X0072428Y0059968D01*
X0072270Y0060156D01*
X0072117Y0060348D01*
X0071968Y0060543D01*
X0071824Y0060742D01*
X0071685Y0060944D01*
X0071551Y0061150D01*
X0071423Y0061359D01*
X0071299Y0061571D01*
X0071181Y0061786D01*
X0071068Y0062004D01*
X0070960Y0062224D01*
X0070858Y0062448D01*
X0070761Y0062673D01*
X0070670Y0062901D01*
X0070585Y0063131D01*
X0070505Y0063363D01*
X0070431Y0063597D01*
X0070362Y0063833D01*
X0070300Y0064070D01*
X0070243Y0064309D01*
X0070192Y0064549D01*
X0070147Y0064790D01*
X0070108Y0065033D01*
X0070075Y0065276D01*
X0070048Y0065520D01*
X0070027Y0065764D01*
X0070012Y0066009D01*
X0070003Y0066255D01*
X0070000Y0066500D01*
X0105500Y0115000D02*
X0105500Y0128000D01*
X0105502Y0128087D01*
X0105508Y0128174D01*
X0105517Y0128261D01*
X0105530Y0128347D01*
X0105547Y0128433D01*
X0105568Y0128518D01*
X0105593Y0128601D01*
X0105621Y0128684D01*
X0105652Y0128765D01*
X0105687Y0128845D01*
X0105726Y0128923D01*
X0105768Y0129000D01*
X0105813Y0129075D01*
X0105862Y0129147D01*
X0105913Y0129218D01*
X0105968Y0129286D01*
X0106025Y0129351D01*
X0106086Y0129414D01*
X0106149Y0129475D01*
X0106214Y0129532D01*
X0106282Y0129587D01*
X0106353Y0129638D01*
X0106425Y0129687D01*
X0106500Y0129732D01*
X0106577Y0129774D01*
X0106655Y0129813D01*
X0106735Y0129848D01*
X0106816Y0129879D01*
X0106899Y0129907D01*
X0106982Y0129932D01*
X0107067Y0129953D01*
X0107153Y0129970D01*
X0107239Y0129983D01*
X0107326Y0129992D01*
X0107413Y0129998D01*
X0107500Y0130000D01*
X0110000Y0126500D02*
X0110000Y0122700D01*
X0110000Y0120200D02*
X0110000Y0116500D01*
X0112500Y0113000D02*
X0112587Y0113002D01*
X0112674Y0113008D01*
X0112761Y0113017D01*
X0112847Y0113030D01*
X0112933Y0113047D01*
X0113018Y0113068D01*
X0113101Y0113093D01*
X0113184Y0113121D01*
X0113265Y0113152D01*
X0113345Y0113187D01*
X0113423Y0113226D01*
X0113500Y0113268D01*
X0113575Y0113313D01*
X0113647Y0113362D01*
X0113718Y0113413D01*
X0113786Y0113468D01*
X0113851Y0113525D01*
X0113914Y0113586D01*
X0113975Y0113649D01*
X0114032Y0113714D01*
X0114087Y0113782D01*
X0114138Y0113853D01*
X0114187Y0113925D01*
X0114232Y0114000D01*
X0114274Y0114077D01*
X0114313Y0114155D01*
X0114348Y0114235D01*
X0114379Y0114316D01*
X0114407Y0114399D01*
X0114432Y0114482D01*
X0114453Y0114567D01*
X0114470Y0114653D01*
X0114483Y0114739D01*
X0114492Y0114826D01*
X0114498Y0114913D01*
X0114500Y0115000D01*
X0114500Y0128000D01*
X0114498Y0128087D01*
X0114492Y0128174D01*
X0114483Y0128261D01*
X0114470Y0128347D01*
X0114453Y0128433D01*
X0114432Y0128518D01*
X0114407Y0128601D01*
X0114379Y0128684D01*
X0114348Y0128765D01*
X0114313Y0128845D01*
X0114274Y0128923D01*
X0114232Y0129000D01*
X0114187Y0129075D01*
X0114138Y0129147D01*
X0114087Y0129218D01*
X0114032Y0129286D01*
X0113975Y0129351D01*
X0113914Y0129414D01*
X0113851Y0129475D01*
X0113786Y0129532D01*
X0113718Y0129587D01*
X0113647Y0129638D01*
X0113575Y0129687D01*
X0113500Y0129732D01*
X0113423Y0129774D01*
X0113345Y0129813D01*
X0113265Y0129848D01*
X0113184Y0129879D01*
X0113101Y0129907D01*
X0113018Y0129932D01*
X0112933Y0129953D01*
X0112847Y0129970D01*
X0112761Y0129983D01*
X0112674Y0129992D01*
X0112587Y0129998D01*
X0112500Y0130000D01*
X0105500Y0115000D02*
X0105502Y0114913D01*
X0105508Y0114826D01*
X0105517Y0114739D01*
X0105530Y0114653D01*
X0105547Y0114567D01*
X0105568Y0114482D01*
X0105593Y0114399D01*
X0105621Y0114316D01*
X0105652Y0114235D01*
X0105687Y0114155D01*
X0105726Y0114077D01*
X0105768Y0114000D01*
X0105813Y0113925D01*
X0105862Y0113853D01*
X0105913Y0113782D01*
X0105968Y0113714D01*
X0106025Y0113649D01*
X0106086Y0113586D01*
X0106149Y0113525D01*
X0106214Y0113468D01*
X0106282Y0113413D01*
X0106353Y0113362D01*
X0106425Y0113313D01*
X0106500Y0113268D01*
X0106577Y0113226D01*
X0106655Y0113187D01*
X0106735Y0113152D01*
X0106816Y0113121D01*
X0106899Y0113093D01*
X0106982Y0113068D01*
X0107067Y0113047D01*
X0107153Y0113030D01*
X0107239Y0113017D01*
X0107326Y0113008D01*
X0107413Y0113002D01*
X0107500Y0113000D01*
X0103500Y0154000D02*
X0096500Y0154000D01*
X0096440Y0154002D01*
X0096379Y0154007D01*
X0096320Y0154016D01*
X0096261Y0154029D01*
X0096202Y0154045D01*
X0096145Y0154065D01*
X0096090Y0154088D01*
X0096035Y0154115D01*
X0095983Y0154144D01*
X0095932Y0154177D01*
X0095883Y0154213D01*
X0095837Y0154251D01*
X0095793Y0154293D01*
X0095751Y0154337D01*
X0095713Y0154383D01*
X0095677Y0154432D01*
X0095644Y0154483D01*
X0095615Y0154535D01*
X0095588Y0154590D01*
X0095565Y0154645D01*
X0095545Y0154702D01*
X0095529Y0154761D01*
X0095516Y0154820D01*
X0095507Y0154879D01*
X0095502Y0154940D01*
X0095500Y0155000D01*
X0095500Y0156500D01*
X0096000Y0157000D01*
X0096000Y0176000D01*
X0095500Y0176500D01*
X0095500Y0178000D01*
X0095502Y0178060D01*
X0095507Y0178121D01*
X0095516Y0178180D01*
X0095529Y0178239D01*
X0095545Y0178298D01*
X0095565Y0178355D01*
X0095588Y0178410D01*
X0095615Y0178465D01*
X0095644Y0178517D01*
X0095677Y0178568D01*
X0095713Y0178617D01*
X0095751Y0178663D01*
X0095793Y0178707D01*
X0095837Y0178749D01*
X0095883Y0178787D01*
X0095932Y0178823D01*
X0095983Y0178856D01*
X0096035Y0178885D01*
X0096090Y0178912D01*
X0096145Y0178935D01*
X0096202Y0178955D01*
X0096261Y0178971D01*
X0096320Y0178984D01*
X0096379Y0178993D01*
X0096440Y0178998D01*
X0096500Y0179000D01*
X0103500Y0179000D01*
X0103560Y0178998D01*
X0103621Y0178993D01*
X0103680Y0178984D01*
X0103739Y0178971D01*
X0103798Y0178955D01*
X0103855Y0178935D01*
X0103910Y0178912D01*
X0103965Y0178885D01*
X0104017Y0178856D01*
X0104068Y0178823D01*
X0104117Y0178787D01*
X0104163Y0178749D01*
X0104207Y0178707D01*
X0104249Y0178663D01*
X0104287Y0178617D01*
X0104323Y0178568D01*
X0104356Y0178517D01*
X0104385Y0178465D01*
X0104412Y0178410D01*
X0104435Y0178355D01*
X0104455Y0178298D01*
X0104471Y0178239D01*
X0104484Y0178180D01*
X0104493Y0178121D01*
X0104498Y0178060D01*
X0104500Y0178000D01*
X0104500Y0176500D01*
X0104000Y0176000D01*
X0104000Y0157000D01*
X0104500Y0156500D01*
X0104500Y0155000D01*
X0104498Y0154940D01*
X0104493Y0154879D01*
X0104484Y0154820D01*
X0104471Y0154761D01*
X0104455Y0154702D01*
X0104435Y0154645D01*
X0104412Y0154590D01*
X0104385Y0154535D01*
X0104356Y0154483D01*
X0104323Y0154432D01*
X0104287Y0154383D01*
X0104249Y0154337D01*
X0104207Y0154293D01*
X0104163Y0154251D01*
X0104117Y0154213D01*
X0104068Y0154177D01*
X0104017Y0154144D01*
X0103965Y0154115D01*
X0103910Y0154088D01*
X0103855Y0154065D01*
X0103798Y0154045D01*
X0103739Y0154029D01*
X0103680Y0154016D01*
X0103621Y0154007D01*
X0103560Y0154002D01*
X0103500Y0154000D01*
X0115500Y0155000D02*
X0115500Y0156500D01*
X0116000Y0157000D01*
X0116000Y0176000D01*
X0115500Y0176500D01*
X0115500Y0178000D01*
X0115502Y0178060D01*
X0115507Y0178121D01*
X0115516Y0178180D01*
X0115529Y0178239D01*
X0115545Y0178298D01*
X0115565Y0178355D01*
X0115588Y0178410D01*
X0115615Y0178465D01*
X0115644Y0178517D01*
X0115677Y0178568D01*
X0115713Y0178617D01*
X0115751Y0178663D01*
X0115793Y0178707D01*
X0115837Y0178749D01*
X0115883Y0178787D01*
X0115932Y0178823D01*
X0115983Y0178856D01*
X0116035Y0178885D01*
X0116090Y0178912D01*
X0116145Y0178935D01*
X0116202Y0178955D01*
X0116261Y0178971D01*
X0116320Y0178984D01*
X0116379Y0178993D01*
X0116440Y0178998D01*
X0116500Y0179000D01*
X0123500Y0179000D01*
X0123560Y0178998D01*
X0123621Y0178993D01*
X0123680Y0178984D01*
X0123739Y0178971D01*
X0123798Y0178955D01*
X0123855Y0178935D01*
X0123910Y0178912D01*
X0123965Y0178885D01*
X0124017Y0178856D01*
X0124068Y0178823D01*
X0124117Y0178787D01*
X0124163Y0178749D01*
X0124207Y0178707D01*
X0124249Y0178663D01*
X0124287Y0178617D01*
X0124323Y0178568D01*
X0124356Y0178517D01*
X0124385Y0178465D01*
X0124412Y0178410D01*
X0124435Y0178355D01*
X0124455Y0178298D01*
X0124471Y0178239D01*
X0124484Y0178180D01*
X0124493Y0178121D01*
X0124498Y0178060D01*
X0124500Y0178000D01*
X0124500Y0176500D01*
X0124000Y0176000D01*
X0124000Y0157000D01*
X0124500Y0156500D01*
X0124500Y0155000D01*
X0124498Y0154940D01*
X0124493Y0154879D01*
X0124484Y0154820D01*
X0124471Y0154761D01*
X0124455Y0154702D01*
X0124435Y0154645D01*
X0124412Y0154590D01*
X0124385Y0154535D01*
X0124356Y0154483D01*
X0124323Y0154432D01*
X0124287Y0154383D01*
X0124249Y0154337D01*
X0124207Y0154293D01*
X0124163Y0154251D01*
X0124117Y0154213D01*
X0124068Y0154177D01*
X0124017Y0154144D01*
X0123965Y0154115D01*
X0123910Y0154088D01*
X0123855Y0154065D01*
X0123798Y0154045D01*
X0123739Y0154029D01*
X0123680Y0154016D01*
X0123621Y0154007D01*
X0123560Y0154002D01*
X0123500Y0154000D01*
X0116500Y0154000D01*
X0116440Y0154002D01*
X0116379Y0154007D01*
X0116320Y0154016D01*
X0116261Y0154029D01*
X0116202Y0154045D01*
X0116145Y0154065D01*
X0116090Y0154088D01*
X0116035Y0154115D01*
X0115983Y0154144D01*
X0115932Y0154177D01*
X0115883Y0154213D01*
X0115837Y0154251D01*
X0115793Y0154293D01*
X0115751Y0154337D01*
X0115713Y0154383D01*
X0115677Y0154432D01*
X0115644Y0154483D01*
X0115615Y0154535D01*
X0115588Y0154590D01*
X0115565Y0154645D01*
X0115545Y0154702D01*
X0115529Y0154761D01*
X0115516Y0154820D01*
X0115507Y0154879D01*
X0115502Y0154940D01*
X0115500Y0155000D01*
X0084500Y0170000D02*
X0084500Y0183000D01*
X0084498Y0183087D01*
X0084492Y0183174D01*
X0084483Y0183261D01*
X0084470Y0183347D01*
X0084453Y0183433D01*
X0084432Y0183518D01*
X0084407Y0183601D01*
X0084379Y0183684D01*
X0084348Y0183765D01*
X0084313Y0183845D01*
X0084274Y0183923D01*
X0084232Y0184000D01*
X0084187Y0184075D01*
X0084138Y0184147D01*
X0084087Y0184218D01*
X0084032Y0184286D01*
X0083975Y0184351D01*
X0083914Y0184414D01*
X0083851Y0184475D01*
X0083786Y0184532D01*
X0083718Y0184587D01*
X0083647Y0184638D01*
X0083575Y0184687D01*
X0083500Y0184732D01*
X0083423Y0184774D01*
X0083345Y0184813D01*
X0083265Y0184848D01*
X0083184Y0184879D01*
X0083101Y0184907D01*
X0083018Y0184932D01*
X0082933Y0184953D01*
X0082847Y0184970D01*
X0082761Y0184983D01*
X0082674Y0184992D01*
X0082587Y0184998D01*
X0082500Y0185000D01*
X0080000Y0181500D02*
X0080000Y0177800D01*
X0080000Y0175300D02*
X0080000Y0171500D01*
X0077500Y0168000D02*
X0077413Y0168002D01*
X0077326Y0168008D01*
X0077239Y0168017D01*
X0077153Y0168030D01*
X0077067Y0168047D01*
X0076982Y0168068D01*
X0076899Y0168093D01*
X0076816Y0168121D01*
X0076735Y0168152D01*
X0076655Y0168187D01*
X0076577Y0168226D01*
X0076500Y0168268D01*
X0076425Y0168313D01*
X0076353Y0168362D01*
X0076282Y0168413D01*
X0076214Y0168468D01*
X0076149Y0168525D01*
X0076086Y0168586D01*
X0076025Y0168649D01*
X0075968Y0168714D01*
X0075913Y0168782D01*
X0075862Y0168853D01*
X0075813Y0168925D01*
X0075768Y0169000D01*
X0075726Y0169077D01*
X0075687Y0169155D01*
X0075652Y0169235D01*
X0075621Y0169316D01*
X0075593Y0169399D01*
X0075568Y0169482D01*
X0075547Y0169567D01*
X0075530Y0169653D01*
X0075517Y0169739D01*
X0075508Y0169826D01*
X0075502Y0169913D01*
X0075500Y0170000D01*
X0075500Y0183000D01*
X0075502Y0183087D01*
X0075508Y0183174D01*
X0075517Y0183261D01*
X0075530Y0183347D01*
X0075547Y0183433D01*
X0075568Y0183518D01*
X0075593Y0183601D01*
X0075621Y0183684D01*
X0075652Y0183765D01*
X0075687Y0183845D01*
X0075726Y0183923D01*
X0075768Y0184000D01*
X0075813Y0184075D01*
X0075862Y0184147D01*
X0075913Y0184218D01*
X0075968Y0184286D01*
X0076025Y0184351D01*
X0076086Y0184414D01*
X0076149Y0184475D01*
X0076214Y0184532D01*
X0076282Y0184587D01*
X0076353Y0184638D01*
X0076425Y0184687D01*
X0076500Y0184732D01*
X0076577Y0184774D01*
X0076655Y0184813D01*
X0076735Y0184848D01*
X0076816Y0184879D01*
X0076899Y0184907D01*
X0076982Y0184932D01*
X0077067Y0184953D01*
X0077153Y0184970D01*
X0077239Y0184983D01*
X0077326Y0184992D01*
X0077413Y0184998D01*
X0077500Y0185000D01*
X0084500Y0170000D02*
X0084498Y0169913D01*
X0084492Y0169826D01*
X0084483Y0169739D01*
X0084470Y0169653D01*
X0084453Y0169567D01*
X0084432Y0169482D01*
X0084407Y0169399D01*
X0084379Y0169316D01*
X0084348Y0169235D01*
X0084313Y0169155D01*
X0084274Y0169077D01*
X0084232Y0169000D01*
X0084187Y0168925D01*
X0084138Y0168853D01*
X0084087Y0168782D01*
X0084032Y0168714D01*
X0083975Y0168649D01*
X0083914Y0168586D01*
X0083851Y0168525D01*
X0083786Y0168468D01*
X0083718Y0168413D01*
X0083647Y0168362D01*
X0083575Y0168313D01*
X0083500Y0168268D01*
X0083423Y0168226D01*
X0083345Y0168187D01*
X0083265Y0168152D01*
X0083184Y0168121D01*
X0083101Y0168093D01*
X0083018Y0168068D01*
X0082933Y0168047D01*
X0082847Y0168030D01*
X0082761Y0168017D01*
X0082674Y0168008D01*
X0082587Y0168002D01*
X0082500Y0168000D01*
X0059500Y0170000D02*
X0059500Y0171500D01*
X0059000Y0172000D01*
X0059000Y0191000D01*
X0059500Y0191500D01*
X0059500Y0193000D01*
X0059498Y0193060D01*
X0059493Y0193121D01*
X0059484Y0193180D01*
X0059471Y0193239D01*
X0059455Y0193298D01*
X0059435Y0193355D01*
X0059412Y0193410D01*
X0059385Y0193465D01*
X0059356Y0193517D01*
X0059323Y0193568D01*
X0059287Y0193617D01*
X0059249Y0193663D01*
X0059207Y0193707D01*
X0059163Y0193749D01*
X0059117Y0193787D01*
X0059068Y0193823D01*
X0059017Y0193856D01*
X0058965Y0193885D01*
X0058910Y0193912D01*
X0058855Y0193935D01*
X0058798Y0193955D01*
X0058739Y0193971D01*
X0058680Y0193984D01*
X0058621Y0193993D01*
X0058560Y0193998D01*
X0058500Y0194000D01*
X0051500Y0194000D01*
X0051440Y0193998D01*
X0051379Y0193993D01*
X0051320Y0193984D01*
X0051261Y0193971D01*
X0051202Y0193955D01*
X0051145Y0193935D01*
X0051090Y0193912D01*
X0051035Y0193885D01*
X0050983Y0193856D01*
X0050932Y0193823D01*
X0050883Y0193787D01*
X0050837Y0193749D01*
X0050793Y0193707D01*
X0050751Y0193663D01*
X0050713Y0193617D01*
X0050677Y0193568D01*
X0050644Y0193517D01*
X0050615Y0193465D01*
X0050588Y0193410D01*
X0050565Y0193355D01*
X0050545Y0193298D01*
X0050529Y0193239D01*
X0050516Y0193180D01*
X0050507Y0193121D01*
X0050502Y0193060D01*
X0050500Y0193000D01*
X0050500Y0191500D01*
X0051000Y0191000D01*
X0051000Y0172000D01*
X0050500Y0171500D01*
X0050500Y0170000D01*
X0050502Y0169940D01*
X0050507Y0169879D01*
X0050516Y0169820D01*
X0050529Y0169761D01*
X0050545Y0169702D01*
X0050565Y0169645D01*
X0050588Y0169590D01*
X0050615Y0169535D01*
X0050644Y0169483D01*
X0050677Y0169432D01*
X0050713Y0169383D01*
X0050751Y0169337D01*
X0050793Y0169293D01*
X0050837Y0169251D01*
X0050883Y0169213D01*
X0050932Y0169177D01*
X0050983Y0169144D01*
X0051035Y0169115D01*
X0051090Y0169088D01*
X0051145Y0169065D01*
X0051202Y0169045D01*
X0051261Y0169029D01*
X0051320Y0169016D01*
X0051379Y0169007D01*
X0051440Y0169002D01*
X0051500Y0169000D01*
X0058500Y0169000D01*
X0058560Y0169002D01*
X0058621Y0169007D01*
X0058680Y0169016D01*
X0058739Y0169029D01*
X0058798Y0169045D01*
X0058855Y0169065D01*
X0058910Y0169088D01*
X0058965Y0169115D01*
X0059017Y0169144D01*
X0059068Y0169177D01*
X0059117Y0169213D01*
X0059163Y0169251D01*
X0059207Y0169293D01*
X0059249Y0169337D01*
X0059287Y0169383D01*
X0059323Y0169432D01*
X0059356Y0169483D01*
X0059385Y0169535D01*
X0059412Y0169590D01*
X0059435Y0169645D01*
X0059455Y0169702D01*
X0059471Y0169761D01*
X0059484Y0169820D01*
X0059493Y0169879D01*
X0059498Y0169940D01*
X0059500Y0170000D01*
X0044500Y0161500D02*
X0044500Y0160000D01*
X0044498Y0159940D01*
X0044493Y0159879D01*
X0044484Y0159820D01*
X0044471Y0159761D01*
X0044455Y0159702D01*
X0044435Y0159645D01*
X0044412Y0159590D01*
X0044385Y0159535D01*
X0044356Y0159483D01*
X0044323Y0159432D01*
X0044287Y0159383D01*
X0044249Y0159337D01*
X0044207Y0159293D01*
X0044163Y0159251D01*
X0044117Y0159213D01*
X0044068Y0159177D01*
X0044017Y0159144D01*
X0043965Y0159115D01*
X0043910Y0159088D01*
X0043855Y0159065D01*
X0043798Y0159045D01*
X0043739Y0159029D01*
X0043680Y0159016D01*
X0043621Y0159007D01*
X0043560Y0159002D01*
X0043500Y0159000D01*
X0036500Y0159000D01*
X0036440Y0159002D01*
X0036379Y0159007D01*
X0036320Y0159016D01*
X0036261Y0159029D01*
X0036202Y0159045D01*
X0036145Y0159065D01*
X0036090Y0159088D01*
X0036035Y0159115D01*
X0035983Y0159144D01*
X0035932Y0159177D01*
X0035883Y0159213D01*
X0035837Y0159251D01*
X0035793Y0159293D01*
X0035751Y0159337D01*
X0035713Y0159383D01*
X0035677Y0159432D01*
X0035644Y0159483D01*
X0035615Y0159535D01*
X0035588Y0159590D01*
X0035565Y0159645D01*
X0035545Y0159702D01*
X0035529Y0159761D01*
X0035516Y0159820D01*
X0035507Y0159879D01*
X0035502Y0159940D01*
X0035500Y0160000D01*
X0035500Y0161500D01*
X0036000Y0162000D01*
X0036000Y0181000D01*
X0035500Y0181500D01*
X0035500Y0183000D01*
X0035502Y0183060D01*
X0035507Y0183121D01*
X0035516Y0183180D01*
X0035529Y0183239D01*
X0035545Y0183298D01*
X0035565Y0183355D01*
X0035588Y0183410D01*
X0035615Y0183465D01*
X0035644Y0183517D01*
X0035677Y0183568D01*
X0035713Y0183617D01*
X0035751Y0183663D01*
X0035793Y0183707D01*
X0035837Y0183749D01*
X0035883Y0183787D01*
X0035932Y0183823D01*
X0035983Y0183856D01*
X0036035Y0183885D01*
X0036090Y0183912D01*
X0036145Y0183935D01*
X0036202Y0183955D01*
X0036261Y0183971D01*
X0036320Y0183984D01*
X0036379Y0183993D01*
X0036440Y0183998D01*
X0036500Y0184000D01*
X0043500Y0184000D01*
X0043560Y0183998D01*
X0043621Y0183993D01*
X0043680Y0183984D01*
X0043739Y0183971D01*
X0043798Y0183955D01*
X0043855Y0183935D01*
X0043910Y0183912D01*
X0043965Y0183885D01*
X0044017Y0183856D01*
X0044068Y0183823D01*
X0044117Y0183787D01*
X0044163Y0183749D01*
X0044207Y0183707D01*
X0044249Y0183663D01*
X0044287Y0183617D01*
X0044323Y0183568D01*
X0044356Y0183517D01*
X0044385Y0183465D01*
X0044412Y0183410D01*
X0044435Y0183355D01*
X0044455Y0183298D01*
X0044471Y0183239D01*
X0044484Y0183180D01*
X0044493Y0183121D01*
X0044498Y0183060D01*
X0044500Y0183000D01*
X0044500Y0181500D01*
X0044000Y0181000D01*
X0044000Y0162000D01*
X0044500Y0161500D01*
X0080000Y0205000D02*
X0080000Y0228000D01*
X0150000Y0228000D01*
X0150000Y0220500D01*
X0149874Y0220498D01*
X0149749Y0220492D01*
X0149624Y0220482D01*
X0149499Y0220468D01*
X0149374Y0220451D01*
X0149250Y0220429D01*
X0149127Y0220404D01*
X0149005Y0220374D01*
X0148884Y0220341D01*
X0148764Y0220304D01*
X0148645Y0220264D01*
X0148528Y0220219D01*
X0148411Y0220171D01*
X0148297Y0220119D01*
X0148184Y0220064D01*
X0148073Y0220005D01*
X0147964Y0219943D01*
X0147857Y0219877D01*
X0147752Y0219808D01*
X0147649Y0219736D01*
X0147548Y0219661D01*
X0147450Y0219582D01*
X0147355Y0219500D01*
X0147262Y0219416D01*
X0147172Y0219328D01*
X0147084Y0219238D01*
X0147000Y0219145D01*
X0146918Y0219050D01*
X0146839Y0218952D01*
X0146764Y0218851D01*
X0146692Y0218748D01*
X0146623Y0218643D01*
X0146557Y0218536D01*
X0146495Y0218427D01*
X0146436Y0218316D01*
X0146381Y0218203D01*
X0146329Y0218089D01*
X0146281Y0217972D01*
X0146236Y0217855D01*
X0146196Y0217736D01*
X0146159Y0217616D01*
X0146126Y0217495D01*
X0146096Y0217373D01*
X0146071Y0217250D01*
X0146049Y0217126D01*
X0146032Y0217001D01*
X0146018Y0216876D01*
X0146008Y0216751D01*
X0146002Y0216626D01*
X0146000Y0216500D01*
X0146002Y0216374D01*
X0146008Y0216249D01*
X0146018Y0216124D01*
X0146032Y0215999D01*
X0146049Y0215874D01*
X0146071Y0215750D01*
X0146096Y0215627D01*
X0146126Y0215505D01*
X0146159Y0215384D01*
X0146196Y0215264D01*
X0146236Y0215145D01*
X0146281Y0215028D01*
X0146329Y0214911D01*
X0146381Y0214797D01*
X0146436Y0214684D01*
X0146495Y0214573D01*
X0146557Y0214464D01*
X0146623Y0214357D01*
X0146692Y0214252D01*
X0146764Y0214149D01*
X0146839Y0214048D01*
X0146918Y0213950D01*
X0147000Y0213855D01*
X0147084Y0213762D01*
X0147172Y0213672D01*
X0147262Y0213584D01*
X0147355Y0213500D01*
X0147450Y0213418D01*
X0147548Y0213339D01*
X0147649Y0213264D01*
X0147752Y0213192D01*
X0147857Y0213123D01*
X0147964Y0213057D01*
X0148073Y0212995D01*
X0148184Y0212936D01*
X0148297Y0212881D01*
X0148411Y0212829D01*
X0148528Y0212781D01*
X0148645Y0212736D01*
X0148764Y0212696D01*
X0148884Y0212659D01*
X0149005Y0212626D01*
X0149127Y0212596D01*
X0149250Y0212571D01*
X0149374Y0212549D01*
X0149499Y0212532D01*
X0149624Y0212518D01*
X0149749Y0212508D01*
X0149874Y0212502D01*
X0150000Y0212500D01*
X0150000Y0205000D01*
X0080000Y0205000D01*
X0078000Y0251500D02*
X0078000Y0253500D01*
X0079000Y0252500D02*
X0077000Y0252500D01*
X0075000Y0256500D02*
X0075003Y0256745D01*
X0075012Y0256991D01*
X0075027Y0257236D01*
X0075048Y0257480D01*
X0075075Y0257724D01*
X0075108Y0257967D01*
X0075147Y0258210D01*
X0075192Y0258451D01*
X0075243Y0258691D01*
X0075300Y0258930D01*
X0075362Y0259167D01*
X0075431Y0259403D01*
X0075505Y0259637D01*
X0075585Y0259869D01*
X0075670Y0260099D01*
X0075761Y0260327D01*
X0075858Y0260552D01*
X0075960Y0260776D01*
X0076068Y0260996D01*
X0076181Y0261214D01*
X0076299Y0261429D01*
X0076423Y0261641D01*
X0076551Y0261850D01*
X0076685Y0262056D01*
X0076824Y0262258D01*
X0076968Y0262457D01*
X0077117Y0262652D01*
X0077270Y0262844D01*
X0077428Y0263032D01*
X0077590Y0263216D01*
X0077758Y0263395D01*
X0077929Y0263571D01*
X0078105Y0263742D01*
X0078284Y0263910D01*
X0078468Y0264072D01*
X0078656Y0264230D01*
X0078848Y0264383D01*
X0079043Y0264532D01*
X0079242Y0264676D01*
X0079444Y0264815D01*
X0079650Y0264949D01*
X0079859Y0265077D01*
X0080071Y0265201D01*
X0080286Y0265319D01*
X0080504Y0265432D01*
X0080724Y0265540D01*
X0080948Y0265642D01*
X0081173Y0265739D01*
X0081401Y0265830D01*
X0081631Y0265915D01*
X0081863Y0265995D01*
X0082097Y0266069D01*
X0082333Y0266138D01*
X0082570Y0266200D01*
X0082809Y0266257D01*
X0083049Y0266308D01*
X0083290Y0266353D01*
X0083533Y0266392D01*
X0083776Y0266425D01*
X0084020Y0266452D01*
X0084264Y0266473D01*
X0084509Y0266488D01*
X0084755Y0266497D01*
X0085000Y0266500D01*
X0085245Y0266497D01*
X0085491Y0266488D01*
X0085736Y0266473D01*
X0085980Y0266452D01*
X0086224Y0266425D01*
X0086467Y0266392D01*
X0086710Y0266353D01*
X0086951Y0266308D01*
X0087191Y0266257D01*
X0087430Y0266200D01*
X0087667Y0266138D01*
X0087903Y0266069D01*
X0088137Y0265995D01*
X0088369Y0265915D01*
X0088599Y0265830D01*
X0088827Y0265739D01*
X0089052Y0265642D01*
X0089276Y0265540D01*
X0089496Y0265432D01*
X0089714Y0265319D01*
X0089929Y0265201D01*
X0090141Y0265077D01*
X0090350Y0264949D01*
X0090556Y0264815D01*
X0090758Y0264676D01*
X0090957Y0264532D01*
X0091152Y0264383D01*
X0091344Y0264230D01*
X0091532Y0264072D01*
X0091716Y0263910D01*
X0091895Y0263742D01*
X0092071Y0263571D01*
X0092242Y0263395D01*
X0092410Y0263216D01*
X0092572Y0263032D01*
X0092730Y0262844D01*
X0092883Y0262652D01*
X0093032Y0262457D01*
X0093176Y0262258D01*
X0093315Y0262056D01*
X0093449Y0261850D01*
X0093577Y0261641D01*
X0093701Y0261429D01*
X0093819Y0261214D01*
X0093932Y0260996D01*
X0094040Y0260776D01*
X0094142Y0260552D01*
X0094239Y0260327D01*
X0094330Y0260099D01*
X0094415Y0259869D01*
X0094495Y0259637D01*
X0094569Y0259403D01*
X0094638Y0259167D01*
X0094700Y0258930D01*
X0094757Y0258691D01*
X0094808Y0258451D01*
X0094853Y0258210D01*
X0094892Y0257967D01*
X0094925Y0257724D01*
X0094952Y0257480D01*
X0094973Y0257236D01*
X0094988Y0256991D01*
X0094997Y0256745D01*
X0095000Y0256500D01*
X0094997Y0256255D01*
X0094988Y0256009D01*
X0094973Y0255764D01*
X0094952Y0255520D01*
X0094925Y0255276D01*
X0094892Y0255033D01*
X0094853Y0254790D01*
X0094808Y0254549D01*
X0094757Y0254309D01*
X0094700Y0254070D01*
X0094638Y0253833D01*
X0094569Y0253597D01*
X0094495Y0253363D01*
X0094415Y0253131D01*
X0094330Y0252901D01*
X0094239Y0252673D01*
X0094142Y0252448D01*
X0094040Y0252224D01*
X0093932Y0252004D01*
X0093819Y0251786D01*
X0093701Y0251571D01*
X0093577Y0251359D01*
X0093449Y0251150D01*
X0093315Y0250944D01*
X0093176Y0250742D01*
X0093032Y0250543D01*
X0092883Y0250348D01*
X0092730Y0250156D01*
X0092572Y0249968D01*
X0092410Y0249784D01*
X0092242Y0249605D01*
X0092071Y0249429D01*
X0091895Y0249258D01*
X0091716Y0249090D01*
X0091532Y0248928D01*
X0091344Y0248770D01*
X0091152Y0248617D01*
X0090957Y0248468D01*
X0090758Y0248324D01*
X0090556Y0248185D01*
X0090350Y0248051D01*
X0090141Y0247923D01*
X0089929Y0247799D01*
X0089714Y0247681D01*
X0089496Y0247568D01*
X0089276Y0247460D01*
X0089052Y0247358D01*
X0088827Y0247261D01*
X0088599Y0247170D01*
X0088369Y0247085D01*
X0088137Y0247005D01*
X0087903Y0246931D01*
X0087667Y0246862D01*
X0087430Y0246800D01*
X0087191Y0246743D01*
X0086951Y0246692D01*
X0086710Y0246647D01*
X0086467Y0246608D01*
X0086224Y0246575D01*
X0085980Y0246548D01*
X0085736Y0246527D01*
X0085491Y0246512D01*
X0085245Y0246503D01*
X0085000Y0246500D01*
X0084755Y0246503D01*
X0084509Y0246512D01*
X0084264Y0246527D01*
X0084020Y0246548D01*
X0083776Y0246575D01*
X0083533Y0246608D01*
X0083290Y0246647D01*
X0083049Y0246692D01*
X0082809Y0246743D01*
X0082570Y0246800D01*
X0082333Y0246862D01*
X0082097Y0246931D01*
X0081863Y0247005D01*
X0081631Y0247085D01*
X0081401Y0247170D01*
X0081173Y0247261D01*
X0080948Y0247358D01*
X0080724Y0247460D01*
X0080504Y0247568D01*
X0080286Y0247681D01*
X0080071Y0247799D01*
X0079859Y0247923D01*
X0079650Y0248051D01*
X0079444Y0248185D01*
X0079242Y0248324D01*
X0079043Y0248468D01*
X0078848Y0248617D01*
X0078656Y0248770D01*
X0078468Y0248928D01*
X0078284Y0249090D01*
X0078105Y0249258D01*
X0077929Y0249429D01*
X0077758Y0249605D01*
X0077590Y0249784D01*
X0077428Y0249968D01*
X0077270Y0250156D01*
X0077117Y0250348D01*
X0076968Y0250543D01*
X0076824Y0250742D01*
X0076685Y0250944D01*
X0076551Y0251150D01*
X0076423Y0251359D01*
X0076299Y0251571D01*
X0076181Y0251786D01*
X0076068Y0252004D01*
X0075960Y0252224D01*
X0075858Y0252448D01*
X0075761Y0252673D01*
X0075670Y0252901D01*
X0075585Y0253131D01*
X0075505Y0253363D01*
X0075431Y0253597D01*
X0075362Y0253833D01*
X0075300Y0254070D01*
X0075243Y0254309D01*
X0075192Y0254549D01*
X0075147Y0254790D01*
X0075108Y0255033D01*
X0075075Y0255276D01*
X0075048Y0255520D01*
X0075027Y0255764D01*
X0075012Y0256009D01*
X0075003Y0256255D01*
X0075000Y0256500D01*
X0112500Y0283000D02*
X0112500Y0290000D01*
X0112502Y0290060D01*
X0112507Y0290121D01*
X0112516Y0290180D01*
X0112529Y0290239D01*
X0112545Y0290298D01*
X0112565Y0290355D01*
X0112588Y0290410D01*
X0112615Y0290465D01*
X0112644Y0290517D01*
X0112677Y0290568D01*
X0112713Y0290617D01*
X0112751Y0290663D01*
X0112793Y0290707D01*
X0112837Y0290749D01*
X0112883Y0290787D01*
X0112932Y0290823D01*
X0112983Y0290856D01*
X0113035Y0290885D01*
X0113090Y0290912D01*
X0113145Y0290935D01*
X0113202Y0290955D01*
X0113261Y0290971D01*
X0113320Y0290984D01*
X0113379Y0290993D01*
X0113440Y0290998D01*
X0113500Y0291000D01*
X0115000Y0291000D01*
X0115500Y0290500D01*
X0134500Y0290500D01*
X0135000Y0291000D01*
X0136500Y0291000D01*
X0136560Y0290998D01*
X0136621Y0290993D01*
X0136680Y0290984D01*
X0136739Y0290971D01*
X0136798Y0290955D01*
X0136855Y0290935D01*
X0136910Y0290912D01*
X0136965Y0290885D01*
X0137017Y0290856D01*
X0137068Y0290823D01*
X0137117Y0290787D01*
X0137163Y0290749D01*
X0137207Y0290707D01*
X0137249Y0290663D01*
X0137287Y0290617D01*
X0137323Y0290568D01*
X0137356Y0290517D01*
X0137385Y0290465D01*
X0137412Y0290410D01*
X0137435Y0290355D01*
X0137455Y0290298D01*
X0137471Y0290239D01*
X0137484Y0290180D01*
X0137493Y0290121D01*
X0137498Y0290060D01*
X0137500Y0290000D01*
X0137500Y0283000D01*
X0137498Y0282940D01*
X0137493Y0282879D01*
X0137484Y0282820D01*
X0137471Y0282761D01*
X0137455Y0282702D01*
X0137435Y0282645D01*
X0137412Y0282590D01*
X0137385Y0282535D01*
X0137356Y0282483D01*
X0137323Y0282432D01*
X0137287Y0282383D01*
X0137249Y0282337D01*
X0137207Y0282293D01*
X0137163Y0282251D01*
X0137117Y0282213D01*
X0137068Y0282177D01*
X0137017Y0282144D01*
X0136965Y0282115D01*
X0136910Y0282088D01*
X0136855Y0282065D01*
X0136798Y0282045D01*
X0136739Y0282029D01*
X0136680Y0282016D01*
X0136621Y0282007D01*
X0136560Y0282002D01*
X0136500Y0282000D01*
X0135000Y0282000D01*
X0134500Y0282500D01*
X0115500Y0282500D01*
X0115000Y0282000D01*
X0113500Y0282000D01*
X0113440Y0282002D01*
X0113379Y0282007D01*
X0113320Y0282016D01*
X0113261Y0282029D01*
X0113202Y0282045D01*
X0113145Y0282065D01*
X0113090Y0282088D01*
X0113035Y0282115D01*
X0112983Y0282144D01*
X0112932Y0282177D01*
X0112883Y0282213D01*
X0112837Y0282251D01*
X0112793Y0282293D01*
X0112751Y0282337D01*
X0112713Y0282383D01*
X0112677Y0282432D01*
X0112644Y0282483D01*
X0112615Y0282535D01*
X0112588Y0282590D01*
X0112565Y0282645D01*
X0112545Y0282702D01*
X0112529Y0282761D01*
X0112516Y0282820D01*
X0112507Y0282879D01*
X0112502Y0282940D01*
X0112500Y0283000D01*
X0160000Y0228000D02*
X0160000Y0205000D01*
X0200000Y0205000D01*
X0200000Y0212500D01*
X0199874Y0212502D01*
X0199749Y0212508D01*
X0199624Y0212518D01*
X0199499Y0212532D01*
X0199374Y0212549D01*
X0199250Y0212571D01*
X0199127Y0212596D01*
X0199005Y0212626D01*
X0198884Y0212659D01*
X0198764Y0212696D01*
X0198645Y0212736D01*
X0198528Y0212781D01*
X0198411Y0212829D01*
X0198297Y0212881D01*
X0198184Y0212936D01*
X0198073Y0212995D01*
X0197964Y0213057D01*
X0197857Y0213123D01*
X0197752Y0213192D01*
X0197649Y0213264D01*
X0197548Y0213339D01*
X0197450Y0213418D01*
X0197355Y0213500D01*
X0197262Y0213584D01*
X0197172Y0213672D01*
X0197084Y0213762D01*
X0197000Y0213855D01*
X0196918Y0213950D01*
X0196839Y0214048D01*
X0196764Y0214149D01*
X0196692Y0214252D01*
X0196623Y0214357D01*
X0196557Y0214464D01*
X0196495Y0214573D01*
X0196436Y0214684D01*
X0196381Y0214797D01*
X0196329Y0214911D01*
X0196281Y0215028D01*
X0196236Y0215145D01*
X0196196Y0215264D01*
X0196159Y0215384D01*
X0196126Y0215505D01*
X0196096Y0215627D01*
X0196071Y0215750D01*
X0196049Y0215874D01*
X0196032Y0215999D01*
X0196018Y0216124D01*
X0196008Y0216249D01*
X0196002Y0216374D01*
X0196000Y0216500D01*
X0196002Y0216626D01*
X0196008Y0216751D01*
X0196018Y0216876D01*
X0196032Y0217001D01*
X0196049Y0217126D01*
X0196071Y0217250D01*
X0196096Y0217373D01*
X0196126Y0217495D01*
X0196159Y0217616D01*
X0196196Y0217736D01*
X0196236Y0217855D01*
X0196281Y0217972D01*
X0196329Y0218089D01*
X0196381Y0218203D01*
X0196436Y0218316D01*
X0196495Y0218427D01*
X0196557Y0218536D01*
X0196623Y0218643D01*
X0196692Y0218748D01*
X0196764Y0218851D01*
X0196839Y0218952D01*
X0196918Y0219050D01*
X0197000Y0219145D01*
X0197084Y0219238D01*
X0197172Y0219328D01*
X0197262Y0219416D01*
X0197355Y0219500D01*
X0197450Y0219582D01*
X0197548Y0219661D01*
X0197649Y0219736D01*
X0197752Y0219808D01*
X0197857Y0219877D01*
X0197964Y0219943D01*
X0198073Y0220005D01*
X0198184Y0220064D01*
X0198297Y0220119D01*
X0198411Y0220171D01*
X0198528Y0220219D01*
X0198645Y0220264D01*
X0198764Y0220304D01*
X0198884Y0220341D01*
X0199005Y0220374D01*
X0199127Y0220404D01*
X0199250Y0220429D01*
X0199374Y0220451D01*
X0199499Y0220468D01*
X0199624Y0220482D01*
X0199749Y0220492D01*
X0199874Y0220498D01*
X0200000Y0220500D01*
X0200000Y0228000D01*
X0160000Y0228000D01*
X0210000Y0229000D02*
X0227000Y0229000D01*
X0227000Y0229500D01*
X0233000Y0229500D01*
X0233000Y0229000D01*
X0238500Y0229000D01*
X0240000Y0231000D01*
X0242000Y0231000D01*
X0248000Y0231000D01*
X0250000Y0231000D01*
X0251500Y0229000D01*
X0302000Y0229000D01*
X0302000Y0233000D01*
X0302000Y0234000D01*
X0248000Y0234000D01*
X0242000Y0234000D01*
X0215000Y0234000D01*
X0215000Y0259000D01*
X0405000Y0259000D01*
X0405000Y0234000D01*
X0388000Y0234000D01*
X0382000Y0234000D01*
X0318000Y0234000D01*
X0318000Y0233000D01*
X0318000Y0229000D01*
X0302000Y0229000D01*
X0302000Y0234000D02*
X0302000Y0237000D01*
X0318000Y0237000D01*
X0318000Y0234000D01*
X0318000Y0229000D02*
X0378500Y0229000D01*
X0380000Y0231000D01*
X0382000Y0231000D01*
X0388000Y0231000D01*
X0388000Y0233000D01*
X0388000Y0234000D01*
X0388000Y0231000D02*
X0390000Y0231000D01*
X0391500Y0229000D01*
X0410000Y0229000D01*
X0410000Y0264000D01*
X0405000Y0264000D01*
X0405000Y0265000D01*
X0400000Y0265000D01*
X0400000Y0264000D01*
X0312500Y0264000D01*
X0312500Y0265000D01*
X0307500Y0265000D01*
X0307500Y0264000D01*
X0220000Y0264000D01*
X0220000Y0265000D01*
X0215000Y0265000D01*
X0215000Y0264000D01*
X0210000Y0264000D01*
X0210000Y0229000D01*
X0230000Y0208000D02*
X0230000Y0185000D01*
X0300000Y0185000D01*
X0300000Y0192500D01*
X0299874Y0192502D01*
X0299749Y0192508D01*
X0299624Y0192518D01*
X0299499Y0192532D01*
X0299374Y0192549D01*
X0299250Y0192571D01*
X0299127Y0192596D01*
X0299005Y0192626D01*
X0298884Y0192659D01*
X0298764Y0192696D01*
X0298645Y0192736D01*
X0298528Y0192781D01*
X0298411Y0192829D01*
X0298297Y0192881D01*
X0298184Y0192936D01*
X0298073Y0192995D01*
X0297964Y0193057D01*
X0297857Y0193123D01*
X0297752Y0193192D01*
X0297649Y0193264D01*
X0297548Y0193339D01*
X0297450Y0193418D01*
X0297355Y0193500D01*
X0297262Y0193584D01*
X0297172Y0193672D01*
X0297084Y0193762D01*
X0297000Y0193855D01*
X0296918Y0193950D01*
X0296839Y0194048D01*
X0296764Y0194149D01*
X0296692Y0194252D01*
X0296623Y0194357D01*
X0296557Y0194464D01*
X0296495Y0194573D01*
X0296436Y0194684D01*
X0296381Y0194797D01*
X0296329Y0194911D01*
X0296281Y0195028D01*
X0296236Y0195145D01*
X0296196Y0195264D01*
X0296159Y0195384D01*
X0296126Y0195505D01*
X0296096Y0195627D01*
X0296071Y0195750D01*
X0296049Y0195874D01*
X0296032Y0195999D01*
X0296018Y0196124D01*
X0296008Y0196249D01*
X0296002Y0196374D01*
X0296000Y0196500D01*
X0296002Y0196626D01*
X0296008Y0196751D01*
X0296018Y0196876D01*
X0296032Y0197001D01*
X0296049Y0197126D01*
X0296071Y0197250D01*
X0296096Y0197373D01*
X0296126Y0197495D01*
X0296159Y0197616D01*
X0296196Y0197736D01*
X0296236Y0197855D01*
X0296281Y0197972D01*
X0296329Y0198089D01*
X0296381Y0198203D01*
X0296436Y0198316D01*
X0296495Y0198427D01*
X0296557Y0198536D01*
X0296623Y0198643D01*
X0296692Y0198748D01*
X0296764Y0198851D01*
X0296839Y0198952D01*
X0296918Y0199050D01*
X0297000Y0199145D01*
X0297084Y0199238D01*
X0297172Y0199328D01*
X0297262Y0199416D01*
X0297355Y0199500D01*
X0297450Y0199582D01*
X0297548Y0199661D01*
X0297649Y0199736D01*
X0297752Y0199808D01*
X0297857Y0199877D01*
X0297964Y0199943D01*
X0298073Y0200005D01*
X0298184Y0200064D01*
X0298297Y0200119D01*
X0298411Y0200171D01*
X0298528Y0200219D01*
X0298645Y0200264D01*
X0298764Y0200304D01*
X0298884Y0200341D01*
X0299005Y0200374D01*
X0299127Y0200404D01*
X0299250Y0200429D01*
X0299374Y0200451D01*
X0299499Y0200468D01*
X0299624Y0200482D01*
X0299749Y0200492D01*
X0299874Y0200498D01*
X0300000Y0200500D01*
X0300000Y0208000D01*
X0230000Y0208000D01*
X0242000Y0231000D02*
X0242000Y0233000D01*
X0242000Y0234000D01*
X0248000Y0234000D02*
X0248000Y0233000D01*
X0248000Y0231000D01*
X0251500Y0279000D02*
X0302000Y0279000D01*
X0302000Y0283000D01*
X0302000Y0284000D01*
X0248000Y0284000D01*
X0242000Y0284000D01*
X0215000Y0284000D01*
X0215000Y0309000D01*
X0405000Y0309000D01*
X0405000Y0284000D01*
X0388000Y0284000D01*
X0382000Y0284000D01*
X0318000Y0284000D01*
X0318000Y0283000D01*
X0318000Y0279000D01*
X0302000Y0279000D01*
X0302000Y0284000D02*
X0302000Y0287000D01*
X0318000Y0287000D01*
X0318000Y0284000D01*
X0318000Y0279000D02*
X0378500Y0279000D01*
X0380000Y0281000D01*
X0382000Y0281000D01*
X0388000Y0281000D01*
X0388000Y0283000D01*
X0388000Y0284000D01*
X0388000Y0281000D02*
X0390000Y0281000D01*
X0391500Y0279000D01*
X0410000Y0279000D01*
X0410000Y0314000D01*
X0405000Y0314000D01*
X0405000Y0315000D01*
X0400000Y0315000D01*
X0400000Y0314000D01*
X0312500Y0314000D01*
X0312500Y0315000D01*
X0307500Y0315000D01*
X0307500Y0314000D01*
X0220000Y0314000D01*
X0220000Y0315000D01*
X0215000Y0315000D01*
X0215000Y0314000D01*
X0210000Y0314000D01*
X0210000Y0279000D01*
X0227000Y0279000D01*
X0227000Y0279500D01*
X0233000Y0279500D01*
X0233000Y0279000D01*
X0238500Y0279000D01*
X0240000Y0281000D01*
X0242000Y0281000D01*
X0248000Y0281000D01*
X0250000Y0281000D01*
X0251500Y0279000D01*
X0248000Y0281000D02*
X0248000Y0283000D01*
X0248000Y0284000D01*
X0242000Y0284000D02*
X0242000Y0283000D01*
X0242000Y0281000D01*
X0330000Y0208000D02*
X0330000Y0185000D01*
X0400000Y0185000D01*
X0400000Y0192500D01*
X0399874Y0192502D01*
X0399749Y0192508D01*
X0399624Y0192518D01*
X0399499Y0192532D01*
X0399374Y0192549D01*
X0399250Y0192571D01*
X0399127Y0192596D01*
X0399005Y0192626D01*
X0398884Y0192659D01*
X0398764Y0192696D01*
X0398645Y0192736D01*
X0398528Y0192781D01*
X0398411Y0192829D01*
X0398297Y0192881D01*
X0398184Y0192936D01*
X0398073Y0192995D01*
X0397964Y0193057D01*
X0397857Y0193123D01*
X0397752Y0193192D01*
X0397649Y0193264D01*
X0397548Y0193339D01*
X0397450Y0193418D01*
X0397355Y0193500D01*
X0397262Y0193584D01*
X0397172Y0193672D01*
X0397084Y0193762D01*
X0397000Y0193855D01*
X0396918Y0193950D01*
X0396839Y0194048D01*
X0396764Y0194149D01*
X0396692Y0194252D01*
X0396623Y0194357D01*
X0396557Y0194464D01*
X0396495Y0194573D01*
X0396436Y0194684D01*
X0396381Y0194797D01*
X0396329Y0194911D01*
X0396281Y0195028D01*
X0396236Y0195145D01*
X0396196Y0195264D01*
X0396159Y0195384D01*
X0396126Y0195505D01*
X0396096Y0195627D01*
X0396071Y0195750D01*
X0396049Y0195874D01*
X0396032Y0195999D01*
X0396018Y0196124D01*
X0396008Y0196249D01*
X0396002Y0196374D01*
X0396000Y0196500D01*
X0396002Y0196626D01*
X0396008Y0196751D01*
X0396018Y0196876D01*
X0396032Y0197001D01*
X0396049Y0197126D01*
X0396071Y0197250D01*
X0396096Y0197373D01*
X0396126Y0197495D01*
X0396159Y0197616D01*
X0396196Y0197736D01*
X0396236Y0197855D01*
X0396281Y0197972D01*
X0396329Y0198089D01*
X0396381Y0198203D01*
X0396436Y0198316D01*
X0396495Y0198427D01*
X0396557Y0198536D01*
X0396623Y0198643D01*
X0396692Y0198748D01*
X0396764Y0198851D01*
X0396839Y0198952D01*
X0396918Y0199050D01*
X0397000Y0199145D01*
X0397084Y0199238D01*
X0397172Y0199328D01*
X0397262Y0199416D01*
X0397355Y0199500D01*
X0397450Y0199582D01*
X0397548Y0199661D01*
X0397649Y0199736D01*
X0397752Y0199808D01*
X0397857Y0199877D01*
X0397964Y0199943D01*
X0398073Y0200005D01*
X0398184Y0200064D01*
X0398297Y0200119D01*
X0398411Y0200171D01*
X0398528Y0200219D01*
X0398645Y0200264D01*
X0398764Y0200304D01*
X0398884Y0200341D01*
X0399005Y0200374D01*
X0399127Y0200404D01*
X0399250Y0200429D01*
X0399374Y0200451D01*
X0399499Y0200468D01*
X0399624Y0200482D01*
X0399749Y0200492D01*
X0399874Y0200498D01*
X0400000Y0200500D01*
X0400000Y0208000D01*
X0330000Y0208000D01*
X0382000Y0231000D02*
X0382000Y0233000D01*
X0382000Y0234000D01*
X0382000Y0281000D02*
X0382000Y0283000D01*
X0382000Y0284000D01*
X0350000Y0163000D02*
X0280000Y0163000D01*
X0280000Y0140000D01*
X0350000Y0140000D01*
X0350000Y0147500D01*
X0349874Y0147502D01*
X0349749Y0147508D01*
X0349624Y0147518D01*
X0349499Y0147532D01*
X0349374Y0147549D01*
X0349250Y0147571D01*
X0349127Y0147596D01*
X0349005Y0147626D01*
X0348884Y0147659D01*
X0348764Y0147696D01*
X0348645Y0147736D01*
X0348528Y0147781D01*
X0348411Y0147829D01*
X0348297Y0147881D01*
X0348184Y0147936D01*
X0348073Y0147995D01*
X0347964Y0148057D01*
X0347857Y0148123D01*
X0347752Y0148192D01*
X0347649Y0148264D01*
X0347548Y0148339D01*
X0347450Y0148418D01*
X0347355Y0148500D01*
X0347262Y0148584D01*
X0347172Y0148672D01*
X0347084Y0148762D01*
X0347000Y0148855D01*
X0346918Y0148950D01*
X0346839Y0149048D01*
X0346764Y0149149D01*
X0346692Y0149252D01*
X0346623Y0149357D01*
X0346557Y0149464D01*
X0346495Y0149573D01*
X0346436Y0149684D01*
X0346381Y0149797D01*
X0346329Y0149911D01*
X0346281Y0150028D01*
X0346236Y0150145D01*
X0346196Y0150264D01*
X0346159Y0150384D01*
X0346126Y0150505D01*
X0346096Y0150627D01*
X0346071Y0150750D01*
X0346049Y0150874D01*
X0346032Y0150999D01*
X0346018Y0151124D01*
X0346008Y0151249D01*
X0346002Y0151374D01*
X0346000Y0151500D01*
X0346002Y0151626D01*
X0346008Y0151751D01*
X0346018Y0151876D01*
X0346032Y0152001D01*
X0346049Y0152126D01*
X0346071Y0152250D01*
X0346096Y0152373D01*
X0346126Y0152495D01*
X0346159Y0152616D01*
X0346196Y0152736D01*
X0346236Y0152855D01*
X0346281Y0152972D01*
X0346329Y0153089D01*
X0346381Y0153203D01*
X0346436Y0153316D01*
X0346495Y0153427D01*
X0346557Y0153536D01*
X0346623Y0153643D01*
X0346692Y0153748D01*
X0346764Y0153851D01*
X0346839Y0153952D01*
X0346918Y0154050D01*
X0347000Y0154145D01*
X0347084Y0154238D01*
X0347172Y0154328D01*
X0347262Y0154416D01*
X0347355Y0154500D01*
X0347450Y0154582D01*
X0347548Y0154661D01*
X0347649Y0154736D01*
X0347752Y0154808D01*
X0347857Y0154877D01*
X0347964Y0154943D01*
X0348073Y0155005D01*
X0348184Y0155064D01*
X0348297Y0155119D01*
X0348411Y0155171D01*
X0348528Y0155219D01*
X0348645Y0155264D01*
X0348764Y0155304D01*
X0348884Y0155341D01*
X0349005Y0155374D01*
X0349127Y0155404D01*
X0349250Y0155429D01*
X0349374Y0155451D01*
X0349499Y0155468D01*
X0349624Y0155482D01*
X0349749Y0155492D01*
X0349874Y0155498D01*
X0350000Y0155500D01*
X0350000Y0163000D01*
X0353500Y0121000D02*
X0366500Y0121000D01*
X0366587Y0120998D01*
X0366674Y0120992D01*
X0366761Y0120983D01*
X0366847Y0120970D01*
X0366933Y0120953D01*
X0367018Y0120932D01*
X0367101Y0120907D01*
X0367184Y0120879D01*
X0367265Y0120848D01*
X0367345Y0120813D01*
X0367423Y0120774D01*
X0367500Y0120732D01*
X0367575Y0120687D01*
X0367647Y0120638D01*
X0367718Y0120587D01*
X0367786Y0120532D01*
X0367851Y0120475D01*
X0367914Y0120414D01*
X0367975Y0120351D01*
X0368032Y0120286D01*
X0368087Y0120218D01*
X0368138Y0120147D01*
X0368187Y0120075D01*
X0368232Y0120000D01*
X0368274Y0119923D01*
X0368313Y0119845D01*
X0368348Y0119765D01*
X0368379Y0119684D01*
X0368407Y0119601D01*
X0368432Y0119518D01*
X0368453Y0119433D01*
X0368470Y0119347D01*
X0368483Y0119261D01*
X0368492Y0119174D01*
X0368498Y0119087D01*
X0368500Y0119000D01*
X0365000Y0116500D02*
X0361200Y0116500D01*
X0358700Y0116500D02*
X0355000Y0116500D01*
X0351500Y0119000D02*
X0351502Y0119087D01*
X0351508Y0119174D01*
X0351517Y0119261D01*
X0351530Y0119347D01*
X0351547Y0119433D01*
X0351568Y0119518D01*
X0351593Y0119601D01*
X0351621Y0119684D01*
X0351652Y0119765D01*
X0351687Y0119845D01*
X0351726Y0119923D01*
X0351768Y0120000D01*
X0351813Y0120075D01*
X0351862Y0120147D01*
X0351913Y0120218D01*
X0351968Y0120286D01*
X0352025Y0120351D01*
X0352086Y0120414D01*
X0352149Y0120475D01*
X0352214Y0120532D01*
X0352282Y0120587D01*
X0352353Y0120638D01*
X0352425Y0120687D01*
X0352500Y0120732D01*
X0352577Y0120774D01*
X0352655Y0120813D01*
X0352735Y0120848D01*
X0352816Y0120879D01*
X0352899Y0120907D01*
X0352982Y0120932D01*
X0353067Y0120953D01*
X0353153Y0120970D01*
X0353239Y0120983D01*
X0353326Y0120992D01*
X0353413Y0120998D01*
X0353500Y0121000D01*
X0351500Y0114000D02*
X0351502Y0113913D01*
X0351508Y0113826D01*
X0351517Y0113739D01*
X0351530Y0113653D01*
X0351547Y0113567D01*
X0351568Y0113482D01*
X0351593Y0113399D01*
X0351621Y0113316D01*
X0351652Y0113235D01*
X0351687Y0113155D01*
X0351726Y0113077D01*
X0351768Y0113000D01*
X0351813Y0112925D01*
X0351862Y0112853D01*
X0351913Y0112782D01*
X0351968Y0112714D01*
X0352025Y0112649D01*
X0352086Y0112586D01*
X0352149Y0112525D01*
X0352214Y0112468D01*
X0352282Y0112413D01*
X0352353Y0112362D01*
X0352425Y0112313D01*
X0352500Y0112268D01*
X0352577Y0112226D01*
X0352655Y0112187D01*
X0352735Y0112152D01*
X0352816Y0112121D01*
X0352899Y0112093D01*
X0352982Y0112068D01*
X0353067Y0112047D01*
X0353153Y0112030D01*
X0353239Y0112017D01*
X0353326Y0112008D01*
X0353413Y0112002D01*
X0353500Y0112000D01*
X0366500Y0112000D01*
X0366587Y0112002D01*
X0366674Y0112008D01*
X0366761Y0112017D01*
X0366847Y0112030D01*
X0366933Y0112047D01*
X0367018Y0112068D01*
X0367101Y0112093D01*
X0367184Y0112121D01*
X0367265Y0112152D01*
X0367345Y0112187D01*
X0367423Y0112226D01*
X0367500Y0112268D01*
X0367575Y0112313D01*
X0367647Y0112362D01*
X0367718Y0112413D01*
X0367786Y0112468D01*
X0367851Y0112525D01*
X0367914Y0112586D01*
X0367975Y0112649D01*
X0368032Y0112714D01*
X0368087Y0112782D01*
X0368138Y0112853D01*
X0368187Y0112925D01*
X0368232Y0113000D01*
X0368274Y0113077D01*
X0368313Y0113155D01*
X0368348Y0113235D01*
X0368379Y0113316D01*
X0368407Y0113399D01*
X0368432Y0113482D01*
X0368453Y0113567D01*
X0368470Y0113653D01*
X0368483Y0113739D01*
X0368492Y0113826D01*
X0368498Y0113913D01*
X0368500Y0114000D01*
X0361500Y0101000D02*
X0360000Y0101000D01*
X0359500Y0100500D01*
X0340500Y0100500D01*
X0340000Y0101000D01*
X0338500Y0101000D01*
X0338440Y0100998D01*
X0338379Y0100993D01*
X0338320Y0100984D01*
X0338261Y0100971D01*
X0338202Y0100955D01*
X0338145Y0100935D01*
X0338090Y0100912D01*
X0338035Y0100885D01*
X0337983Y0100856D01*
X0337932Y0100823D01*
X0337883Y0100787D01*
X0337837Y0100749D01*
X0337793Y0100707D01*
X0337751Y0100663D01*
X0337713Y0100617D01*
X0337677Y0100568D01*
X0337644Y0100517D01*
X0337615Y0100465D01*
X0337588Y0100410D01*
X0337565Y0100355D01*
X0337545Y0100298D01*
X0337529Y0100239D01*
X0337516Y0100180D01*
X0337507Y0100121D01*
X0337502Y0100060D01*
X0337500Y0100000D01*
X0337500Y0093000D01*
X0337502Y0092940D01*
X0337507Y0092879D01*
X0337516Y0092820D01*
X0337529Y0092761D01*
X0337545Y0092702D01*
X0337565Y0092645D01*
X0337588Y0092590D01*
X0337615Y0092535D01*
X0337644Y0092483D01*
X0337677Y0092432D01*
X0337713Y0092383D01*
X0337751Y0092337D01*
X0337793Y0092293D01*
X0337837Y0092251D01*
X0337883Y0092213D01*
X0337932Y0092177D01*
X0337983Y0092144D01*
X0338035Y0092115D01*
X0338090Y0092088D01*
X0338145Y0092065D01*
X0338202Y0092045D01*
X0338261Y0092029D01*
X0338320Y0092016D01*
X0338379Y0092007D01*
X0338440Y0092002D01*
X0338500Y0092000D01*
X0340000Y0092000D01*
X0340500Y0092500D01*
X0359500Y0092500D01*
X0360000Y0092000D01*
X0361500Y0092000D01*
X0361560Y0092002D01*
X0361621Y0092007D01*
X0361680Y0092016D01*
X0361739Y0092029D01*
X0361798Y0092045D01*
X0361855Y0092065D01*
X0361910Y0092088D01*
X0361965Y0092115D01*
X0362017Y0092144D01*
X0362068Y0092177D01*
X0362117Y0092213D01*
X0362163Y0092251D01*
X0362207Y0092293D01*
X0362249Y0092337D01*
X0362287Y0092383D01*
X0362323Y0092432D01*
X0362356Y0092483D01*
X0362385Y0092535D01*
X0362412Y0092590D01*
X0362435Y0092645D01*
X0362455Y0092702D01*
X0362471Y0092761D01*
X0362484Y0092820D01*
X0362493Y0092879D01*
X0362498Y0092940D01*
X0362500Y0093000D01*
X0362500Y0100000D01*
X0362498Y0100060D01*
X0362493Y0100121D01*
X0362484Y0100180D01*
X0362471Y0100239D01*
X0362455Y0100298D01*
X0362435Y0100355D01*
X0362412Y0100410D01*
X0362385Y0100465D01*
X0362356Y0100517D01*
X0362323Y0100568D01*
X0362287Y0100617D01*
X0362249Y0100663D01*
X0362207Y0100707D01*
X0362163Y0100749D01*
X0362117Y0100787D01*
X0362068Y0100823D01*
X0362017Y0100856D01*
X0361965Y0100885D01*
X0361910Y0100912D01*
X0361855Y0100935D01*
X0361798Y0100955D01*
X0361739Y0100971D01*
X0361680Y0100984D01*
X0361621Y0100993D01*
X0361560Y0100998D01*
X0361500Y0101000D01*
X0375000Y0073000D02*
X0375000Y0065500D01*
X0374874Y0065498D01*
X0374749Y0065492D01*
X0374624Y0065482D01*
X0374499Y0065468D01*
X0374374Y0065451D01*
X0374250Y0065429D01*
X0374127Y0065404D01*
X0374005Y0065374D01*
X0373884Y0065341D01*
X0373764Y0065304D01*
X0373645Y0065264D01*
X0373528Y0065219D01*
X0373411Y0065171D01*
X0373297Y0065119D01*
X0373184Y0065064D01*
X0373073Y0065005D01*
X0372964Y0064943D01*
X0372857Y0064877D01*
X0372752Y0064808D01*
X0372649Y0064736D01*
X0372548Y0064661D01*
X0372450Y0064582D01*
X0372355Y0064500D01*
X0372262Y0064416D01*
X0372172Y0064328D01*
X0372084Y0064238D01*
X0372000Y0064145D01*
X0371918Y0064050D01*
X0371839Y0063952D01*
X0371764Y0063851D01*
X0371692Y0063748D01*
X0371623Y0063643D01*
X0371557Y0063536D01*
X0371495Y0063427D01*
X0371436Y0063316D01*
X0371381Y0063203D01*
X0371329Y0063089D01*
X0371281Y0062972D01*
X0371236Y0062855D01*
X0371196Y0062736D01*
X0371159Y0062616D01*
X0371126Y0062495D01*
X0371096Y0062373D01*
X0371071Y0062250D01*
X0371049Y0062126D01*
X0371032Y0062001D01*
X0371018Y0061876D01*
X0371008Y0061751D01*
X0371002Y0061626D01*
X0371000Y0061500D01*
X0371002Y0061374D01*
X0371008Y0061249D01*
X0371018Y0061124D01*
X0371032Y0060999D01*
X0371049Y0060874D01*
X0371071Y0060750D01*
X0371096Y0060627D01*
X0371126Y0060505D01*
X0371159Y0060384D01*
X0371196Y0060264D01*
X0371236Y0060145D01*
X0371281Y0060028D01*
X0371329Y0059911D01*
X0371381Y0059797D01*
X0371436Y0059684D01*
X0371495Y0059573D01*
X0371557Y0059464D01*
X0371623Y0059357D01*
X0371692Y0059252D01*
X0371764Y0059149D01*
X0371839Y0059048D01*
X0371918Y0058950D01*
X0372000Y0058855D01*
X0372084Y0058762D01*
X0372172Y0058672D01*
X0372262Y0058584D01*
X0372355Y0058500D01*
X0372450Y0058418D01*
X0372548Y0058339D01*
X0372649Y0058264D01*
X0372752Y0058192D01*
X0372857Y0058123D01*
X0372964Y0058057D01*
X0373073Y0057995D01*
X0373184Y0057936D01*
X0373297Y0057881D01*
X0373411Y0057829D01*
X0373528Y0057781D01*
X0373645Y0057736D01*
X0373764Y0057696D01*
X0373884Y0057659D01*
X0374005Y0057626D01*
X0374127Y0057596D01*
X0374250Y0057571D01*
X0374374Y0057549D01*
X0374499Y0057532D01*
X0374624Y0057518D01*
X0374749Y0057508D01*
X0374874Y0057502D01*
X0375000Y0057500D01*
X0375000Y0050000D01*
X0305000Y0050000D01*
X0305000Y0073000D01*
X0375000Y0073000D01*
X0391000Y0075000D02*
X0391000Y0048000D01*
X0391003Y0047781D01*
X0391011Y0047562D01*
X0391024Y0047343D01*
X0391043Y0047125D01*
X0391067Y0046907D01*
X0391096Y0046690D01*
X0391130Y0046473D01*
X0391170Y0046258D01*
X0391215Y0046043D01*
X0391266Y0045830D01*
X0391321Y0045618D01*
X0391382Y0045407D01*
X0391447Y0045198D01*
X0391518Y0044991D01*
X0391594Y0044785D01*
X0391675Y0044581D01*
X0391760Y0044379D01*
X0391851Y0044180D01*
X0391946Y0043983D01*
X0392047Y0043788D01*
X0392152Y0043595D01*
X0392261Y0043405D01*
X0392375Y0043218D01*
X0392494Y0043034D01*
X0392617Y0042853D01*
X0392745Y0042675D01*
X0392877Y0042499D01*
X0393013Y0042328D01*
X0393153Y0042159D01*
X0393297Y0041994D01*
X0393445Y0041833D01*
X0393597Y0041675D01*
X0393753Y0041521D01*
X0393913Y0041371D01*
X0394076Y0041224D01*
X0394243Y0041082D01*
X0394413Y0040944D01*
X0394587Y0040810D01*
X0394763Y0040680D01*
X0394943Y0040555D01*
X0395126Y0040434D01*
X0395312Y0040318D01*
X0395500Y0040206D01*
X0395691Y0040099D01*
X0395885Y0039996D01*
X0396081Y0039898D01*
X0396279Y0039805D01*
X0396480Y0039717D01*
X0396683Y0039634D01*
X0396888Y0039555D01*
X0397094Y0039482D01*
X0397302Y0039414D01*
X0397512Y0039351D01*
X0397724Y0039293D01*
X0397936Y0039240D01*
X0398150Y0039192D01*
X0398365Y0039150D01*
X0398581Y0039113D01*
X0398798Y0039081D01*
X0399016Y0039054D01*
X0399234Y0039033D01*
X0399452Y0039017D01*
X0399671Y0039006D01*
X0399890Y0039001D01*
X0400110Y0039001D01*
X0400329Y0039006D01*
X0400548Y0039017D01*
X0400766Y0039033D01*
X0400984Y0039054D01*
X0401202Y0039081D01*
X0401419Y0039113D01*
X0401635Y0039150D01*
X0401850Y0039192D01*
X0402064Y0039240D01*
X0402276Y0039293D01*
X0402488Y0039351D01*
X0402698Y0039414D01*
X0402906Y0039482D01*
X0403112Y0039555D01*
X0403317Y0039634D01*
X0403520Y0039717D01*
X0403721Y0039805D01*
X0403919Y0039898D01*
X0404115Y0039996D01*
X0404309Y0040099D01*
X0404500Y0040206D01*
X0404688Y0040318D01*
X0404874Y0040434D01*
X0405057Y0040555D01*
X0405237Y0040680D01*
X0405413Y0040810D01*
X0405587Y0040944D01*
X0405757Y0041082D01*
X0405924Y0041224D01*
X0406087Y0041371D01*
X0406247Y0041521D01*
X0406403Y0041675D01*
X0406555Y0041833D01*
X0406703Y0041994D01*
X0406847Y0042159D01*
X0406987Y0042328D01*
X0407123Y0042499D01*
X0407255Y0042675D01*
X0407383Y0042853D01*
X0407506Y0043034D01*
X0407625Y0043218D01*
X0407739Y0043405D01*
X0407848Y0043595D01*
X0407953Y0043788D01*
X0408054Y0043983D01*
X0408149Y0044180D01*
X0408240Y0044379D01*
X0408325Y0044581D01*
X0408406Y0044785D01*
X0408482Y0044991D01*
X0408553Y0045198D01*
X0408618Y0045407D01*
X0408679Y0045618D01*
X0408734Y0045830D01*
X0408785Y0046043D01*
X0408830Y0046258D01*
X0408870Y0046473D01*
X0408904Y0046690D01*
X0408933Y0046907D01*
X0408957Y0047125D01*
X0408976Y0047343D01*
X0408989Y0047562D01*
X0408997Y0047781D01*
X0409000Y0048000D01*
X0409000Y0075000D01*
X0408997Y0075219D01*
X0408989Y0075438D01*
X0408976Y0075657D01*
X0408957Y0075875D01*
X0408933Y0076093D01*
X0408904Y0076310D01*
X0408870Y0076527D01*
X0408830Y0076742D01*
X0408785Y0076957D01*
X0408734Y0077170D01*
X0408679Y0077382D01*
X0408618Y0077593D01*
X0408553Y0077802D01*
X0408482Y0078009D01*
X0408406Y0078215D01*
X0408325Y0078419D01*
X0408240Y0078621D01*
X0408149Y0078820D01*
X0408054Y0079017D01*
X0407953Y0079212D01*
X0407848Y0079405D01*
X0407739Y0079595D01*
X0407625Y0079782D01*
X0407506Y0079966D01*
X0407383Y0080147D01*
X0407255Y0080325D01*
X0407123Y0080501D01*
X0406987Y0080672D01*
X0406847Y0080841D01*
X0406703Y0081006D01*
X0406555Y0081167D01*
X0406403Y0081325D01*
X0406247Y0081479D01*
X0406087Y0081629D01*
X0405924Y0081776D01*
X0405757Y0081918D01*
X0405587Y0082056D01*
X0405413Y0082190D01*
X0405237Y0082320D01*
X0405057Y0082445D01*
X0404874Y0082566D01*
X0404688Y0082682D01*
X0404500Y0082794D01*
X0404309Y0082901D01*
X0404115Y0083004D01*
X0403919Y0083102D01*
X0403721Y0083195D01*
X0403520Y0083283D01*
X0403317Y0083366D01*
X0403112Y0083445D01*
X0402906Y0083518D01*
X0402698Y0083586D01*
X0402488Y0083649D01*
X0402276Y0083707D01*
X0402064Y0083760D01*
X0401850Y0083808D01*
X0401635Y0083850D01*
X0401419Y0083887D01*
X0401202Y0083919D01*
X0400984Y0083946D01*
X0400766Y0083967D01*
X0400548Y0083983D01*
X0400329Y0083994D01*
X0400110Y0083999D01*
X0399890Y0083999D01*
X0399671Y0083994D01*
X0399452Y0083983D01*
X0399234Y0083967D01*
X0399016Y0083946D01*
X0398798Y0083919D01*
X0398581Y0083887D01*
X0398365Y0083850D01*
X0398150Y0083808D01*
X0397936Y0083760D01*
X0397724Y0083707D01*
X0397512Y0083649D01*
X0397302Y0083586D01*
X0397094Y0083518D01*
X0396888Y0083445D01*
X0396683Y0083366D01*
X0396480Y0083283D01*
X0396279Y0083195D01*
X0396081Y0083102D01*
X0395885Y0083004D01*
X0395691Y0082901D01*
X0395500Y0082794D01*
X0395312Y0082682D01*
X0395126Y0082566D01*
X0394943Y0082445D01*
X0394763Y0082320D01*
X0394587Y0082190D01*
X0394413Y0082056D01*
X0394243Y0081918D01*
X0394076Y0081776D01*
X0393913Y0081629D01*
X0393753Y0081479D01*
X0393597Y0081325D01*
X0393445Y0081167D01*
X0393297Y0081006D01*
X0393153Y0080841D01*
X0393013Y0080672D01*
X0392877Y0080501D01*
X0392745Y0080325D01*
X0392617Y0080147D01*
X0392494Y0079966D01*
X0392375Y0079782D01*
X0392261Y0079595D01*
X0392152Y0079405D01*
X0392047Y0079212D01*
X0391946Y0079017D01*
X0391851Y0078820D01*
X0391760Y0078621D01*
X0391675Y0078419D01*
X0391594Y0078215D01*
X0391518Y0078009D01*
X0391447Y0077802D01*
X0391382Y0077593D01*
X0391321Y0077382D01*
X0391266Y0077170D01*
X0391215Y0076957D01*
X0391170Y0076742D01*
X0391130Y0076527D01*
X0391096Y0076310D01*
X0391067Y0076093D01*
X0391043Y0075875D01*
X0391024Y0075657D01*
X0391011Y0075438D01*
X0391003Y0075219D01*
X0391000Y0075000D01*
X0386500Y0031000D02*
X0373500Y0031000D01*
X0373413Y0030998D01*
X0373326Y0030992D01*
X0373239Y0030983D01*
X0373153Y0030970D01*
X0373067Y0030953D01*
X0372982Y0030932D01*
X0372899Y0030907D01*
X0372816Y0030879D01*
X0372735Y0030848D01*
X0372655Y0030813D01*
X0372577Y0030774D01*
X0372500Y0030732D01*
X0372425Y0030687D01*
X0372353Y0030638D01*
X0372282Y0030587D01*
X0372214Y0030532D01*
X0372149Y0030475D01*
X0372086Y0030414D01*
X0372025Y0030351D01*
X0371968Y0030286D01*
X0371913Y0030218D01*
X0371862Y0030147D01*
X0371813Y0030075D01*
X0371768Y0030000D01*
X0371726Y0029923D01*
X0371687Y0029845D01*
X0371652Y0029765D01*
X0371621Y0029684D01*
X0371593Y0029601D01*
X0371568Y0029518D01*
X0371547Y0029433D01*
X0371530Y0029347D01*
X0371517Y0029261D01*
X0371508Y0029174D01*
X0371502Y0029087D01*
X0371500Y0029000D01*
X0375000Y0026500D02*
X0378700Y0026500D01*
X0381200Y0026500D02*
X0385000Y0026500D01*
X0388500Y0024000D02*
X0388498Y0023913D01*
X0388492Y0023826D01*
X0388483Y0023739D01*
X0388470Y0023653D01*
X0388453Y0023567D01*
X0388432Y0023482D01*
X0388407Y0023399D01*
X0388379Y0023316D01*
X0388348Y0023235D01*
X0388313Y0023155D01*
X0388274Y0023077D01*
X0388232Y0023000D01*
X0388187Y0022925D01*
X0388138Y0022853D01*
X0388087Y0022782D01*
X0388032Y0022714D01*
X0387975Y0022649D01*
X0387914Y0022586D01*
X0387851Y0022525D01*
X0387786Y0022468D01*
X0387718Y0022413D01*
X0387647Y0022362D01*
X0387575Y0022313D01*
X0387500Y0022268D01*
X0387423Y0022226D01*
X0387345Y0022187D01*
X0387265Y0022152D01*
X0387184Y0022121D01*
X0387101Y0022093D01*
X0387018Y0022068D01*
X0386933Y0022047D01*
X0386847Y0022030D01*
X0386761Y0022017D01*
X0386674Y0022008D01*
X0386587Y0022002D01*
X0386500Y0022000D01*
X0373500Y0022000D01*
X0373413Y0022002D01*
X0373326Y0022008D01*
X0373239Y0022017D01*
X0373153Y0022030D01*
X0373067Y0022047D01*
X0372982Y0022068D01*
X0372899Y0022093D01*
X0372816Y0022121D01*
X0372735Y0022152D01*
X0372655Y0022187D01*
X0372577Y0022226D01*
X0372500Y0022268D01*
X0372425Y0022313D01*
X0372353Y0022362D01*
X0372282Y0022413D01*
X0372214Y0022468D01*
X0372149Y0022525D01*
X0372086Y0022586D01*
X0372025Y0022649D01*
X0371968Y0022714D01*
X0371913Y0022782D01*
X0371862Y0022853D01*
X0371813Y0022925D01*
X0371768Y0023000D01*
X0371726Y0023077D01*
X0371687Y0023155D01*
X0371652Y0023235D01*
X0371621Y0023316D01*
X0371593Y0023399D01*
X0371568Y0023482D01*
X0371547Y0023567D01*
X0371530Y0023653D01*
X0371517Y0023739D01*
X0371508Y0023826D01*
X0371502Y0023913D01*
X0371500Y0024000D01*
X0386500Y0031000D02*
X0386587Y0030998D01*
X0386674Y0030992D01*
X0386761Y0030983D01*
X0386847Y0030970D01*
X0386933Y0030953D01*
X0387018Y0030932D01*
X0387101Y0030907D01*
X0387184Y0030879D01*
X0387265Y0030848D01*
X0387345Y0030813D01*
X0387423Y0030774D01*
X0387500Y0030732D01*
X0387575Y0030687D01*
X0387647Y0030638D01*
X0387718Y0030587D01*
X0387786Y0030532D01*
X0387851Y0030475D01*
X0387914Y0030414D01*
X0387975Y0030351D01*
X0388032Y0030286D01*
X0388087Y0030218D01*
X0388138Y0030147D01*
X0388187Y0030075D01*
X0388232Y0030000D01*
X0388274Y0029923D01*
X0388313Y0029845D01*
X0388348Y0029765D01*
X0388379Y0029684D01*
X0388407Y0029601D01*
X0388432Y0029518D01*
X0388453Y0029433D01*
X0388470Y0029347D01*
X0388483Y0029261D01*
X0388492Y0029174D01*
X0388498Y0029087D01*
X0388500Y0029000D01*
X0347500Y0030000D02*
X0347500Y0023000D01*
X0347498Y0022940D01*
X0347493Y0022879D01*
X0347484Y0022820D01*
X0347471Y0022761D01*
X0347455Y0022702D01*
X0347435Y0022645D01*
X0347412Y0022590D01*
X0347385Y0022535D01*
X0347356Y0022483D01*
X0347323Y0022432D01*
X0347287Y0022383D01*
X0347249Y0022337D01*
X0347207Y0022293D01*
X0347163Y0022251D01*
X0347117Y0022213D01*
X0347068Y0022177D01*
X0347017Y0022144D01*
X0346965Y0022115D01*
X0346910Y0022088D01*
X0346855Y0022065D01*
X0346798Y0022045D01*
X0346739Y0022029D01*
X0346680Y0022016D01*
X0346621Y0022007D01*
X0346560Y0022002D01*
X0346500Y0022000D01*
X0345000Y0022000D01*
X0344500Y0022500D01*
X0325500Y0022500D01*
X0325000Y0022000D01*
X0323500Y0022000D01*
X0323440Y0022002D01*
X0323379Y0022007D01*
X0323320Y0022016D01*
X0323261Y0022029D01*
X0323202Y0022045D01*
X0323145Y0022065D01*
X0323090Y0022088D01*
X0323035Y0022115D01*
X0322983Y0022144D01*
X0322932Y0022177D01*
X0322883Y0022213D01*
X0322837Y0022251D01*
X0322793Y0022293D01*
X0322751Y0022337D01*
X0322713Y0022383D01*
X0322677Y0022432D01*
X0322644Y0022483D01*
X0322615Y0022535D01*
X0322588Y0022590D01*
X0322565Y0022645D01*
X0322545Y0022702D01*
X0322529Y0022761D01*
X0322516Y0022820D01*
X0322507Y0022879D01*
X0322502Y0022940D01*
X0322500Y0023000D01*
X0322500Y0030000D01*
X0322502Y0030060D01*
X0322507Y0030121D01*
X0322516Y0030180D01*
X0322529Y0030239D01*
X0322545Y0030298D01*
X0322565Y0030355D01*
X0322588Y0030410D01*
X0322615Y0030465D01*
X0322644Y0030517D01*
X0322677Y0030568D01*
X0322713Y0030617D01*
X0322751Y0030663D01*
X0322793Y0030707D01*
X0322837Y0030749D01*
X0322883Y0030787D01*
X0322932Y0030823D01*
X0322983Y0030856D01*
X0323035Y0030885D01*
X0323090Y0030912D01*
X0323145Y0030935D01*
X0323202Y0030955D01*
X0323261Y0030971D01*
X0323320Y0030984D01*
X0323379Y0030993D01*
X0323440Y0030998D01*
X0323500Y0031000D01*
X0325000Y0031000D01*
X0325500Y0030500D01*
X0344500Y0030500D01*
X0345000Y0031000D01*
X0346500Y0031000D01*
X0346560Y0030998D01*
X0346621Y0030993D01*
X0346680Y0030984D01*
X0346739Y0030971D01*
X0346798Y0030955D01*
X0346855Y0030935D01*
X0346910Y0030912D01*
X0346965Y0030885D01*
X0347017Y0030856D01*
X0347068Y0030823D01*
X0347117Y0030787D01*
X0347163Y0030749D01*
X0347207Y0030707D01*
X0347249Y0030663D01*
X0347287Y0030617D01*
X0347323Y0030568D01*
X0347356Y0030517D01*
X0347385Y0030465D01*
X0347412Y0030410D01*
X0347435Y0030355D01*
X0347455Y0030298D01*
X0347471Y0030239D01*
X0347484Y0030180D01*
X0347493Y0030121D01*
X0347498Y0030060D01*
X0347500Y0030000D01*
X0284500Y0070000D02*
X0284500Y0083000D01*
X0284498Y0083087D01*
X0284492Y0083174D01*
X0284483Y0083261D01*
X0284470Y0083347D01*
X0284453Y0083433D01*
X0284432Y0083518D01*
X0284407Y0083601D01*
X0284379Y0083684D01*
X0284348Y0083765D01*
X0284313Y0083845D01*
X0284274Y0083923D01*
X0284232Y0084000D01*
X0284187Y0084075D01*
X0284138Y0084147D01*
X0284087Y0084218D01*
X0284032Y0084286D01*
X0283975Y0084351D01*
X0283914Y0084414D01*
X0283851Y0084475D01*
X0283786Y0084532D01*
X0283718Y0084587D01*
X0283647Y0084638D01*
X0283575Y0084687D01*
X0283500Y0084732D01*
X0283423Y0084774D01*
X0283345Y0084813D01*
X0283265Y0084848D01*
X0283184Y0084879D01*
X0283101Y0084907D01*
X0283018Y0084932D01*
X0282933Y0084953D01*
X0282847Y0084970D01*
X0282761Y0084983D01*
X0282674Y0084992D01*
X0282587Y0084998D01*
X0282500Y0085000D01*
X0280000Y0081500D02*
X0280000Y0077700D01*
X0280000Y0075200D02*
X0280000Y0071500D01*
X0282500Y0068000D02*
X0282587Y0068002D01*
X0282674Y0068008D01*
X0282761Y0068017D01*
X0282847Y0068030D01*
X0282933Y0068047D01*
X0283018Y0068068D01*
X0283101Y0068093D01*
X0283184Y0068121D01*
X0283265Y0068152D01*
X0283345Y0068187D01*
X0283423Y0068226D01*
X0283500Y0068268D01*
X0283575Y0068313D01*
X0283647Y0068362D01*
X0283718Y0068413D01*
X0283786Y0068468D01*
X0283851Y0068525D01*
X0283914Y0068586D01*
X0283975Y0068649D01*
X0284032Y0068714D01*
X0284087Y0068782D01*
X0284138Y0068853D01*
X0284187Y0068925D01*
X0284232Y0069000D01*
X0284274Y0069077D01*
X0284313Y0069155D01*
X0284348Y0069235D01*
X0284379Y0069316D01*
X0284407Y0069399D01*
X0284432Y0069482D01*
X0284453Y0069567D01*
X0284470Y0069653D01*
X0284483Y0069739D01*
X0284492Y0069826D01*
X0284498Y0069913D01*
X0284500Y0070000D01*
X0277500Y0068000D02*
X0277413Y0068002D01*
X0277326Y0068008D01*
X0277239Y0068017D01*
X0277153Y0068030D01*
X0277067Y0068047D01*
X0276982Y0068068D01*
X0276899Y0068093D01*
X0276816Y0068121D01*
X0276735Y0068152D01*
X0276655Y0068187D01*
X0276577Y0068226D01*
X0276500Y0068268D01*
X0276425Y0068313D01*
X0276353Y0068362D01*
X0276282Y0068413D01*
X0276214Y0068468D01*
X0276149Y0068525D01*
X0276086Y0068586D01*
X0276025Y0068649D01*
X0275968Y0068714D01*
X0275913Y0068782D01*
X0275862Y0068853D01*
X0275813Y0068925D01*
X0275768Y0069000D01*
X0275726Y0069077D01*
X0275687Y0069155D01*
X0275652Y0069235D01*
X0275621Y0069316D01*
X0275593Y0069399D01*
X0275568Y0069482D01*
X0275547Y0069567D01*
X0275530Y0069653D01*
X0275517Y0069739D01*
X0275508Y0069826D01*
X0275502Y0069913D01*
X0275500Y0070000D01*
X0275500Y0083000D01*
X0275502Y0083087D01*
X0275508Y0083174D01*
X0275517Y0083261D01*
X0275530Y0083347D01*
X0275547Y0083433D01*
X0275568Y0083518D01*
X0275593Y0083601D01*
X0275621Y0083684D01*
X0275652Y0083765D01*
X0275687Y0083845D01*
X0275726Y0083923D01*
X0275768Y0084000D01*
X0275813Y0084075D01*
X0275862Y0084147D01*
X0275913Y0084218D01*
X0275968Y0084286D01*
X0276025Y0084351D01*
X0276086Y0084414D01*
X0276149Y0084475D01*
X0276214Y0084532D01*
X0276282Y0084587D01*
X0276353Y0084638D01*
X0276425Y0084687D01*
X0276500Y0084732D01*
X0276577Y0084774D01*
X0276655Y0084813D01*
X0276735Y0084848D01*
X0276816Y0084879D01*
X0276899Y0084907D01*
X0276982Y0084932D01*
X0277067Y0084953D01*
X0277153Y0084970D01*
X0277239Y0084983D01*
X0277326Y0084992D01*
X0277413Y0084998D01*
X0277500Y0085000D01*
X0179500Y0145000D02*
X0179500Y0146500D01*
X0179000Y0147000D01*
X0179000Y0166000D01*
X0179500Y0166500D01*
X0179500Y0168000D01*
X0179498Y0168060D01*
X0179493Y0168121D01*
X0179484Y0168180D01*
X0179471Y0168239D01*
X0179455Y0168298D01*
X0179435Y0168355D01*
X0179412Y0168410D01*
X0179385Y0168465D01*
X0179356Y0168517D01*
X0179323Y0168568D01*
X0179287Y0168617D01*
X0179249Y0168663D01*
X0179207Y0168707D01*
X0179163Y0168749D01*
X0179117Y0168787D01*
X0179068Y0168823D01*
X0179017Y0168856D01*
X0178965Y0168885D01*
X0178910Y0168912D01*
X0178855Y0168935D01*
X0178798Y0168955D01*
X0178739Y0168971D01*
X0178680Y0168984D01*
X0178621Y0168993D01*
X0178560Y0168998D01*
X0178500Y0169000D01*
X0171500Y0169000D01*
X0171440Y0168998D01*
X0171379Y0168993D01*
X0171320Y0168984D01*
X0171261Y0168971D01*
X0171202Y0168955D01*
X0171145Y0168935D01*
X0171090Y0168912D01*
X0171035Y0168885D01*
X0170983Y0168856D01*
X0170932Y0168823D01*
X0170883Y0168787D01*
X0170837Y0168749D01*
X0170793Y0168707D01*
X0170751Y0168663D01*
X0170713Y0168617D01*
X0170677Y0168568D01*
X0170644Y0168517D01*
X0170615Y0168465D01*
X0170588Y0168410D01*
X0170565Y0168355D01*
X0170545Y0168298D01*
X0170529Y0168239D01*
X0170516Y0168180D01*
X0170507Y0168121D01*
X0170502Y0168060D01*
X0170500Y0168000D01*
X0170500Y0166500D01*
X0171000Y0166000D01*
X0171000Y0147000D01*
X0170500Y0146500D01*
X0170500Y0145000D01*
X0170502Y0144940D01*
X0170507Y0144879D01*
X0170516Y0144820D01*
X0170529Y0144761D01*
X0170545Y0144702D01*
X0170565Y0144645D01*
X0170588Y0144590D01*
X0170615Y0144535D01*
X0170644Y0144483D01*
X0170677Y0144432D01*
X0170713Y0144383D01*
X0170751Y0144337D01*
X0170793Y0144293D01*
X0170837Y0144251D01*
X0170883Y0144213D01*
X0170932Y0144177D01*
X0170983Y0144144D01*
X0171035Y0144115D01*
X0171090Y0144088D01*
X0171145Y0144065D01*
X0171202Y0144045D01*
X0171261Y0144029D01*
X0171320Y0144016D01*
X0171379Y0144007D01*
X0171440Y0144002D01*
X0171500Y0144000D01*
X0178500Y0144000D01*
X0178560Y0144002D01*
X0178621Y0144007D01*
X0178680Y0144016D01*
X0178739Y0144029D01*
X0178798Y0144045D01*
X0178855Y0144065D01*
X0178910Y0144088D01*
X0178965Y0144115D01*
X0179017Y0144144D01*
X0179068Y0144177D01*
X0179117Y0144213D01*
X0179163Y0144251D01*
X0179207Y0144293D01*
X0179249Y0144337D01*
X0179287Y0144383D01*
X0179323Y0144432D01*
X0179356Y0144483D01*
X0179385Y0144535D01*
X0179412Y0144590D01*
X0179435Y0144645D01*
X0179455Y0144702D01*
X0179471Y0144761D01*
X0179484Y0144820D01*
X0179493Y0144879D01*
X0179498Y0144940D01*
X0179500Y0145000D01*
X0135000Y0176500D02*
X0135003Y0176745D01*
X0135012Y0176991D01*
X0135027Y0177236D01*
X0135048Y0177480D01*
X0135075Y0177724D01*
X0135108Y0177967D01*
X0135147Y0178210D01*
X0135192Y0178451D01*
X0135243Y0178691D01*
X0135300Y0178930D01*
X0135362Y0179167D01*
X0135431Y0179403D01*
X0135505Y0179637D01*
X0135585Y0179869D01*
X0135670Y0180099D01*
X0135761Y0180327D01*
X0135858Y0180552D01*
X0135960Y0180776D01*
X0136068Y0180996D01*
X0136181Y0181214D01*
X0136299Y0181429D01*
X0136423Y0181641D01*
X0136551Y0181850D01*
X0136685Y0182056D01*
X0136824Y0182258D01*
X0136968Y0182457D01*
X0137117Y0182652D01*
X0137270Y0182844D01*
X0137428Y0183032D01*
X0137590Y0183216D01*
X0137758Y0183395D01*
X0137929Y0183571D01*
X0138105Y0183742D01*
X0138284Y0183910D01*
X0138468Y0184072D01*
X0138656Y0184230D01*
X0138848Y0184383D01*
X0139043Y0184532D01*
X0139242Y0184676D01*
X0139444Y0184815D01*
X0139650Y0184949D01*
X0139859Y0185077D01*
X0140071Y0185201D01*
X0140286Y0185319D01*
X0140504Y0185432D01*
X0140724Y0185540D01*
X0140948Y0185642D01*
X0141173Y0185739D01*
X0141401Y0185830D01*
X0141631Y0185915D01*
X0141863Y0185995D01*
X0142097Y0186069D01*
X0142333Y0186138D01*
X0142570Y0186200D01*
X0142809Y0186257D01*
X0143049Y0186308D01*
X0143290Y0186353D01*
X0143533Y0186392D01*
X0143776Y0186425D01*
X0144020Y0186452D01*
X0144264Y0186473D01*
X0144509Y0186488D01*
X0144755Y0186497D01*
X0145000Y0186500D01*
X0145245Y0186497D01*
X0145491Y0186488D01*
X0145736Y0186473D01*
X0145980Y0186452D01*
X0146224Y0186425D01*
X0146467Y0186392D01*
X0146710Y0186353D01*
X0146951Y0186308D01*
X0147191Y0186257D01*
X0147430Y0186200D01*
X0147667Y0186138D01*
X0147903Y0186069D01*
X0148137Y0185995D01*
X0148369Y0185915D01*
X0148599Y0185830D01*
X0148827Y0185739D01*
X0149052Y0185642D01*
X0149276Y0185540D01*
X0149496Y0185432D01*
X0149714Y0185319D01*
X0149929Y0185201D01*
X0150141Y0185077D01*
X0150350Y0184949D01*
X0150556Y0184815D01*
X0150758Y0184676D01*
X0150957Y0184532D01*
X0151152Y0184383D01*
X0151344Y0184230D01*
X0151532Y0184072D01*
X0151716Y0183910D01*
X0151895Y0183742D01*
X0152071Y0183571D01*
X0152242Y0183395D01*
X0152410Y0183216D01*
X0152572Y0183032D01*
X0152730Y0182844D01*
X0152883Y0182652D01*
X0153032Y0182457D01*
X0153176Y0182258D01*
X0153315Y0182056D01*
X0153449Y0181850D01*
X0153577Y0181641D01*
X0153701Y0181429D01*
X0153819Y0181214D01*
X0153932Y0180996D01*
X0154040Y0180776D01*
X0154142Y0180552D01*
X0154239Y0180327D01*
X0154330Y0180099D01*
X0154415Y0179869D01*
X0154495Y0179637D01*
X0154569Y0179403D01*
X0154638Y0179167D01*
X0154700Y0178930D01*
X0154757Y0178691D01*
X0154808Y0178451D01*
X0154853Y0178210D01*
X0154892Y0177967D01*
X0154925Y0177724D01*
X0154952Y0177480D01*
X0154973Y0177236D01*
X0154988Y0176991D01*
X0154997Y0176745D01*
X0155000Y0176500D01*
X0154997Y0176255D01*
X0154988Y0176009D01*
X0154973Y0175764D01*
X0154952Y0175520D01*
X0154925Y0175276D01*
X0154892Y0175033D01*
X0154853Y0174790D01*
X0154808Y0174549D01*
X0154757Y0174309D01*
X0154700Y0174070D01*
X0154638Y0173833D01*
X0154569Y0173597D01*
X0154495Y0173363D01*
X0154415Y0173131D01*
X0154330Y0172901D01*
X0154239Y0172673D01*
X0154142Y0172448D01*
X0154040Y0172224D01*
X0153932Y0172004D01*
X0153819Y0171786D01*
X0153701Y0171571D01*
X0153577Y0171359D01*
X0153449Y0171150D01*
X0153315Y0170944D01*
X0153176Y0170742D01*
X0153032Y0170543D01*
X0152883Y0170348D01*
X0152730Y0170156D01*
X0152572Y0169968D01*
X0152410Y0169784D01*
X0152242Y0169605D01*
X0152071Y0169429D01*
X0151895Y0169258D01*
X0151716Y0169090D01*
X0151532Y0168928D01*
X0151344Y0168770D01*
X0151152Y0168617D01*
X0150957Y0168468D01*
X0150758Y0168324D01*
X0150556Y0168185D01*
X0150350Y0168051D01*
X0150141Y0167923D01*
X0149929Y0167799D01*
X0149714Y0167681D01*
X0149496Y0167568D01*
X0149276Y0167460D01*
X0149052Y0167358D01*
X0148827Y0167261D01*
X0148599Y0167170D01*
X0148369Y0167085D01*
X0148137Y0167005D01*
X0147903Y0166931D01*
X0147667Y0166862D01*
X0147430Y0166800D01*
X0147191Y0166743D01*
X0146951Y0166692D01*
X0146710Y0166647D01*
X0146467Y0166608D01*
X0146224Y0166575D01*
X0145980Y0166548D01*
X0145736Y0166527D01*
X0145491Y0166512D01*
X0145245Y0166503D01*
X0145000Y0166500D01*
X0144755Y0166503D01*
X0144509Y0166512D01*
X0144264Y0166527D01*
X0144020Y0166548D01*
X0143776Y0166575D01*
X0143533Y0166608D01*
X0143290Y0166647D01*
X0143049Y0166692D01*
X0142809Y0166743D01*
X0142570Y0166800D01*
X0142333Y0166862D01*
X0142097Y0166931D01*
X0141863Y0167005D01*
X0141631Y0167085D01*
X0141401Y0167170D01*
X0141173Y0167261D01*
X0140948Y0167358D01*
X0140724Y0167460D01*
X0140504Y0167568D01*
X0140286Y0167681D01*
X0140071Y0167799D01*
X0139859Y0167923D01*
X0139650Y0168051D01*
X0139444Y0168185D01*
X0139242Y0168324D01*
X0139043Y0168468D01*
X0138848Y0168617D01*
X0138656Y0168770D01*
X0138468Y0168928D01*
X0138284Y0169090D01*
X0138105Y0169258D01*
X0137929Y0169429D01*
X0137758Y0169605D01*
X0137590Y0169784D01*
X0137428Y0169968D01*
X0137270Y0170156D01*
X0137117Y0170348D01*
X0136968Y0170543D01*
X0136824Y0170742D01*
X0136685Y0170944D01*
X0136551Y0171150D01*
X0136423Y0171359D01*
X0136299Y0171571D01*
X0136181Y0171786D01*
X0136068Y0172004D01*
X0135960Y0172224D01*
X0135858Y0172448D01*
X0135761Y0172673D01*
X0135670Y0172901D01*
X0135585Y0173131D01*
X0135505Y0173363D01*
X0135431Y0173597D01*
X0135362Y0173833D01*
X0135300Y0174070D01*
X0135243Y0174309D01*
X0135192Y0174549D01*
X0135147Y0174790D01*
X0135108Y0175033D01*
X0135075Y0175276D01*
X0135048Y0175520D01*
X0135027Y0175764D01*
X0135012Y0176009D01*
X0135003Y0176255D01*
X0135000Y0176500D01*
X0151000Y0180500D02*
X0153000Y0180500D01*
X0152000Y0181500D02*
X0152000Y0179500D01*
D13*
X0083000Y0177800D02*
X0080000Y0177800D01*
X0077000Y0177800D01*
X0077000Y0175300D02*
X0080000Y0175300D01*
X0083000Y0175300D01*
X0107000Y0122700D02*
X0110000Y0122700D01*
X0113000Y0122700D01*
X0113000Y0120200D02*
X0110000Y0120200D01*
X0107000Y0120200D01*
X0107000Y0067700D02*
X0110000Y0067700D01*
X0113000Y0067700D01*
X0113000Y0065200D02*
X0110000Y0065200D01*
X0107000Y0065200D01*
X0277000Y0075200D02*
X0280000Y0075200D01*
X0283000Y0075200D01*
X0283000Y0077700D02*
X0280000Y0077700D01*
X0277000Y0077700D01*
X0358700Y0113500D02*
X0358700Y0116500D01*
X0358700Y0119500D01*
X0361200Y0119500D02*
X0361200Y0116500D01*
X0361200Y0113500D01*
X0378700Y0029500D02*
X0378700Y0026500D01*
X0378700Y0023500D01*
X0381200Y0023500D02*
X0381200Y0026500D01*
X0381200Y0029500D01*
D14*
X0381441Y0019754D02*
X0378438Y0019754D01*
X0381441Y0019754D02*
X0381441Y0019003D01*
X0378438Y0016001D01*
X0378438Y0015250D01*
X0376887Y0015250D02*
X0376136Y0015250D01*
X0376136Y0016001D01*
X0376887Y0016001D01*
X0376887Y0015250D01*
X0373784Y0015250D02*
X0373784Y0019754D01*
X0371532Y0017502D01*
X0374535Y0017502D01*
X0383042Y0018253D02*
X0383042Y0015250D01*
X0383042Y0018253D02*
X0385294Y0018253D01*
X0386045Y0017502D01*
X0386045Y0015250D01*
X0387646Y0015250D02*
X0387646Y0019754D01*
X0390649Y0019754D01*
X0389147Y0017502D02*
X0387646Y0017502D01*
X0412997Y0042220D02*
X0412246Y0042971D01*
X0412246Y0044472D01*
X0412997Y0045223D01*
X0413747Y0045223D01*
X0414498Y0044472D01*
X0415249Y0045223D01*
X0415999Y0045223D01*
X0416750Y0044472D01*
X0416750Y0042971D01*
X0415999Y0042220D01*
X0414498Y0043722D02*
X0414498Y0044472D01*
X0415999Y0046824D02*
X0415999Y0047575D01*
X0416750Y0047575D01*
X0416750Y0046824D01*
X0415999Y0046824D01*
X0415999Y0049126D02*
X0416750Y0049877D01*
X0416750Y0051378D01*
X0415999Y0052129D01*
X0414498Y0052129D01*
X0413747Y0051378D01*
X0413747Y0050628D01*
X0414498Y0049126D01*
X0412246Y0049126D01*
X0412246Y0052129D01*
X0412246Y0053730D02*
X0412246Y0056733D01*
X0412997Y0056733D01*
X0415999Y0053730D01*
X0416750Y0053730D01*
X0415999Y0058334D02*
X0416750Y0059085D01*
X0416750Y0060586D01*
X0415999Y0061337D01*
X0412997Y0061337D01*
X0412246Y0060586D01*
X0412246Y0059085D01*
X0412997Y0058334D01*
X0413747Y0058334D01*
X0414498Y0059085D01*
X0414498Y0061337D01*
X0412246Y0062938D02*
X0413747Y0064439D01*
X0412246Y0065941D01*
X0416750Y0065941D01*
X0416750Y0067542D02*
X0412246Y0067542D01*
X0414498Y0067542D02*
X0414498Y0070545D01*
X0413747Y0072146D02*
X0413747Y0075149D01*
X0416750Y0072146D01*
X0416750Y0075149D01*
X0416750Y0070545D02*
X0412246Y0070545D01*
X0412246Y0062938D02*
X0416750Y0062938D01*
X0358164Y0094250D02*
X0356663Y0095751D01*
X0357414Y0095751D02*
X0355162Y0095751D01*
X0355162Y0094250D02*
X0355162Y0098754D01*
X0357414Y0098754D01*
X0358164Y0098003D01*
X0358164Y0096502D01*
X0357414Y0095751D01*
X0353560Y0095001D02*
X0353560Y0098003D01*
X0350558Y0095001D01*
X0351308Y0094250D01*
X0352810Y0094250D01*
X0353560Y0095001D01*
X0350558Y0095001D02*
X0350558Y0098003D01*
X0351308Y0098754D01*
X0352810Y0098754D01*
X0353560Y0098003D01*
X0348956Y0098003D02*
X0345954Y0095001D01*
X0345954Y0094250D01*
X0343602Y0094250D02*
X0343602Y0098754D01*
X0341350Y0096502D01*
X0344353Y0096502D01*
X0345954Y0098754D02*
X0348956Y0098754D01*
X0348956Y0098003D01*
X0353085Y0122250D02*
X0352334Y0123001D01*
X0352334Y0123751D01*
X0353085Y0124502D01*
X0354586Y0124502D01*
X0355337Y0123751D01*
X0355337Y0123001D01*
X0354586Y0122250D01*
X0353085Y0122250D01*
X0353085Y0124502D02*
X0352334Y0125253D01*
X0352334Y0126003D01*
X0353085Y0126754D01*
X0354586Y0126754D01*
X0355337Y0126003D01*
X0355337Y0125253D01*
X0354586Y0124502D01*
X0356938Y0126003D02*
X0357689Y0126754D01*
X0359190Y0126754D01*
X0359941Y0126003D01*
X0359941Y0125253D01*
X0356938Y0122250D01*
X0359941Y0122250D01*
X0361542Y0122250D02*
X0363794Y0122250D01*
X0364545Y0123001D01*
X0364545Y0124502D01*
X0363794Y0125253D01*
X0361542Y0125253D01*
X0361542Y0120749D01*
X0366146Y0122250D02*
X0366146Y0126754D01*
X0369149Y0126754D01*
X0367647Y0124502D02*
X0366146Y0124502D01*
X0327649Y0149250D02*
X0327649Y0153754D01*
X0324646Y0153754D02*
X0324646Y0149250D01*
X0323045Y0149250D02*
X0320042Y0149250D01*
X0323045Y0152253D01*
X0323045Y0153003D01*
X0322294Y0153754D01*
X0320793Y0153754D01*
X0320042Y0153003D01*
X0318441Y0153003D02*
X0315438Y0150001D01*
X0316189Y0149250D01*
X0317690Y0149250D01*
X0318441Y0150001D01*
X0318441Y0153003D01*
X0317690Y0153754D01*
X0316189Y0153754D01*
X0315438Y0153003D01*
X0315438Y0150001D01*
X0313837Y0150001D02*
X0313086Y0149250D01*
X0311585Y0149250D01*
X0310834Y0150001D01*
X0311585Y0151502D02*
X0313086Y0151502D01*
X0313837Y0150751D01*
X0313837Y0150001D01*
X0311585Y0151502D02*
X0310834Y0152253D01*
X0310834Y0153003D01*
X0311585Y0153754D01*
X0313086Y0153754D01*
X0313837Y0153003D01*
X0309233Y0149250D02*
X0306230Y0149250D01*
X0306230Y0153754D01*
X0303878Y0153754D02*
X0303878Y0149250D01*
X0304629Y0151502D02*
X0301626Y0151502D01*
X0303878Y0153754D01*
X0300025Y0153754D02*
X0300025Y0153003D01*
X0297022Y0150001D01*
X0297022Y0149250D01*
X0297022Y0153754D02*
X0300025Y0153754D01*
X0324646Y0153754D02*
X0327649Y0149250D01*
X0349522Y0194250D02*
X0349522Y0195001D01*
X0352525Y0198003D01*
X0352525Y0198754D01*
X0349522Y0198754D01*
X0354126Y0196502D02*
X0357129Y0196502D01*
X0356378Y0198754D02*
X0354126Y0196502D01*
X0356378Y0194250D02*
X0356378Y0198754D01*
X0358730Y0198754D02*
X0358730Y0194250D01*
X0361733Y0194250D01*
X0363334Y0195001D02*
X0364085Y0194250D01*
X0365586Y0194250D01*
X0366337Y0195001D01*
X0366337Y0195751D01*
X0365586Y0196502D01*
X0364085Y0196502D01*
X0363334Y0197253D01*
X0363334Y0198003D01*
X0364085Y0198754D01*
X0365586Y0198754D01*
X0366337Y0198003D01*
X0367938Y0198003D02*
X0368689Y0198754D01*
X0370190Y0198754D01*
X0370941Y0198003D01*
X0370941Y0197253D01*
X0367938Y0194250D01*
X0370941Y0194250D01*
X0372542Y0194250D02*
X0372542Y0195001D01*
X0375545Y0198003D01*
X0375545Y0198754D01*
X0372542Y0198754D01*
X0377146Y0198754D02*
X0377146Y0194250D01*
X0380149Y0194250D02*
X0377146Y0198754D01*
X0380149Y0198754D02*
X0380149Y0194250D01*
X0313106Y0230750D02*
X0313106Y0235254D01*
X0310854Y0233002D01*
X0313856Y0233002D01*
X0309253Y0233753D02*
X0308502Y0233002D01*
X0309253Y0232251D01*
X0309253Y0231501D01*
X0308502Y0230750D01*
X0307001Y0230750D01*
X0306250Y0231501D01*
X0307751Y0233002D02*
X0308502Y0233002D01*
X0309253Y0233753D02*
X0309253Y0234503D01*
X0308502Y0235254D01*
X0307001Y0235254D01*
X0306250Y0234503D01*
X0277649Y0198754D02*
X0277649Y0194250D01*
X0274646Y0198754D01*
X0274646Y0194250D01*
X0273045Y0195001D02*
X0272294Y0194250D01*
X0270793Y0194250D01*
X0270042Y0195001D01*
X0273045Y0198003D01*
X0273045Y0195001D01*
X0273045Y0198003D02*
X0272294Y0198754D01*
X0270793Y0198754D01*
X0270042Y0198003D01*
X0270042Y0195001D01*
X0268441Y0195001D02*
X0267690Y0194250D01*
X0266189Y0194250D01*
X0265438Y0195001D01*
X0268441Y0198003D01*
X0268441Y0195001D01*
X0268441Y0198003D02*
X0267690Y0198754D01*
X0266189Y0198754D01*
X0265438Y0198003D01*
X0265438Y0195001D01*
X0263837Y0195001D02*
X0263086Y0194250D01*
X0261585Y0194250D01*
X0260834Y0195001D01*
X0261585Y0196502D02*
X0263086Y0196502D01*
X0263837Y0195751D01*
X0263837Y0195001D01*
X0261585Y0196502D02*
X0260834Y0197253D01*
X0260834Y0198003D01*
X0261585Y0198754D01*
X0263086Y0198754D01*
X0263837Y0198003D01*
X0259233Y0194250D02*
X0256230Y0194250D01*
X0256230Y0198754D01*
X0253878Y0198754D02*
X0251626Y0196502D01*
X0254629Y0196502D01*
X0253878Y0194250D02*
X0253878Y0198754D01*
X0250025Y0198754D02*
X0250025Y0198003D01*
X0247022Y0195001D01*
X0247022Y0194250D01*
X0247022Y0198754D02*
X0250025Y0198754D01*
X0223253Y0239250D02*
X0220250Y0239250D01*
X0221751Y0239250D02*
X0221751Y0243754D01*
X0220250Y0242253D01*
X0220250Y0249250D02*
X0223253Y0252253D01*
X0223253Y0253003D01*
X0222502Y0253754D01*
X0221001Y0253754D01*
X0220250Y0253003D01*
X0220250Y0249250D02*
X0223253Y0249250D01*
X0192556Y0278950D02*
X0189554Y0278950D01*
X0192556Y0281953D01*
X0192556Y0282703D01*
X0191806Y0283454D01*
X0190305Y0283454D01*
X0189554Y0282703D01*
X0187953Y0282703D02*
X0187202Y0283454D01*
X0185701Y0283454D01*
X0184950Y0282703D01*
X0184950Y0281953D01*
X0185701Y0281202D01*
X0187202Y0281202D01*
X0187953Y0280451D01*
X0187953Y0279701D01*
X0187202Y0278950D01*
X0185701Y0278950D01*
X0184950Y0279701D01*
X0220250Y0289250D02*
X0223253Y0289250D01*
X0221751Y0289250D02*
X0221751Y0293754D01*
X0220250Y0292253D01*
X0220250Y0299250D02*
X0223253Y0302253D01*
X0223253Y0303003D01*
X0222502Y0303754D01*
X0221001Y0303754D01*
X0220250Y0303003D01*
X0220250Y0299250D02*
X0223253Y0299250D01*
X0306250Y0284503D02*
X0307001Y0285254D01*
X0308502Y0285254D01*
X0309253Y0284503D01*
X0309253Y0283753D01*
X0308502Y0283002D01*
X0309253Y0282251D01*
X0309253Y0281501D01*
X0308502Y0280750D01*
X0307001Y0280750D01*
X0306250Y0281501D01*
X0307751Y0283002D02*
X0308502Y0283002D01*
X0310854Y0283002D02*
X0313106Y0285254D01*
X0313106Y0280750D01*
X0313856Y0283002D02*
X0310854Y0283002D01*
X0192649Y0218003D02*
X0192649Y0217253D01*
X0191898Y0216502D01*
X0189646Y0216502D01*
X0188045Y0216502D02*
X0185042Y0216502D01*
X0187294Y0218754D01*
X0187294Y0214250D01*
X0189646Y0214250D02*
X0189646Y0218754D01*
X0191898Y0218754D01*
X0192649Y0218003D01*
X0191898Y0216502D02*
X0192649Y0215751D01*
X0192649Y0215001D01*
X0191898Y0214250D01*
X0189646Y0214250D01*
X0183441Y0214250D02*
X0180438Y0214250D01*
X0181939Y0214250D02*
X0181939Y0218754D01*
X0180438Y0217253D01*
X0178837Y0218003D02*
X0175834Y0215001D01*
X0176585Y0214250D01*
X0178086Y0214250D01*
X0178837Y0215001D01*
X0178837Y0218003D01*
X0178086Y0218754D01*
X0176585Y0218754D01*
X0175834Y0218003D01*
X0175834Y0215001D01*
X0174233Y0215001D02*
X0173482Y0214250D01*
X0171981Y0214250D01*
X0171230Y0215001D01*
X0169629Y0214250D02*
X0169629Y0218754D01*
X0168128Y0217253D01*
X0166626Y0218754D01*
X0166626Y0214250D01*
X0163524Y0214250D02*
X0163524Y0216502D01*
X0165025Y0218003D01*
X0165025Y0218754D01*
X0163524Y0216502D02*
X0162022Y0218003D01*
X0162022Y0218754D01*
X0171230Y0218003D02*
X0171981Y0218754D01*
X0173482Y0218754D01*
X0174233Y0218003D01*
X0174233Y0217253D01*
X0173482Y0216502D01*
X0174233Y0215751D01*
X0174233Y0215001D01*
X0173482Y0216502D02*
X0172732Y0216502D01*
X0159749Y0190149D02*
X0156746Y0190149D01*
X0159749Y0190149D02*
X0161250Y0188647D01*
X0159749Y0187146D01*
X0156746Y0187146D01*
X0156746Y0185545D02*
X0157497Y0184043D01*
X0158998Y0182542D01*
X0158998Y0184794D01*
X0159749Y0185545D01*
X0160499Y0185545D01*
X0161250Y0184794D01*
X0161250Y0183293D01*
X0160499Y0182542D01*
X0158998Y0182542D01*
X0161250Y0180941D02*
X0161250Y0177938D01*
X0161250Y0179439D02*
X0156746Y0179439D01*
X0158247Y0177938D01*
X0156746Y0171733D02*
X0156746Y0168730D01*
X0161250Y0168730D01*
X0161250Y0167129D02*
X0158247Y0167129D01*
X0158998Y0168730D02*
X0158998Y0170232D01*
X0161250Y0167129D02*
X0161250Y0164877D01*
X0160499Y0164126D01*
X0158247Y0164126D01*
X0157497Y0162525D02*
X0160499Y0159522D01*
X0161250Y0160273D01*
X0161250Y0161774D01*
X0160499Y0162525D01*
X0157497Y0162525D01*
X0156746Y0161774D01*
X0156746Y0160273D01*
X0157497Y0159522D01*
X0160499Y0159522D01*
X0161250Y0157921D02*
X0161250Y0154919D01*
X0161250Y0156420D02*
X0156746Y0156420D01*
X0158247Y0154919D01*
X0172746Y0154954D02*
X0177250Y0154954D01*
X0175749Y0154954D02*
X0174247Y0157206D01*
X0172746Y0158791D02*
X0172746Y0161793D01*
X0173497Y0161793D01*
X0176499Y0158791D01*
X0177250Y0158791D01*
X0177250Y0157206D02*
X0175749Y0154954D01*
X0174998Y0153353D02*
X0174998Y0150350D01*
X0172746Y0152602D01*
X0177250Y0152602D01*
X0122250Y0160856D02*
X0121499Y0160106D01*
X0122250Y0160856D02*
X0122250Y0162357D01*
X0121499Y0163108D01*
X0120749Y0163108D01*
X0119998Y0162357D01*
X0119998Y0161607D01*
X0119998Y0162357D02*
X0119247Y0163108D01*
X0118497Y0163108D01*
X0117746Y0162357D01*
X0117746Y0160856D01*
X0118497Y0160106D01*
X0118497Y0164709D02*
X0117746Y0165460D01*
X0117746Y0166961D01*
X0118497Y0167712D01*
X0119247Y0167712D01*
X0119998Y0166961D01*
X0120749Y0167712D01*
X0121499Y0167712D01*
X0122250Y0166961D01*
X0122250Y0165460D01*
X0121499Y0164709D01*
X0119998Y0166211D02*
X0119998Y0166961D01*
X0120749Y0169313D02*
X0119247Y0171565D01*
X0117746Y0169313D02*
X0122250Y0169313D01*
X0120749Y0169313D02*
X0122250Y0171565D01*
X0102250Y0172058D02*
X0097746Y0172058D01*
X0098497Y0170456D02*
X0099247Y0170456D01*
X0099998Y0169706D01*
X0100749Y0170456D01*
X0101499Y0170456D01*
X0102250Y0169706D01*
X0102250Y0168205D01*
X0101499Y0167454D01*
X0101499Y0165853D02*
X0102250Y0165102D01*
X0102250Y0163601D01*
X0101499Y0162850D01*
X0099998Y0164351D02*
X0099998Y0165102D01*
X0100749Y0165853D01*
X0101499Y0165853D01*
X0099998Y0165102D02*
X0099247Y0165853D01*
X0098497Y0165853D01*
X0097746Y0165102D01*
X0097746Y0163601D01*
X0098497Y0162850D01*
X0098497Y0167454D02*
X0097746Y0168205D01*
X0097746Y0169706D01*
X0098497Y0170456D01*
X0099998Y0169706D02*
X0099998Y0168955D01*
X0100749Y0172058D02*
X0099247Y0174310D01*
X0100749Y0172058D02*
X0102250Y0174310D01*
X0073751Y0181062D02*
X0069247Y0181062D01*
X0069247Y0183314D01*
X0069998Y0184064D01*
X0071499Y0184064D01*
X0072250Y0183314D01*
X0072250Y0181062D01*
X0071499Y0179460D02*
X0072250Y0178710D01*
X0072250Y0177208D01*
X0071499Y0176458D01*
X0068497Y0179460D01*
X0071499Y0179460D01*
X0071499Y0176458D02*
X0068497Y0176458D01*
X0067746Y0177208D01*
X0067746Y0178710D01*
X0068497Y0179460D01*
X0068497Y0174856D02*
X0071499Y0171854D01*
X0072250Y0171854D01*
X0072250Y0169502D02*
X0067746Y0169502D01*
X0069998Y0167250D01*
X0069998Y0170253D01*
X0067746Y0171854D02*
X0067746Y0174856D01*
X0068497Y0174856D01*
X0057250Y0175350D02*
X0057250Y0178353D01*
X0057250Y0176851D02*
X0052746Y0176851D01*
X0054247Y0175350D01*
X0054998Y0179954D02*
X0054247Y0181455D01*
X0054247Y0182206D01*
X0054998Y0182956D01*
X0056499Y0182956D01*
X0057250Y0182206D01*
X0057250Y0180705D01*
X0056499Y0179954D01*
X0054998Y0179954D02*
X0052746Y0179954D01*
X0052746Y0182956D01*
X0052746Y0184558D02*
X0057250Y0184558D01*
X0055749Y0184558D02*
X0054247Y0186810D01*
X0055749Y0184558D02*
X0057250Y0186810D01*
X0067746Y0185666D02*
X0067746Y0188668D01*
X0069998Y0187167D02*
X0069998Y0185666D01*
X0072250Y0185666D02*
X0067746Y0185666D01*
X0042250Y0176810D02*
X0040749Y0174558D01*
X0039247Y0176810D01*
X0037746Y0174558D02*
X0042250Y0174558D01*
X0038497Y0172956D02*
X0041499Y0169954D01*
X0042250Y0169954D01*
X0042250Y0168353D02*
X0042250Y0165350D01*
X0039247Y0168353D01*
X0038497Y0168353D01*
X0037746Y0167602D01*
X0037746Y0166101D01*
X0038497Y0165350D01*
X0037746Y0169954D02*
X0037746Y0172956D01*
X0038497Y0172956D01*
X0099126Y0214250D02*
X0102129Y0214250D01*
X0103730Y0214250D02*
X0103730Y0218754D01*
X0105232Y0217253D01*
X0106733Y0218754D01*
X0106733Y0214250D01*
X0108334Y0215001D02*
X0109085Y0214250D01*
X0110586Y0214250D01*
X0111337Y0215001D01*
X0111337Y0215751D01*
X0110586Y0216502D01*
X0109836Y0216502D01*
X0110586Y0216502D02*
X0111337Y0217253D01*
X0111337Y0218003D01*
X0110586Y0218754D01*
X0109085Y0218754D01*
X0108334Y0218003D01*
X0112938Y0218003D02*
X0113689Y0218754D01*
X0115190Y0218754D01*
X0115941Y0218003D01*
X0115941Y0217253D01*
X0112938Y0214250D01*
X0115941Y0214250D01*
X0117542Y0216502D02*
X0120545Y0216502D01*
X0119794Y0218754D02*
X0117542Y0216502D01*
X0119794Y0214250D02*
X0119794Y0218754D01*
X0122146Y0218754D02*
X0125149Y0214250D01*
X0125149Y0218754D01*
X0122146Y0218754D02*
X0122146Y0214250D01*
X0099126Y0214250D02*
X0099126Y0218754D01*
X0103189Y0269750D02*
X0102438Y0270501D01*
X0103189Y0269750D02*
X0104690Y0269750D01*
X0105441Y0270501D01*
X0105441Y0271251D01*
X0104690Y0272002D01*
X0103939Y0272002D01*
X0104690Y0272002D02*
X0105441Y0272753D01*
X0105441Y0273503D01*
X0104690Y0274254D01*
X0103189Y0274254D01*
X0102438Y0273503D01*
X0107042Y0274254D02*
X0107042Y0272002D01*
X0108543Y0272753D01*
X0109294Y0272753D01*
X0110045Y0272002D01*
X0110045Y0270501D01*
X0109294Y0269750D01*
X0107793Y0269750D01*
X0107042Y0270501D01*
X0107042Y0274254D02*
X0110045Y0274254D01*
X0111646Y0274254D02*
X0111646Y0271251D01*
X0113147Y0269750D01*
X0114649Y0271251D01*
X0114649Y0274254D01*
X0120857Y0284250D02*
X0120857Y0288754D01*
X0118606Y0286502D01*
X0121608Y0286502D01*
X0123209Y0285751D02*
X0125461Y0284250D01*
X0127046Y0284250D02*
X0127046Y0285001D01*
X0130049Y0288003D01*
X0130049Y0288754D01*
X0127046Y0288754D01*
X0125461Y0287253D02*
X0123209Y0285751D01*
X0123209Y0284250D02*
X0123209Y0288754D01*
X0096233Y0274254D02*
X0093230Y0274254D01*
X0093230Y0269750D01*
X0091629Y0269750D02*
X0091629Y0272753D01*
X0093230Y0272002D02*
X0094732Y0272002D01*
X0091629Y0269750D02*
X0089377Y0269750D01*
X0088626Y0270501D01*
X0088626Y0272753D01*
X0087025Y0273503D02*
X0084022Y0270501D01*
X0084022Y0269750D01*
X0082471Y0269750D02*
X0081720Y0269750D01*
X0081720Y0270501D01*
X0082471Y0270501D01*
X0082471Y0269750D01*
X0079368Y0269750D02*
X0079368Y0274254D01*
X0077117Y0272002D01*
X0080119Y0272002D01*
X0084022Y0274254D02*
X0087025Y0274254D01*
X0087025Y0273503D01*
X0088201Y0318950D02*
X0087450Y0319701D01*
X0088201Y0318950D02*
X0089702Y0318950D01*
X0090453Y0319701D01*
X0090453Y0320451D01*
X0089702Y0321202D01*
X0088201Y0321202D01*
X0087450Y0321953D01*
X0087450Y0322703D01*
X0088201Y0323454D01*
X0089702Y0323454D01*
X0090453Y0322703D01*
X0092054Y0321953D02*
X0093555Y0323454D01*
X0093555Y0318950D01*
X0092054Y0318950D02*
X0095056Y0318950D01*
X0099746Y0132149D02*
X0099746Y0129146D01*
X0104250Y0129146D01*
X0103499Y0127545D02*
X0104250Y0126794D01*
X0104250Y0124542D01*
X0105751Y0124542D02*
X0101247Y0124542D01*
X0101247Y0126794D01*
X0101998Y0127545D01*
X0103499Y0127545D01*
X0101998Y0129146D02*
X0101998Y0130647D01*
X0100497Y0122941D02*
X0099746Y0122190D01*
X0099746Y0120689D01*
X0100497Y0119938D01*
X0103499Y0119938D01*
X0100497Y0122941D01*
X0103499Y0122941D01*
X0104250Y0122190D01*
X0104250Y0120689D01*
X0103499Y0119938D01*
X0104250Y0118337D02*
X0104250Y0115334D01*
X0101247Y0118337D01*
X0100497Y0118337D01*
X0099746Y0117586D01*
X0099746Y0116085D01*
X0100497Y0115334D01*
X0100497Y0113733D02*
X0099746Y0112982D01*
X0099746Y0111481D01*
X0100497Y0110730D01*
X0100497Y0113733D02*
X0101247Y0113733D01*
X0104250Y0110730D01*
X0104250Y0113733D01*
X0094749Y0080149D02*
X0091746Y0080149D01*
X0094749Y0080149D02*
X0096250Y0078647D01*
X0094749Y0077146D01*
X0091746Y0077146D01*
X0091746Y0075545D02*
X0092497Y0074043D01*
X0093998Y0072542D01*
X0093998Y0074794D01*
X0094749Y0075545D01*
X0095499Y0075545D01*
X0096250Y0074794D01*
X0096250Y0073293D01*
X0095499Y0072542D01*
X0093998Y0072542D01*
X0096250Y0070941D02*
X0096250Y0067938D01*
X0096250Y0069439D02*
X0091746Y0069439D01*
X0093247Y0067938D01*
X0091746Y0061733D02*
X0091746Y0058730D01*
X0096250Y0058730D01*
X0096250Y0057129D02*
X0093247Y0057129D01*
X0093998Y0058730D02*
X0093998Y0060232D01*
X0096250Y0057129D02*
X0096250Y0054877D01*
X0095499Y0054126D01*
X0093247Y0054126D01*
X0092497Y0052525D02*
X0095499Y0049522D01*
X0096250Y0050273D01*
X0096250Y0051774D01*
X0095499Y0052525D01*
X0092497Y0052525D01*
X0091746Y0051774D01*
X0091746Y0050273D01*
X0092497Y0049522D01*
X0095499Y0049522D01*
X0096250Y0047921D02*
X0096250Y0044919D01*
X0096250Y0046420D02*
X0091746Y0046420D01*
X0093247Y0044919D01*
X0117246Y0055836D02*
X0121750Y0055836D01*
X0121750Y0057337D02*
X0121750Y0054334D01*
X0118747Y0054334D02*
X0117246Y0055836D01*
X0117997Y0058938D02*
X0117246Y0059689D01*
X0117246Y0061190D01*
X0117997Y0061941D01*
X0120999Y0058938D01*
X0121750Y0059689D01*
X0121750Y0061190D01*
X0120999Y0061941D01*
X0117997Y0061941D01*
X0118747Y0063542D02*
X0118747Y0065794D01*
X0119498Y0066545D01*
X0121750Y0066545D01*
X0121750Y0068146D02*
X0117246Y0068146D01*
X0117246Y0071149D01*
X0119498Y0069647D02*
X0119498Y0068146D01*
X0118747Y0063542D02*
X0121750Y0063542D01*
X0120999Y0058938D02*
X0117997Y0058938D01*
X0287246Y0068336D02*
X0291750Y0068336D01*
X0291750Y0069837D02*
X0291750Y0066834D01*
X0288747Y0066834D02*
X0287246Y0068336D01*
X0287997Y0071438D02*
X0287246Y0072189D01*
X0287246Y0073690D01*
X0287997Y0074441D01*
X0290999Y0071438D01*
X0291750Y0072189D01*
X0291750Y0073690D01*
X0290999Y0074441D01*
X0287997Y0074441D01*
X0288747Y0076042D02*
X0288747Y0078294D01*
X0289498Y0079045D01*
X0291750Y0079045D01*
X0291750Y0080646D02*
X0287246Y0080646D01*
X0287246Y0083649D01*
X0289498Y0082147D02*
X0289498Y0080646D01*
X0288747Y0076042D02*
X0291750Y0076042D01*
X0290999Y0071438D02*
X0287997Y0071438D01*
X0324522Y0063754D02*
X0327525Y0063754D01*
X0327525Y0063003D01*
X0324522Y0060001D01*
X0324522Y0059250D01*
X0329126Y0061502D02*
X0331378Y0063754D01*
X0331378Y0059250D01*
X0333730Y0059250D02*
X0333730Y0063754D01*
X0332129Y0061502D02*
X0329126Y0061502D01*
X0333730Y0059250D02*
X0336733Y0059250D01*
X0338334Y0060001D02*
X0339085Y0059250D01*
X0340586Y0059250D01*
X0341337Y0060001D01*
X0341337Y0060751D01*
X0340586Y0061502D01*
X0339085Y0061502D01*
X0338334Y0062253D01*
X0338334Y0063003D01*
X0339085Y0063754D01*
X0340586Y0063754D01*
X0341337Y0063003D01*
X0342938Y0063003D02*
X0343689Y0063754D01*
X0345190Y0063754D01*
X0345941Y0063003D01*
X0342938Y0060001D01*
X0343689Y0059250D01*
X0345190Y0059250D01*
X0345941Y0060001D01*
X0345941Y0063003D01*
X0347542Y0061502D02*
X0350545Y0061502D01*
X0349794Y0059250D02*
X0349794Y0063754D01*
X0347542Y0061502D01*
X0342938Y0060001D02*
X0342938Y0063003D01*
X0352146Y0063754D02*
X0352146Y0059250D01*
X0355149Y0059250D02*
X0352146Y0063754D01*
X0355149Y0063754D02*
X0355149Y0059250D01*
X0341798Y0028754D02*
X0339546Y0028754D01*
X0339546Y0024250D01*
X0339546Y0025751D02*
X0341798Y0025751D01*
X0342549Y0026502D01*
X0342549Y0028003D01*
X0341798Y0028754D01*
X0341047Y0025751D02*
X0342549Y0024250D01*
X0337945Y0025001D02*
X0337945Y0028003D01*
X0334942Y0025001D01*
X0335693Y0024250D01*
X0337194Y0024250D01*
X0337945Y0025001D01*
X0337945Y0028003D02*
X0337194Y0028754D01*
X0335693Y0028754D01*
X0334942Y0028003D01*
X0334942Y0025001D01*
X0333341Y0028003D02*
X0330338Y0025001D01*
X0330338Y0024250D01*
X0327986Y0024250D02*
X0327986Y0028754D01*
X0325734Y0026502D01*
X0328737Y0026502D01*
X0330338Y0028754D02*
X0333341Y0028754D01*
X0333341Y0028003D01*
D15*
X0250608Y0073350D02*
X0246404Y0073350D01*
X0250608Y0077554D01*
X0250608Y0078604D01*
X0249557Y0079655D01*
X0247455Y0079655D01*
X0246404Y0078604D01*
X0242061Y0079655D02*
X0242061Y0073350D01*
X0239959Y0073350D02*
X0244163Y0073350D01*
X0239959Y0077554D02*
X0242061Y0079655D01*
X0237717Y0078604D02*
X0237717Y0077554D01*
X0236666Y0076503D01*
X0234564Y0076503D01*
X0233513Y0077554D01*
X0233513Y0078604D01*
X0234564Y0079655D01*
X0236666Y0079655D01*
X0237717Y0078604D01*
X0236666Y0076503D02*
X0237717Y0075452D01*
X0237717Y0074401D01*
X0236666Y0073350D01*
X0234564Y0073350D01*
X0233513Y0074401D01*
X0233513Y0075452D01*
X0234564Y0076503D01*
X0231272Y0077554D02*
X0230221Y0076503D01*
X0231272Y0075452D01*
X0231272Y0074401D01*
X0230221Y0073350D01*
X0228119Y0073350D01*
X0227068Y0074401D01*
X0224826Y0073350D02*
X0224826Y0079655D01*
X0222724Y0077554D01*
X0220622Y0079655D01*
X0220622Y0073350D01*
X0216279Y0073350D02*
X0216279Y0076503D01*
X0218381Y0078604D01*
X0218381Y0079655D01*
X0216279Y0076503D02*
X0214177Y0078604D01*
X0214177Y0079655D01*
X0227068Y0078604D02*
X0228119Y0079655D01*
X0230221Y0079655D01*
X0231272Y0078604D01*
X0231272Y0077554D01*
X0230221Y0076503D02*
X0229170Y0076503D01*
X0275850Y0266850D02*
X0275850Y0273155D01*
X0280054Y0273155D01*
X0277952Y0270003D02*
X0275850Y0270003D01*
X0282295Y0270003D02*
X0283346Y0271054D01*
X0285448Y0271054D01*
X0286499Y0270003D01*
X0286499Y0268952D01*
X0282295Y0268952D01*
X0282295Y0267901D02*
X0282295Y0270003D01*
X0282295Y0267901D02*
X0283346Y0266850D01*
X0285448Y0266850D01*
X0288741Y0267901D02*
X0288741Y0270003D01*
X0289792Y0271054D01*
X0291894Y0271054D01*
X0292945Y0270003D01*
X0292945Y0268952D01*
X0288741Y0268952D01*
X0288741Y0267901D02*
X0289792Y0266850D01*
X0291894Y0266850D01*
X0295186Y0267901D02*
X0295186Y0270003D01*
X0296237Y0271054D01*
X0299390Y0271054D01*
X0299390Y0273155D02*
X0299390Y0266850D01*
X0296237Y0266850D01*
X0295186Y0267901D01*
X0301632Y0270003D02*
X0305836Y0270003D01*
X0308077Y0271054D02*
X0310179Y0271054D01*
X0309128Y0272104D02*
X0309128Y0267901D01*
X0310179Y0266850D01*
X0312374Y0266850D02*
X0312374Y0273155D01*
X0313425Y0271054D02*
X0315527Y0271054D01*
X0316578Y0270003D01*
X0316578Y0266850D01*
X0318820Y0266850D02*
X0318820Y0271054D01*
X0320922Y0271054D02*
X0321973Y0271054D01*
X0320922Y0271054D02*
X0318820Y0268952D01*
X0324191Y0270003D02*
X0325242Y0271054D01*
X0327344Y0271054D01*
X0328395Y0270003D01*
X0328395Y0267901D01*
X0327344Y0266850D01*
X0325242Y0266850D01*
X0324191Y0267901D01*
X0324191Y0270003D01*
X0330637Y0271054D02*
X0330637Y0267901D01*
X0331688Y0266850D01*
X0334840Y0266850D01*
X0334840Y0271054D01*
X0337082Y0270003D02*
X0337082Y0267901D01*
X0338133Y0266850D01*
X0341286Y0266850D01*
X0341286Y0265799D02*
X0341286Y0271054D01*
X0338133Y0271054D01*
X0337082Y0270003D01*
X0339184Y0264748D02*
X0340235Y0264748D01*
X0341286Y0265799D01*
X0343528Y0266850D02*
X0343528Y0273155D01*
X0344579Y0271054D02*
X0346680Y0271054D01*
X0347731Y0270003D01*
X0347731Y0266850D01*
X0343528Y0270003D02*
X0344579Y0271054D01*
X0313425Y0271054D02*
X0312374Y0270003D01*
X0313890Y0316850D02*
X0313890Y0323155D01*
X0316132Y0321054D02*
X0320336Y0321054D01*
X0316132Y0316850D01*
X0320336Y0316850D01*
X0313890Y0320003D02*
X0309686Y0320003D01*
X0309686Y0323155D02*
X0309686Y0316850D01*
X0307445Y0316850D02*
X0307445Y0323155D01*
X0305343Y0321054D01*
X0303241Y0323155D01*
X0303241Y0316850D01*
X0294554Y0316850D02*
X0290350Y0316850D01*
X0292452Y0316850D02*
X0292452Y0323155D01*
X0290350Y0321054D01*
X0329023Y0320003D02*
X0332176Y0320003D01*
X0333227Y0318952D01*
X0333227Y0317901D01*
X0332176Y0316850D01*
X0329023Y0316850D01*
X0329023Y0323155D01*
X0332176Y0323155D01*
X0333227Y0322104D01*
X0333227Y0321054D01*
X0332176Y0320003D01*
X0335468Y0321054D02*
X0335468Y0317901D01*
X0336519Y0316850D01*
X0339672Y0316850D01*
X0339672Y0321054D01*
X0341914Y0320003D02*
X0342965Y0318952D01*
X0345067Y0318952D01*
X0346118Y0317901D01*
X0345067Y0316850D01*
X0341914Y0316850D01*
X0341914Y0320003D02*
X0342965Y0321054D01*
X0346118Y0321054D01*
D16*
X0318000Y0283000D02*
X0382000Y0283000D01*
X0388000Y0283000D02*
X0406000Y0283000D01*
X0406000Y0310000D01*
X0214000Y0310000D01*
X0214000Y0283000D01*
X0242000Y0283000D01*
X0248000Y0283000D02*
X0302000Y0283000D01*
X0302000Y0233000D02*
X0248000Y0233000D01*
X0242000Y0233000D02*
X0214000Y0233000D01*
X0214000Y0260000D01*
X0406000Y0260000D01*
X0406000Y0233000D01*
X0388000Y0233000D01*
X0382000Y0233000D02*
X0318000Y0233000D01*
X0393000Y0075000D02*
X0393000Y0048000D01*
X0393002Y0047830D01*
X0393008Y0047659D01*
X0393019Y0047489D01*
X0393033Y0047319D01*
X0393052Y0047150D01*
X0393075Y0046981D01*
X0393101Y0046812D01*
X0393132Y0046645D01*
X0393167Y0046478D01*
X0393207Y0046312D01*
X0393250Y0046147D01*
X0393297Y0045983D01*
X0393348Y0045821D01*
X0393403Y0045659D01*
X0393462Y0045499D01*
X0393525Y0045341D01*
X0393591Y0045184D01*
X0393662Y0045029D01*
X0393736Y0044875D01*
X0393814Y0044724D01*
X0393896Y0044574D01*
X0393981Y0044426D01*
X0394070Y0044281D01*
X0394162Y0044138D01*
X0394258Y0043997D01*
X0394357Y0043858D01*
X0394460Y0043722D01*
X0394565Y0043588D01*
X0394674Y0043457D01*
X0394787Y0043329D01*
X0394902Y0043203D01*
X0395020Y0043080D01*
X0395141Y0042961D01*
X0395266Y0042844D01*
X0395393Y0042730D01*
X0395522Y0042619D01*
X0395655Y0042512D01*
X0395790Y0042408D01*
X0395927Y0042307D01*
X0396067Y0042209D01*
X0396209Y0042115D01*
X0396353Y0042025D01*
X0396500Y0041938D01*
X0396649Y0041854D01*
X0396799Y0041775D01*
X0396952Y0041699D01*
X0397106Y0041626D01*
X0397262Y0041558D01*
X0397420Y0041493D01*
X0397579Y0041432D01*
X0397740Y0041375D01*
X0397902Y0041322D01*
X0398065Y0041273D01*
X0398229Y0041228D01*
X0398395Y0041187D01*
X0398561Y0041149D01*
X0398729Y0041116D01*
X0398897Y0041088D01*
X0399065Y0041063D01*
X0399234Y0041042D01*
X0399404Y0041025D01*
X0399574Y0041013D01*
X0399744Y0041005D01*
X0399915Y0041001D01*
X0400085Y0041001D01*
X0400256Y0041005D01*
X0400426Y0041013D01*
X0400596Y0041025D01*
X0400766Y0041042D01*
X0400935Y0041063D01*
X0401103Y0041088D01*
X0401271Y0041116D01*
X0401439Y0041149D01*
X0401605Y0041187D01*
X0401771Y0041228D01*
X0401935Y0041273D01*
X0402098Y0041322D01*
X0402260Y0041375D01*
X0402421Y0041432D01*
X0402580Y0041493D01*
X0402738Y0041558D01*
X0402894Y0041626D01*
X0403048Y0041699D01*
X0403201Y0041775D01*
X0403351Y0041854D01*
X0403500Y0041938D01*
X0403647Y0042025D01*
X0403791Y0042115D01*
X0403933Y0042209D01*
X0404073Y0042307D01*
X0404210Y0042408D01*
X0404345Y0042512D01*
X0404478Y0042619D01*
X0404607Y0042730D01*
X0404734Y0042844D01*
X0404859Y0042961D01*
X0404980Y0043080D01*
X0405098Y0043203D01*
X0405213Y0043329D01*
X0405326Y0043457D01*
X0405435Y0043588D01*
X0405540Y0043722D01*
X0405643Y0043858D01*
X0405742Y0043997D01*
X0405838Y0044138D01*
X0405930Y0044281D01*
X0406019Y0044426D01*
X0406104Y0044574D01*
X0406186Y0044724D01*
X0406264Y0044875D01*
X0406338Y0045029D01*
X0406409Y0045184D01*
X0406475Y0045341D01*
X0406538Y0045499D01*
X0406597Y0045659D01*
X0406652Y0045821D01*
X0406703Y0045983D01*
X0406750Y0046147D01*
X0406793Y0046312D01*
X0406833Y0046478D01*
X0406868Y0046645D01*
X0406899Y0046812D01*
X0406925Y0046981D01*
X0406948Y0047150D01*
X0406967Y0047319D01*
X0406981Y0047489D01*
X0406992Y0047659D01*
X0406998Y0047830D01*
X0407000Y0048000D01*
X0407000Y0075000D01*
X0406998Y0075170D01*
X0406992Y0075341D01*
X0406981Y0075511D01*
X0406967Y0075681D01*
X0406948Y0075850D01*
X0406925Y0076019D01*
X0406899Y0076188D01*
X0406868Y0076355D01*
X0406833Y0076522D01*
X0406793Y0076688D01*
X0406750Y0076853D01*
X0406703Y0077017D01*
X0406652Y0077179D01*
X0406597Y0077341D01*
X0406538Y0077501D01*
X0406475Y0077659D01*
X0406409Y0077816D01*
X0406338Y0077971D01*
X0406264Y0078125D01*
X0406186Y0078276D01*
X0406104Y0078426D01*
X0406019Y0078574D01*
X0405930Y0078719D01*
X0405838Y0078862D01*
X0405742Y0079003D01*
X0405643Y0079142D01*
X0405540Y0079278D01*
X0405435Y0079412D01*
X0405326Y0079543D01*
X0405213Y0079671D01*
X0405098Y0079797D01*
X0404980Y0079920D01*
X0404859Y0080039D01*
X0404734Y0080156D01*
X0404607Y0080270D01*
X0404478Y0080381D01*
X0404345Y0080488D01*
X0404210Y0080592D01*
X0404073Y0080693D01*
X0403933Y0080791D01*
X0403791Y0080885D01*
X0403647Y0080975D01*
X0403500Y0081062D01*
X0403351Y0081146D01*
X0403201Y0081225D01*
X0403048Y0081301D01*
X0402894Y0081374D01*
X0402738Y0081442D01*
X0402580Y0081507D01*
X0402421Y0081568D01*
X0402260Y0081625D01*
X0402098Y0081678D01*
X0401935Y0081727D01*
X0401771Y0081772D01*
X0401605Y0081813D01*
X0401439Y0081851D01*
X0401271Y0081884D01*
X0401103Y0081912D01*
X0400935Y0081937D01*
X0400766Y0081958D01*
X0400596Y0081975D01*
X0400426Y0081987D01*
X0400256Y0081995D01*
X0400085Y0081999D01*
X0399915Y0081999D01*
X0399744Y0081995D01*
X0399574Y0081987D01*
X0399404Y0081975D01*
X0399234Y0081958D01*
X0399065Y0081937D01*
X0398897Y0081912D01*
X0398729Y0081884D01*
X0398561Y0081851D01*
X0398395Y0081813D01*
X0398229Y0081772D01*
X0398065Y0081727D01*
X0397902Y0081678D01*
X0397740Y0081625D01*
X0397579Y0081568D01*
X0397420Y0081507D01*
X0397262Y0081442D01*
X0397106Y0081374D01*
X0396952Y0081301D01*
X0396799Y0081225D01*
X0396649Y0081146D01*
X0396500Y0081062D01*
X0396353Y0080975D01*
X0396209Y0080885D01*
X0396067Y0080791D01*
X0395927Y0080693D01*
X0395790Y0080592D01*
X0395655Y0080488D01*
X0395522Y0080381D01*
X0395393Y0080270D01*
X0395266Y0080156D01*
X0395141Y0080039D01*
X0395020Y0079920D01*
X0394902Y0079797D01*
X0394787Y0079671D01*
X0394674Y0079543D01*
X0394565Y0079412D01*
X0394460Y0079278D01*
X0394357Y0079142D01*
X0394258Y0079003D01*
X0394162Y0078862D01*
X0394070Y0078719D01*
X0393981Y0078574D01*
X0393896Y0078426D01*
X0393814Y0078276D01*
X0393736Y0078125D01*
X0393662Y0077971D01*
X0393591Y0077816D01*
X0393525Y0077659D01*
X0393462Y0077501D01*
X0393403Y0077341D01*
X0393348Y0077179D01*
X0393297Y0077017D01*
X0393250Y0076853D01*
X0393207Y0076688D01*
X0393167Y0076522D01*
X0393132Y0076355D01*
X0393101Y0076188D01*
X0393075Y0076019D01*
X0393052Y0075850D01*
X0393033Y0075681D01*
X0393019Y0075511D01*
X0393008Y0075341D01*
X0393002Y0075170D01*
X0393000Y0075000D01*
D17*
X0200000Y0269000D02*
X0197500Y0266500D01*
X0192500Y0266500D01*
X0190000Y0269000D01*
X0187500Y0266500D01*
X0182500Y0266500D01*
X0180000Y0269000D01*
X0180000Y0274000D01*
X0182500Y0276500D01*
X0187500Y0276500D01*
X0190000Y0274000D01*
X0192500Y0276500D01*
X0197500Y0276500D01*
X0200000Y0274000D01*
X0200000Y0269000D01*
X0100000Y0309000D02*
X0097500Y0306500D01*
X0092500Y0306500D01*
X0090000Y0309000D01*
X0087500Y0306500D01*
X0082500Y0306500D01*
X0080000Y0309000D01*
X0080000Y0314000D01*
X0082500Y0316500D01*
X0087500Y0316500D01*
X0090000Y0314000D01*
X0092500Y0316500D01*
X0097500Y0316500D01*
X0100000Y0314000D01*
X0100000Y0309000D01*
X0070028Y0319622D02*
X0066091Y0319622D01*
X0070028Y0319622D02*
X0070028Y0272378D01*
X0066091Y0272378D01*
X0054280Y0272378D02*
X0026720Y0272378D01*
X0026720Y0319622D01*
X0054280Y0319622D01*
X0055000Y0083232D02*
X0038071Y0083232D01*
X0030630Y0083232D02*
X0017205Y0083232D01*
X0017205Y0049768D01*
X0017205Y0049965D01*
X0017205Y0049768D02*
X0058937Y0049768D01*
X0058937Y0067484D01*
D18*
X0058418Y0089200D02*
X0059185Y0089967D01*
X0058418Y0089200D02*
X0056883Y0089200D01*
X0056116Y0089967D01*
X0056116Y0093037D01*
X0056883Y0093804D01*
X0058418Y0093804D01*
X0059185Y0093037D01*
X0054581Y0093037D02*
X0054581Y0089967D01*
X0053814Y0089200D01*
X0051512Y0089200D01*
X0051512Y0093804D01*
X0053814Y0093804D01*
X0054581Y0093037D01*
X0045373Y0093804D02*
X0045373Y0090735D01*
X0043839Y0089200D01*
X0042304Y0090735D01*
X0042304Y0093804D01*
X0040769Y0093804D02*
X0037700Y0093804D01*
X0037700Y0091502D01*
X0039235Y0092269D01*
X0040002Y0092269D01*
X0040769Y0091502D01*
X0040769Y0089967D01*
X0040002Y0089200D01*
X0038467Y0089200D01*
X0037700Y0089967D01*
X0182700Y0259200D02*
X0184235Y0259200D01*
X0183467Y0259200D02*
X0183467Y0263804D01*
X0182700Y0263804D02*
X0184235Y0263804D01*
X0185769Y0263804D02*
X0188071Y0263804D01*
X0188839Y0263037D01*
X0188839Y0261502D01*
X0188071Y0260735D01*
X0185769Y0260735D01*
X0187304Y0260735D02*
X0188839Y0259200D01*
X0190373Y0259967D02*
X0191141Y0259200D01*
X0192675Y0259200D01*
X0193442Y0259967D01*
X0193442Y0263037D01*
X0192675Y0263804D01*
X0191141Y0263804D01*
X0190373Y0263037D01*
X0190373Y0259967D01*
X0191908Y0260735D02*
X0193442Y0259200D01*
X0185769Y0259200D02*
X0185769Y0263804D01*
X0139086Y0299467D02*
X0139086Y0301002D01*
X0138318Y0301769D01*
X0136784Y0301769D01*
X0136016Y0301002D01*
X0136016Y0299467D01*
X0136784Y0298700D01*
X0138318Y0298700D01*
X0139086Y0299467D01*
X0134482Y0298700D02*
X0132947Y0298700D01*
X0133714Y0298700D02*
X0133714Y0301769D01*
X0132947Y0301769D01*
X0131412Y0301769D02*
X0129110Y0301769D01*
X0128343Y0301002D01*
X0128343Y0299467D01*
X0129110Y0298700D01*
X0131412Y0298700D01*
X0131412Y0303304D01*
X0133714Y0303304D02*
X0133714Y0304071D01*
X0126809Y0301769D02*
X0126809Y0298700D01*
X0124507Y0298700D01*
X0123739Y0299467D01*
X0123739Y0301769D01*
X0122205Y0301769D02*
X0120670Y0303304D01*
X0119135Y0301769D01*
X0119135Y0298700D01*
X0119135Y0301002D02*
X0122205Y0301002D01*
X0122205Y0301769D02*
X0122205Y0298700D01*
X0112997Y0299467D02*
X0112229Y0300235D01*
X0110695Y0300235D01*
X0109927Y0301002D01*
X0110695Y0301769D01*
X0112997Y0301769D01*
X0112997Y0299467D02*
X0112229Y0298700D01*
X0109927Y0298700D01*
X0108393Y0298700D02*
X0108393Y0301769D01*
X0108393Y0298700D02*
X0106091Y0298700D01*
X0105324Y0299467D01*
X0105324Y0301769D01*
X0103789Y0301769D02*
X0103789Y0302537D01*
X0103022Y0303304D01*
X0100720Y0303304D01*
X0100720Y0298700D01*
X0103022Y0298700D01*
X0103789Y0299467D01*
X0103789Y0300235D01*
X0103022Y0301002D01*
X0100720Y0301002D01*
X0103022Y0301002D02*
X0103789Y0301769D01*
X0094581Y0301769D02*
X0091512Y0298700D01*
X0094581Y0298700D01*
X0094581Y0301769D02*
X0091512Y0301769D01*
X0089977Y0301002D02*
X0086908Y0301002D01*
X0086908Y0298700D02*
X0086908Y0303304D01*
X0085373Y0303304D02*
X0085373Y0298700D01*
X0082304Y0298700D02*
X0082304Y0303304D01*
X0083839Y0301769D01*
X0085373Y0303304D01*
X0089977Y0303304D02*
X0089977Y0298700D01*
X0080769Y0298700D02*
X0077700Y0298700D01*
X0079235Y0298700D02*
X0079235Y0303304D01*
X0077700Y0301769D01*
X0067333Y0268804D02*
X0067333Y0264200D01*
X0065799Y0264200D02*
X0063497Y0264200D01*
X0062729Y0264967D01*
X0062729Y0266502D01*
X0063497Y0267269D01*
X0065799Y0267269D01*
X0067333Y0265735D02*
X0069635Y0267269D01*
X0067333Y0265735D02*
X0069635Y0264200D01*
X0061195Y0264200D02*
X0058893Y0264200D01*
X0058126Y0264967D01*
X0058893Y0265735D01*
X0061195Y0265735D01*
X0061195Y0266502D02*
X0061195Y0264200D01*
X0061195Y0266502D02*
X0060427Y0267269D01*
X0058893Y0267269D01*
X0056591Y0268804D02*
X0055056Y0268804D01*
X0055824Y0268804D02*
X0055824Y0264967D01*
X0055056Y0264200D01*
X0054289Y0264200D01*
X0053522Y0264967D01*
X0047383Y0264200D02*
X0047383Y0266502D01*
X0046616Y0267269D01*
X0045848Y0266502D01*
X0045848Y0264200D01*
X0044314Y0264200D02*
X0044314Y0267269D01*
X0045081Y0267269D01*
X0045848Y0266502D01*
X0042779Y0266502D02*
X0042779Y0264200D01*
X0041244Y0264200D02*
X0041244Y0266502D01*
X0042012Y0267269D01*
X0042779Y0266502D01*
X0041244Y0266502D02*
X0040477Y0267269D01*
X0039710Y0267269D01*
X0039710Y0264200D01*
X0038175Y0264967D02*
X0037408Y0264200D01*
X0035873Y0264200D01*
X0035106Y0264967D01*
X0033571Y0264967D02*
X0033571Y0264200D01*
X0032804Y0264200D01*
X0032804Y0264967D01*
X0033571Y0264967D01*
X0035106Y0266502D02*
X0035106Y0268804D01*
X0038175Y0268804D01*
X0037408Y0267269D02*
X0038175Y0266502D01*
X0038175Y0264967D01*
X0037408Y0267269D02*
X0036641Y0267269D01*
X0035106Y0266502D01*
X0031269Y0267269D02*
X0031269Y0268037D01*
X0030502Y0268804D01*
X0028967Y0268804D01*
X0028200Y0268037D01*
X0029735Y0266502D02*
X0030502Y0266502D01*
X0031269Y0265735D01*
X0031269Y0264967D01*
X0030502Y0264200D01*
X0028967Y0264200D01*
X0028200Y0264967D01*
X0030502Y0266502D02*
X0031269Y0267269D01*
D19*
X0110800Y0286500D03*
X0139200Y0286500D03*
X0335800Y0096500D03*
X0364200Y0096500D03*
X0349200Y0026500D03*
X0320800Y0026500D03*
D20*
X0175000Y0142300D03*
X0175000Y0170700D03*
X0120000Y0180700D03*
X0100000Y0180700D03*
X0100000Y0152300D03*
X0120000Y0152300D03*
X0055000Y0167300D03*
X0040000Y0157300D03*
X0040000Y0185700D03*
X0055000Y0195700D03*
M02*
