G75*
%MOIN*%
%OFA0B0*%
%FSLAX25Y25*%
%IPPOS*%
%LPD*%
%AMOC8*
5,1,8,0,0,1.08239X$1,22.5*
%
%ADD10C,0.00000*%
%ADD11OC8,0.04800*%
%ADD12OC8,0.05000*%
%ADD13C,0.05000*%
%ADD14C,0.04800*%
%ADD15OC8,0.05400*%
%ADD16C,0.08600*%
%ADD17C,0.07874*%
%ADD18C,0.07400*%
%ADD19C,0.03600*%
%ADD20C,0.04000*%
%ADD21C,0.02400*%
%ADD22C,0.01000*%
%ADD23C,0.02400*%
%ADD24C,0.03200*%
%ADD25C,0.03000*%
D10*
X0025000Y0011500D02*
X0025000Y0326461D01*
X0418701Y0326461D01*
X0418701Y0011500D01*
X0025000Y0011500D01*
X0028295Y0276315D02*
X0028297Y0276412D01*
X0028303Y0276509D01*
X0028313Y0276605D01*
X0028327Y0276701D01*
X0028345Y0276797D01*
X0028366Y0276891D01*
X0028392Y0276985D01*
X0028421Y0277077D01*
X0028455Y0277168D01*
X0028491Y0277258D01*
X0028532Y0277346D01*
X0028576Y0277432D01*
X0028624Y0277517D01*
X0028675Y0277599D01*
X0028729Y0277680D01*
X0028787Y0277758D01*
X0028848Y0277833D01*
X0028911Y0277906D01*
X0028978Y0277977D01*
X0029048Y0278044D01*
X0029120Y0278109D01*
X0029195Y0278170D01*
X0029273Y0278229D01*
X0029352Y0278284D01*
X0029434Y0278336D01*
X0029518Y0278384D01*
X0029604Y0278429D01*
X0029692Y0278471D01*
X0029781Y0278509D01*
X0029872Y0278543D01*
X0029964Y0278573D01*
X0030057Y0278600D01*
X0030152Y0278622D01*
X0030247Y0278641D01*
X0030343Y0278656D01*
X0030439Y0278667D01*
X0030536Y0278674D01*
X0030633Y0278677D01*
X0030730Y0278676D01*
X0030827Y0278671D01*
X0030923Y0278662D01*
X0031019Y0278649D01*
X0031115Y0278632D01*
X0031210Y0278611D01*
X0031303Y0278587D01*
X0031396Y0278558D01*
X0031488Y0278526D01*
X0031578Y0278490D01*
X0031666Y0278451D01*
X0031753Y0278407D01*
X0031838Y0278361D01*
X0031921Y0278310D01*
X0032002Y0278257D01*
X0032080Y0278200D01*
X0032157Y0278140D01*
X0032230Y0278077D01*
X0032301Y0278011D01*
X0032369Y0277942D01*
X0032435Y0277870D01*
X0032497Y0277796D01*
X0032556Y0277719D01*
X0032612Y0277640D01*
X0032665Y0277558D01*
X0032715Y0277475D01*
X0032760Y0277389D01*
X0032803Y0277302D01*
X0032842Y0277213D01*
X0032877Y0277123D01*
X0032908Y0277031D01*
X0032935Y0276938D01*
X0032959Y0276844D01*
X0032979Y0276749D01*
X0032995Y0276653D01*
X0033007Y0276557D01*
X0033015Y0276460D01*
X0033019Y0276363D01*
X0033019Y0276267D01*
X0033015Y0276170D01*
X0033007Y0276073D01*
X0032995Y0275977D01*
X0032979Y0275881D01*
X0032959Y0275786D01*
X0032935Y0275692D01*
X0032908Y0275599D01*
X0032877Y0275507D01*
X0032842Y0275417D01*
X0032803Y0275328D01*
X0032760Y0275241D01*
X0032715Y0275155D01*
X0032665Y0275072D01*
X0032612Y0274990D01*
X0032556Y0274911D01*
X0032497Y0274834D01*
X0032435Y0274760D01*
X0032369Y0274688D01*
X0032301Y0274619D01*
X0032230Y0274553D01*
X0032157Y0274490D01*
X0032080Y0274430D01*
X0032002Y0274373D01*
X0031921Y0274320D01*
X0031838Y0274269D01*
X0031753Y0274223D01*
X0031666Y0274179D01*
X0031578Y0274140D01*
X0031488Y0274104D01*
X0031396Y0274072D01*
X0031303Y0274043D01*
X0031210Y0274019D01*
X0031115Y0273998D01*
X0031019Y0273981D01*
X0030923Y0273968D01*
X0030827Y0273959D01*
X0030730Y0273954D01*
X0030633Y0273953D01*
X0030536Y0273956D01*
X0030439Y0273963D01*
X0030343Y0273974D01*
X0030247Y0273989D01*
X0030152Y0274008D01*
X0030057Y0274030D01*
X0029964Y0274057D01*
X0029872Y0274087D01*
X0029781Y0274121D01*
X0029692Y0274159D01*
X0029604Y0274201D01*
X0029518Y0274246D01*
X0029434Y0274294D01*
X0029352Y0274346D01*
X0029273Y0274401D01*
X0029195Y0274460D01*
X0029120Y0274521D01*
X0029048Y0274586D01*
X0028978Y0274653D01*
X0028911Y0274724D01*
X0028848Y0274797D01*
X0028787Y0274872D01*
X0028729Y0274950D01*
X0028675Y0275031D01*
X0028624Y0275113D01*
X0028576Y0275198D01*
X0028532Y0275284D01*
X0028491Y0275372D01*
X0028455Y0275462D01*
X0028421Y0275553D01*
X0028392Y0275645D01*
X0028366Y0275739D01*
X0028345Y0275833D01*
X0028327Y0275929D01*
X0028313Y0276025D01*
X0028303Y0276121D01*
X0028297Y0276218D01*
X0028295Y0276315D01*
X0038138Y0276315D02*
X0038140Y0276412D01*
X0038146Y0276509D01*
X0038156Y0276605D01*
X0038170Y0276701D01*
X0038188Y0276797D01*
X0038209Y0276891D01*
X0038235Y0276985D01*
X0038264Y0277077D01*
X0038298Y0277168D01*
X0038334Y0277258D01*
X0038375Y0277346D01*
X0038419Y0277432D01*
X0038467Y0277517D01*
X0038518Y0277599D01*
X0038572Y0277680D01*
X0038630Y0277758D01*
X0038691Y0277833D01*
X0038754Y0277906D01*
X0038821Y0277977D01*
X0038891Y0278044D01*
X0038963Y0278109D01*
X0039038Y0278170D01*
X0039116Y0278229D01*
X0039195Y0278284D01*
X0039277Y0278336D01*
X0039361Y0278384D01*
X0039447Y0278429D01*
X0039535Y0278471D01*
X0039624Y0278509D01*
X0039715Y0278543D01*
X0039807Y0278573D01*
X0039900Y0278600D01*
X0039995Y0278622D01*
X0040090Y0278641D01*
X0040186Y0278656D01*
X0040282Y0278667D01*
X0040379Y0278674D01*
X0040476Y0278677D01*
X0040573Y0278676D01*
X0040670Y0278671D01*
X0040766Y0278662D01*
X0040862Y0278649D01*
X0040958Y0278632D01*
X0041053Y0278611D01*
X0041146Y0278587D01*
X0041239Y0278558D01*
X0041331Y0278526D01*
X0041421Y0278490D01*
X0041509Y0278451D01*
X0041596Y0278407D01*
X0041681Y0278361D01*
X0041764Y0278310D01*
X0041845Y0278257D01*
X0041923Y0278200D01*
X0042000Y0278140D01*
X0042073Y0278077D01*
X0042144Y0278011D01*
X0042212Y0277942D01*
X0042278Y0277870D01*
X0042340Y0277796D01*
X0042399Y0277719D01*
X0042455Y0277640D01*
X0042508Y0277558D01*
X0042558Y0277475D01*
X0042603Y0277389D01*
X0042646Y0277302D01*
X0042685Y0277213D01*
X0042720Y0277123D01*
X0042751Y0277031D01*
X0042778Y0276938D01*
X0042802Y0276844D01*
X0042822Y0276749D01*
X0042838Y0276653D01*
X0042850Y0276557D01*
X0042858Y0276460D01*
X0042862Y0276363D01*
X0042862Y0276267D01*
X0042858Y0276170D01*
X0042850Y0276073D01*
X0042838Y0275977D01*
X0042822Y0275881D01*
X0042802Y0275786D01*
X0042778Y0275692D01*
X0042751Y0275599D01*
X0042720Y0275507D01*
X0042685Y0275417D01*
X0042646Y0275328D01*
X0042603Y0275241D01*
X0042558Y0275155D01*
X0042508Y0275072D01*
X0042455Y0274990D01*
X0042399Y0274911D01*
X0042340Y0274834D01*
X0042278Y0274760D01*
X0042212Y0274688D01*
X0042144Y0274619D01*
X0042073Y0274553D01*
X0042000Y0274490D01*
X0041923Y0274430D01*
X0041845Y0274373D01*
X0041764Y0274320D01*
X0041681Y0274269D01*
X0041596Y0274223D01*
X0041509Y0274179D01*
X0041421Y0274140D01*
X0041331Y0274104D01*
X0041239Y0274072D01*
X0041146Y0274043D01*
X0041053Y0274019D01*
X0040958Y0273998D01*
X0040862Y0273981D01*
X0040766Y0273968D01*
X0040670Y0273959D01*
X0040573Y0273954D01*
X0040476Y0273953D01*
X0040379Y0273956D01*
X0040282Y0273963D01*
X0040186Y0273974D01*
X0040090Y0273989D01*
X0039995Y0274008D01*
X0039900Y0274030D01*
X0039807Y0274057D01*
X0039715Y0274087D01*
X0039624Y0274121D01*
X0039535Y0274159D01*
X0039447Y0274201D01*
X0039361Y0274246D01*
X0039277Y0274294D01*
X0039195Y0274346D01*
X0039116Y0274401D01*
X0039038Y0274460D01*
X0038963Y0274521D01*
X0038891Y0274586D01*
X0038821Y0274653D01*
X0038754Y0274724D01*
X0038691Y0274797D01*
X0038630Y0274872D01*
X0038572Y0274950D01*
X0038518Y0275031D01*
X0038467Y0275113D01*
X0038419Y0275198D01*
X0038375Y0275284D01*
X0038334Y0275372D01*
X0038298Y0275462D01*
X0038264Y0275553D01*
X0038235Y0275645D01*
X0038209Y0275739D01*
X0038188Y0275833D01*
X0038170Y0275929D01*
X0038156Y0276025D01*
X0038146Y0276121D01*
X0038140Y0276218D01*
X0038138Y0276315D01*
X0057823Y0296000D02*
X0057825Y0296097D01*
X0057831Y0296194D01*
X0057841Y0296290D01*
X0057855Y0296386D01*
X0057873Y0296482D01*
X0057894Y0296576D01*
X0057920Y0296670D01*
X0057949Y0296762D01*
X0057983Y0296853D01*
X0058019Y0296943D01*
X0058060Y0297031D01*
X0058104Y0297117D01*
X0058152Y0297202D01*
X0058203Y0297284D01*
X0058257Y0297365D01*
X0058315Y0297443D01*
X0058376Y0297518D01*
X0058439Y0297591D01*
X0058506Y0297662D01*
X0058576Y0297729D01*
X0058648Y0297794D01*
X0058723Y0297855D01*
X0058801Y0297914D01*
X0058880Y0297969D01*
X0058962Y0298021D01*
X0059046Y0298069D01*
X0059132Y0298114D01*
X0059220Y0298156D01*
X0059309Y0298194D01*
X0059400Y0298228D01*
X0059492Y0298258D01*
X0059585Y0298285D01*
X0059680Y0298307D01*
X0059775Y0298326D01*
X0059871Y0298341D01*
X0059967Y0298352D01*
X0060064Y0298359D01*
X0060161Y0298362D01*
X0060258Y0298361D01*
X0060355Y0298356D01*
X0060451Y0298347D01*
X0060547Y0298334D01*
X0060643Y0298317D01*
X0060738Y0298296D01*
X0060831Y0298272D01*
X0060924Y0298243D01*
X0061016Y0298211D01*
X0061106Y0298175D01*
X0061194Y0298136D01*
X0061281Y0298092D01*
X0061366Y0298046D01*
X0061449Y0297995D01*
X0061530Y0297942D01*
X0061608Y0297885D01*
X0061685Y0297825D01*
X0061758Y0297762D01*
X0061829Y0297696D01*
X0061897Y0297627D01*
X0061963Y0297555D01*
X0062025Y0297481D01*
X0062084Y0297404D01*
X0062140Y0297325D01*
X0062193Y0297243D01*
X0062243Y0297160D01*
X0062288Y0297074D01*
X0062331Y0296987D01*
X0062370Y0296898D01*
X0062405Y0296808D01*
X0062436Y0296716D01*
X0062463Y0296623D01*
X0062487Y0296529D01*
X0062507Y0296434D01*
X0062523Y0296338D01*
X0062535Y0296242D01*
X0062543Y0296145D01*
X0062547Y0296048D01*
X0062547Y0295952D01*
X0062543Y0295855D01*
X0062535Y0295758D01*
X0062523Y0295662D01*
X0062507Y0295566D01*
X0062487Y0295471D01*
X0062463Y0295377D01*
X0062436Y0295284D01*
X0062405Y0295192D01*
X0062370Y0295102D01*
X0062331Y0295013D01*
X0062288Y0294926D01*
X0062243Y0294840D01*
X0062193Y0294757D01*
X0062140Y0294675D01*
X0062084Y0294596D01*
X0062025Y0294519D01*
X0061963Y0294445D01*
X0061897Y0294373D01*
X0061829Y0294304D01*
X0061758Y0294238D01*
X0061685Y0294175D01*
X0061608Y0294115D01*
X0061530Y0294058D01*
X0061449Y0294005D01*
X0061366Y0293954D01*
X0061281Y0293908D01*
X0061194Y0293864D01*
X0061106Y0293825D01*
X0061016Y0293789D01*
X0060924Y0293757D01*
X0060831Y0293728D01*
X0060738Y0293704D01*
X0060643Y0293683D01*
X0060547Y0293666D01*
X0060451Y0293653D01*
X0060355Y0293644D01*
X0060258Y0293639D01*
X0060161Y0293638D01*
X0060064Y0293641D01*
X0059967Y0293648D01*
X0059871Y0293659D01*
X0059775Y0293674D01*
X0059680Y0293693D01*
X0059585Y0293715D01*
X0059492Y0293742D01*
X0059400Y0293772D01*
X0059309Y0293806D01*
X0059220Y0293844D01*
X0059132Y0293886D01*
X0059046Y0293931D01*
X0058962Y0293979D01*
X0058880Y0294031D01*
X0058801Y0294086D01*
X0058723Y0294145D01*
X0058648Y0294206D01*
X0058576Y0294271D01*
X0058506Y0294338D01*
X0058439Y0294409D01*
X0058376Y0294482D01*
X0058315Y0294557D01*
X0058257Y0294635D01*
X0058203Y0294716D01*
X0058152Y0294798D01*
X0058104Y0294883D01*
X0058060Y0294969D01*
X0058019Y0295057D01*
X0057983Y0295147D01*
X0057949Y0295238D01*
X0057920Y0295330D01*
X0057894Y0295424D01*
X0057873Y0295518D01*
X0057855Y0295614D01*
X0057841Y0295710D01*
X0057831Y0295806D01*
X0057825Y0295903D01*
X0057823Y0296000D01*
X0038138Y0315685D02*
X0038140Y0315782D01*
X0038146Y0315879D01*
X0038156Y0315975D01*
X0038170Y0316071D01*
X0038188Y0316167D01*
X0038209Y0316261D01*
X0038235Y0316355D01*
X0038264Y0316447D01*
X0038298Y0316538D01*
X0038334Y0316628D01*
X0038375Y0316716D01*
X0038419Y0316802D01*
X0038467Y0316887D01*
X0038518Y0316969D01*
X0038572Y0317050D01*
X0038630Y0317128D01*
X0038691Y0317203D01*
X0038754Y0317276D01*
X0038821Y0317347D01*
X0038891Y0317414D01*
X0038963Y0317479D01*
X0039038Y0317540D01*
X0039116Y0317599D01*
X0039195Y0317654D01*
X0039277Y0317706D01*
X0039361Y0317754D01*
X0039447Y0317799D01*
X0039535Y0317841D01*
X0039624Y0317879D01*
X0039715Y0317913D01*
X0039807Y0317943D01*
X0039900Y0317970D01*
X0039995Y0317992D01*
X0040090Y0318011D01*
X0040186Y0318026D01*
X0040282Y0318037D01*
X0040379Y0318044D01*
X0040476Y0318047D01*
X0040573Y0318046D01*
X0040670Y0318041D01*
X0040766Y0318032D01*
X0040862Y0318019D01*
X0040958Y0318002D01*
X0041053Y0317981D01*
X0041146Y0317957D01*
X0041239Y0317928D01*
X0041331Y0317896D01*
X0041421Y0317860D01*
X0041509Y0317821D01*
X0041596Y0317777D01*
X0041681Y0317731D01*
X0041764Y0317680D01*
X0041845Y0317627D01*
X0041923Y0317570D01*
X0042000Y0317510D01*
X0042073Y0317447D01*
X0042144Y0317381D01*
X0042212Y0317312D01*
X0042278Y0317240D01*
X0042340Y0317166D01*
X0042399Y0317089D01*
X0042455Y0317010D01*
X0042508Y0316928D01*
X0042558Y0316845D01*
X0042603Y0316759D01*
X0042646Y0316672D01*
X0042685Y0316583D01*
X0042720Y0316493D01*
X0042751Y0316401D01*
X0042778Y0316308D01*
X0042802Y0316214D01*
X0042822Y0316119D01*
X0042838Y0316023D01*
X0042850Y0315927D01*
X0042858Y0315830D01*
X0042862Y0315733D01*
X0042862Y0315637D01*
X0042858Y0315540D01*
X0042850Y0315443D01*
X0042838Y0315347D01*
X0042822Y0315251D01*
X0042802Y0315156D01*
X0042778Y0315062D01*
X0042751Y0314969D01*
X0042720Y0314877D01*
X0042685Y0314787D01*
X0042646Y0314698D01*
X0042603Y0314611D01*
X0042558Y0314525D01*
X0042508Y0314442D01*
X0042455Y0314360D01*
X0042399Y0314281D01*
X0042340Y0314204D01*
X0042278Y0314130D01*
X0042212Y0314058D01*
X0042144Y0313989D01*
X0042073Y0313923D01*
X0042000Y0313860D01*
X0041923Y0313800D01*
X0041845Y0313743D01*
X0041764Y0313690D01*
X0041681Y0313639D01*
X0041596Y0313593D01*
X0041509Y0313549D01*
X0041421Y0313510D01*
X0041331Y0313474D01*
X0041239Y0313442D01*
X0041146Y0313413D01*
X0041053Y0313389D01*
X0040958Y0313368D01*
X0040862Y0313351D01*
X0040766Y0313338D01*
X0040670Y0313329D01*
X0040573Y0313324D01*
X0040476Y0313323D01*
X0040379Y0313326D01*
X0040282Y0313333D01*
X0040186Y0313344D01*
X0040090Y0313359D01*
X0039995Y0313378D01*
X0039900Y0313400D01*
X0039807Y0313427D01*
X0039715Y0313457D01*
X0039624Y0313491D01*
X0039535Y0313529D01*
X0039447Y0313571D01*
X0039361Y0313616D01*
X0039277Y0313664D01*
X0039195Y0313716D01*
X0039116Y0313771D01*
X0039038Y0313830D01*
X0038963Y0313891D01*
X0038891Y0313956D01*
X0038821Y0314023D01*
X0038754Y0314094D01*
X0038691Y0314167D01*
X0038630Y0314242D01*
X0038572Y0314320D01*
X0038518Y0314401D01*
X0038467Y0314483D01*
X0038419Y0314568D01*
X0038375Y0314654D01*
X0038334Y0314742D01*
X0038298Y0314832D01*
X0038264Y0314923D01*
X0038235Y0315015D01*
X0038209Y0315109D01*
X0038188Y0315203D01*
X0038170Y0315299D01*
X0038156Y0315395D01*
X0038146Y0315491D01*
X0038140Y0315588D01*
X0038138Y0315685D01*
X0028295Y0315685D02*
X0028297Y0315782D01*
X0028303Y0315879D01*
X0028313Y0315975D01*
X0028327Y0316071D01*
X0028345Y0316167D01*
X0028366Y0316261D01*
X0028392Y0316355D01*
X0028421Y0316447D01*
X0028455Y0316538D01*
X0028491Y0316628D01*
X0028532Y0316716D01*
X0028576Y0316802D01*
X0028624Y0316887D01*
X0028675Y0316969D01*
X0028729Y0317050D01*
X0028787Y0317128D01*
X0028848Y0317203D01*
X0028911Y0317276D01*
X0028978Y0317347D01*
X0029048Y0317414D01*
X0029120Y0317479D01*
X0029195Y0317540D01*
X0029273Y0317599D01*
X0029352Y0317654D01*
X0029434Y0317706D01*
X0029518Y0317754D01*
X0029604Y0317799D01*
X0029692Y0317841D01*
X0029781Y0317879D01*
X0029872Y0317913D01*
X0029964Y0317943D01*
X0030057Y0317970D01*
X0030152Y0317992D01*
X0030247Y0318011D01*
X0030343Y0318026D01*
X0030439Y0318037D01*
X0030536Y0318044D01*
X0030633Y0318047D01*
X0030730Y0318046D01*
X0030827Y0318041D01*
X0030923Y0318032D01*
X0031019Y0318019D01*
X0031115Y0318002D01*
X0031210Y0317981D01*
X0031303Y0317957D01*
X0031396Y0317928D01*
X0031488Y0317896D01*
X0031578Y0317860D01*
X0031666Y0317821D01*
X0031753Y0317777D01*
X0031838Y0317731D01*
X0031921Y0317680D01*
X0032002Y0317627D01*
X0032080Y0317570D01*
X0032157Y0317510D01*
X0032230Y0317447D01*
X0032301Y0317381D01*
X0032369Y0317312D01*
X0032435Y0317240D01*
X0032497Y0317166D01*
X0032556Y0317089D01*
X0032612Y0317010D01*
X0032665Y0316928D01*
X0032715Y0316845D01*
X0032760Y0316759D01*
X0032803Y0316672D01*
X0032842Y0316583D01*
X0032877Y0316493D01*
X0032908Y0316401D01*
X0032935Y0316308D01*
X0032959Y0316214D01*
X0032979Y0316119D01*
X0032995Y0316023D01*
X0033007Y0315927D01*
X0033015Y0315830D01*
X0033019Y0315733D01*
X0033019Y0315637D01*
X0033015Y0315540D01*
X0033007Y0315443D01*
X0032995Y0315347D01*
X0032979Y0315251D01*
X0032959Y0315156D01*
X0032935Y0315062D01*
X0032908Y0314969D01*
X0032877Y0314877D01*
X0032842Y0314787D01*
X0032803Y0314698D01*
X0032760Y0314611D01*
X0032715Y0314525D01*
X0032665Y0314442D01*
X0032612Y0314360D01*
X0032556Y0314281D01*
X0032497Y0314204D01*
X0032435Y0314130D01*
X0032369Y0314058D01*
X0032301Y0313989D01*
X0032230Y0313923D01*
X0032157Y0313860D01*
X0032080Y0313800D01*
X0032002Y0313743D01*
X0031921Y0313690D01*
X0031838Y0313639D01*
X0031753Y0313593D01*
X0031666Y0313549D01*
X0031578Y0313510D01*
X0031488Y0313474D01*
X0031396Y0313442D01*
X0031303Y0313413D01*
X0031210Y0313389D01*
X0031115Y0313368D01*
X0031019Y0313351D01*
X0030923Y0313338D01*
X0030827Y0313329D01*
X0030730Y0313324D01*
X0030633Y0313323D01*
X0030536Y0313326D01*
X0030439Y0313333D01*
X0030343Y0313344D01*
X0030247Y0313359D01*
X0030152Y0313378D01*
X0030057Y0313400D01*
X0029964Y0313427D01*
X0029872Y0313457D01*
X0029781Y0313491D01*
X0029692Y0313529D01*
X0029604Y0313571D01*
X0029518Y0313616D01*
X0029434Y0313664D01*
X0029352Y0313716D01*
X0029273Y0313771D01*
X0029195Y0313830D01*
X0029120Y0313891D01*
X0029048Y0313956D01*
X0028978Y0314023D01*
X0028911Y0314094D01*
X0028848Y0314167D01*
X0028787Y0314242D01*
X0028729Y0314320D01*
X0028675Y0314401D01*
X0028624Y0314483D01*
X0028576Y0314568D01*
X0028532Y0314654D01*
X0028491Y0314742D01*
X0028455Y0314832D01*
X0028421Y0314923D01*
X0028392Y0315015D01*
X0028366Y0315109D01*
X0028345Y0315203D01*
X0028327Y0315299D01*
X0028313Y0315395D01*
X0028303Y0315491D01*
X0028297Y0315588D01*
X0028295Y0315685D01*
D11*
X0105000Y0286500D03*
X0145000Y0286500D03*
X0055000Y0201500D03*
X0040000Y0191500D03*
X0055000Y0161500D03*
X0040000Y0151500D03*
X0080000Y0166500D03*
X0080000Y0186500D03*
X0100000Y0186500D03*
X0120000Y0186500D03*
X0120000Y0146500D03*
X0110000Y0131500D03*
X0100000Y0146500D03*
X0110000Y0111500D03*
X0110000Y0076500D03*
X0110000Y0056500D03*
X0175000Y0136500D03*
X0175000Y0176500D03*
X0280000Y0086500D03*
X0280000Y0066500D03*
X0330000Y0096500D03*
X0350000Y0116500D03*
X0370000Y0116500D03*
X0370000Y0096500D03*
X0370000Y0026500D03*
X0355000Y0026500D03*
X0390000Y0026500D03*
X0315000Y0026500D03*
D12*
X0145000Y0172500D03*
X0085000Y0260500D03*
X0080000Y0062500D03*
D13*
X0080000Y0070500D03*
X0145000Y0180500D03*
X0085000Y0252500D03*
D14*
X0085000Y0233900D02*
X0085000Y0229100D01*
X0095000Y0229100D02*
X0095000Y0233900D01*
X0105000Y0233900D02*
X0105000Y0229100D01*
X0115000Y0229100D02*
X0115000Y0233900D01*
X0125000Y0233900D02*
X0125000Y0229100D01*
X0135000Y0229100D02*
X0135000Y0233900D01*
X0145000Y0233900D02*
X0145000Y0229100D01*
X0165000Y0229100D02*
X0165000Y0233900D01*
X0175000Y0233900D02*
X0175000Y0229100D01*
X0185000Y0229100D02*
X0185000Y0233900D01*
X0195000Y0233900D02*
X0195000Y0229100D01*
X0195000Y0203900D02*
X0195000Y0199100D01*
X0185000Y0199100D02*
X0185000Y0203900D01*
X0175000Y0203900D02*
X0175000Y0199100D01*
X0165000Y0199100D02*
X0165000Y0203900D01*
X0145000Y0203900D02*
X0145000Y0199100D01*
X0135000Y0199100D02*
X0135000Y0203900D01*
X0125000Y0203900D02*
X0125000Y0199100D01*
X0115000Y0199100D02*
X0115000Y0203900D01*
X0105000Y0203900D02*
X0105000Y0199100D01*
X0095000Y0199100D02*
X0095000Y0203900D01*
X0085000Y0203900D02*
X0085000Y0199100D01*
X0150000Y0108900D02*
X0150000Y0104100D01*
X0160000Y0104100D02*
X0160000Y0108900D01*
X0170000Y0108900D02*
X0170000Y0104100D01*
X0180000Y0104100D02*
X0180000Y0108900D01*
X0190000Y0108900D02*
X0190000Y0104100D01*
X0200000Y0104100D02*
X0200000Y0108900D01*
X0210000Y0108900D02*
X0210000Y0104100D01*
X0220000Y0104100D02*
X0220000Y0108900D01*
X0230000Y0108900D02*
X0230000Y0104100D01*
X0240000Y0104100D02*
X0240000Y0108900D01*
X0250000Y0108900D02*
X0250000Y0104100D01*
X0260000Y0104100D02*
X0260000Y0108900D01*
X0285000Y0134100D02*
X0285000Y0138900D01*
X0295000Y0138900D02*
X0295000Y0134100D01*
X0305000Y0134100D02*
X0305000Y0138900D01*
X0315000Y0138900D02*
X0315000Y0134100D01*
X0325000Y0134100D02*
X0325000Y0138900D01*
X0335000Y0138900D02*
X0335000Y0134100D01*
X0345000Y0134100D02*
X0345000Y0138900D01*
X0345000Y0164100D02*
X0345000Y0168900D01*
X0335000Y0168900D02*
X0335000Y0164100D01*
X0325000Y0164100D02*
X0325000Y0168900D01*
X0315000Y0168900D02*
X0315000Y0164100D01*
X0305000Y0164100D02*
X0305000Y0168900D01*
X0295000Y0168900D02*
X0295000Y0164100D01*
X0285000Y0164100D02*
X0285000Y0168900D01*
X0285000Y0179100D02*
X0285000Y0183900D01*
X0275000Y0183900D02*
X0275000Y0179100D01*
X0265000Y0179100D02*
X0265000Y0183900D01*
X0255000Y0183900D02*
X0255000Y0179100D01*
X0245000Y0179100D02*
X0245000Y0183900D01*
X0235000Y0183900D02*
X0235000Y0179100D01*
X0235000Y0209100D02*
X0235000Y0213900D01*
X0245000Y0213900D02*
X0245000Y0209100D01*
X0255000Y0209100D02*
X0255000Y0213900D01*
X0265000Y0213900D02*
X0265000Y0209100D01*
X0275000Y0209100D02*
X0275000Y0213900D01*
X0285000Y0213900D02*
X0285000Y0209100D01*
X0295000Y0209100D02*
X0295000Y0213900D01*
X0295000Y0183900D02*
X0295000Y0179100D01*
X0335000Y0179100D02*
X0335000Y0183900D01*
X0345000Y0183900D02*
X0345000Y0179100D01*
X0355000Y0179100D02*
X0355000Y0183900D01*
X0365000Y0183900D02*
X0365000Y0179100D01*
X0375000Y0179100D02*
X0375000Y0183900D01*
X0385000Y0183900D02*
X0385000Y0179100D01*
X0395000Y0179100D02*
X0395000Y0183900D01*
X0395000Y0209100D02*
X0395000Y0213900D01*
X0385000Y0213900D02*
X0385000Y0209100D01*
X0375000Y0209100D02*
X0375000Y0213900D01*
X0365000Y0213900D02*
X0365000Y0209100D01*
X0355000Y0209100D02*
X0355000Y0213900D01*
X0345000Y0213900D02*
X0345000Y0209100D01*
X0335000Y0209100D02*
X0335000Y0213900D01*
X0330000Y0078900D02*
X0330000Y0074100D01*
X0320000Y0074100D02*
X0320000Y0078900D01*
X0310000Y0078900D02*
X0310000Y0074100D01*
X0340000Y0074100D02*
X0340000Y0078900D01*
X0350000Y0078900D02*
X0350000Y0074100D01*
X0360000Y0074100D02*
X0360000Y0078900D01*
X0370000Y0078900D02*
X0370000Y0074100D01*
X0370000Y0048900D02*
X0370000Y0044100D01*
X0360000Y0044100D02*
X0360000Y0048900D01*
X0350000Y0048900D02*
X0350000Y0044100D01*
X0340000Y0044100D02*
X0340000Y0048900D01*
X0330000Y0048900D02*
X0330000Y0044100D01*
X0320000Y0044100D02*
X0320000Y0048900D01*
X0310000Y0048900D02*
X0310000Y0044100D01*
X0260000Y0044100D02*
X0260000Y0048900D01*
X0250000Y0048900D02*
X0250000Y0044100D01*
X0240000Y0044100D02*
X0240000Y0048900D01*
X0230000Y0048900D02*
X0230000Y0044100D01*
X0220000Y0044100D02*
X0220000Y0048900D01*
X0210000Y0048900D02*
X0210000Y0044100D01*
X0200000Y0044100D02*
X0200000Y0048900D01*
X0190000Y0048900D02*
X0190000Y0044100D01*
X0180000Y0044100D02*
X0180000Y0048900D01*
X0170000Y0048900D02*
X0170000Y0044100D01*
X0160000Y0044100D02*
X0160000Y0048900D01*
X0150000Y0048900D02*
X0150000Y0044100D01*
D15*
X0230000Y0241500D03*
X0240000Y0241500D03*
X0240000Y0251500D03*
X0230000Y0251500D03*
X0250000Y0251500D03*
X0260000Y0251500D03*
X0270000Y0251500D03*
X0270000Y0241500D03*
X0260000Y0241500D03*
X0250000Y0241500D03*
X0280000Y0241500D03*
X0290000Y0241500D03*
X0300000Y0241500D03*
X0300000Y0251500D03*
X0290000Y0251500D03*
X0280000Y0251500D03*
X0310000Y0251500D03*
X0320000Y0251500D03*
X0330000Y0251500D03*
X0340000Y0251500D03*
X0340000Y0241500D03*
X0330000Y0241500D03*
X0320000Y0241500D03*
X0310000Y0241500D03*
X0350000Y0241500D03*
X0360000Y0241500D03*
X0370000Y0241500D03*
X0370000Y0251500D03*
X0360000Y0251500D03*
X0350000Y0251500D03*
X0380000Y0251500D03*
X0390000Y0251500D03*
X0390000Y0241500D03*
X0380000Y0241500D03*
X0380000Y0291500D03*
X0390000Y0291500D03*
X0390000Y0301500D03*
X0380000Y0301500D03*
X0370000Y0301500D03*
X0360000Y0301500D03*
X0350000Y0301500D03*
X0350000Y0291500D03*
X0360000Y0291500D03*
X0370000Y0291500D03*
X0340000Y0291500D03*
X0330000Y0291500D03*
X0320000Y0291500D03*
X0310000Y0291500D03*
X0310000Y0301500D03*
X0320000Y0301500D03*
X0330000Y0301500D03*
X0340000Y0301500D03*
X0300000Y0301500D03*
X0290000Y0301500D03*
X0280000Y0301500D03*
X0280000Y0291500D03*
X0290000Y0291500D03*
X0300000Y0291500D03*
X0270000Y0291500D03*
X0260000Y0291500D03*
X0250000Y0291500D03*
X0250000Y0301500D03*
X0260000Y0301500D03*
X0270000Y0301500D03*
X0240000Y0301500D03*
X0230000Y0301500D03*
X0230000Y0291500D03*
X0240000Y0291500D03*
D16*
X0060185Y0286157D03*
X0060185Y0276315D03*
X0040500Y0296000D03*
X0060185Y0305843D03*
X0060185Y0315685D03*
D17*
X0059331Y0080280D02*
X0059331Y0072406D01*
X0051457Y0056657D02*
X0043583Y0056657D01*
X0034528Y0072406D02*
X0034528Y0080280D01*
D18*
X0185000Y0271500D03*
X0195000Y0271500D03*
X0095000Y0311500D03*
X0085000Y0311500D03*
D19*
X0398200Y0071500D02*
X0401800Y0071500D01*
X0401800Y0051500D02*
X0398200Y0051500D01*
D20*
X0375000Y0066500D02*
X0290500Y0066500D01*
X0281000Y0076000D01*
X0281000Y0085000D01*
X0280000Y0086500D01*
X0260000Y0106500D01*
X0259000Y0105000D01*
X0252500Y0098500D01*
X0237000Y0098500D01*
X0203500Y0065000D01*
X0203500Y0063500D01*
X0213000Y0064500D02*
X0235000Y0064500D01*
X0250000Y0049500D01*
X0250000Y0046500D01*
X0289500Y0076000D02*
X0309500Y0076000D01*
X0310000Y0076500D01*
X0246500Y0120500D02*
X0225500Y0141500D01*
X0225500Y0184000D01*
X0196000Y0213500D01*
X0196000Y0230000D01*
X0195000Y0231500D01*
X0195000Y0234500D01*
X0182000Y0247500D01*
X0178000Y0247500D01*
X0149000Y0240500D02*
X0148000Y0241500D01*
X0078500Y0241500D01*
X0069000Y0232000D01*
X0069000Y0142000D01*
X0126500Y0084500D01*
X0176000Y0084500D01*
X0150000Y0106500D02*
X0145000Y0111500D01*
X0121500Y0111500D01*
X0121500Y0123000D01*
X0127500Y0129000D01*
X0127500Y0172500D01*
X0123500Y0172500D01*
X0112500Y0183500D01*
X0112500Y0189500D01*
X0115000Y0192000D01*
X0115000Y0201500D01*
X0125000Y0201500D02*
X0125000Y0204500D01*
X0108000Y0221500D01*
X0082000Y0221500D01*
X0076000Y0227500D01*
X0076000Y0229000D01*
X0055000Y0201500D02*
X0055000Y0188500D01*
X0062000Y0181500D01*
X0100000Y0186000D02*
X0100000Y0186500D01*
X0100000Y0186000D02*
X0110000Y0176000D01*
X0110000Y0131500D01*
X0128500Y0120000D02*
X0152500Y0144000D01*
X0152500Y0176000D01*
X0148000Y0180500D01*
X0145000Y0180500D01*
X0140000Y0186500D02*
X0145000Y0191500D01*
X0148000Y0191500D01*
X0152500Y0196000D01*
X0152500Y0224000D01*
X0145000Y0231500D01*
X0135000Y0231500D01*
X0175000Y0201500D02*
X0175000Y0187000D01*
X0167500Y0179500D01*
X0167500Y0144000D01*
X0175000Y0136500D01*
X0145000Y0172500D02*
X0127500Y0172500D01*
X0120000Y0186500D02*
X0140000Y0186500D01*
X0175000Y0176500D02*
X0195000Y0196500D01*
X0195000Y0201500D01*
X0235000Y0211500D02*
X0235000Y0236500D01*
X0240000Y0241500D01*
X0250000Y0241500D01*
X0260000Y0241500D01*
X0270000Y0241500D01*
X0280000Y0241500D01*
X0290000Y0241500D01*
X0300000Y0241500D01*
X0300000Y0251500D02*
X0300000Y0252500D01*
X0291500Y0261000D01*
X0287500Y0261000D01*
X0235500Y0261000D01*
X0228500Y0242500D02*
X0213500Y0242500D01*
X0228500Y0242500D02*
X0230000Y0241500D01*
X0235000Y0236500D01*
X0177500Y0318500D02*
X0146500Y0287500D01*
X0145000Y0286500D01*
X0132500Y0274000D01*
X0074500Y0274000D01*
X0033500Y0262500D02*
X0033500Y0080000D01*
X0034528Y0078972D01*
X0034528Y0076343D01*
X0059331Y0076343D02*
X0059500Y0076000D01*
X0074000Y0076000D01*
X0078500Y0071500D01*
X0080000Y0070500D01*
X0086000Y0076500D01*
X0110000Y0076500D01*
X0110000Y0111500D02*
X0121500Y0111500D01*
X0336000Y0193000D02*
X0381500Y0193000D01*
X0395000Y0181500D02*
X0395000Y0181000D01*
X0350500Y0136500D01*
X0345000Y0136500D01*
X0350000Y0301500D02*
X0333000Y0318500D01*
X0222000Y0318500D01*
X0177500Y0318500D01*
D21*
X0210000Y0296500D03*
X0221500Y0285000D03*
X0235500Y0286000D03*
X0236000Y0278000D03*
X0238500Y0268000D03*
X0235500Y0261000D03*
X0222000Y0251500D03*
X0216500Y0257500D03*
X0218500Y0268500D03*
X0213500Y0242500D03*
X0228500Y0220500D03*
X0241500Y0222500D03*
X0260000Y0231000D03*
X0240000Y0203500D03*
X0178000Y0247500D03*
X0149000Y0240500D03*
X0076000Y0229000D03*
X0062000Y0181500D03*
X0128500Y0120000D03*
X0176000Y0084500D03*
X0203500Y0063500D03*
X0213000Y0064500D03*
X0246500Y0120500D03*
X0231500Y0126000D03*
X0289500Y0076000D03*
X0375000Y0066500D03*
X0399500Y0038000D03*
X0379000Y0037000D03*
X0381500Y0193000D03*
X0378500Y0200000D03*
X0360000Y0199500D03*
X0359000Y0219500D03*
X0352000Y0219500D03*
X0349000Y0226500D03*
X0338000Y0223500D03*
X0329000Y0236500D03*
X0320000Y0234000D03*
X0312500Y0226500D03*
X0332500Y0256000D03*
X0340500Y0259500D03*
X0340500Y0263500D03*
X0344500Y0274500D03*
X0354500Y0277500D03*
X0334000Y0285000D03*
X0319000Y0271000D03*
X0310000Y0271000D03*
X0295052Y0286543D03*
X0272500Y0268000D03*
X0287301Y0261566D03*
X0333500Y0305000D03*
X0355500Y0318000D03*
X0359000Y0296500D03*
X0364500Y0225000D03*
X0336000Y0193000D03*
X0257000Y0310500D03*
X0227500Y0311000D03*
X0222000Y0318500D03*
D22*
X0219204Y0318000D02*
X0217734Y0317391D01*
X0216609Y0316266D01*
X0155609Y0255266D01*
X0155000Y0253796D01*
X0155000Y0229278D01*
X0150900Y0233378D01*
X0150900Y0235074D01*
X0150808Y0235296D01*
X0152115Y0235837D01*
X0153663Y0237384D01*
X0154500Y0239406D01*
X0154500Y0241594D01*
X0153663Y0243615D01*
X0152663Y0244615D01*
X0151115Y0246163D01*
X0149094Y0247000D01*
X0087401Y0247000D01*
X0088399Y0247413D01*
X0090087Y0249101D01*
X0091000Y0251307D01*
X0091000Y0253693D01*
X0090087Y0255899D01*
X0089485Y0256500D01*
X0091000Y0258015D01*
X0091000Y0262985D01*
X0087485Y0266500D01*
X0082515Y0266500D01*
X0079000Y0262985D01*
X0079000Y0258015D01*
X0080515Y0256500D01*
X0079913Y0255899D01*
X0079000Y0253693D01*
X0079000Y0251307D01*
X0079913Y0249101D01*
X0081601Y0247413D01*
X0082599Y0247000D01*
X0077406Y0247000D01*
X0075384Y0246163D01*
X0065884Y0236663D01*
X0064337Y0235115D01*
X0063500Y0233094D01*
X0063500Y0187778D01*
X0060500Y0190778D01*
X0060500Y0198656D01*
X0060900Y0199056D01*
X0060900Y0203944D01*
X0057444Y0207400D01*
X0052556Y0207400D01*
X0049100Y0203944D01*
X0049100Y0199056D01*
X0049500Y0198656D01*
X0049500Y0187406D01*
X0050337Y0185384D01*
X0058884Y0176837D01*
X0060906Y0176000D01*
X0063094Y0176000D01*
X0063500Y0176168D01*
X0063500Y0140906D01*
X0064337Y0138884D01*
X0121837Y0081384D01*
X0123384Y0079837D01*
X0125406Y0079000D01*
X0177094Y0079000D01*
X0179115Y0079837D01*
X0180663Y0081384D01*
X0181000Y0082199D01*
X0181000Y0069296D01*
X0181000Y0067704D01*
X0181609Y0066234D01*
X0195300Y0052544D01*
X0195000Y0052244D01*
X0193342Y0053902D01*
X0191174Y0054800D01*
X0188826Y0054800D01*
X0186658Y0053902D01*
X0185000Y0052244D01*
X0183342Y0053902D01*
X0181174Y0054800D01*
X0178826Y0054800D01*
X0176658Y0053902D01*
X0175000Y0052244D01*
X0173342Y0053902D01*
X0171174Y0054800D01*
X0168826Y0054800D01*
X0166658Y0053902D01*
X0165000Y0052244D01*
X0163342Y0053902D01*
X0161174Y0054800D01*
X0158826Y0054800D01*
X0156658Y0053902D01*
X0155000Y0052244D01*
X0153342Y0053902D01*
X0151174Y0054800D01*
X0148826Y0054800D01*
X0146658Y0053902D01*
X0144998Y0052242D01*
X0144100Y0050074D01*
X0144100Y0042926D01*
X0144998Y0040758D01*
X0146658Y0039098D01*
X0148826Y0038200D01*
X0151174Y0038200D01*
X0153342Y0039098D01*
X0155000Y0040756D01*
X0156658Y0039098D01*
X0158826Y0038200D01*
X0161174Y0038200D01*
X0163342Y0039098D01*
X0165000Y0040756D01*
X0166658Y0039098D01*
X0168826Y0038200D01*
X0171174Y0038200D01*
X0172213Y0038630D01*
X0196843Y0014000D01*
X0027500Y0014000D01*
X0027500Y0272596D01*
X0027903Y0272193D01*
X0029690Y0271453D01*
X0031625Y0271453D01*
X0033412Y0272193D01*
X0034779Y0273561D01*
X0035520Y0275348D01*
X0035520Y0277282D01*
X0034779Y0279069D01*
X0033412Y0280437D01*
X0031625Y0281177D01*
X0029690Y0281177D01*
X0027903Y0280437D01*
X0027500Y0280034D01*
X0027500Y0311966D01*
X0027903Y0311563D01*
X0029690Y0310823D01*
X0031625Y0310823D01*
X0033412Y0311563D01*
X0034779Y0312931D01*
X0035520Y0314718D01*
X0035520Y0316652D01*
X0034779Y0318439D01*
X0033412Y0319807D01*
X0031625Y0320547D01*
X0029690Y0320547D01*
X0027903Y0319807D01*
X0027500Y0319404D01*
X0027500Y0323961D01*
X0416201Y0323961D01*
X0416201Y0014000D01*
X0394157Y0014000D01*
X0401766Y0021609D01*
X0402891Y0022734D01*
X0403500Y0024204D01*
X0403500Y0035375D01*
X0404200Y0037065D01*
X0404200Y0038935D01*
X0403484Y0040662D01*
X0402162Y0041984D01*
X0400435Y0042700D01*
X0398565Y0042700D01*
X0396838Y0041984D01*
X0395516Y0040662D01*
X0394800Y0038935D01*
X0394800Y0037065D01*
X0395500Y0035375D01*
X0395500Y0029344D01*
X0392444Y0032400D01*
X0387556Y0032400D01*
X0384100Y0028944D01*
X0384100Y0024056D01*
X0387556Y0020600D01*
X0389443Y0020600D01*
X0387843Y0019000D01*
X0339157Y0019000D01*
X0349100Y0028943D01*
X0349100Y0024056D01*
X0352556Y0020600D01*
X0357444Y0020600D01*
X0360900Y0024056D01*
X0360900Y0028944D01*
X0357444Y0032400D01*
X0352557Y0032400D01*
X0353157Y0033000D01*
X0376375Y0033000D01*
X0378065Y0032300D01*
X0379935Y0032300D01*
X0381662Y0033016D01*
X0382984Y0034338D01*
X0383700Y0036065D01*
X0383700Y0037935D01*
X0382984Y0039662D01*
X0381662Y0040984D01*
X0379935Y0041700D01*
X0378065Y0041700D01*
X0376375Y0041000D01*
X0375102Y0041000D01*
X0375900Y0042926D01*
X0375900Y0050074D01*
X0375309Y0051500D01*
X0392900Y0051500D01*
X0392900Y0050446D01*
X0393707Y0048498D01*
X0395198Y0047007D01*
X0397146Y0046200D01*
X0402854Y0046200D01*
X0404802Y0047007D01*
X0406293Y0048498D01*
X0407100Y0050446D01*
X0407100Y0052554D01*
X0406293Y0054502D01*
X0404802Y0055993D01*
X0402854Y0056800D01*
X0401857Y0056800D01*
X0399766Y0058891D01*
X0398296Y0059500D01*
X0350704Y0059500D01*
X0349234Y0058891D01*
X0348109Y0057766D01*
X0346609Y0056266D01*
X0346000Y0054796D01*
X0346000Y0053244D01*
X0345000Y0052244D01*
X0343342Y0053902D01*
X0341174Y0054800D01*
X0338826Y0054800D01*
X0336658Y0053902D01*
X0335000Y0052244D01*
X0333342Y0053902D01*
X0331174Y0054800D01*
X0328826Y0054800D01*
X0326658Y0053902D01*
X0325000Y0052244D01*
X0323342Y0053902D01*
X0321174Y0054800D01*
X0318826Y0054800D01*
X0316658Y0053902D01*
X0315000Y0052244D01*
X0313342Y0053902D01*
X0311174Y0054800D01*
X0308826Y0054800D01*
X0306658Y0053902D01*
X0304998Y0052242D01*
X0304100Y0050074D01*
X0304100Y0042926D01*
X0304998Y0040758D01*
X0306658Y0039098D01*
X0308826Y0038200D01*
X0311174Y0038200D01*
X0313342Y0039098D01*
X0315000Y0040756D01*
X0316658Y0039098D01*
X0318826Y0038200D01*
X0321174Y0038200D01*
X0323342Y0039098D01*
X0325000Y0040756D01*
X0326658Y0039098D01*
X0328826Y0038200D01*
X0331174Y0038200D01*
X0333342Y0039098D01*
X0335000Y0040756D01*
X0336658Y0039098D01*
X0338826Y0038200D01*
X0341174Y0038200D01*
X0343342Y0039098D01*
X0345000Y0040756D01*
X0346658Y0039098D01*
X0347565Y0038722D01*
X0333843Y0025000D01*
X0320900Y0025000D01*
X0320900Y0028944D01*
X0317444Y0032400D01*
X0312556Y0032400D01*
X0309100Y0028944D01*
X0309100Y0025000D01*
X0211157Y0025000D01*
X0197342Y0038815D01*
X0198826Y0038200D01*
X0201174Y0038200D01*
X0203342Y0039098D01*
X0205000Y0040756D01*
X0206658Y0039098D01*
X0208826Y0038200D01*
X0211174Y0038200D01*
X0213342Y0039098D01*
X0215000Y0040756D01*
X0216658Y0039098D01*
X0218826Y0038200D01*
X0221174Y0038200D01*
X0223342Y0039098D01*
X0225000Y0040756D01*
X0226658Y0039098D01*
X0228826Y0038200D01*
X0231174Y0038200D01*
X0233342Y0039098D01*
X0235000Y0040756D01*
X0236658Y0039098D01*
X0238826Y0038200D01*
X0241174Y0038200D01*
X0243342Y0039098D01*
X0245000Y0040756D01*
X0246658Y0039098D01*
X0248826Y0038200D01*
X0251174Y0038200D01*
X0253342Y0039098D01*
X0255000Y0040756D01*
X0256658Y0039098D01*
X0258826Y0038200D01*
X0261174Y0038200D01*
X0263342Y0039098D01*
X0265002Y0040758D01*
X0265900Y0042926D01*
X0265900Y0050074D01*
X0265002Y0052242D01*
X0263342Y0053902D01*
X0261174Y0054800D01*
X0258826Y0054800D01*
X0256658Y0053902D01*
X0255000Y0052244D01*
X0254687Y0052557D01*
X0254663Y0052615D01*
X0253115Y0054163D01*
X0238115Y0069163D01*
X0236094Y0070000D01*
X0216278Y0070000D01*
X0239278Y0093000D01*
X0253594Y0093000D01*
X0255615Y0093837D01*
X0259978Y0098200D01*
X0260522Y0098200D01*
X0274100Y0084622D01*
X0274100Y0084056D01*
X0275500Y0082656D01*
X0275500Y0074906D01*
X0276337Y0072884D01*
X0278822Y0070400D01*
X0278385Y0070400D01*
X0276100Y0068115D01*
X0276100Y0066800D01*
X0279700Y0066800D01*
X0279700Y0066200D01*
X0280300Y0066200D01*
X0280300Y0062600D01*
X0281615Y0062600D01*
X0283900Y0064885D01*
X0283900Y0065322D01*
X0285837Y0063384D01*
X0287384Y0061837D01*
X0289406Y0061000D01*
X0376094Y0061000D01*
X0378115Y0061837D01*
X0379663Y0063384D01*
X0380500Y0065406D01*
X0380500Y0067500D01*
X0394705Y0067500D01*
X0395198Y0067007D01*
X0397146Y0066200D01*
X0402854Y0066200D01*
X0404802Y0067007D01*
X0406293Y0068498D01*
X0407100Y0070446D01*
X0407100Y0072554D01*
X0406293Y0074502D01*
X0404802Y0075993D01*
X0404000Y0076325D01*
X0404000Y0087296D01*
X0403391Y0088766D01*
X0402266Y0089891D01*
X0375900Y0116257D01*
X0375900Y0118944D01*
X0372444Y0122400D01*
X0367556Y0122400D01*
X0364100Y0118944D01*
X0364100Y0114056D01*
X0367556Y0110600D01*
X0370243Y0110600D01*
X0396000Y0084843D01*
X0396000Y0076325D01*
X0395198Y0075993D01*
X0394705Y0075500D01*
X0376657Y0075500D01*
X0375900Y0076257D01*
X0375900Y0080074D01*
X0375002Y0082242D01*
X0373342Y0083902D01*
X0371174Y0084800D01*
X0368826Y0084800D01*
X0367787Y0084370D01*
X0361766Y0090391D01*
X0360296Y0091000D01*
X0341157Y0091000D01*
X0335900Y0096257D01*
X0335900Y0098944D01*
X0332444Y0102400D01*
X0327556Y0102400D01*
X0324100Y0098944D01*
X0324100Y0095057D01*
X0302157Y0117000D01*
X0337796Y0117000D01*
X0339266Y0117609D01*
X0340391Y0118734D01*
X0343391Y0121734D01*
X0344000Y0123204D01*
X0344000Y0128200D01*
X0346174Y0128200D01*
X0348342Y0129098D01*
X0350002Y0130758D01*
X0350102Y0131000D01*
X0351594Y0131000D01*
X0353615Y0131837D01*
X0394978Y0173200D01*
X0396174Y0173200D01*
X0398342Y0174098D01*
X0400002Y0175758D01*
X0400900Y0177926D01*
X0400900Y0185074D01*
X0400002Y0187242D01*
X0398342Y0188902D01*
X0396174Y0189800D01*
X0393826Y0189800D01*
X0391658Y0188902D01*
X0390000Y0187244D01*
X0389000Y0188244D01*
X0389000Y0204296D01*
X0388865Y0204621D01*
X0390000Y0205756D01*
X0391658Y0204098D01*
X0393826Y0203200D01*
X0396174Y0203200D01*
X0398342Y0204098D01*
X0400002Y0205758D01*
X0400900Y0207926D01*
X0400900Y0215074D01*
X0400002Y0217242D01*
X0398342Y0218902D01*
X0396174Y0219800D01*
X0393826Y0219800D01*
X0391658Y0218902D01*
X0390000Y0217244D01*
X0389000Y0218244D01*
X0389000Y0235300D01*
X0392568Y0235300D01*
X0396200Y0238932D01*
X0396200Y0244068D01*
X0393768Y0246500D01*
X0396200Y0248932D01*
X0396200Y0252043D01*
X0397891Y0253734D01*
X0398500Y0255204D01*
X0398500Y0293796D01*
X0397891Y0295266D01*
X0396766Y0296391D01*
X0395212Y0297944D01*
X0396200Y0298932D01*
X0396200Y0304068D01*
X0392568Y0307700D01*
X0387432Y0307700D01*
X0385000Y0305268D01*
X0382568Y0307700D01*
X0377432Y0307700D01*
X0375000Y0305268D01*
X0372568Y0307700D01*
X0367432Y0307700D01*
X0365000Y0305268D01*
X0362568Y0307700D01*
X0359500Y0307700D01*
X0359500Y0315375D01*
X0360200Y0317065D01*
X0360200Y0318935D01*
X0359484Y0320662D01*
X0358162Y0321984D01*
X0356435Y0322700D01*
X0354565Y0322700D01*
X0352838Y0321984D01*
X0351516Y0320662D01*
X0350800Y0318935D01*
X0350800Y0317065D01*
X0351500Y0315375D01*
X0351500Y0305700D01*
X0350400Y0305700D01*
X0350400Y0301900D01*
X0349600Y0301900D01*
X0349600Y0305700D01*
X0348260Y0305700D01*
X0346200Y0303640D01*
X0346200Y0304068D01*
X0342568Y0307700D01*
X0340125Y0307700D01*
X0339891Y0308266D01*
X0338766Y0309391D01*
X0330766Y0317391D01*
X0329296Y0318000D01*
X0219204Y0318000D01*
X0217388Y0317044D02*
X0099638Y0317044D01*
X0099078Y0317604D02*
X0096432Y0318700D01*
X0093568Y0318700D01*
X0090922Y0317604D01*
X0090000Y0316682D01*
X0089078Y0317604D01*
X0086432Y0318700D01*
X0083568Y0318700D01*
X0080922Y0317604D01*
X0078896Y0315578D01*
X0077800Y0312932D01*
X0077800Y0310068D01*
X0078896Y0307422D01*
X0080922Y0305396D01*
X0083568Y0304300D01*
X0086432Y0304300D01*
X0089078Y0305396D01*
X0090000Y0306318D01*
X0090922Y0305396D01*
X0093568Y0304300D01*
X0096432Y0304300D01*
X0099078Y0305396D01*
X0101104Y0307422D01*
X0102200Y0310068D01*
X0102200Y0312932D01*
X0101104Y0315578D01*
X0099078Y0317604D01*
X0098018Y0318043D02*
X0350800Y0318043D01*
X0350809Y0317044D02*
X0331112Y0317044D01*
X0332111Y0316046D02*
X0351222Y0316046D01*
X0351500Y0315047D02*
X0333109Y0315047D01*
X0334108Y0314049D02*
X0351500Y0314049D01*
X0351500Y0313050D02*
X0335106Y0313050D01*
X0336105Y0312052D02*
X0351500Y0312052D01*
X0351500Y0311053D02*
X0337103Y0311053D01*
X0338102Y0310055D02*
X0351500Y0310055D01*
X0351500Y0309056D02*
X0339100Y0309056D01*
X0339977Y0308058D02*
X0351500Y0308058D01*
X0351500Y0307059D02*
X0343209Y0307059D01*
X0344207Y0306061D02*
X0351500Y0306061D01*
X0350400Y0305062D02*
X0349600Y0305062D01*
X0349600Y0304064D02*
X0350400Y0304064D01*
X0350400Y0303065D02*
X0349600Y0303065D01*
X0349600Y0302067D02*
X0350400Y0302067D01*
X0347623Y0305062D02*
X0345206Y0305062D01*
X0346200Y0304064D02*
X0346624Y0304064D01*
X0345500Y0296000D02*
X0339500Y0296000D01*
X0335500Y0300000D01*
X0335500Y0303000D01*
X0336500Y0304000D01*
X0336500Y0306000D01*
X0328500Y0314000D01*
X0220000Y0314000D01*
X0159000Y0253000D01*
X0159000Y0139000D01*
X0185000Y0113000D01*
X0185000Y0068500D01*
X0200000Y0053500D01*
X0200000Y0046500D01*
X0195195Y0052439D02*
X0194805Y0052439D01*
X0194406Y0053437D02*
X0193806Y0053437D01*
X0193407Y0054436D02*
X0192052Y0054436D01*
X0192409Y0055434D02*
X0113900Y0055434D01*
X0113900Y0054885D02*
X0113900Y0056200D01*
X0110300Y0056200D01*
X0110300Y0056800D01*
X0109700Y0056800D01*
X0109700Y0060400D01*
X0108385Y0060400D01*
X0106100Y0058115D01*
X0106100Y0056800D01*
X0109700Y0056800D01*
X0109700Y0056200D01*
X0106100Y0056200D01*
X0106100Y0054885D01*
X0108385Y0052600D01*
X0109700Y0052600D01*
X0109700Y0056200D01*
X0110300Y0056200D01*
X0110300Y0052600D01*
X0111615Y0052600D01*
X0113900Y0054885D01*
X0113451Y0054436D02*
X0147948Y0054436D01*
X0146194Y0053437D02*
X0112453Y0053437D01*
X0110300Y0053437D02*
X0109700Y0053437D01*
X0109700Y0054436D02*
X0110300Y0054436D01*
X0110300Y0055434D02*
X0109700Y0055434D01*
X0109700Y0056433D02*
X0048004Y0056433D01*
X0048004Y0056173D02*
X0048004Y0057142D01*
X0047035Y0057142D01*
X0047035Y0056173D01*
X0038155Y0056173D01*
X0038280Y0055384D01*
X0038544Y0054570D01*
X0038933Y0053808D01*
X0039436Y0053116D01*
X0040041Y0052510D01*
X0040733Y0052007D01*
X0041496Y0051619D01*
X0042309Y0051354D01*
X0043155Y0051220D01*
X0047035Y0051220D01*
X0047035Y0056173D01*
X0048004Y0056173D01*
X0048004Y0051220D01*
X0051885Y0051220D01*
X0052730Y0051354D01*
X0053544Y0051619D01*
X0054306Y0052007D01*
X0054999Y0052510D01*
X0055604Y0053116D01*
X0056107Y0053808D01*
X0056495Y0054570D01*
X0056760Y0055384D01*
X0056885Y0056173D01*
X0048004Y0056173D01*
X0048004Y0055434D02*
X0047035Y0055434D01*
X0047035Y0054436D02*
X0048004Y0054436D01*
X0048004Y0053437D02*
X0047035Y0053437D01*
X0047035Y0052439D02*
X0048004Y0052439D01*
X0048004Y0051440D02*
X0047035Y0051440D01*
X0042045Y0051440D02*
X0027500Y0051440D01*
X0027500Y0050442D02*
X0144253Y0050442D01*
X0144100Y0049443D02*
X0027500Y0049443D01*
X0027500Y0048445D02*
X0144100Y0048445D01*
X0144100Y0047446D02*
X0027500Y0047446D01*
X0027500Y0046448D02*
X0144100Y0046448D01*
X0144100Y0045449D02*
X0027500Y0045449D01*
X0027500Y0044451D02*
X0144100Y0044451D01*
X0144100Y0043452D02*
X0027500Y0043452D01*
X0027500Y0042454D02*
X0144296Y0042454D01*
X0144709Y0041455D02*
X0027500Y0041455D01*
X0027500Y0040457D02*
X0145299Y0040457D01*
X0146298Y0039458D02*
X0027500Y0039458D01*
X0027500Y0038460D02*
X0148199Y0038460D01*
X0151801Y0038460D02*
X0158199Y0038460D01*
X0156298Y0039458D02*
X0153702Y0039458D01*
X0154701Y0040457D02*
X0155299Y0040457D01*
X0161801Y0038460D02*
X0168199Y0038460D01*
X0166298Y0039458D02*
X0163702Y0039458D01*
X0164701Y0040457D02*
X0165299Y0040457D01*
X0171801Y0038460D02*
X0172383Y0038460D01*
X0173382Y0037461D02*
X0027500Y0037461D01*
X0027500Y0036463D02*
X0174380Y0036463D01*
X0175379Y0035464D02*
X0027500Y0035464D01*
X0027500Y0034466D02*
X0176377Y0034466D01*
X0177376Y0033467D02*
X0027500Y0033467D01*
X0027500Y0032469D02*
X0178374Y0032469D01*
X0179373Y0031470D02*
X0027500Y0031470D01*
X0027500Y0030472D02*
X0180371Y0030472D01*
X0181370Y0029473D02*
X0027500Y0029473D01*
X0027500Y0028475D02*
X0182368Y0028475D01*
X0183367Y0027476D02*
X0027500Y0027476D01*
X0027500Y0026478D02*
X0184365Y0026478D01*
X0185364Y0025479D02*
X0027500Y0025479D01*
X0027500Y0024481D02*
X0186362Y0024481D01*
X0187361Y0023482D02*
X0027500Y0023482D01*
X0027500Y0022484D02*
X0188360Y0022484D01*
X0189358Y0021485D02*
X0027500Y0021485D01*
X0027500Y0020487D02*
X0190357Y0020487D01*
X0191355Y0019488D02*
X0027500Y0019488D01*
X0027500Y0018490D02*
X0192354Y0018490D01*
X0193352Y0017491D02*
X0027500Y0017491D01*
X0027500Y0016493D02*
X0194351Y0016493D01*
X0195349Y0015494D02*
X0027500Y0015494D01*
X0027500Y0014496D02*
X0196348Y0014496D01*
X0201500Y0015000D02*
X0389500Y0015000D01*
X0399500Y0025000D01*
X0399500Y0038000D01*
X0396309Y0041455D02*
X0380526Y0041455D01*
X0382190Y0040457D02*
X0395430Y0040457D01*
X0395017Y0039458D02*
X0383069Y0039458D01*
X0383483Y0038460D02*
X0394800Y0038460D01*
X0394800Y0037461D02*
X0383700Y0037461D01*
X0383700Y0036463D02*
X0395049Y0036463D01*
X0395463Y0035464D02*
X0383451Y0035464D01*
X0383038Y0034466D02*
X0395500Y0034466D01*
X0395500Y0033467D02*
X0382114Y0033467D01*
X0380342Y0032469D02*
X0395500Y0032469D01*
X0395500Y0031470D02*
X0393374Y0031470D01*
X0394372Y0030472D02*
X0395500Y0030472D01*
X0395500Y0029473D02*
X0395371Y0029473D01*
X0403500Y0029473D02*
X0416201Y0029473D01*
X0416201Y0028475D02*
X0403500Y0028475D01*
X0403500Y0027476D02*
X0416201Y0027476D01*
X0416201Y0026478D02*
X0403500Y0026478D01*
X0403500Y0025479D02*
X0416201Y0025479D01*
X0416201Y0024481D02*
X0403500Y0024481D01*
X0403201Y0023482D02*
X0416201Y0023482D01*
X0416201Y0022484D02*
X0402640Y0022484D01*
X0401766Y0021609D02*
X0401766Y0021609D01*
X0401642Y0021485D02*
X0416201Y0021485D01*
X0416201Y0020487D02*
X0400643Y0020487D01*
X0399645Y0019488D02*
X0416201Y0019488D01*
X0416201Y0018490D02*
X0398646Y0018490D01*
X0397648Y0017491D02*
X0416201Y0017491D01*
X0416201Y0016493D02*
X0396649Y0016493D01*
X0395651Y0015494D02*
X0416201Y0015494D01*
X0416201Y0014496D02*
X0394652Y0014496D01*
X0389330Y0020487D02*
X0340643Y0020487D01*
X0339645Y0019488D02*
X0388331Y0019488D01*
X0386671Y0021485D02*
X0373329Y0021485D01*
X0372444Y0020600D02*
X0375900Y0024056D01*
X0375900Y0028944D01*
X0372444Y0032400D01*
X0367556Y0032400D01*
X0364100Y0028944D01*
X0364100Y0024056D01*
X0367556Y0020600D01*
X0372444Y0020600D01*
X0374327Y0022484D02*
X0385673Y0022484D01*
X0384674Y0023482D02*
X0375326Y0023482D01*
X0375900Y0024481D02*
X0384100Y0024481D01*
X0384100Y0025479D02*
X0375900Y0025479D01*
X0375900Y0026478D02*
X0384100Y0026478D01*
X0384100Y0027476D02*
X0375900Y0027476D01*
X0375900Y0028475D02*
X0384100Y0028475D01*
X0384629Y0029473D02*
X0375371Y0029473D01*
X0374372Y0030472D02*
X0385628Y0030472D01*
X0386626Y0031470D02*
X0373374Y0031470D01*
X0377658Y0032469D02*
X0352626Y0032469D01*
X0351500Y0037000D02*
X0379000Y0037000D01*
X0377474Y0041455D02*
X0375291Y0041455D01*
X0375704Y0042454D02*
X0397971Y0042454D01*
X0401029Y0042454D02*
X0416201Y0042454D01*
X0416201Y0043452D02*
X0375900Y0043452D01*
X0375900Y0044451D02*
X0416201Y0044451D01*
X0416201Y0045449D02*
X0375900Y0045449D01*
X0375900Y0046448D02*
X0396547Y0046448D01*
X0394758Y0047446D02*
X0375900Y0047446D01*
X0375900Y0048445D02*
X0393760Y0048445D01*
X0393315Y0049443D02*
X0375900Y0049443D01*
X0375747Y0050442D02*
X0392902Y0050442D01*
X0392900Y0051440D02*
X0375334Y0051440D01*
X0377121Y0061426D02*
X0416201Y0061426D01*
X0416201Y0062424D02*
X0378702Y0062424D01*
X0379678Y0063423D02*
X0416201Y0063423D01*
X0416201Y0064421D02*
X0380092Y0064421D01*
X0380500Y0065420D02*
X0416201Y0065420D01*
X0416201Y0066418D02*
X0403381Y0066418D01*
X0405212Y0067417D02*
X0416201Y0067417D01*
X0416201Y0068415D02*
X0406210Y0068415D01*
X0406672Y0069414D02*
X0416201Y0069414D01*
X0416201Y0070412D02*
X0407086Y0070412D01*
X0407100Y0071411D02*
X0416201Y0071411D01*
X0416201Y0072409D02*
X0407100Y0072409D01*
X0406746Y0073408D02*
X0416201Y0073408D01*
X0416201Y0074406D02*
X0406333Y0074406D01*
X0405391Y0075405D02*
X0416201Y0075405D01*
X0416201Y0076403D02*
X0404000Y0076403D01*
X0404000Y0077402D02*
X0416201Y0077402D01*
X0416201Y0078400D02*
X0404000Y0078400D01*
X0404000Y0079399D02*
X0416201Y0079399D01*
X0416201Y0080397D02*
X0404000Y0080397D01*
X0404000Y0081396D02*
X0416201Y0081396D01*
X0416201Y0082394D02*
X0404000Y0082394D01*
X0404000Y0083393D02*
X0416201Y0083393D01*
X0416201Y0084391D02*
X0404000Y0084391D01*
X0404000Y0085390D02*
X0416201Y0085390D01*
X0416201Y0086388D02*
X0404000Y0086388D01*
X0403962Y0087387D02*
X0416201Y0087387D01*
X0416201Y0088385D02*
X0403549Y0088385D01*
X0402773Y0089384D02*
X0416201Y0089384D01*
X0416201Y0090382D02*
X0401774Y0090382D01*
X0400776Y0091381D02*
X0416201Y0091381D01*
X0416201Y0092379D02*
X0399777Y0092379D01*
X0398779Y0093378D02*
X0416201Y0093378D01*
X0416201Y0094376D02*
X0397780Y0094376D01*
X0396782Y0095375D02*
X0416201Y0095375D01*
X0416201Y0096373D02*
X0395783Y0096373D01*
X0394785Y0097372D02*
X0416201Y0097372D01*
X0416201Y0098370D02*
X0393786Y0098370D01*
X0392788Y0099369D02*
X0416201Y0099369D01*
X0416201Y0100368D02*
X0391789Y0100368D01*
X0390791Y0101366D02*
X0416201Y0101366D01*
X0416201Y0102365D02*
X0389792Y0102365D01*
X0388794Y0103363D02*
X0416201Y0103363D01*
X0416201Y0104362D02*
X0387795Y0104362D01*
X0386797Y0105360D02*
X0416201Y0105360D01*
X0416201Y0106359D02*
X0385798Y0106359D01*
X0384800Y0107357D02*
X0416201Y0107357D01*
X0416201Y0108356D02*
X0383801Y0108356D01*
X0382803Y0109354D02*
X0416201Y0109354D01*
X0416201Y0110353D02*
X0381804Y0110353D01*
X0380806Y0111351D02*
X0416201Y0111351D01*
X0416201Y0112350D02*
X0379807Y0112350D01*
X0378809Y0113348D02*
X0416201Y0113348D01*
X0416201Y0114347D02*
X0377810Y0114347D01*
X0376812Y0115345D02*
X0416201Y0115345D01*
X0416201Y0116344D02*
X0375900Y0116344D01*
X0375900Y0117342D02*
X0416201Y0117342D01*
X0416201Y0118341D02*
X0375900Y0118341D01*
X0375505Y0119339D02*
X0416201Y0119339D01*
X0416201Y0120338D02*
X0374506Y0120338D01*
X0373508Y0121336D02*
X0416201Y0121336D01*
X0416201Y0122335D02*
X0372509Y0122335D01*
X0367491Y0122335D02*
X0343640Y0122335D01*
X0344000Y0123333D02*
X0416201Y0123333D01*
X0416201Y0124332D02*
X0344000Y0124332D01*
X0344000Y0125330D02*
X0416201Y0125330D01*
X0416201Y0126329D02*
X0344000Y0126329D01*
X0344000Y0127327D02*
X0416201Y0127327D01*
X0416201Y0128326D02*
X0346477Y0128326D01*
X0348568Y0129324D02*
X0416201Y0129324D01*
X0416201Y0130323D02*
X0349567Y0130323D01*
X0352370Y0131321D02*
X0416201Y0131321D01*
X0416201Y0132320D02*
X0354098Y0132320D01*
X0355097Y0133318D02*
X0416201Y0133318D01*
X0416201Y0134317D02*
X0356095Y0134317D01*
X0357094Y0135315D02*
X0416201Y0135315D01*
X0416201Y0136314D02*
X0358092Y0136314D01*
X0359091Y0137312D02*
X0416201Y0137312D01*
X0416201Y0138311D02*
X0360089Y0138311D01*
X0361088Y0139309D02*
X0416201Y0139309D01*
X0416201Y0140308D02*
X0362086Y0140308D01*
X0363085Y0141306D02*
X0416201Y0141306D01*
X0416201Y0142305D02*
X0364083Y0142305D01*
X0365082Y0143303D02*
X0416201Y0143303D01*
X0416201Y0144302D02*
X0366080Y0144302D01*
X0367079Y0145301D02*
X0416201Y0145301D01*
X0416201Y0146299D02*
X0368077Y0146299D01*
X0369076Y0147298D02*
X0416201Y0147298D01*
X0416201Y0148296D02*
X0370074Y0148296D01*
X0371073Y0149295D02*
X0416201Y0149295D01*
X0416201Y0150293D02*
X0372071Y0150293D01*
X0373070Y0151292D02*
X0416201Y0151292D01*
X0416201Y0152290D02*
X0374068Y0152290D01*
X0375067Y0153289D02*
X0416201Y0153289D01*
X0416201Y0154287D02*
X0376065Y0154287D01*
X0377064Y0155286D02*
X0416201Y0155286D01*
X0416201Y0156284D02*
X0378062Y0156284D01*
X0379061Y0157283D02*
X0416201Y0157283D01*
X0416201Y0158281D02*
X0380059Y0158281D01*
X0381058Y0159280D02*
X0416201Y0159280D01*
X0416201Y0160278D02*
X0382056Y0160278D01*
X0383055Y0161277D02*
X0416201Y0161277D01*
X0416201Y0162275D02*
X0384053Y0162275D01*
X0385052Y0163274D02*
X0416201Y0163274D01*
X0416201Y0164272D02*
X0386050Y0164272D01*
X0387049Y0165271D02*
X0416201Y0165271D01*
X0416201Y0166269D02*
X0388047Y0166269D01*
X0389046Y0167268D02*
X0416201Y0167268D01*
X0416201Y0168266D02*
X0390044Y0168266D01*
X0391043Y0169265D02*
X0416201Y0169265D01*
X0416201Y0170263D02*
X0392041Y0170263D01*
X0393040Y0171262D02*
X0416201Y0171262D01*
X0416201Y0172260D02*
X0394038Y0172260D01*
X0396316Y0173259D02*
X0416201Y0173259D01*
X0416201Y0174257D02*
X0398501Y0174257D01*
X0399500Y0175256D02*
X0416201Y0175256D01*
X0416201Y0176254D02*
X0400207Y0176254D01*
X0400621Y0177253D02*
X0416201Y0177253D01*
X0416201Y0178251D02*
X0400900Y0178251D01*
X0400900Y0179250D02*
X0416201Y0179250D01*
X0416201Y0180248D02*
X0400900Y0180248D01*
X0400900Y0181247D02*
X0416201Y0181247D01*
X0416201Y0182245D02*
X0400900Y0182245D01*
X0400900Y0183244D02*
X0416201Y0183244D01*
X0416201Y0184242D02*
X0400900Y0184242D01*
X0400831Y0185241D02*
X0416201Y0185241D01*
X0416201Y0186239D02*
X0400417Y0186239D01*
X0400003Y0187238D02*
X0416201Y0187238D01*
X0416201Y0188237D02*
X0399007Y0188237D01*
X0397538Y0189235D02*
X0416201Y0189235D01*
X0416201Y0190234D02*
X0389000Y0190234D01*
X0389000Y0191232D02*
X0416201Y0191232D01*
X0416201Y0192231D02*
X0389000Y0192231D01*
X0389000Y0193229D02*
X0416201Y0193229D01*
X0416201Y0194228D02*
X0389000Y0194228D01*
X0389000Y0195226D02*
X0416201Y0195226D01*
X0416201Y0196225D02*
X0389000Y0196225D01*
X0389000Y0197223D02*
X0416201Y0197223D01*
X0416201Y0198222D02*
X0389000Y0198222D01*
X0389000Y0199220D02*
X0416201Y0199220D01*
X0416201Y0200219D02*
X0389000Y0200219D01*
X0389000Y0201217D02*
X0416201Y0201217D01*
X0416201Y0202216D02*
X0389000Y0202216D01*
X0389000Y0203214D02*
X0393792Y0203214D01*
X0396208Y0203214D02*
X0416201Y0203214D01*
X0416201Y0204213D02*
X0398457Y0204213D01*
X0399455Y0205211D02*
X0416201Y0205211D01*
X0416201Y0206210D02*
X0400189Y0206210D01*
X0400602Y0207208D02*
X0416201Y0207208D01*
X0416201Y0208207D02*
X0400900Y0208207D01*
X0400900Y0209205D02*
X0416201Y0209205D01*
X0416201Y0210204D02*
X0400900Y0210204D01*
X0400900Y0211202D02*
X0416201Y0211202D01*
X0416201Y0212201D02*
X0400900Y0212201D01*
X0400900Y0213199D02*
X0416201Y0213199D01*
X0416201Y0214198D02*
X0400900Y0214198D01*
X0400849Y0215196D02*
X0416201Y0215196D01*
X0416201Y0216195D02*
X0400436Y0216195D01*
X0400022Y0217193D02*
X0416201Y0217193D01*
X0416201Y0218192D02*
X0399052Y0218192D01*
X0397645Y0219190D02*
X0416201Y0219190D01*
X0416201Y0220189D02*
X0389000Y0220189D01*
X0389000Y0221187D02*
X0416201Y0221187D01*
X0416201Y0222186D02*
X0389000Y0222186D01*
X0389000Y0223184D02*
X0416201Y0223184D01*
X0416201Y0224183D02*
X0389000Y0224183D01*
X0389000Y0225181D02*
X0416201Y0225181D01*
X0416201Y0226180D02*
X0389000Y0226180D01*
X0389000Y0227178D02*
X0416201Y0227178D01*
X0416201Y0228177D02*
X0389000Y0228177D01*
X0389000Y0229175D02*
X0416201Y0229175D01*
X0416201Y0230174D02*
X0389000Y0230174D01*
X0389000Y0231172D02*
X0416201Y0231172D01*
X0416201Y0232171D02*
X0389000Y0232171D01*
X0389000Y0233170D02*
X0416201Y0233170D01*
X0416201Y0234168D02*
X0389000Y0234168D01*
X0389000Y0235167D02*
X0416201Y0235167D01*
X0416201Y0236165D02*
X0393433Y0236165D01*
X0394432Y0237164D02*
X0416201Y0237164D01*
X0416201Y0238162D02*
X0395430Y0238162D01*
X0396200Y0239161D02*
X0416201Y0239161D01*
X0416201Y0240159D02*
X0396200Y0240159D01*
X0396200Y0241158D02*
X0416201Y0241158D01*
X0416201Y0242156D02*
X0396200Y0242156D01*
X0396200Y0243155D02*
X0416201Y0243155D01*
X0416201Y0244153D02*
X0396115Y0244153D01*
X0395116Y0245152D02*
X0416201Y0245152D01*
X0416201Y0246150D02*
X0394118Y0246150D01*
X0394417Y0247149D02*
X0416201Y0247149D01*
X0416201Y0248147D02*
X0395415Y0248147D01*
X0396200Y0249146D02*
X0416201Y0249146D01*
X0416201Y0250144D02*
X0396200Y0250144D01*
X0396200Y0251143D02*
X0416201Y0251143D01*
X0416201Y0252141D02*
X0396298Y0252141D01*
X0397297Y0253140D02*
X0416201Y0253140D01*
X0416201Y0254138D02*
X0398058Y0254138D01*
X0398472Y0255137D02*
X0416201Y0255137D01*
X0416201Y0256135D02*
X0398500Y0256135D01*
X0398500Y0257134D02*
X0416201Y0257134D01*
X0416201Y0258132D02*
X0398500Y0258132D01*
X0398500Y0259131D02*
X0416201Y0259131D01*
X0416201Y0260129D02*
X0398500Y0260129D01*
X0398500Y0261128D02*
X0416201Y0261128D01*
X0416201Y0262126D02*
X0398500Y0262126D01*
X0398500Y0263125D02*
X0416201Y0263125D01*
X0416201Y0264123D02*
X0398500Y0264123D01*
X0398500Y0265122D02*
X0416201Y0265122D01*
X0416201Y0266120D02*
X0398500Y0266120D01*
X0398500Y0267119D02*
X0416201Y0267119D01*
X0416201Y0268117D02*
X0398500Y0268117D01*
X0398500Y0269116D02*
X0416201Y0269116D01*
X0416201Y0270114D02*
X0398500Y0270114D01*
X0398500Y0271113D02*
X0416201Y0271113D01*
X0416201Y0272111D02*
X0398500Y0272111D01*
X0398500Y0273110D02*
X0416201Y0273110D01*
X0416201Y0274108D02*
X0398500Y0274108D01*
X0398500Y0275107D02*
X0416201Y0275107D01*
X0416201Y0276105D02*
X0398500Y0276105D01*
X0398500Y0277104D02*
X0416201Y0277104D01*
X0416201Y0278103D02*
X0398500Y0278103D01*
X0398500Y0279101D02*
X0416201Y0279101D01*
X0416201Y0280100D02*
X0398500Y0280100D01*
X0398500Y0281098D02*
X0416201Y0281098D01*
X0416201Y0282097D02*
X0398500Y0282097D01*
X0398500Y0283095D02*
X0416201Y0283095D01*
X0416201Y0284094D02*
X0398500Y0284094D01*
X0398500Y0285092D02*
X0416201Y0285092D01*
X0416201Y0286091D02*
X0398500Y0286091D01*
X0398500Y0287089D02*
X0416201Y0287089D01*
X0416201Y0288088D02*
X0398500Y0288088D01*
X0398500Y0289086D02*
X0416201Y0289086D01*
X0416201Y0290085D02*
X0398500Y0290085D01*
X0398500Y0291083D02*
X0416201Y0291083D01*
X0416201Y0292082D02*
X0398500Y0292082D01*
X0398500Y0293080D02*
X0416201Y0293080D01*
X0416201Y0294079D02*
X0398383Y0294079D01*
X0397969Y0295077D02*
X0416201Y0295077D01*
X0416201Y0296076D02*
X0397081Y0296076D01*
X0396083Y0297074D02*
X0416201Y0297074D01*
X0416201Y0298073D02*
X0395341Y0298073D01*
X0396200Y0299071D02*
X0416201Y0299071D01*
X0416201Y0300070D02*
X0396200Y0300070D01*
X0396200Y0301068D02*
X0416201Y0301068D01*
X0416201Y0302067D02*
X0396200Y0302067D01*
X0396200Y0303065D02*
X0416201Y0303065D01*
X0416201Y0304064D02*
X0396200Y0304064D01*
X0395206Y0305062D02*
X0416201Y0305062D01*
X0416201Y0306061D02*
X0394207Y0306061D01*
X0393209Y0307059D02*
X0416201Y0307059D01*
X0416201Y0308058D02*
X0359500Y0308058D01*
X0359500Y0309056D02*
X0416201Y0309056D01*
X0416201Y0310055D02*
X0359500Y0310055D01*
X0359500Y0311053D02*
X0416201Y0311053D01*
X0416201Y0312052D02*
X0359500Y0312052D01*
X0359500Y0313050D02*
X0416201Y0313050D01*
X0416201Y0314049D02*
X0359500Y0314049D01*
X0359500Y0315047D02*
X0416201Y0315047D01*
X0416201Y0316046D02*
X0359778Y0316046D01*
X0360191Y0317044D02*
X0416201Y0317044D01*
X0416201Y0318043D02*
X0360200Y0318043D01*
X0360156Y0319041D02*
X0416201Y0319041D01*
X0416201Y0320040D02*
X0359742Y0320040D01*
X0359108Y0321039D02*
X0416201Y0321039D01*
X0416201Y0322037D02*
X0358035Y0322037D01*
X0355500Y0318000D02*
X0355500Y0280500D01*
X0357500Y0278500D01*
X0357500Y0276500D01*
X0340500Y0259500D01*
X0340500Y0263500D02*
X0354500Y0277500D01*
X0356000Y0269343D02*
X0356000Y0259157D01*
X0353234Y0256391D01*
X0352141Y0255298D01*
X0351740Y0255700D01*
X0350400Y0255700D01*
X0350400Y0251900D01*
X0349600Y0251900D01*
X0349600Y0255700D01*
X0348260Y0255700D01*
X0346200Y0253640D01*
X0346200Y0254068D01*
X0343957Y0256311D01*
X0344484Y0256838D01*
X0345184Y0258528D01*
X0356000Y0269343D01*
X0356000Y0269116D02*
X0355773Y0269116D01*
X0356000Y0268117D02*
X0354774Y0268117D01*
X0353776Y0267119D02*
X0356000Y0267119D01*
X0356000Y0266120D02*
X0352777Y0266120D01*
X0351779Y0265122D02*
X0356000Y0265122D01*
X0356000Y0264123D02*
X0350780Y0264123D01*
X0349782Y0263125D02*
X0356000Y0263125D01*
X0356000Y0262126D02*
X0348783Y0262126D01*
X0347785Y0261128D02*
X0356000Y0261128D01*
X0356000Y0260129D02*
X0346786Y0260129D01*
X0345788Y0259131D02*
X0355974Y0259131D01*
X0354975Y0258132D02*
X0345021Y0258132D01*
X0344607Y0257134D02*
X0353977Y0257134D01*
X0352978Y0256135D02*
X0344133Y0256135D01*
X0345131Y0255137D02*
X0347697Y0255137D01*
X0346699Y0254138D02*
X0346130Y0254138D01*
X0349600Y0254138D02*
X0350400Y0254138D01*
X0350400Y0253140D02*
X0349600Y0253140D01*
X0349600Y0252141D02*
X0350400Y0252141D01*
X0350400Y0255137D02*
X0349600Y0255137D01*
X0355500Y0253000D02*
X0355500Y0246000D01*
X0360000Y0241500D01*
X0355500Y0253000D02*
X0360000Y0257500D01*
X0360000Y0291500D01*
X0364500Y0293000D02*
X0364500Y0225000D01*
X0359000Y0219500D02*
X0359000Y0207000D01*
X0355250Y0203250D01*
X0360000Y0199500D01*
X0354811Y0198500D02*
X0334906Y0198500D01*
X0332884Y0197663D01*
X0331337Y0196115D01*
X0330500Y0194094D01*
X0330500Y0193500D01*
X0318657Y0193500D01*
X0300900Y0211257D01*
X0300900Y0215000D01*
X0331242Y0215000D01*
X0331100Y0214284D01*
X0331100Y0211800D01*
X0334700Y0211800D01*
X0334700Y0211200D01*
X0335300Y0211200D01*
X0335300Y0211800D01*
X0338900Y0211800D01*
X0338900Y0211943D01*
X0339100Y0211743D01*
X0339100Y0207926D01*
X0339998Y0205758D01*
X0341658Y0204098D01*
X0343826Y0203200D01*
X0346174Y0203200D01*
X0348342Y0204098D01*
X0348544Y0204300D01*
X0351859Y0200984D01*
X0352029Y0200814D01*
X0352147Y0200603D01*
X0352587Y0200256D01*
X0352984Y0199859D01*
X0353207Y0199767D01*
X0354811Y0198500D01*
X0353899Y0199220D02*
X0312937Y0199220D01*
X0313935Y0198222D02*
X0334234Y0198222D01*
X0332445Y0197223D02*
X0314934Y0197223D01*
X0315932Y0196225D02*
X0331446Y0196225D01*
X0330969Y0195226D02*
X0316931Y0195226D01*
X0317929Y0194228D02*
X0330555Y0194228D01*
X0333862Y0205350D02*
X0334616Y0205200D01*
X0334700Y0205200D01*
X0334700Y0211200D01*
X0331100Y0211200D01*
X0331100Y0208716D01*
X0331250Y0207962D01*
X0331544Y0207253D01*
X0331971Y0206614D01*
X0332514Y0206071D01*
X0333153Y0205644D01*
X0333862Y0205350D01*
X0334560Y0205211D02*
X0306946Y0205211D01*
X0307944Y0204213D02*
X0341543Y0204213D01*
X0340545Y0205211D02*
X0335440Y0205211D01*
X0335384Y0205200D02*
X0336138Y0205350D01*
X0336847Y0205644D01*
X0337486Y0206071D01*
X0338029Y0206614D01*
X0338456Y0207253D01*
X0338750Y0207962D01*
X0338900Y0208716D01*
X0338900Y0211200D01*
X0335300Y0211200D01*
X0335300Y0205200D01*
X0335384Y0205200D01*
X0335300Y0205211D02*
X0334700Y0205211D01*
X0334700Y0206210D02*
X0335300Y0206210D01*
X0335300Y0207208D02*
X0334700Y0207208D01*
X0334700Y0208207D02*
X0335300Y0208207D01*
X0335300Y0209205D02*
X0334700Y0209205D01*
X0334700Y0210204D02*
X0335300Y0210204D01*
X0335300Y0211202D02*
X0339100Y0211202D01*
X0339100Y0210204D02*
X0338900Y0210204D01*
X0338900Y0209205D02*
X0339100Y0209205D01*
X0339100Y0208207D02*
X0338799Y0208207D01*
X0338426Y0207208D02*
X0339397Y0207208D01*
X0339811Y0206210D02*
X0337625Y0206210D01*
X0332375Y0206210D02*
X0305947Y0206210D01*
X0304949Y0207208D02*
X0331574Y0207208D01*
X0331201Y0208207D02*
X0303950Y0208207D01*
X0302952Y0209205D02*
X0331100Y0209205D01*
X0331100Y0210204D02*
X0301953Y0210204D01*
X0300955Y0211202D02*
X0334700Y0211202D01*
X0331100Y0212201D02*
X0300900Y0212201D01*
X0300900Y0213199D02*
X0331100Y0213199D01*
X0331100Y0214198D02*
X0300900Y0214198D01*
X0295000Y0211500D02*
X0317000Y0189500D01*
X0365000Y0189500D01*
X0373000Y0181500D01*
X0375000Y0181500D01*
X0385000Y0181500D02*
X0385000Y0203500D01*
X0380000Y0208500D01*
X0380000Y0241500D01*
X0385000Y0242500D02*
X0380500Y0247000D01*
X0374500Y0247000D01*
X0370000Y0251500D01*
X0370500Y0251500D01*
X0374500Y0255500D01*
X0374500Y0293000D01*
X0370000Y0297500D01*
X0370000Y0301500D01*
X0365793Y0306061D02*
X0364207Y0306061D01*
X0363209Y0307059D02*
X0366791Y0307059D01*
X0373209Y0307059D02*
X0376791Y0307059D01*
X0375793Y0306061D02*
X0374207Y0306061D01*
X0383209Y0307059D02*
X0386791Y0307059D01*
X0385793Y0306061D02*
X0384207Y0306061D01*
X0390000Y0301500D02*
X0390000Y0297500D01*
X0394500Y0293000D01*
X0394500Y0256000D01*
X0390000Y0251500D01*
X0385500Y0253000D02*
X0385500Y0246000D01*
X0390000Y0241500D01*
X0385000Y0242500D02*
X0385000Y0211500D01*
X0389455Y0205211D02*
X0390545Y0205211D01*
X0391543Y0204213D02*
X0389000Y0204213D01*
X0378500Y0200000D02*
X0369000Y0209500D01*
X0369000Y0216500D01*
X0344500Y0241000D01*
X0344500Y0247000D01*
X0340000Y0251500D01*
X0337500Y0254000D01*
X0337500Y0264500D01*
X0344500Y0271500D01*
X0344500Y0274500D01*
X0340000Y0270000D02*
X0335500Y0265500D01*
X0335500Y0246000D01*
X0340000Y0241500D01*
X0349000Y0232500D01*
X0349000Y0226500D01*
X0338000Y0223500D02*
X0260500Y0223500D01*
X0255000Y0218000D01*
X0255000Y0211500D01*
X0250000Y0206000D02*
X0250000Y0222500D01*
X0241500Y0222500D01*
X0238163Y0219190D02*
X0233045Y0219190D01*
X0233200Y0219565D02*
X0232484Y0217838D01*
X0232000Y0217353D01*
X0232000Y0216415D01*
X0232514Y0216929D01*
X0233153Y0217356D01*
X0233862Y0217650D01*
X0234616Y0217800D01*
X0234700Y0217800D01*
X0234700Y0211800D01*
X0235300Y0211800D01*
X0235300Y0217800D01*
X0235384Y0217800D01*
X0236138Y0217650D01*
X0236847Y0217356D01*
X0237486Y0216929D01*
X0238029Y0216386D01*
X0238456Y0215747D01*
X0238750Y0215038D01*
X0238900Y0214284D01*
X0238900Y0211800D01*
X0235300Y0211800D01*
X0235300Y0211200D01*
X0238900Y0211200D01*
X0238900Y0208716D01*
X0238773Y0208079D01*
X0239065Y0208200D01*
X0239100Y0208200D01*
X0239100Y0215074D01*
X0239998Y0217242D01*
X0240559Y0217803D01*
X0238838Y0218516D01*
X0237516Y0219838D01*
X0236800Y0221565D01*
X0236800Y0223435D01*
X0237516Y0225162D01*
X0238838Y0226484D01*
X0240565Y0227200D01*
X0242435Y0227200D01*
X0244125Y0226500D01*
X0250796Y0226500D01*
X0252266Y0225891D01*
X0253391Y0224766D01*
X0254000Y0223296D01*
X0254000Y0222657D01*
X0258060Y0226716D01*
X0257338Y0227016D01*
X0256016Y0228338D01*
X0255300Y0230065D01*
X0255300Y0231935D01*
X0256016Y0233662D01*
X0257338Y0234984D01*
X0259065Y0235700D01*
X0260935Y0235700D01*
X0262625Y0235000D01*
X0304843Y0235000D01*
X0306609Y0236766D01*
X0307702Y0237859D01*
X0305800Y0239760D01*
X0305800Y0241100D01*
X0309600Y0241100D01*
X0309600Y0241900D01*
X0305800Y0241900D01*
X0305800Y0243240D01*
X0307860Y0245300D01*
X0307432Y0245300D01*
X0305000Y0247732D01*
X0302568Y0245300D01*
X0302140Y0245300D01*
X0304200Y0243240D01*
X0304200Y0241900D01*
X0300400Y0241900D01*
X0300400Y0241100D01*
X0304200Y0241100D01*
X0304200Y0239760D01*
X0301740Y0237300D01*
X0300400Y0237300D01*
X0300400Y0241100D01*
X0299600Y0241100D01*
X0299600Y0237300D01*
X0298260Y0237300D01*
X0295800Y0239760D01*
X0295800Y0241100D01*
X0299600Y0241100D01*
X0299600Y0241900D01*
X0295800Y0241900D01*
X0295800Y0243240D01*
X0297860Y0245300D01*
X0297432Y0245300D01*
X0295000Y0247732D01*
X0292568Y0245300D01*
X0292140Y0245300D01*
X0294200Y0243240D01*
X0294200Y0241900D01*
X0290400Y0241900D01*
X0290400Y0241100D01*
X0294200Y0241100D01*
X0294200Y0239760D01*
X0291740Y0237300D01*
X0290400Y0237300D01*
X0290400Y0241100D01*
X0289600Y0241100D01*
X0289600Y0237300D01*
X0288260Y0237300D01*
X0285800Y0239760D01*
X0285800Y0241100D01*
X0289600Y0241100D01*
X0289600Y0241900D01*
X0285800Y0241900D01*
X0285800Y0243240D01*
X0287860Y0245300D01*
X0287432Y0245300D01*
X0285000Y0247732D01*
X0282568Y0245300D01*
X0282140Y0245300D01*
X0284200Y0243240D01*
X0284200Y0241900D01*
X0280400Y0241900D01*
X0280400Y0241100D01*
X0284200Y0241100D01*
X0284200Y0239760D01*
X0281740Y0237300D01*
X0280400Y0237300D01*
X0280400Y0241100D01*
X0279600Y0241100D01*
X0279600Y0237300D01*
X0278260Y0237300D01*
X0275800Y0239760D01*
X0275800Y0241100D01*
X0279600Y0241100D01*
X0279600Y0241900D01*
X0275800Y0241900D01*
X0275800Y0243240D01*
X0277860Y0245300D01*
X0277432Y0245300D01*
X0275000Y0247732D01*
X0272568Y0245300D01*
X0272140Y0245300D01*
X0274200Y0243240D01*
X0274200Y0241900D01*
X0270400Y0241900D01*
X0270400Y0241100D01*
X0274200Y0241100D01*
X0274200Y0239760D01*
X0271740Y0237300D01*
X0270400Y0237300D01*
X0270400Y0241100D01*
X0269600Y0241100D01*
X0269600Y0237300D01*
X0268260Y0237300D01*
X0265800Y0239760D01*
X0265800Y0241100D01*
X0269600Y0241100D01*
X0269600Y0241900D01*
X0265800Y0241900D01*
X0265800Y0243240D01*
X0267860Y0245300D01*
X0267432Y0245300D01*
X0265000Y0247732D01*
X0262568Y0245300D01*
X0262140Y0245300D01*
X0264200Y0243240D01*
X0264200Y0241900D01*
X0260400Y0241900D01*
X0260400Y0241100D01*
X0264200Y0241100D01*
X0264200Y0239760D01*
X0261740Y0237300D01*
X0260400Y0237300D01*
X0260400Y0241100D01*
X0259600Y0241100D01*
X0259600Y0237300D01*
X0258260Y0237300D01*
X0255800Y0239760D01*
X0255800Y0241100D01*
X0259600Y0241100D01*
X0259600Y0241900D01*
X0255800Y0241900D01*
X0255800Y0242502D01*
X0255796Y0242500D01*
X0254200Y0242500D01*
X0254200Y0241900D01*
X0250400Y0241900D01*
X0250400Y0241100D01*
X0254200Y0241100D01*
X0254200Y0239760D01*
X0251740Y0237300D01*
X0250400Y0237300D01*
X0250400Y0241100D01*
X0249600Y0241100D01*
X0249600Y0237300D01*
X0248260Y0237300D01*
X0245800Y0239760D01*
X0245800Y0241100D01*
X0249600Y0241100D01*
X0249600Y0241900D01*
X0245800Y0241900D01*
X0245800Y0242500D01*
X0244200Y0242500D01*
X0244200Y0241900D01*
X0240400Y0241900D01*
X0240400Y0241100D01*
X0244200Y0241100D01*
X0244200Y0239760D01*
X0241740Y0237300D01*
X0240400Y0237300D01*
X0240400Y0241100D01*
X0239600Y0241100D01*
X0239600Y0237300D01*
X0238260Y0237300D01*
X0235800Y0239760D01*
X0235800Y0241100D01*
X0239600Y0241100D01*
X0239600Y0241900D01*
X0235800Y0241900D01*
X0235800Y0242500D01*
X0234200Y0242500D01*
X0234200Y0241900D01*
X0230400Y0241900D01*
X0230400Y0241100D01*
X0234200Y0241100D01*
X0234200Y0239760D01*
X0231740Y0237300D01*
X0230400Y0237300D01*
X0230400Y0241100D01*
X0229600Y0241100D01*
X0229600Y0237300D01*
X0228260Y0237300D01*
X0225800Y0239760D01*
X0225800Y0241100D01*
X0229600Y0241100D01*
X0229600Y0241900D01*
X0225800Y0241900D01*
X0225800Y0242500D01*
X0213704Y0242500D01*
X0212234Y0243109D01*
X0211109Y0244234D01*
X0198109Y0257234D01*
X0197500Y0258704D01*
X0197500Y0263343D01*
X0196511Y0264333D01*
X0196432Y0264300D01*
X0193568Y0264300D01*
X0190922Y0265396D01*
X0190000Y0266318D01*
X0189420Y0265737D01*
X0222516Y0232641D01*
X0222516Y0232641D01*
X0223641Y0231516D01*
X0224250Y0230046D01*
X0224250Y0222521D01*
X0224516Y0223162D01*
X0225838Y0224484D01*
X0227565Y0225200D01*
X0229435Y0225200D01*
X0231162Y0224484D01*
X0232484Y0223162D01*
X0233200Y0221435D01*
X0233200Y0219565D01*
X0233200Y0220189D02*
X0237370Y0220189D01*
X0236956Y0221187D02*
X0233200Y0221187D01*
X0232889Y0222186D02*
X0236800Y0222186D01*
X0236800Y0223184D02*
X0232462Y0223184D01*
X0231464Y0224183D02*
X0237110Y0224183D01*
X0237535Y0225181D02*
X0229480Y0225181D01*
X0227520Y0225181D02*
X0224250Y0225181D01*
X0224250Y0224183D02*
X0225536Y0224183D01*
X0224538Y0223184D02*
X0224250Y0223184D01*
X0224250Y0226180D02*
X0238533Y0226180D01*
X0240513Y0227178D02*
X0224250Y0227178D01*
X0224250Y0228177D02*
X0256176Y0228177D01*
X0255668Y0229175D02*
X0224250Y0229175D01*
X0224197Y0230174D02*
X0255300Y0230174D01*
X0255300Y0231172D02*
X0223783Y0231172D01*
X0222986Y0232171D02*
X0255398Y0232171D01*
X0255811Y0233170D02*
X0221987Y0233170D01*
X0220989Y0234168D02*
X0256521Y0234168D01*
X0257777Y0235167D02*
X0219990Y0235167D01*
X0218992Y0236165D02*
X0306008Y0236165D01*
X0305010Y0235167D02*
X0262223Y0235167D01*
X0262602Y0238162D02*
X0267398Y0238162D01*
X0266400Y0239161D02*
X0263600Y0239161D01*
X0264200Y0240159D02*
X0265800Y0240159D01*
X0265800Y0242156D02*
X0264200Y0242156D01*
X0264200Y0243155D02*
X0265800Y0243155D01*
X0266713Y0244153D02*
X0263287Y0244153D01*
X0262288Y0245152D02*
X0267712Y0245152D01*
X0266582Y0246150D02*
X0263418Y0246150D01*
X0264417Y0247149D02*
X0265583Y0247149D01*
X0260000Y0251500D02*
X0255000Y0246500D01*
X0214500Y0246500D01*
X0201500Y0259500D01*
X0201500Y0265000D01*
X0195000Y0271500D01*
X0210000Y0286500D01*
X0210000Y0296500D01*
X0215000Y0302000D02*
X0215000Y0272000D01*
X0218500Y0268500D01*
X0221000Y0263000D02*
X0213000Y0263000D01*
X0211000Y0261000D01*
X0211000Y0256000D01*
X0215500Y0251500D01*
X0222000Y0251500D01*
X0227000Y0256500D01*
X0233500Y0256500D01*
X0238500Y0251500D01*
X0240000Y0251500D01*
X0235800Y0242156D02*
X0234200Y0242156D01*
X0234200Y0240159D02*
X0235800Y0240159D01*
X0236400Y0239161D02*
X0233600Y0239161D01*
X0232602Y0238162D02*
X0237398Y0238162D01*
X0239600Y0238162D02*
X0240400Y0238162D01*
X0240400Y0239161D02*
X0239600Y0239161D01*
X0239600Y0240159D02*
X0240400Y0240159D01*
X0240400Y0241158D02*
X0249600Y0241158D01*
X0250400Y0241158D02*
X0259600Y0241158D01*
X0260400Y0241158D02*
X0269600Y0241158D01*
X0270400Y0241158D02*
X0279600Y0241158D01*
X0280400Y0241158D02*
X0289600Y0241158D01*
X0290400Y0241158D02*
X0299600Y0241158D01*
X0300400Y0241158D02*
X0309600Y0241158D01*
X0307398Y0238162D02*
X0302602Y0238162D01*
X0303600Y0239161D02*
X0306400Y0239161D01*
X0305800Y0240159D02*
X0304200Y0240159D01*
X0304200Y0242156D02*
X0305800Y0242156D01*
X0305800Y0243155D02*
X0304200Y0243155D01*
X0303287Y0244153D02*
X0306713Y0244153D01*
X0307712Y0245152D02*
X0302288Y0245152D01*
X0303418Y0246150D02*
X0306582Y0246150D01*
X0305583Y0247149D02*
X0304417Y0247149D01*
X0297712Y0245152D02*
X0292288Y0245152D01*
X0293287Y0244153D02*
X0296713Y0244153D01*
X0295800Y0243155D02*
X0294200Y0243155D01*
X0294200Y0242156D02*
X0295800Y0242156D01*
X0295800Y0240159D02*
X0294200Y0240159D01*
X0293600Y0239161D02*
X0296400Y0239161D01*
X0297398Y0238162D02*
X0292602Y0238162D01*
X0290400Y0238162D02*
X0289600Y0238162D01*
X0289600Y0239161D02*
X0290400Y0239161D01*
X0290400Y0240159D02*
X0289600Y0240159D01*
X0287398Y0238162D02*
X0282602Y0238162D01*
X0283600Y0239161D02*
X0286400Y0239161D01*
X0285800Y0240159D02*
X0284200Y0240159D01*
X0284200Y0242156D02*
X0285800Y0242156D01*
X0285800Y0243155D02*
X0284200Y0243155D01*
X0283287Y0244153D02*
X0286713Y0244153D01*
X0287712Y0245152D02*
X0282288Y0245152D01*
X0283418Y0246150D02*
X0286582Y0246150D01*
X0285583Y0247149D02*
X0284417Y0247149D01*
X0277712Y0245152D02*
X0272288Y0245152D01*
X0273287Y0244153D02*
X0276713Y0244153D01*
X0275800Y0243155D02*
X0274200Y0243155D01*
X0274200Y0242156D02*
X0275800Y0242156D01*
X0275800Y0240159D02*
X0274200Y0240159D01*
X0273600Y0239161D02*
X0276400Y0239161D01*
X0277398Y0238162D02*
X0272602Y0238162D01*
X0270400Y0238162D02*
X0269600Y0238162D01*
X0269600Y0239161D02*
X0270400Y0239161D01*
X0270400Y0240159D02*
X0269600Y0240159D01*
X0273418Y0246150D02*
X0276582Y0246150D01*
X0275583Y0247149D02*
X0274417Y0247149D01*
X0279600Y0240159D02*
X0280400Y0240159D01*
X0280400Y0239161D02*
X0279600Y0239161D01*
X0279600Y0238162D02*
X0280400Y0238162D01*
X0293418Y0246150D02*
X0296582Y0246150D01*
X0295583Y0247149D02*
X0294417Y0247149D01*
X0299600Y0240159D02*
X0300400Y0240159D01*
X0300400Y0239161D02*
X0299600Y0239161D01*
X0299600Y0238162D02*
X0300400Y0238162D01*
X0307007Y0237164D02*
X0217993Y0237164D01*
X0216995Y0238162D02*
X0227398Y0238162D01*
X0226400Y0239161D02*
X0215996Y0239161D01*
X0214998Y0240159D02*
X0225800Y0240159D01*
X0225800Y0242156D02*
X0213001Y0242156D01*
X0212189Y0243155D02*
X0212002Y0243155D01*
X0211190Y0244153D02*
X0211004Y0244153D01*
X0210191Y0245152D02*
X0210005Y0245152D01*
X0209193Y0246150D02*
X0209007Y0246150D01*
X0208194Y0247149D02*
X0208008Y0247149D01*
X0207196Y0248147D02*
X0207010Y0248147D01*
X0206197Y0249146D02*
X0206011Y0249146D01*
X0205199Y0250144D02*
X0205013Y0250144D01*
X0204200Y0251143D02*
X0204014Y0251143D01*
X0203202Y0252141D02*
X0203016Y0252141D01*
X0202203Y0253140D02*
X0202017Y0253140D01*
X0201205Y0254138D02*
X0201019Y0254138D01*
X0200206Y0255137D02*
X0200020Y0255137D01*
X0199208Y0256135D02*
X0199022Y0256135D01*
X0198209Y0257134D02*
X0198023Y0257134D01*
X0197737Y0258132D02*
X0197025Y0258132D01*
X0197500Y0259131D02*
X0196026Y0259131D01*
X0195028Y0260129D02*
X0197500Y0260129D01*
X0197500Y0261128D02*
X0194029Y0261128D01*
X0193030Y0262126D02*
X0197500Y0262126D01*
X0197500Y0263125D02*
X0192032Y0263125D01*
X0191033Y0264123D02*
X0196720Y0264123D01*
X0191584Y0265122D02*
X0190035Y0265122D01*
X0190197Y0266120D02*
X0189803Y0266120D01*
X0185000Y0264500D02*
X0185000Y0271500D01*
X0185000Y0264500D02*
X0220250Y0229250D01*
X0220250Y0203750D01*
X0230000Y0194000D01*
X0230000Y0161500D01*
X0257500Y0134000D01*
X0257500Y0114000D01*
X0250000Y0106500D01*
X0261500Y0114665D02*
X0261500Y0134796D01*
X0260891Y0136266D01*
X0234000Y0163157D01*
X0234000Y0173200D01*
X0236000Y0173200D01*
X0236000Y0172704D01*
X0236609Y0171234D01*
X0325300Y0082543D01*
X0325000Y0082244D01*
X0323342Y0083902D01*
X0321174Y0084800D01*
X0318826Y0084800D01*
X0316658Y0083902D01*
X0314998Y0082242D01*
X0314100Y0080074D01*
X0314100Y0072926D01*
X0314484Y0072000D01*
X0313287Y0072000D01*
X0313456Y0072253D01*
X0313750Y0072962D01*
X0313900Y0073716D01*
X0313900Y0076200D01*
X0310300Y0076200D01*
X0310300Y0076800D01*
X0309700Y0076800D01*
X0309700Y0082800D01*
X0309616Y0082800D01*
X0308862Y0082650D01*
X0308153Y0082356D01*
X0307514Y0081929D01*
X0306971Y0081386D01*
X0306544Y0080747D01*
X0306250Y0080038D01*
X0306100Y0079284D01*
X0306100Y0076800D01*
X0309700Y0076800D01*
X0309700Y0076200D01*
X0306100Y0076200D01*
X0306100Y0073716D01*
X0306250Y0072962D01*
X0306544Y0072253D01*
X0306713Y0072000D01*
X0292778Y0072000D01*
X0286500Y0078278D01*
X0286500Y0084455D01*
X0286608Y0084994D01*
X0286500Y0085539D01*
X0286500Y0086094D01*
X0286290Y0086602D01*
X0286183Y0087141D01*
X0285900Y0087565D01*
X0285900Y0088944D01*
X0282444Y0092400D01*
X0281878Y0092400D01*
X0265900Y0108378D01*
X0265900Y0110074D01*
X0265002Y0112242D01*
X0263342Y0113902D01*
X0261500Y0114665D01*
X0261500Y0115345D02*
X0292498Y0115345D01*
X0293496Y0114347D02*
X0262268Y0114347D01*
X0263896Y0113348D02*
X0294495Y0113348D01*
X0295493Y0112350D02*
X0264894Y0112350D01*
X0265371Y0111351D02*
X0296492Y0111351D01*
X0297491Y0110353D02*
X0265784Y0110353D01*
X0265900Y0109354D02*
X0298489Y0109354D01*
X0299488Y0108356D02*
X0265923Y0108356D01*
X0266921Y0107357D02*
X0300486Y0107357D01*
X0301485Y0106359D02*
X0267920Y0106359D01*
X0268918Y0105360D02*
X0302483Y0105360D01*
X0303482Y0104362D02*
X0269917Y0104362D01*
X0270915Y0103363D02*
X0304480Y0103363D01*
X0305479Y0102365D02*
X0271914Y0102365D01*
X0272912Y0101366D02*
X0306477Y0101366D01*
X0307476Y0100368D02*
X0273911Y0100368D01*
X0274909Y0099369D02*
X0308474Y0099369D01*
X0309473Y0098370D02*
X0275908Y0098370D01*
X0276906Y0097372D02*
X0310471Y0097372D01*
X0311470Y0096373D02*
X0277905Y0096373D01*
X0278903Y0095375D02*
X0312468Y0095375D01*
X0313467Y0094376D02*
X0279902Y0094376D01*
X0280900Y0093378D02*
X0314465Y0093378D01*
X0315464Y0092379D02*
X0282464Y0092379D01*
X0283463Y0091381D02*
X0316462Y0091381D01*
X0317461Y0090382D02*
X0284461Y0090382D01*
X0285460Y0089384D02*
X0318459Y0089384D01*
X0319458Y0088385D02*
X0285900Y0088385D01*
X0286019Y0087387D02*
X0320456Y0087387D01*
X0321455Y0086388D02*
X0286378Y0086388D01*
X0286529Y0085390D02*
X0322453Y0085390D01*
X0322160Y0084391D02*
X0323452Y0084391D01*
X0323851Y0083393D02*
X0324450Y0083393D01*
X0324850Y0082394D02*
X0325150Y0082394D01*
X0330000Y0083500D02*
X0240000Y0173500D01*
X0240000Y0193500D01*
X0228000Y0205500D01*
X0228000Y0220000D01*
X0228500Y0220500D01*
X0232631Y0218192D02*
X0239619Y0218192D01*
X0239978Y0217193D02*
X0237091Y0217193D01*
X0238157Y0216195D02*
X0239564Y0216195D01*
X0239151Y0215196D02*
X0238684Y0215196D01*
X0238900Y0214198D02*
X0239100Y0214198D01*
X0239100Y0213199D02*
X0238900Y0213199D01*
X0238900Y0212201D02*
X0239100Y0212201D01*
X0239100Y0211202D02*
X0235300Y0211202D01*
X0235300Y0211200D02*
X0235300Y0205200D01*
X0235384Y0205200D01*
X0235638Y0205250D01*
X0235300Y0204435D01*
X0235300Y0203857D01*
X0233768Y0205389D01*
X0233862Y0205350D01*
X0234616Y0205200D01*
X0234700Y0205200D01*
X0234700Y0211200D01*
X0235300Y0211200D01*
X0235300Y0210204D02*
X0234700Y0210204D01*
X0234700Y0209205D02*
X0235300Y0209205D01*
X0235300Y0208207D02*
X0234700Y0208207D01*
X0234700Y0207208D02*
X0235300Y0207208D01*
X0235300Y0206210D02*
X0234700Y0206210D01*
X0234700Y0205211D02*
X0235300Y0205211D01*
X0235440Y0205211D02*
X0235622Y0205211D01*
X0235300Y0204213D02*
X0234944Y0204213D01*
X0234560Y0205211D02*
X0233946Y0205211D01*
X0238799Y0208207D02*
X0239100Y0208207D01*
X0239100Y0209205D02*
X0238900Y0209205D01*
X0238900Y0210204D02*
X0239100Y0210204D01*
X0235300Y0212201D02*
X0234700Y0212201D01*
X0234700Y0213199D02*
X0235300Y0213199D01*
X0235300Y0214198D02*
X0234700Y0214198D01*
X0234700Y0215196D02*
X0235300Y0215196D01*
X0235300Y0216195D02*
X0234700Y0216195D01*
X0234700Y0217193D02*
X0235300Y0217193D01*
X0232909Y0217193D02*
X0232000Y0217193D01*
X0242487Y0227178D02*
X0257175Y0227178D01*
X0257523Y0226180D02*
X0251568Y0226180D01*
X0252975Y0225181D02*
X0256525Y0225181D01*
X0255526Y0224183D02*
X0253632Y0224183D01*
X0254000Y0223184D02*
X0254528Y0223184D01*
X0260000Y0231000D02*
X0306500Y0231000D01*
X0310000Y0234500D01*
X0316500Y0234500D01*
X0319000Y0237000D01*
X0321500Y0237000D01*
X0324500Y0240000D01*
X0324500Y0271000D01*
X0319000Y0271000D01*
X0324500Y0271000D02*
X0324500Y0293000D01*
X0320500Y0297000D01*
X0314500Y0297000D01*
X0310000Y0301500D01*
X0305658Y0297074D02*
X0304342Y0297074D01*
X0305000Y0297732D02*
X0307432Y0295300D01*
X0307860Y0295300D01*
X0305800Y0293240D01*
X0305800Y0291900D01*
X0309600Y0291900D01*
X0309600Y0291100D01*
X0310400Y0291100D01*
X0310400Y0287300D01*
X0311002Y0287300D01*
X0311000Y0287296D01*
X0311000Y0286500D01*
X0299781Y0286500D01*
X0299781Y0286943D01*
X0299825Y0287748D01*
X0299781Y0287874D01*
X0299781Y0291100D01*
X0300400Y0291100D01*
X0300400Y0291900D01*
X0304200Y0291900D01*
X0304200Y0293240D01*
X0302140Y0295300D01*
X0302568Y0295300D01*
X0305000Y0297732D01*
X0303344Y0296076D02*
X0306656Y0296076D01*
X0307638Y0295077D02*
X0302362Y0295077D01*
X0303361Y0294079D02*
X0306639Y0294079D01*
X0305800Y0293080D02*
X0304200Y0293080D01*
X0304200Y0292082D02*
X0305800Y0292082D01*
X0305800Y0291100D02*
X0305800Y0289760D01*
X0308260Y0287300D01*
X0309600Y0287300D01*
X0309600Y0291100D01*
X0305800Y0291100D01*
X0305800Y0291083D02*
X0304200Y0291083D01*
X0304200Y0291100D02*
X0300400Y0291100D01*
X0300400Y0287300D01*
X0301740Y0287300D01*
X0304200Y0289760D01*
X0304200Y0291100D01*
X0304200Y0290085D02*
X0305800Y0290085D01*
X0306474Y0289086D02*
X0303526Y0289086D01*
X0302527Y0288088D02*
X0307473Y0288088D01*
X0309600Y0288088D02*
X0310400Y0288088D01*
X0310400Y0289086D02*
X0309600Y0289086D01*
X0309600Y0290085D02*
X0310400Y0290085D01*
X0310400Y0291083D02*
X0309600Y0291083D01*
X0311000Y0287089D02*
X0299789Y0287089D01*
X0299781Y0288088D02*
X0300400Y0288088D01*
X0300400Y0289086D02*
X0299781Y0289086D01*
X0299781Y0290085D02*
X0300400Y0290085D01*
X0300400Y0291083D02*
X0299781Y0291083D01*
X0290381Y0291083D02*
X0289600Y0291083D01*
X0289600Y0291100D02*
X0290381Y0291100D01*
X0290381Y0287548D01*
X0290352Y0287478D01*
X0290352Y0286671D01*
X0290343Y0286500D01*
X0245204Y0286500D01*
X0243734Y0285891D01*
X0242609Y0284766D01*
X0242609Y0284766D01*
X0239245Y0281402D01*
X0238662Y0281984D01*
X0238287Y0282140D01*
X0239484Y0283338D01*
X0240200Y0285065D01*
X0240200Y0286935D01*
X0239600Y0288383D01*
X0239600Y0291100D01*
X0240400Y0291100D01*
X0240400Y0291900D01*
X0244200Y0291900D01*
X0244200Y0293000D01*
X0245800Y0293000D01*
X0245800Y0291900D01*
X0249600Y0291900D01*
X0249600Y0291100D01*
X0250400Y0291100D01*
X0250400Y0291900D01*
X0254200Y0291900D01*
X0254200Y0293000D01*
X0255800Y0293000D01*
X0255800Y0291900D01*
X0259600Y0291900D01*
X0259600Y0291100D01*
X0260400Y0291100D01*
X0260400Y0291900D01*
X0264200Y0291900D01*
X0264200Y0293000D01*
X0265800Y0293000D01*
X0265800Y0291900D01*
X0269600Y0291900D01*
X0269600Y0291100D01*
X0270400Y0291100D01*
X0270400Y0291900D01*
X0274200Y0291900D01*
X0274200Y0293240D01*
X0272140Y0295300D01*
X0272568Y0295300D01*
X0275000Y0297732D01*
X0277432Y0295300D01*
X0277860Y0295300D01*
X0275800Y0293240D01*
X0275800Y0291900D01*
X0279600Y0291900D01*
X0279600Y0291100D01*
X0280400Y0291100D01*
X0280400Y0291900D01*
X0284200Y0291900D01*
X0284200Y0293240D01*
X0282140Y0295300D01*
X0282568Y0295300D01*
X0285000Y0297732D01*
X0287432Y0295300D01*
X0287860Y0295300D01*
X0285800Y0293240D01*
X0285800Y0291900D01*
X0289600Y0291900D01*
X0289600Y0291100D01*
X0289600Y0287300D01*
X0288260Y0287300D01*
X0285800Y0289760D01*
X0285800Y0291100D01*
X0289600Y0291100D01*
X0289600Y0290085D02*
X0290381Y0290085D01*
X0290381Y0289086D02*
X0289600Y0289086D01*
X0289600Y0288088D02*
X0290381Y0288088D01*
X0290352Y0287089D02*
X0240136Y0287089D01*
X0240400Y0287300D02*
X0241740Y0287300D01*
X0244200Y0289760D01*
X0244200Y0291100D01*
X0240400Y0291100D01*
X0240400Y0287300D01*
X0240400Y0288088D02*
X0239723Y0288088D01*
X0239600Y0289086D02*
X0240400Y0289086D01*
X0240400Y0290085D02*
X0239600Y0290085D01*
X0239600Y0291083D02*
X0240400Y0291083D01*
X0239600Y0291100D02*
X0239600Y0291900D01*
X0235800Y0291900D01*
X0235800Y0293000D01*
X0234200Y0293000D01*
X0234200Y0291900D01*
X0230400Y0291900D01*
X0230400Y0291100D01*
X0234200Y0291100D01*
X0234200Y0290549D01*
X0234565Y0290700D01*
X0235800Y0290700D01*
X0235800Y0291100D01*
X0239600Y0291100D01*
X0235800Y0291083D02*
X0234200Y0291083D01*
X0234200Y0292082D02*
X0235800Y0292082D01*
X0243526Y0289086D02*
X0246474Y0289086D01*
X0245800Y0289760D02*
X0248260Y0287300D01*
X0249600Y0287300D01*
X0249600Y0291100D01*
X0245800Y0291100D01*
X0245800Y0289760D01*
X0245800Y0290085D02*
X0244200Y0290085D01*
X0244200Y0291083D02*
X0245800Y0291083D01*
X0245800Y0292082D02*
X0244200Y0292082D01*
X0242527Y0288088D02*
X0247473Y0288088D01*
X0249600Y0288088D02*
X0250400Y0288088D01*
X0250400Y0287300D02*
X0251740Y0287300D01*
X0254200Y0289760D01*
X0254200Y0291100D01*
X0250400Y0291100D01*
X0250400Y0287300D01*
X0250400Y0289086D02*
X0249600Y0289086D01*
X0249600Y0290085D02*
X0250400Y0290085D01*
X0250400Y0291083D02*
X0249600Y0291083D01*
X0252527Y0288088D02*
X0257473Y0288088D01*
X0258260Y0287300D02*
X0255800Y0289760D01*
X0255800Y0291100D01*
X0259600Y0291100D01*
X0259600Y0287300D01*
X0258260Y0287300D01*
X0259600Y0288088D02*
X0260400Y0288088D01*
X0260400Y0287300D02*
X0261740Y0287300D01*
X0264200Y0289760D01*
X0264200Y0291100D01*
X0260400Y0291100D01*
X0260400Y0287300D01*
X0260400Y0289086D02*
X0259600Y0289086D01*
X0259600Y0290085D02*
X0260400Y0290085D01*
X0260400Y0291083D02*
X0259600Y0291083D01*
X0256474Y0289086D02*
X0253526Y0289086D01*
X0254200Y0290085D02*
X0255800Y0290085D01*
X0255800Y0291083D02*
X0254200Y0291083D01*
X0254200Y0292082D02*
X0255800Y0292082D01*
X0262527Y0288088D02*
X0267473Y0288088D01*
X0268260Y0287300D02*
X0269600Y0287300D01*
X0269600Y0291100D01*
X0265800Y0291100D01*
X0265800Y0289760D01*
X0268260Y0287300D01*
X0269600Y0288088D02*
X0270400Y0288088D01*
X0270400Y0287300D02*
X0271740Y0287300D01*
X0274200Y0289760D01*
X0274200Y0291100D01*
X0270400Y0291100D01*
X0270400Y0287300D01*
X0270400Y0289086D02*
X0269600Y0289086D01*
X0269600Y0290085D02*
X0270400Y0290085D01*
X0270400Y0291083D02*
X0269600Y0291083D01*
X0266474Y0289086D02*
X0263526Y0289086D01*
X0264200Y0290085D02*
X0265800Y0290085D01*
X0265800Y0291083D02*
X0264200Y0291083D01*
X0264200Y0292082D02*
X0265800Y0292082D01*
X0265500Y0297000D02*
X0270000Y0301500D01*
X0274342Y0297074D02*
X0275658Y0297074D01*
X0276656Y0296076D02*
X0273344Y0296076D01*
X0272362Y0295077D02*
X0277638Y0295077D01*
X0276639Y0294079D02*
X0273361Y0294079D01*
X0274200Y0293080D02*
X0275800Y0293080D01*
X0275800Y0292082D02*
X0274200Y0292082D01*
X0274200Y0291083D02*
X0275800Y0291083D01*
X0275800Y0291100D02*
X0275800Y0289760D01*
X0278260Y0287300D01*
X0279600Y0287300D01*
X0279600Y0291100D01*
X0275800Y0291100D01*
X0275800Y0290085D02*
X0274200Y0290085D01*
X0273526Y0289086D02*
X0276474Y0289086D01*
X0277473Y0288088D02*
X0272527Y0288088D01*
X0279600Y0288088D02*
X0280400Y0288088D01*
X0280400Y0287300D02*
X0281740Y0287300D01*
X0284200Y0289760D01*
X0284200Y0291100D01*
X0280400Y0291100D01*
X0280400Y0287300D01*
X0280400Y0289086D02*
X0279600Y0289086D01*
X0279600Y0290085D02*
X0280400Y0290085D01*
X0280400Y0291083D02*
X0279600Y0291083D01*
X0282527Y0288088D02*
X0287473Y0288088D01*
X0286474Y0289086D02*
X0283526Y0289086D01*
X0284200Y0290085D02*
X0285800Y0290085D01*
X0285800Y0291083D02*
X0284200Y0291083D01*
X0284200Y0292082D02*
X0285800Y0292082D01*
X0285800Y0293080D02*
X0284200Y0293080D01*
X0283361Y0294079D02*
X0286639Y0294079D01*
X0287638Y0295077D02*
X0282362Y0295077D01*
X0283344Y0296076D02*
X0286656Y0296076D01*
X0285658Y0297074D02*
X0284342Y0297074D01*
X0280000Y0301500D02*
X0275000Y0306500D01*
X0250500Y0306500D01*
X0249000Y0308000D01*
X0227500Y0308000D01*
X0220500Y0301000D01*
X0220500Y0287000D01*
X0221500Y0286000D01*
X0221500Y0285000D01*
X0224500Y0289500D02*
X0224500Y0293500D01*
X0228000Y0297000D01*
X0265500Y0297000D01*
X0275500Y0306000D02*
X0280000Y0301500D01*
X0257000Y0310500D02*
X0327000Y0310500D01*
X0332500Y0305000D01*
X0333500Y0305000D01*
X0330000Y0301500D02*
X0334500Y0297000D01*
X0334500Y0290000D01*
X0329500Y0285000D01*
X0329500Y0255000D01*
X0330000Y0254500D01*
X0330000Y0251500D01*
X0332500Y0256000D02*
X0332500Y0265500D01*
X0334000Y0267000D01*
X0334000Y0285000D01*
X0340000Y0291500D02*
X0340000Y0270000D01*
X0315000Y0282500D02*
X0315000Y0250500D01*
X0320000Y0245500D01*
X0320000Y0241500D01*
X0320000Y0234000D02*
X0312500Y0226500D01*
X0329000Y0236500D02*
X0349000Y0216500D01*
X0349000Y0209500D01*
X0355250Y0203250D01*
X0352624Y0200219D02*
X0311938Y0200219D01*
X0310940Y0201217D02*
X0351626Y0201217D01*
X0351859Y0200984D02*
X0351859Y0200984D01*
X0350627Y0202216D02*
X0309941Y0202216D01*
X0308943Y0203214D02*
X0343792Y0203214D01*
X0346208Y0203214D02*
X0349629Y0203214D01*
X0348630Y0204213D02*
X0348457Y0204213D01*
X0345000Y0211500D02*
X0337500Y0219000D01*
X0294500Y0219000D01*
X0287000Y0211500D01*
X0285000Y0211500D01*
X0284500Y0202000D02*
X0275000Y0211500D01*
X0284500Y0202000D02*
X0290000Y0202000D01*
X0320000Y0172000D01*
X0320000Y0141500D01*
X0325000Y0136500D01*
X0330000Y0129500D02*
X0327000Y0126500D01*
X0305000Y0126500D01*
X0295000Y0136500D01*
X0295000Y0143500D01*
X0260000Y0178500D01*
X0260000Y0196000D01*
X0250000Y0206000D01*
X0245000Y0198000D02*
X0240500Y0202500D01*
X0240000Y0203500D01*
X0245000Y0198000D02*
X0245000Y0181500D01*
X0262000Y0164500D01*
X0265500Y0164500D01*
X0289000Y0141000D01*
X0289000Y0134500D01*
X0302500Y0121000D01*
X0337000Y0121000D01*
X0340000Y0124000D01*
X0340000Y0151500D01*
X0335000Y0156500D01*
X0335000Y0166500D01*
X0330000Y0161500D02*
X0330000Y0129500D01*
X0338622Y0117342D02*
X0346100Y0117342D01*
X0346100Y0116800D02*
X0349700Y0116800D01*
X0349700Y0120400D01*
X0348385Y0120400D01*
X0346100Y0118115D01*
X0346100Y0116800D01*
X0346100Y0116200D02*
X0346100Y0114885D01*
X0348385Y0112600D01*
X0349700Y0112600D01*
X0349700Y0116200D01*
X0350300Y0116200D01*
X0350300Y0116800D01*
X0353900Y0116800D01*
X0353900Y0118115D01*
X0351615Y0120400D01*
X0350300Y0120400D01*
X0350300Y0116800D01*
X0349700Y0116800D01*
X0349700Y0116200D01*
X0346100Y0116200D01*
X0346100Y0115345D02*
X0303812Y0115345D01*
X0304810Y0114347D02*
X0346638Y0114347D01*
X0347636Y0113348D02*
X0305809Y0113348D01*
X0306807Y0112350D02*
X0365806Y0112350D01*
X0364808Y0113348D02*
X0352364Y0113348D01*
X0351615Y0112600D02*
X0353900Y0114885D01*
X0353900Y0116200D01*
X0350300Y0116200D01*
X0350300Y0112600D01*
X0351615Y0112600D01*
X0350300Y0113348D02*
X0349700Y0113348D01*
X0349700Y0114347D02*
X0350300Y0114347D01*
X0350300Y0115345D02*
X0349700Y0115345D01*
X0349700Y0116344D02*
X0302813Y0116344D01*
X0307806Y0111351D02*
X0366805Y0111351D01*
X0370491Y0110353D02*
X0308804Y0110353D01*
X0309803Y0109354D02*
X0371489Y0109354D01*
X0372488Y0108356D02*
X0310801Y0108356D01*
X0311800Y0107357D02*
X0373486Y0107357D01*
X0374485Y0106359D02*
X0312798Y0106359D01*
X0313797Y0105360D02*
X0375483Y0105360D01*
X0376482Y0104362D02*
X0314795Y0104362D01*
X0315794Y0103363D02*
X0377480Y0103363D01*
X0378479Y0102365D02*
X0372479Y0102365D01*
X0372444Y0102400D02*
X0367556Y0102400D01*
X0364100Y0098944D01*
X0364100Y0094056D01*
X0367556Y0090600D01*
X0372444Y0090600D01*
X0375900Y0094056D01*
X0375900Y0098944D01*
X0372444Y0102400D01*
X0373478Y0101366D02*
X0379477Y0101366D01*
X0380476Y0100368D02*
X0374476Y0100368D01*
X0375475Y0099369D02*
X0381474Y0099369D01*
X0382473Y0098370D02*
X0375900Y0098370D01*
X0375900Y0097372D02*
X0383471Y0097372D01*
X0384470Y0096373D02*
X0375900Y0096373D01*
X0375900Y0095375D02*
X0385468Y0095375D01*
X0386467Y0094376D02*
X0375900Y0094376D01*
X0375222Y0093378D02*
X0387465Y0093378D01*
X0388464Y0092379D02*
X0374223Y0092379D01*
X0373225Y0091381D02*
X0389462Y0091381D01*
X0390461Y0090382D02*
X0361774Y0090382D01*
X0362773Y0089384D02*
X0391459Y0089384D01*
X0392458Y0088385D02*
X0363771Y0088385D01*
X0364770Y0087387D02*
X0393456Y0087387D01*
X0394455Y0086388D02*
X0365768Y0086388D01*
X0366767Y0085390D02*
X0395453Y0085390D01*
X0396000Y0084391D02*
X0372160Y0084391D01*
X0373851Y0083393D02*
X0396000Y0083393D01*
X0396000Y0082394D02*
X0374850Y0082394D01*
X0375352Y0081396D02*
X0396000Y0081396D01*
X0396000Y0080397D02*
X0375766Y0080397D01*
X0375900Y0079399D02*
X0396000Y0079399D01*
X0396000Y0078400D02*
X0375900Y0078400D01*
X0375900Y0077402D02*
X0396000Y0077402D01*
X0396000Y0076403D02*
X0375900Y0076403D01*
X0371000Y0076500D02*
X0370000Y0076500D01*
X0359500Y0087000D01*
X0339500Y0087000D01*
X0330000Y0096500D01*
X0335900Y0096373D02*
X0364100Y0096373D01*
X0364100Y0095375D02*
X0336782Y0095375D01*
X0337780Y0094376D02*
X0364100Y0094376D01*
X0364778Y0093378D02*
X0338779Y0093378D01*
X0339777Y0092379D02*
X0365777Y0092379D01*
X0366775Y0091381D02*
X0340776Y0091381D01*
X0335900Y0097372D02*
X0364100Y0097372D01*
X0364100Y0098370D02*
X0335900Y0098370D01*
X0335475Y0099369D02*
X0364525Y0099369D01*
X0365524Y0100368D02*
X0334476Y0100368D01*
X0333478Y0101366D02*
X0366522Y0101366D01*
X0367521Y0102365D02*
X0332479Y0102365D01*
X0327521Y0102365D02*
X0316792Y0102365D01*
X0317791Y0101366D02*
X0326522Y0101366D01*
X0325524Y0100368D02*
X0318789Y0100368D01*
X0319788Y0099369D02*
X0324525Y0099369D01*
X0324100Y0098370D02*
X0320786Y0098370D01*
X0321785Y0097372D02*
X0324100Y0097372D01*
X0324100Y0096373D02*
X0322783Y0096373D01*
X0323782Y0095375D02*
X0324100Y0095375D01*
X0317840Y0084391D02*
X0286500Y0084391D01*
X0286500Y0083393D02*
X0316149Y0083393D01*
X0315150Y0082394D02*
X0311755Y0082394D01*
X0311847Y0082356D02*
X0311138Y0082650D01*
X0310384Y0082800D01*
X0310300Y0082800D01*
X0310300Y0076800D01*
X0313900Y0076800D01*
X0313900Y0079284D01*
X0313750Y0080038D01*
X0313456Y0080747D01*
X0313029Y0081386D01*
X0312486Y0081929D01*
X0311847Y0082356D01*
X0313020Y0081396D02*
X0314648Y0081396D01*
X0314234Y0080397D02*
X0313601Y0080397D01*
X0313877Y0079399D02*
X0314100Y0079399D01*
X0314100Y0078400D02*
X0313900Y0078400D01*
X0313900Y0077402D02*
X0314100Y0077402D01*
X0314100Y0076403D02*
X0310300Y0076403D01*
X0309700Y0076403D02*
X0288375Y0076403D01*
X0289373Y0075405D02*
X0306100Y0075405D01*
X0306100Y0074406D02*
X0290372Y0074406D01*
X0291370Y0073408D02*
X0306161Y0073408D01*
X0306479Y0072409D02*
X0292369Y0072409D01*
X0287376Y0077402D02*
X0306100Y0077402D01*
X0306100Y0078400D02*
X0286500Y0078400D01*
X0286500Y0079399D02*
X0306123Y0079399D01*
X0306399Y0080397D02*
X0286500Y0080397D01*
X0286500Y0081396D02*
X0306980Y0081396D01*
X0308245Y0082394D02*
X0286500Y0082394D01*
X0275500Y0082394D02*
X0228672Y0082394D01*
X0227674Y0081396D02*
X0275500Y0081396D01*
X0275500Y0080397D02*
X0226675Y0080397D01*
X0225677Y0079399D02*
X0275500Y0079399D01*
X0275500Y0078400D02*
X0224678Y0078400D01*
X0223680Y0077402D02*
X0275500Y0077402D01*
X0275500Y0076403D02*
X0222681Y0076403D01*
X0221683Y0075405D02*
X0275500Y0075405D01*
X0275707Y0074406D02*
X0220684Y0074406D01*
X0219686Y0073408D02*
X0276121Y0073408D01*
X0276813Y0072409D02*
X0218687Y0072409D01*
X0217689Y0071411D02*
X0277811Y0071411D01*
X0278810Y0070412D02*
X0216690Y0070412D01*
X0229671Y0083393D02*
X0274763Y0083393D01*
X0274100Y0084391D02*
X0230669Y0084391D01*
X0231668Y0085390D02*
X0273332Y0085390D01*
X0272333Y0086388D02*
X0232666Y0086388D01*
X0233665Y0087387D02*
X0271335Y0087387D01*
X0270336Y0088385D02*
X0234664Y0088385D01*
X0235662Y0089384D02*
X0269338Y0089384D01*
X0268339Y0090382D02*
X0236661Y0090382D01*
X0237659Y0091381D02*
X0267341Y0091381D01*
X0266342Y0092379D02*
X0238658Y0092379D01*
X0254506Y0093378D02*
X0265344Y0093378D01*
X0264345Y0094376D02*
X0256155Y0094376D01*
X0257153Y0095375D02*
X0263347Y0095375D01*
X0262348Y0096373D02*
X0258152Y0096373D01*
X0259150Y0097372D02*
X0261350Y0097372D01*
X0261500Y0116344D02*
X0291499Y0116344D01*
X0290501Y0117342D02*
X0261500Y0117342D01*
X0261500Y0118341D02*
X0289502Y0118341D01*
X0288504Y0119339D02*
X0261500Y0119339D01*
X0261500Y0120338D02*
X0287505Y0120338D01*
X0286507Y0121336D02*
X0261500Y0121336D01*
X0261500Y0122335D02*
X0285508Y0122335D01*
X0284510Y0123333D02*
X0261500Y0123333D01*
X0261500Y0124332D02*
X0283511Y0124332D01*
X0282513Y0125330D02*
X0261500Y0125330D01*
X0261500Y0126329D02*
X0281514Y0126329D01*
X0280516Y0127327D02*
X0261500Y0127327D01*
X0261500Y0128326D02*
X0279517Y0128326D01*
X0278519Y0129324D02*
X0261500Y0129324D01*
X0261500Y0130323D02*
X0277520Y0130323D01*
X0276522Y0131321D02*
X0261500Y0131321D01*
X0261500Y0132320D02*
X0275523Y0132320D01*
X0274525Y0133318D02*
X0261500Y0133318D01*
X0261500Y0134317D02*
X0273526Y0134317D01*
X0272528Y0135315D02*
X0261285Y0135315D01*
X0260843Y0136314D02*
X0271529Y0136314D01*
X0270531Y0137312D02*
X0259844Y0137312D01*
X0258846Y0138311D02*
X0269532Y0138311D01*
X0268534Y0139309D02*
X0257847Y0139309D01*
X0256849Y0140308D02*
X0267535Y0140308D01*
X0266537Y0141306D02*
X0255850Y0141306D01*
X0254852Y0142305D02*
X0265538Y0142305D01*
X0264540Y0143303D02*
X0253853Y0143303D01*
X0252855Y0144302D02*
X0263541Y0144302D01*
X0262543Y0145301D02*
X0251856Y0145301D01*
X0250858Y0146299D02*
X0261544Y0146299D01*
X0260546Y0147298D02*
X0249859Y0147298D01*
X0248861Y0148296D02*
X0259547Y0148296D01*
X0258549Y0149295D02*
X0247862Y0149295D01*
X0246864Y0150293D02*
X0257550Y0150293D01*
X0256552Y0151292D02*
X0245865Y0151292D01*
X0244867Y0152290D02*
X0255553Y0152290D01*
X0254555Y0153289D02*
X0243868Y0153289D01*
X0242870Y0154287D02*
X0253556Y0154287D01*
X0252558Y0155286D02*
X0241871Y0155286D01*
X0240873Y0156284D02*
X0251559Y0156284D01*
X0250560Y0157283D02*
X0239874Y0157283D01*
X0238876Y0158281D02*
X0249562Y0158281D01*
X0248563Y0159280D02*
X0237877Y0159280D01*
X0236879Y0160278D02*
X0247565Y0160278D01*
X0246566Y0161277D02*
X0235880Y0161277D01*
X0234882Y0162275D02*
X0245568Y0162275D01*
X0244569Y0163274D02*
X0234000Y0163274D01*
X0234000Y0164272D02*
X0243571Y0164272D01*
X0242572Y0165271D02*
X0234000Y0165271D01*
X0234000Y0166269D02*
X0241574Y0166269D01*
X0240575Y0167268D02*
X0234000Y0167268D01*
X0234000Y0168266D02*
X0239577Y0168266D01*
X0238578Y0169265D02*
X0234000Y0169265D01*
X0234000Y0170263D02*
X0237580Y0170263D01*
X0236598Y0171262D02*
X0234000Y0171262D01*
X0234000Y0172260D02*
X0236184Y0172260D01*
X0220000Y0172260D02*
X0179104Y0172260D01*
X0178106Y0171262D02*
X0220000Y0171262D01*
X0220000Y0170263D02*
X0163000Y0170263D01*
X0163000Y0169265D02*
X0220000Y0169265D01*
X0220000Y0168266D02*
X0163000Y0168266D01*
X0163000Y0167268D02*
X0220000Y0167268D01*
X0220000Y0166269D02*
X0163000Y0166269D01*
X0163000Y0165271D02*
X0220000Y0165271D01*
X0220000Y0164272D02*
X0163000Y0164272D01*
X0163000Y0163274D02*
X0220000Y0163274D01*
X0220000Y0162275D02*
X0163000Y0162275D01*
X0163000Y0161277D02*
X0220000Y0161277D01*
X0220000Y0160278D02*
X0163000Y0160278D01*
X0163000Y0159280D02*
X0220000Y0159280D01*
X0220000Y0158281D02*
X0163000Y0158281D01*
X0163000Y0157283D02*
X0220000Y0157283D01*
X0220000Y0156284D02*
X0163000Y0156284D01*
X0163000Y0155286D02*
X0220000Y0155286D01*
X0220000Y0154287D02*
X0163000Y0154287D01*
X0163000Y0153289D02*
X0220000Y0153289D01*
X0220000Y0152290D02*
X0163000Y0152290D01*
X0163000Y0151292D02*
X0220000Y0151292D01*
X0220000Y0150293D02*
X0163000Y0150293D01*
X0163000Y0149295D02*
X0220000Y0149295D01*
X0220000Y0148296D02*
X0163000Y0148296D01*
X0163000Y0147298D02*
X0220000Y0147298D01*
X0220000Y0146299D02*
X0163000Y0146299D01*
X0163000Y0145301D02*
X0220000Y0145301D01*
X0220000Y0144302D02*
X0163000Y0144302D01*
X0163000Y0143303D02*
X0220000Y0143303D01*
X0220000Y0142305D02*
X0163000Y0142305D01*
X0163000Y0141306D02*
X0220000Y0141306D01*
X0220000Y0140406D02*
X0220837Y0138384D01*
X0229120Y0130102D01*
X0228838Y0129984D01*
X0227516Y0128662D01*
X0226800Y0126935D01*
X0226800Y0125065D01*
X0227516Y0123338D01*
X0228838Y0122016D01*
X0230528Y0121316D01*
X0236000Y0115843D01*
X0236000Y0113244D01*
X0235000Y0112244D01*
X0233342Y0113902D01*
X0231174Y0114800D01*
X0228826Y0114800D01*
X0226658Y0113902D01*
X0225000Y0112244D01*
X0223342Y0113902D01*
X0221174Y0114800D01*
X0218826Y0114800D01*
X0216658Y0113902D01*
X0215000Y0112244D01*
X0213342Y0113902D01*
X0211174Y0114800D01*
X0208826Y0114800D01*
X0206658Y0113902D01*
X0205000Y0112244D01*
X0203342Y0113902D01*
X0201174Y0114800D01*
X0198826Y0114800D01*
X0196658Y0113902D01*
X0195000Y0112244D01*
X0193342Y0113902D01*
X0191174Y0114800D01*
X0188826Y0114800D01*
X0188619Y0114714D01*
X0188391Y0115266D01*
X0163000Y0140657D01*
X0163000Y0193542D01*
X0163826Y0193200D01*
X0166174Y0193200D01*
X0168342Y0194098D01*
X0170002Y0195758D01*
X0170900Y0197926D01*
X0170900Y0205074D01*
X0170002Y0207242D01*
X0168342Y0208902D01*
X0166174Y0209800D01*
X0163826Y0209800D01*
X0163000Y0209458D01*
X0163000Y0223542D01*
X0163826Y0223200D01*
X0166174Y0223200D01*
X0168342Y0224098D01*
X0170000Y0225756D01*
X0171658Y0224098D01*
X0173826Y0223200D01*
X0176174Y0223200D01*
X0178342Y0224098D01*
X0180000Y0225756D01*
X0181658Y0224098D01*
X0183826Y0223200D01*
X0186174Y0223200D01*
X0188342Y0224098D01*
X0190000Y0225756D01*
X0190500Y0225256D01*
X0190500Y0212406D01*
X0191337Y0210384D01*
X0192480Y0209242D01*
X0191658Y0208902D01*
X0190000Y0207244D01*
X0188342Y0208902D01*
X0186174Y0209800D01*
X0183826Y0209800D01*
X0181658Y0208902D01*
X0179998Y0207242D01*
X0179100Y0205074D01*
X0179100Y0197926D01*
X0179998Y0195758D01*
X0181658Y0194098D01*
X0183826Y0193200D01*
X0183922Y0193200D01*
X0173122Y0182400D01*
X0172556Y0182400D01*
X0169100Y0178944D01*
X0169100Y0174056D01*
X0172556Y0170600D01*
X0177444Y0170600D01*
X0180900Y0174056D01*
X0180900Y0174622D01*
X0198115Y0191837D01*
X0199663Y0193384D01*
X0200500Y0195406D01*
X0200500Y0196961D01*
X0200900Y0197926D01*
X0200900Y0200822D01*
X0220000Y0181722D01*
X0220000Y0140406D01*
X0220041Y0140308D02*
X0176707Y0140308D01*
X0176615Y0140400D02*
X0175300Y0140400D01*
X0175300Y0136800D01*
X0174700Y0136800D01*
X0174700Y0140400D01*
X0173385Y0140400D01*
X0171100Y0138115D01*
X0171100Y0136800D01*
X0174700Y0136800D01*
X0174700Y0136200D01*
X0171100Y0136200D01*
X0171100Y0134885D01*
X0173385Y0132600D01*
X0174700Y0132600D01*
X0174700Y0136200D01*
X0175300Y0136200D01*
X0175300Y0136800D01*
X0178900Y0136800D01*
X0178900Y0138115D01*
X0176615Y0140400D01*
X0175300Y0140308D02*
X0174700Y0140308D01*
X0174700Y0139309D02*
X0175300Y0139309D01*
X0175300Y0138311D02*
X0174700Y0138311D01*
X0174700Y0137312D02*
X0175300Y0137312D01*
X0175300Y0136314D02*
X0222908Y0136314D01*
X0223906Y0135315D02*
X0178900Y0135315D01*
X0178900Y0134885D02*
X0178900Y0136200D01*
X0175300Y0136200D01*
X0175300Y0132600D01*
X0176615Y0132600D01*
X0178900Y0134885D01*
X0178332Y0134317D02*
X0224905Y0134317D01*
X0225903Y0133318D02*
X0177334Y0133318D01*
X0175300Y0133318D02*
X0174700Y0133318D01*
X0174700Y0134317D02*
X0175300Y0134317D01*
X0175300Y0135315D02*
X0174700Y0135315D01*
X0174700Y0136314D02*
X0167343Y0136314D01*
X0166344Y0137312D02*
X0171100Y0137312D01*
X0171296Y0138311D02*
X0165346Y0138311D01*
X0164347Y0139309D02*
X0172294Y0139309D01*
X0173293Y0140308D02*
X0163349Y0140308D01*
X0168341Y0135315D02*
X0171100Y0135315D01*
X0171668Y0134317D02*
X0169340Y0134317D01*
X0170338Y0133318D02*
X0172666Y0133318D01*
X0171337Y0132320D02*
X0226902Y0132320D01*
X0227900Y0131321D02*
X0172335Y0131321D01*
X0173334Y0130323D02*
X0228899Y0130323D01*
X0228178Y0129324D02*
X0174333Y0129324D01*
X0175331Y0128326D02*
X0227376Y0128326D01*
X0226963Y0127327D02*
X0176330Y0127327D01*
X0177328Y0126329D02*
X0226800Y0126329D01*
X0226800Y0125330D02*
X0178327Y0125330D01*
X0179325Y0124332D02*
X0227104Y0124332D01*
X0227520Y0123333D02*
X0180324Y0123333D01*
X0181322Y0122335D02*
X0228518Y0122335D01*
X0230478Y0121336D02*
X0182321Y0121336D01*
X0183319Y0120338D02*
X0231505Y0120338D01*
X0232504Y0119339D02*
X0184318Y0119339D01*
X0185316Y0118341D02*
X0233502Y0118341D01*
X0234501Y0117342D02*
X0186315Y0117342D01*
X0187313Y0116344D02*
X0235499Y0116344D01*
X0236000Y0115345D02*
X0188312Y0115345D01*
X0192268Y0114347D02*
X0197732Y0114347D01*
X0196104Y0113348D02*
X0193896Y0113348D01*
X0194894Y0112350D02*
X0195106Y0112350D01*
X0202268Y0114347D02*
X0207732Y0114347D01*
X0206104Y0113348D02*
X0203896Y0113348D01*
X0204894Y0112350D02*
X0205106Y0112350D01*
X0212268Y0114347D02*
X0217732Y0114347D01*
X0216104Y0113348D02*
X0213896Y0113348D01*
X0214894Y0112350D02*
X0215106Y0112350D01*
X0222268Y0114347D02*
X0227732Y0114347D01*
X0226104Y0113348D02*
X0223896Y0113348D01*
X0224894Y0112350D02*
X0225106Y0112350D01*
X0232268Y0114347D02*
X0236000Y0114347D01*
X0236000Y0113348D02*
X0233896Y0113348D01*
X0234894Y0112350D02*
X0235106Y0112350D01*
X0240000Y0117500D02*
X0240000Y0106500D01*
X0240000Y0117500D02*
X0231500Y0126000D01*
X0221909Y0137312D02*
X0178900Y0137312D01*
X0178704Y0138311D02*
X0220911Y0138311D01*
X0220454Y0139309D02*
X0177706Y0139309D01*
X0165016Y0127327D02*
X0143605Y0127327D01*
X0142607Y0126329D02*
X0166014Y0126329D01*
X0167013Y0125330D02*
X0141608Y0125330D01*
X0140610Y0124332D02*
X0168011Y0124332D01*
X0169010Y0123333D02*
X0139611Y0123333D01*
X0138613Y0122335D02*
X0170008Y0122335D01*
X0171007Y0121336D02*
X0137614Y0121336D01*
X0136616Y0120338D02*
X0172005Y0120338D01*
X0173004Y0119339D02*
X0135617Y0119339D01*
X0134619Y0118341D02*
X0174002Y0118341D01*
X0175001Y0117342D02*
X0133620Y0117342D01*
X0132622Y0116344D02*
X0175999Y0116344D01*
X0176998Y0115345D02*
X0131623Y0115345D01*
X0131615Y0115337D02*
X0155000Y0138722D01*
X0155000Y0138204D01*
X0155609Y0136734D01*
X0156734Y0135609D01*
X0156734Y0135609D01*
X0177919Y0114424D01*
X0176658Y0113902D01*
X0175000Y0112244D01*
X0173342Y0113902D01*
X0171174Y0114800D01*
X0168826Y0114800D01*
X0166658Y0113902D01*
X0165000Y0112244D01*
X0163342Y0113902D01*
X0161174Y0114800D01*
X0158826Y0114800D01*
X0156658Y0113902D01*
X0154998Y0112242D01*
X0154100Y0110074D01*
X0154100Y0102926D01*
X0154998Y0100758D01*
X0156658Y0099098D01*
X0158826Y0098200D01*
X0161174Y0098200D01*
X0163342Y0099098D01*
X0165000Y0100756D01*
X0166658Y0099098D01*
X0168826Y0098200D01*
X0171174Y0098200D01*
X0173342Y0099098D01*
X0175000Y0100756D01*
X0176658Y0099098D01*
X0178826Y0098200D01*
X0181000Y0098200D01*
X0181000Y0086801D01*
X0180663Y0087615D01*
X0179115Y0089163D01*
X0177094Y0090000D01*
X0128778Y0090000D01*
X0111178Y0107600D01*
X0111615Y0107600D01*
X0113900Y0109885D01*
X0113900Y0111200D01*
X0110300Y0111200D01*
X0110300Y0111800D01*
X0109700Y0111800D01*
X0109700Y0115400D01*
X0108385Y0115400D01*
X0106100Y0113115D01*
X0106100Y0112678D01*
X0074500Y0144278D01*
X0074500Y0163656D01*
X0077556Y0160600D01*
X0082444Y0160600D01*
X0085900Y0164056D01*
X0085900Y0168944D01*
X0082444Y0172400D01*
X0077556Y0172400D01*
X0074500Y0169344D01*
X0074500Y0183656D01*
X0077556Y0180600D01*
X0082444Y0180600D01*
X0085900Y0184056D01*
X0085900Y0188944D01*
X0082444Y0192400D01*
X0077556Y0192400D01*
X0074500Y0189344D01*
X0074500Y0221222D01*
X0078884Y0216837D01*
X0080906Y0216000D01*
X0105722Y0216000D01*
X0114037Y0207685D01*
X0113862Y0207650D01*
X0113153Y0207356D01*
X0112514Y0206929D01*
X0111971Y0206386D01*
X0111544Y0205747D01*
X0111250Y0205038D01*
X0111100Y0204284D01*
X0111100Y0201800D01*
X0114700Y0201800D01*
X0114700Y0201200D01*
X0115300Y0201200D01*
X0115300Y0201800D01*
X0118900Y0201800D01*
X0118900Y0202822D01*
X0119100Y0202622D01*
X0119100Y0197926D01*
X0119998Y0195758D01*
X0121658Y0194098D01*
X0123826Y0193200D01*
X0126174Y0193200D01*
X0128342Y0194098D01*
X0130000Y0195756D01*
X0131658Y0194098D01*
X0133826Y0193200D01*
X0136174Y0193200D01*
X0138342Y0194098D01*
X0140000Y0195756D01*
X0140739Y0195017D01*
X0140337Y0194615D01*
X0137722Y0192000D01*
X0122844Y0192000D01*
X0122444Y0192400D01*
X0117556Y0192400D01*
X0114100Y0188944D01*
X0114100Y0184056D01*
X0117556Y0180600D01*
X0122444Y0180600D01*
X0122844Y0181000D01*
X0139000Y0181000D01*
X0139000Y0179307D01*
X0139913Y0177101D01*
X0141601Y0175413D01*
X0142065Y0175222D01*
X0141000Y0174157D01*
X0141000Y0172800D01*
X0144700Y0172800D01*
X0144700Y0172200D01*
X0145300Y0172200D01*
X0145300Y0168500D01*
X0146657Y0168500D01*
X0147000Y0168843D01*
X0147000Y0146278D01*
X0123837Y0123115D01*
X0123000Y0121094D01*
X0123000Y0118906D01*
X0123837Y0116884D01*
X0125384Y0115337D01*
X0127406Y0114500D01*
X0129594Y0114500D01*
X0131615Y0115337D01*
X0125377Y0115345D02*
X0111670Y0115345D01*
X0111615Y0115400D02*
X0110300Y0115400D01*
X0110300Y0111800D01*
X0113900Y0111800D01*
X0113900Y0113115D01*
X0111615Y0115400D01*
X0110300Y0115345D02*
X0109700Y0115345D01*
X0109700Y0114347D02*
X0110300Y0114347D01*
X0110300Y0113348D02*
X0109700Y0113348D01*
X0109700Y0112350D02*
X0110300Y0112350D01*
X0110300Y0111351D02*
X0146947Y0111351D01*
X0146971Y0111386D02*
X0146544Y0110747D01*
X0146250Y0110038D01*
X0146100Y0109284D01*
X0146100Y0106800D01*
X0149700Y0106800D01*
X0149700Y0112800D01*
X0149616Y0112800D01*
X0148862Y0112650D01*
X0148153Y0112356D01*
X0147514Y0111929D01*
X0146971Y0111386D01*
X0146380Y0110353D02*
X0113900Y0110353D01*
X0113370Y0109354D02*
X0146114Y0109354D01*
X0146100Y0108356D02*
X0112371Y0108356D01*
X0111421Y0107357D02*
X0146100Y0107357D01*
X0146100Y0106200D02*
X0146100Y0103716D01*
X0146250Y0102962D01*
X0146544Y0102253D01*
X0146971Y0101614D01*
X0147514Y0101071D01*
X0148153Y0100644D01*
X0148862Y0100350D01*
X0149616Y0100200D01*
X0149700Y0100200D01*
X0149700Y0106200D01*
X0146100Y0106200D01*
X0146100Y0105360D02*
X0113418Y0105360D01*
X0112420Y0106359D02*
X0149700Y0106359D01*
X0149700Y0106200D02*
X0149700Y0106800D01*
X0150300Y0106800D01*
X0150300Y0112800D01*
X0150384Y0112800D01*
X0151138Y0112650D01*
X0151847Y0112356D01*
X0152486Y0111929D01*
X0153029Y0111386D01*
X0153456Y0110747D01*
X0153750Y0110038D01*
X0153900Y0109284D01*
X0153900Y0106800D01*
X0150300Y0106800D01*
X0150300Y0106200D01*
X0153900Y0106200D01*
X0153900Y0103716D01*
X0153750Y0102962D01*
X0153456Y0102253D01*
X0153029Y0101614D01*
X0152486Y0101071D01*
X0151847Y0100644D01*
X0151138Y0100350D01*
X0150384Y0100200D01*
X0150300Y0100200D01*
X0150300Y0106200D01*
X0149700Y0106200D01*
X0150300Y0106359D02*
X0154100Y0106359D01*
X0154100Y0107357D02*
X0153900Y0107357D01*
X0153900Y0108356D02*
X0154100Y0108356D01*
X0154100Y0109354D02*
X0153886Y0109354D01*
X0153620Y0110353D02*
X0154216Y0110353D01*
X0154629Y0111351D02*
X0153053Y0111351D01*
X0151857Y0112350D02*
X0155106Y0112350D01*
X0156104Y0113348D02*
X0113667Y0113348D01*
X0113900Y0112350D02*
X0148143Y0112350D01*
X0149700Y0112350D02*
X0150300Y0112350D01*
X0150300Y0111351D02*
X0149700Y0111351D01*
X0149700Y0110353D02*
X0150300Y0110353D01*
X0150300Y0109354D02*
X0149700Y0109354D01*
X0149700Y0108356D02*
X0150300Y0108356D01*
X0150300Y0107357D02*
X0149700Y0107357D01*
X0149700Y0105360D02*
X0150300Y0105360D01*
X0150300Y0104362D02*
X0149700Y0104362D01*
X0149700Y0103363D02*
X0150300Y0103363D01*
X0150300Y0102365D02*
X0149700Y0102365D01*
X0149700Y0101366D02*
X0150300Y0101366D01*
X0150300Y0100368D02*
X0149700Y0100368D01*
X0148820Y0100368D02*
X0118411Y0100368D01*
X0117412Y0101366D02*
X0147219Y0101366D01*
X0146498Y0102365D02*
X0116414Y0102365D01*
X0115415Y0103363D02*
X0146170Y0103363D01*
X0146100Y0104362D02*
X0114417Y0104362D01*
X0119409Y0099369D02*
X0156387Y0099369D01*
X0155389Y0100368D02*
X0151180Y0100368D01*
X0152781Y0101366D02*
X0154746Y0101366D01*
X0154333Y0102365D02*
X0153502Y0102365D01*
X0153830Y0103363D02*
X0154100Y0103363D01*
X0154100Y0104362D02*
X0153900Y0104362D01*
X0153900Y0105360D02*
X0154100Y0105360D01*
X0158415Y0098370D02*
X0120408Y0098370D01*
X0121406Y0097372D02*
X0181000Y0097372D01*
X0181000Y0096373D02*
X0122405Y0096373D01*
X0123403Y0095375D02*
X0181000Y0095375D01*
X0181000Y0094376D02*
X0124402Y0094376D01*
X0125400Y0093378D02*
X0181000Y0093378D01*
X0181000Y0092379D02*
X0126399Y0092379D01*
X0127397Y0091381D02*
X0181000Y0091381D01*
X0181000Y0090382D02*
X0128396Y0090382D01*
X0120828Y0082394D02*
X0112450Y0082394D01*
X0112444Y0082400D02*
X0107556Y0082400D01*
X0107156Y0082000D01*
X0084906Y0082000D01*
X0082884Y0081163D01*
X0079750Y0078028D01*
X0077115Y0080663D01*
X0075094Y0081500D01*
X0066768Y0081500D01*
X0066768Y0081759D01*
X0065635Y0084492D01*
X0063543Y0086584D01*
X0060810Y0087717D01*
X0057851Y0087717D01*
X0055118Y0086584D01*
X0053026Y0084492D01*
X0051894Y0081759D01*
X0051894Y0070926D01*
X0053026Y0068193D01*
X0055118Y0066101D01*
X0057851Y0064969D01*
X0060810Y0064969D01*
X0063543Y0066101D01*
X0065635Y0068193D01*
X0066591Y0070500D01*
X0071722Y0070500D01*
X0074230Y0067992D01*
X0074539Y0067531D01*
X0074811Y0067349D01*
X0074913Y0067101D01*
X0076601Y0065413D01*
X0077065Y0065222D01*
X0076000Y0064157D01*
X0076000Y0062800D01*
X0079700Y0062800D01*
X0079700Y0062200D01*
X0080300Y0062200D01*
X0080300Y0062800D01*
X0084000Y0062800D01*
X0084000Y0064157D01*
X0082935Y0065222D01*
X0083399Y0065413D01*
X0085087Y0067101D01*
X0085587Y0068308D01*
X0088278Y0071000D01*
X0107156Y0071000D01*
X0107556Y0070600D01*
X0112444Y0070600D01*
X0115900Y0074056D01*
X0115900Y0078944D01*
X0112444Y0082400D01*
X0113448Y0081396D02*
X0121826Y0081396D01*
X0122825Y0080397D02*
X0114447Y0080397D01*
X0115445Y0079399D02*
X0124443Y0079399D01*
X0119829Y0083393D02*
X0066091Y0083393D01*
X0065677Y0084391D02*
X0118830Y0084391D01*
X0117832Y0085390D02*
X0064738Y0085390D01*
X0063739Y0086388D02*
X0116833Y0086388D01*
X0115835Y0087387D02*
X0061606Y0087387D01*
X0057056Y0087387D02*
X0027500Y0087387D01*
X0027500Y0088385D02*
X0114836Y0088385D01*
X0113838Y0089384D02*
X0027500Y0089384D01*
X0027500Y0090382D02*
X0112839Y0090382D01*
X0111841Y0091381D02*
X0027500Y0091381D01*
X0027500Y0092379D02*
X0110842Y0092379D01*
X0109844Y0093378D02*
X0027500Y0093378D01*
X0027500Y0094376D02*
X0108845Y0094376D01*
X0107847Y0095375D02*
X0027500Y0095375D01*
X0027500Y0096373D02*
X0106848Y0096373D01*
X0105850Y0097372D02*
X0027500Y0097372D01*
X0027500Y0098370D02*
X0104851Y0098370D01*
X0103853Y0099369D02*
X0027500Y0099369D01*
X0027500Y0100368D02*
X0102854Y0100368D01*
X0101856Y0101366D02*
X0027500Y0101366D01*
X0027500Y0102365D02*
X0100857Y0102365D01*
X0099859Y0103363D02*
X0027500Y0103363D01*
X0027500Y0104362D02*
X0098860Y0104362D01*
X0097862Y0105360D02*
X0027500Y0105360D01*
X0027500Y0106359D02*
X0096863Y0106359D01*
X0095865Y0107357D02*
X0027500Y0107357D01*
X0027500Y0108356D02*
X0094866Y0108356D01*
X0093868Y0109354D02*
X0027500Y0109354D01*
X0027500Y0110353D02*
X0092869Y0110353D01*
X0091871Y0111351D02*
X0027500Y0111351D01*
X0027500Y0112350D02*
X0090872Y0112350D01*
X0089874Y0113348D02*
X0027500Y0113348D01*
X0027500Y0114347D02*
X0088875Y0114347D01*
X0087877Y0115345D02*
X0027500Y0115345D01*
X0027500Y0116344D02*
X0086878Y0116344D01*
X0085880Y0117342D02*
X0027500Y0117342D01*
X0027500Y0118341D02*
X0084881Y0118341D01*
X0083883Y0119339D02*
X0027500Y0119339D01*
X0027500Y0120338D02*
X0082884Y0120338D01*
X0081886Y0121336D02*
X0027500Y0121336D01*
X0027500Y0122335D02*
X0080887Y0122335D01*
X0079889Y0123333D02*
X0027500Y0123333D01*
X0027500Y0124332D02*
X0078890Y0124332D01*
X0077892Y0125330D02*
X0027500Y0125330D01*
X0027500Y0126329D02*
X0076893Y0126329D01*
X0075895Y0127327D02*
X0027500Y0127327D01*
X0027500Y0128326D02*
X0074896Y0128326D01*
X0073897Y0129324D02*
X0027500Y0129324D01*
X0027500Y0130323D02*
X0072899Y0130323D01*
X0071900Y0131321D02*
X0027500Y0131321D01*
X0027500Y0132320D02*
X0070902Y0132320D01*
X0069903Y0133318D02*
X0027500Y0133318D01*
X0027500Y0134317D02*
X0068905Y0134317D01*
X0067906Y0135315D02*
X0027500Y0135315D01*
X0027500Y0136314D02*
X0066908Y0136314D01*
X0065909Y0137312D02*
X0027500Y0137312D01*
X0027500Y0138311D02*
X0064911Y0138311D01*
X0064161Y0139309D02*
X0027500Y0139309D01*
X0027500Y0140308D02*
X0063748Y0140308D01*
X0063500Y0141306D02*
X0027500Y0141306D01*
X0027500Y0142305D02*
X0063500Y0142305D01*
X0063500Y0143303D02*
X0027500Y0143303D01*
X0027500Y0144302D02*
X0063500Y0144302D01*
X0063500Y0145301D02*
X0027500Y0145301D01*
X0027500Y0146299D02*
X0036857Y0146299D01*
X0037556Y0145600D02*
X0042444Y0145600D01*
X0045900Y0149056D01*
X0045900Y0153944D01*
X0042444Y0157400D01*
X0037556Y0157400D01*
X0034100Y0153944D01*
X0034100Y0149056D01*
X0037556Y0145600D01*
X0035859Y0147298D02*
X0027500Y0147298D01*
X0027500Y0148296D02*
X0034860Y0148296D01*
X0034100Y0149295D02*
X0027500Y0149295D01*
X0027500Y0150293D02*
X0034100Y0150293D01*
X0034100Y0151292D02*
X0027500Y0151292D01*
X0027500Y0152290D02*
X0034100Y0152290D01*
X0034100Y0153289D02*
X0027500Y0153289D01*
X0027500Y0154287D02*
X0034443Y0154287D01*
X0035442Y0155286D02*
X0027500Y0155286D01*
X0027500Y0156284D02*
X0036440Y0156284D01*
X0037439Y0157283D02*
X0027500Y0157283D01*
X0027500Y0158281D02*
X0049875Y0158281D01*
X0049100Y0159056D02*
X0052556Y0155600D01*
X0057444Y0155600D01*
X0060900Y0159056D01*
X0060900Y0163944D01*
X0057444Y0167400D01*
X0052556Y0167400D01*
X0049100Y0163944D01*
X0049100Y0159056D01*
X0049100Y0159280D02*
X0027500Y0159280D01*
X0027500Y0160278D02*
X0049100Y0160278D01*
X0049100Y0161277D02*
X0027500Y0161277D01*
X0027500Y0162275D02*
X0049100Y0162275D01*
X0049100Y0163274D02*
X0027500Y0163274D01*
X0027500Y0164272D02*
X0049428Y0164272D01*
X0050427Y0165271D02*
X0027500Y0165271D01*
X0027500Y0166269D02*
X0051425Y0166269D01*
X0052424Y0167268D02*
X0027500Y0167268D01*
X0027500Y0168266D02*
X0063500Y0168266D01*
X0063500Y0167268D02*
X0057576Y0167268D01*
X0058575Y0166269D02*
X0063500Y0166269D01*
X0063500Y0165271D02*
X0059573Y0165271D01*
X0060572Y0164272D02*
X0063500Y0164272D01*
X0063500Y0163274D02*
X0060900Y0163274D01*
X0060900Y0162275D02*
X0063500Y0162275D01*
X0063500Y0161277D02*
X0060900Y0161277D01*
X0060900Y0160278D02*
X0063500Y0160278D01*
X0063500Y0159280D02*
X0060900Y0159280D01*
X0060125Y0158281D02*
X0063500Y0158281D01*
X0063500Y0157283D02*
X0059127Y0157283D01*
X0058128Y0156284D02*
X0063500Y0156284D01*
X0063500Y0155286D02*
X0044558Y0155286D01*
X0043560Y0156284D02*
X0051872Y0156284D01*
X0050873Y0157283D02*
X0042561Y0157283D01*
X0045557Y0154287D02*
X0063500Y0154287D01*
X0063500Y0153289D02*
X0045900Y0153289D01*
X0045900Y0152290D02*
X0063500Y0152290D01*
X0063500Y0151292D02*
X0045900Y0151292D01*
X0045900Y0150293D02*
X0063500Y0150293D01*
X0063500Y0149295D02*
X0045900Y0149295D01*
X0045140Y0148296D02*
X0063500Y0148296D01*
X0063500Y0147298D02*
X0044141Y0147298D01*
X0043143Y0146299D02*
X0063500Y0146299D01*
X0074500Y0146299D02*
X0094100Y0146299D01*
X0094100Y0145301D02*
X0074500Y0145301D01*
X0074500Y0144302D02*
X0094100Y0144302D01*
X0094100Y0144056D02*
X0097556Y0140600D01*
X0102444Y0140600D01*
X0104500Y0142656D01*
X0104500Y0134344D01*
X0104100Y0133944D01*
X0104100Y0129056D01*
X0107556Y0125600D01*
X0112444Y0125600D01*
X0115900Y0129056D01*
X0115900Y0133944D01*
X0115500Y0134344D01*
X0115500Y0142656D01*
X0117556Y0140600D01*
X0122444Y0140600D01*
X0125900Y0144056D01*
X0125900Y0148944D01*
X0122444Y0152400D01*
X0117556Y0152400D01*
X0115500Y0150344D01*
X0115500Y0177094D01*
X0114663Y0179115D01*
X0105900Y0187878D01*
X0105900Y0188944D01*
X0102444Y0192400D01*
X0097556Y0192400D01*
X0094100Y0188944D01*
X0094100Y0184056D01*
X0097556Y0180600D01*
X0097622Y0180600D01*
X0104500Y0173722D01*
X0104500Y0150344D01*
X0102444Y0152400D01*
X0097556Y0152400D01*
X0094100Y0148944D01*
X0094100Y0144056D01*
X0094853Y0143303D02*
X0075475Y0143303D01*
X0076473Y0142305D02*
X0095851Y0142305D01*
X0096850Y0141306D02*
X0077472Y0141306D01*
X0078470Y0140308D02*
X0104500Y0140308D01*
X0104500Y0141306D02*
X0103150Y0141306D01*
X0104149Y0142305D02*
X0104500Y0142305D01*
X0104500Y0139309D02*
X0079469Y0139309D01*
X0080467Y0138311D02*
X0104500Y0138311D01*
X0104500Y0137312D02*
X0081466Y0137312D01*
X0082464Y0136314D02*
X0104500Y0136314D01*
X0104500Y0135315D02*
X0083463Y0135315D01*
X0084461Y0134317D02*
X0104473Y0134317D01*
X0104100Y0133318D02*
X0085460Y0133318D01*
X0086458Y0132320D02*
X0104100Y0132320D01*
X0104100Y0131321D02*
X0087457Y0131321D01*
X0088455Y0130323D02*
X0104100Y0130323D01*
X0104100Y0129324D02*
X0089454Y0129324D01*
X0090452Y0128326D02*
X0104830Y0128326D01*
X0105829Y0127327D02*
X0091451Y0127327D01*
X0092449Y0126329D02*
X0106827Y0126329D01*
X0113173Y0126329D02*
X0127051Y0126329D01*
X0128049Y0127327D02*
X0114171Y0127327D01*
X0115170Y0128326D02*
X0129048Y0128326D01*
X0130046Y0129324D02*
X0115900Y0129324D01*
X0115900Y0130323D02*
X0131045Y0130323D01*
X0132043Y0131321D02*
X0115900Y0131321D01*
X0115900Y0132320D02*
X0133042Y0132320D01*
X0134040Y0133318D02*
X0115900Y0133318D01*
X0115527Y0134317D02*
X0135039Y0134317D01*
X0136037Y0135315D02*
X0115500Y0135315D01*
X0115500Y0136314D02*
X0137036Y0136314D01*
X0138034Y0137312D02*
X0115500Y0137312D01*
X0115500Y0138311D02*
X0139033Y0138311D01*
X0140031Y0139309D02*
X0115500Y0139309D01*
X0115500Y0140308D02*
X0141030Y0140308D01*
X0142028Y0141306D02*
X0123150Y0141306D01*
X0124149Y0142305D02*
X0143027Y0142305D01*
X0144025Y0143303D02*
X0125147Y0143303D01*
X0125900Y0144302D02*
X0145024Y0144302D01*
X0146022Y0145301D02*
X0125900Y0145301D01*
X0125900Y0146299D02*
X0147000Y0146299D01*
X0147000Y0147298D02*
X0125900Y0147298D01*
X0125900Y0148296D02*
X0147000Y0148296D01*
X0147000Y0149295D02*
X0125549Y0149295D01*
X0124551Y0150293D02*
X0147000Y0150293D01*
X0147000Y0151292D02*
X0123552Y0151292D01*
X0122554Y0152290D02*
X0147000Y0152290D01*
X0147000Y0153289D02*
X0115500Y0153289D01*
X0115500Y0154287D02*
X0147000Y0154287D01*
X0147000Y0155286D02*
X0115500Y0155286D01*
X0115500Y0156284D02*
X0147000Y0156284D01*
X0147000Y0157283D02*
X0115500Y0157283D01*
X0115500Y0158281D02*
X0147000Y0158281D01*
X0147000Y0159280D02*
X0115500Y0159280D01*
X0115500Y0160278D02*
X0147000Y0160278D01*
X0147000Y0161277D02*
X0115500Y0161277D01*
X0115500Y0162275D02*
X0147000Y0162275D01*
X0147000Y0163274D02*
X0115500Y0163274D01*
X0115500Y0164272D02*
X0147000Y0164272D01*
X0147000Y0165271D02*
X0115500Y0165271D01*
X0115500Y0166269D02*
X0147000Y0166269D01*
X0147000Y0167268D02*
X0115500Y0167268D01*
X0115500Y0168266D02*
X0147000Y0168266D01*
X0145300Y0169265D02*
X0144700Y0169265D01*
X0144700Y0168500D02*
X0144700Y0172200D01*
X0141000Y0172200D01*
X0141000Y0170843D01*
X0143343Y0168500D01*
X0144700Y0168500D01*
X0144700Y0170263D02*
X0145300Y0170263D01*
X0145300Y0171262D02*
X0144700Y0171262D01*
X0144700Y0172260D02*
X0115500Y0172260D01*
X0115500Y0171262D02*
X0141000Y0171262D01*
X0141580Y0170263D02*
X0115500Y0170263D01*
X0115500Y0169265D02*
X0142578Y0169265D01*
X0141000Y0173259D02*
X0115500Y0173259D01*
X0115500Y0174257D02*
X0141101Y0174257D01*
X0141982Y0175256D02*
X0115500Y0175256D01*
X0115500Y0176254D02*
X0140760Y0176254D01*
X0139851Y0177253D02*
X0115434Y0177253D01*
X0115021Y0178251D02*
X0139437Y0178251D01*
X0139023Y0179250D02*
X0114528Y0179250D01*
X0113530Y0180248D02*
X0139000Y0180248D01*
X0137952Y0192231D02*
X0122613Y0192231D01*
X0123756Y0193229D02*
X0106244Y0193229D01*
X0106174Y0193200D02*
X0108342Y0194098D01*
X0110002Y0195758D01*
X0110900Y0197926D01*
X0110900Y0205074D01*
X0110002Y0207242D01*
X0108342Y0208902D01*
X0106174Y0209800D01*
X0103826Y0209800D01*
X0101658Y0208902D01*
X0100000Y0207244D01*
X0098342Y0208902D01*
X0096174Y0209800D01*
X0093826Y0209800D01*
X0091658Y0208902D01*
X0090000Y0207244D01*
X0088342Y0208902D01*
X0086174Y0209800D01*
X0083826Y0209800D01*
X0081658Y0208902D01*
X0079998Y0207242D01*
X0079100Y0205074D01*
X0079100Y0197926D01*
X0079998Y0195758D01*
X0081658Y0194098D01*
X0083826Y0193200D01*
X0086174Y0193200D01*
X0088342Y0194098D01*
X0090000Y0195756D01*
X0091658Y0194098D01*
X0093826Y0193200D01*
X0096174Y0193200D01*
X0098342Y0194098D01*
X0100000Y0195756D01*
X0101658Y0194098D01*
X0103826Y0193200D01*
X0106174Y0193200D01*
X0103756Y0193229D02*
X0096244Y0193229D01*
X0097387Y0192231D02*
X0082613Y0192231D01*
X0083612Y0191232D02*
X0096388Y0191232D01*
X0095390Y0190234D02*
X0084610Y0190234D01*
X0085609Y0189235D02*
X0094391Y0189235D01*
X0094100Y0188237D02*
X0085900Y0188237D01*
X0085900Y0187238D02*
X0094100Y0187238D01*
X0094100Y0186239D02*
X0085900Y0186239D01*
X0085900Y0185241D02*
X0094100Y0185241D01*
X0094100Y0184242D02*
X0085900Y0184242D01*
X0085088Y0183244D02*
X0094912Y0183244D01*
X0095911Y0182245D02*
X0084089Y0182245D01*
X0083091Y0181247D02*
X0096909Y0181247D01*
X0097973Y0180248D02*
X0074500Y0180248D01*
X0074500Y0179250D02*
X0098972Y0179250D01*
X0099970Y0178251D02*
X0074500Y0178251D01*
X0074500Y0177253D02*
X0100969Y0177253D01*
X0101967Y0176254D02*
X0074500Y0176254D01*
X0074500Y0175256D02*
X0102966Y0175256D01*
X0103964Y0174257D02*
X0074500Y0174257D01*
X0074500Y0173259D02*
X0104500Y0173259D01*
X0104500Y0172260D02*
X0082584Y0172260D01*
X0083582Y0171262D02*
X0104500Y0171262D01*
X0104500Y0170263D02*
X0084581Y0170263D01*
X0085579Y0169265D02*
X0104500Y0169265D01*
X0104500Y0168266D02*
X0085900Y0168266D01*
X0085900Y0167268D02*
X0104500Y0167268D01*
X0104500Y0166269D02*
X0085900Y0166269D01*
X0085900Y0165271D02*
X0104500Y0165271D01*
X0104500Y0164272D02*
X0085900Y0164272D01*
X0085118Y0163274D02*
X0104500Y0163274D01*
X0104500Y0162275D02*
X0084119Y0162275D01*
X0083121Y0161277D02*
X0104500Y0161277D01*
X0104500Y0160278D02*
X0074500Y0160278D01*
X0074500Y0159280D02*
X0104500Y0159280D01*
X0104500Y0158281D02*
X0074500Y0158281D01*
X0074500Y0157283D02*
X0104500Y0157283D01*
X0104500Y0156284D02*
X0074500Y0156284D01*
X0074500Y0155286D02*
X0104500Y0155286D01*
X0104500Y0154287D02*
X0074500Y0154287D01*
X0074500Y0153289D02*
X0104500Y0153289D01*
X0104500Y0152290D02*
X0102554Y0152290D01*
X0103552Y0151292D02*
X0104500Y0151292D01*
X0097446Y0152290D02*
X0074500Y0152290D01*
X0074500Y0151292D02*
X0096448Y0151292D01*
X0095449Y0150293D02*
X0074500Y0150293D01*
X0074500Y0149295D02*
X0094451Y0149295D01*
X0094100Y0148296D02*
X0074500Y0148296D01*
X0074500Y0147298D02*
X0094100Y0147298D01*
X0115500Y0151292D02*
X0116448Y0151292D01*
X0115500Y0152290D02*
X0117446Y0152290D01*
X0115851Y0142305D02*
X0115500Y0142305D01*
X0115500Y0141306D02*
X0116850Y0141306D01*
X0126052Y0125330D02*
X0093448Y0125330D01*
X0094446Y0124332D02*
X0125054Y0124332D01*
X0124055Y0123333D02*
X0095445Y0123333D01*
X0096443Y0122335D02*
X0123514Y0122335D01*
X0123100Y0121336D02*
X0097442Y0121336D01*
X0098440Y0120338D02*
X0123000Y0120338D01*
X0123000Y0119339D02*
X0099439Y0119339D01*
X0100437Y0118341D02*
X0123234Y0118341D01*
X0123648Y0117342D02*
X0101436Y0117342D01*
X0102434Y0116344D02*
X0124378Y0116344D01*
X0112669Y0114347D02*
X0157732Y0114347D01*
X0162268Y0114347D02*
X0167732Y0114347D01*
X0166104Y0113348D02*
X0163896Y0113348D01*
X0164894Y0112350D02*
X0165106Y0112350D01*
X0172268Y0114347D02*
X0177732Y0114347D01*
X0176104Y0113348D02*
X0173896Y0113348D01*
X0174894Y0112350D02*
X0175106Y0112350D01*
X0175389Y0100368D02*
X0174611Y0100368D01*
X0173613Y0099369D02*
X0176387Y0099369D01*
X0178415Y0098370D02*
X0171585Y0098370D01*
X0168415Y0098370D02*
X0161585Y0098370D01*
X0163613Y0099369D02*
X0166387Y0099369D01*
X0165389Y0100368D02*
X0164611Y0100368D01*
X0178581Y0089384D02*
X0181000Y0089384D01*
X0181000Y0088385D02*
X0179893Y0088385D01*
X0180757Y0087387D02*
X0181000Y0087387D01*
X0181000Y0081396D02*
X0180667Y0081396D01*
X0181000Y0080397D02*
X0179675Y0080397D01*
X0181000Y0079399D02*
X0178057Y0079399D01*
X0181000Y0078400D02*
X0115900Y0078400D01*
X0115900Y0077402D02*
X0181000Y0077402D01*
X0181000Y0076403D02*
X0115900Y0076403D01*
X0115900Y0075405D02*
X0181000Y0075405D01*
X0181000Y0074406D02*
X0115900Y0074406D01*
X0115252Y0073408D02*
X0181000Y0073408D01*
X0181000Y0072409D02*
X0114253Y0072409D01*
X0113255Y0071411D02*
X0181000Y0071411D01*
X0181000Y0070412D02*
X0087690Y0070412D01*
X0086692Y0069414D02*
X0181000Y0069414D01*
X0181000Y0068415D02*
X0085693Y0068415D01*
X0085217Y0067417D02*
X0181119Y0067417D01*
X0181533Y0066418D02*
X0084403Y0066418D01*
X0083405Y0065420D02*
X0182424Y0065420D01*
X0183422Y0064421D02*
X0083736Y0064421D01*
X0084000Y0063423D02*
X0184421Y0063423D01*
X0185419Y0062424D02*
X0080300Y0062424D01*
X0080300Y0062200D02*
X0084000Y0062200D01*
X0084000Y0060843D01*
X0081657Y0058500D01*
X0080300Y0058500D01*
X0080300Y0062200D01*
X0079700Y0062200D02*
X0079700Y0058500D01*
X0078343Y0058500D01*
X0076000Y0060843D01*
X0076000Y0062200D01*
X0079700Y0062200D01*
X0079700Y0062424D02*
X0027500Y0062424D01*
X0027500Y0061426D02*
X0040965Y0061426D01*
X0040733Y0061308D02*
X0040041Y0060805D01*
X0039436Y0060199D01*
X0038933Y0059507D01*
X0038544Y0058745D01*
X0038280Y0057931D01*
X0038155Y0057142D01*
X0047035Y0057142D01*
X0047035Y0062094D01*
X0043155Y0062094D01*
X0042309Y0061961D01*
X0041496Y0061696D01*
X0040733Y0061308D01*
X0039663Y0060427D02*
X0027500Y0060427D01*
X0027500Y0059429D02*
X0038893Y0059429D01*
X0038442Y0058430D02*
X0027500Y0058430D01*
X0027500Y0057432D02*
X0038200Y0057432D01*
X0038272Y0055434D02*
X0027500Y0055434D01*
X0027500Y0054436D02*
X0038612Y0054436D01*
X0039202Y0053437D02*
X0027500Y0053437D01*
X0027500Y0052439D02*
X0040139Y0052439D01*
X0047035Y0056433D02*
X0027500Y0056433D01*
X0027500Y0063423D02*
X0076000Y0063423D01*
X0076264Y0064421D02*
X0027500Y0064421D01*
X0027500Y0065420D02*
X0056762Y0065420D01*
X0054801Y0066418D02*
X0027500Y0066418D01*
X0027500Y0067417D02*
X0032343Y0067417D01*
X0032440Y0067367D02*
X0033254Y0067102D01*
X0034043Y0066977D01*
X0034043Y0075858D01*
X0029091Y0075858D01*
X0029091Y0071978D01*
X0029224Y0071132D01*
X0029489Y0070318D01*
X0029877Y0069556D01*
X0030380Y0068864D01*
X0030986Y0068258D01*
X0031678Y0067755D01*
X0032440Y0067367D01*
X0034043Y0067417D02*
X0035012Y0067417D01*
X0035012Y0066977D02*
X0035801Y0067102D01*
X0036615Y0067367D01*
X0037377Y0067755D01*
X0038070Y0068258D01*
X0038675Y0068864D01*
X0039178Y0069556D01*
X0039566Y0070318D01*
X0039831Y0071132D01*
X0039965Y0071978D01*
X0039965Y0075858D01*
X0035012Y0075858D01*
X0035012Y0076827D01*
X0034043Y0076827D01*
X0034043Y0075858D01*
X0035012Y0075858D01*
X0035012Y0066977D01*
X0035012Y0068415D02*
X0034043Y0068415D01*
X0034043Y0069414D02*
X0035012Y0069414D01*
X0035012Y0070412D02*
X0034043Y0070412D01*
X0034043Y0071411D02*
X0035012Y0071411D01*
X0035012Y0072409D02*
X0034043Y0072409D01*
X0034043Y0073408D02*
X0035012Y0073408D01*
X0035012Y0074406D02*
X0034043Y0074406D01*
X0034043Y0075405D02*
X0035012Y0075405D01*
X0035012Y0076403D02*
X0051894Y0076403D01*
X0051894Y0075405D02*
X0039965Y0075405D01*
X0039965Y0074406D02*
X0051894Y0074406D01*
X0051894Y0073408D02*
X0039965Y0073408D01*
X0039965Y0072409D02*
X0051894Y0072409D01*
X0051894Y0071411D02*
X0039875Y0071411D01*
X0039597Y0070412D02*
X0052107Y0070412D01*
X0052520Y0069414D02*
X0039074Y0069414D01*
X0038226Y0068415D02*
X0052934Y0068415D01*
X0053802Y0067417D02*
X0036712Y0067417D01*
X0030829Y0068415D02*
X0027500Y0068415D01*
X0027500Y0069414D02*
X0029981Y0069414D01*
X0029458Y0070412D02*
X0027500Y0070412D01*
X0027500Y0071411D02*
X0029180Y0071411D01*
X0029091Y0072409D02*
X0027500Y0072409D01*
X0027500Y0073408D02*
X0029091Y0073408D01*
X0029091Y0074406D02*
X0027500Y0074406D01*
X0027500Y0075405D02*
X0029091Y0075405D01*
X0029091Y0076827D02*
X0034043Y0076827D01*
X0034043Y0085708D01*
X0033254Y0085583D01*
X0032440Y0085318D01*
X0031678Y0084930D01*
X0030986Y0084427D01*
X0030380Y0083821D01*
X0029877Y0083129D01*
X0029489Y0082367D01*
X0029224Y0081553D01*
X0029091Y0080707D01*
X0029091Y0076827D01*
X0029091Y0077402D02*
X0027500Y0077402D01*
X0027500Y0078400D02*
X0029091Y0078400D01*
X0029091Y0079399D02*
X0027500Y0079399D01*
X0027500Y0080397D02*
X0029091Y0080397D01*
X0029200Y0081396D02*
X0027500Y0081396D01*
X0027500Y0082394D02*
X0029503Y0082394D01*
X0030069Y0083393D02*
X0027500Y0083393D01*
X0027500Y0084391D02*
X0030950Y0084391D01*
X0032661Y0085390D02*
X0027500Y0085390D01*
X0027500Y0086388D02*
X0054922Y0086388D01*
X0053923Y0085390D02*
X0036394Y0085390D01*
X0036615Y0085318D02*
X0035801Y0085583D01*
X0035012Y0085708D01*
X0035012Y0076827D01*
X0039965Y0076827D01*
X0039965Y0080707D01*
X0039831Y0081553D01*
X0039566Y0082367D01*
X0039178Y0083129D01*
X0038675Y0083821D01*
X0038070Y0084427D01*
X0037377Y0084930D01*
X0036615Y0085318D01*
X0035012Y0085390D02*
X0034043Y0085390D01*
X0034043Y0084391D02*
X0035012Y0084391D01*
X0035012Y0083393D02*
X0034043Y0083393D01*
X0034043Y0082394D02*
X0035012Y0082394D01*
X0035012Y0081396D02*
X0034043Y0081396D01*
X0034043Y0080397D02*
X0035012Y0080397D01*
X0035012Y0079399D02*
X0034043Y0079399D01*
X0034043Y0078400D02*
X0035012Y0078400D01*
X0035012Y0077402D02*
X0034043Y0077402D01*
X0034043Y0076403D02*
X0027500Y0076403D01*
X0038105Y0084391D02*
X0052984Y0084391D01*
X0052571Y0083393D02*
X0038986Y0083393D01*
X0039552Y0082394D02*
X0052157Y0082394D01*
X0051894Y0081396D02*
X0039856Y0081396D01*
X0039965Y0080397D02*
X0051894Y0080397D01*
X0051894Y0079399D02*
X0039965Y0079399D01*
X0039965Y0078400D02*
X0051894Y0078400D01*
X0051894Y0077402D02*
X0039965Y0077402D01*
X0048004Y0062094D02*
X0048004Y0057142D01*
X0056885Y0057142D01*
X0056760Y0057931D01*
X0056495Y0058745D01*
X0056107Y0059507D01*
X0055604Y0060199D01*
X0054999Y0060805D01*
X0054306Y0061308D01*
X0053544Y0061696D01*
X0052730Y0061961D01*
X0051885Y0062094D01*
X0048004Y0062094D01*
X0048004Y0061426D02*
X0047035Y0061426D01*
X0047035Y0060427D02*
X0048004Y0060427D01*
X0048004Y0059429D02*
X0047035Y0059429D01*
X0047035Y0058430D02*
X0048004Y0058430D01*
X0048004Y0057432D02*
X0047035Y0057432D01*
X0054075Y0061426D02*
X0076000Y0061426D01*
X0076416Y0060427D02*
X0055376Y0060427D01*
X0056147Y0059429D02*
X0077415Y0059429D01*
X0079700Y0059429D02*
X0080300Y0059429D01*
X0080300Y0060427D02*
X0079700Y0060427D01*
X0079700Y0061426D02*
X0080300Y0061426D01*
X0082585Y0059429D02*
X0107413Y0059429D01*
X0106415Y0058430D02*
X0056598Y0058430D01*
X0056839Y0057432D02*
X0106100Y0057432D01*
X0106100Y0055434D02*
X0056768Y0055434D01*
X0056427Y0054436D02*
X0106549Y0054436D01*
X0107547Y0053437D02*
X0055838Y0053437D01*
X0054900Y0052439D02*
X0145195Y0052439D01*
X0144666Y0051440D02*
X0052995Y0051440D01*
X0061899Y0065420D02*
X0076595Y0065420D01*
X0075597Y0066418D02*
X0063861Y0066418D01*
X0064859Y0067417D02*
X0074710Y0067417D01*
X0073807Y0068415D02*
X0065728Y0068415D01*
X0066141Y0069414D02*
X0072808Y0069414D01*
X0071810Y0070412D02*
X0066555Y0070412D01*
X0075346Y0081396D02*
X0083447Y0081396D01*
X0082119Y0080397D02*
X0077381Y0080397D01*
X0078379Y0079399D02*
X0081121Y0079399D01*
X0080122Y0078400D02*
X0079378Y0078400D01*
X0066504Y0082394D02*
X0107550Y0082394D01*
X0110300Y0060400D02*
X0110300Y0056800D01*
X0113900Y0056800D01*
X0113900Y0058115D01*
X0111615Y0060400D01*
X0110300Y0060400D01*
X0110300Y0059429D02*
X0109700Y0059429D01*
X0109700Y0058430D02*
X0110300Y0058430D01*
X0110300Y0057432D02*
X0109700Y0057432D01*
X0110300Y0056433D02*
X0191410Y0056433D01*
X0190412Y0057432D02*
X0113900Y0057432D01*
X0113585Y0058430D02*
X0189413Y0058430D01*
X0188415Y0059429D02*
X0112587Y0059429D01*
X0084000Y0061426D02*
X0186418Y0061426D01*
X0187416Y0060427D02*
X0083584Y0060427D01*
X0152052Y0054436D02*
X0157948Y0054436D01*
X0156194Y0053437D02*
X0153806Y0053437D01*
X0154805Y0052439D02*
X0155195Y0052439D01*
X0162052Y0054436D02*
X0167948Y0054436D01*
X0166194Y0053437D02*
X0163806Y0053437D01*
X0164805Y0052439D02*
X0165195Y0052439D01*
X0172052Y0054436D02*
X0177948Y0054436D01*
X0176194Y0053437D02*
X0173806Y0053437D01*
X0174805Y0052439D02*
X0175195Y0052439D01*
X0182052Y0054436D02*
X0187948Y0054436D01*
X0186194Y0053437D02*
X0183806Y0053437D01*
X0184805Y0052439D02*
X0185195Y0052439D01*
X0190000Y0046500D02*
X0190000Y0040500D01*
X0209500Y0021000D01*
X0335500Y0021000D01*
X0351500Y0037000D01*
X0347303Y0038460D02*
X0341801Y0038460D01*
X0343702Y0039458D02*
X0346298Y0039458D01*
X0345299Y0040457D02*
X0344701Y0040457D01*
X0346304Y0037461D02*
X0198696Y0037461D01*
X0198199Y0038460D02*
X0197697Y0038460D01*
X0199694Y0036463D02*
X0345306Y0036463D01*
X0344307Y0035464D02*
X0200693Y0035464D01*
X0201691Y0034466D02*
X0343309Y0034466D01*
X0342310Y0033467D02*
X0202690Y0033467D01*
X0203688Y0032469D02*
X0341312Y0032469D01*
X0340313Y0031470D02*
X0318374Y0031470D01*
X0319372Y0030472D02*
X0339315Y0030472D01*
X0338316Y0029473D02*
X0320371Y0029473D01*
X0320900Y0028475D02*
X0337318Y0028475D01*
X0336319Y0027476D02*
X0320900Y0027476D01*
X0320900Y0026478D02*
X0335321Y0026478D01*
X0334322Y0025479D02*
X0320900Y0025479D01*
X0311626Y0031470D02*
X0204687Y0031470D01*
X0205685Y0030472D02*
X0310628Y0030472D01*
X0309629Y0029473D02*
X0206684Y0029473D01*
X0207682Y0028475D02*
X0309100Y0028475D01*
X0309100Y0027476D02*
X0208681Y0027476D01*
X0209679Y0026478D02*
X0309100Y0026478D01*
X0309100Y0025479D02*
X0210678Y0025479D01*
X0201500Y0015000D02*
X0170000Y0046500D01*
X0201801Y0038460D02*
X0208199Y0038460D01*
X0206298Y0039458D02*
X0203702Y0039458D01*
X0204701Y0040457D02*
X0205299Y0040457D01*
X0211801Y0038460D02*
X0218199Y0038460D01*
X0216298Y0039458D02*
X0213702Y0039458D01*
X0214701Y0040457D02*
X0215299Y0040457D01*
X0221801Y0038460D02*
X0228199Y0038460D01*
X0226298Y0039458D02*
X0223702Y0039458D01*
X0224701Y0040457D02*
X0225299Y0040457D01*
X0231801Y0038460D02*
X0238199Y0038460D01*
X0236298Y0039458D02*
X0233702Y0039458D01*
X0234701Y0040457D02*
X0235299Y0040457D01*
X0241801Y0038460D02*
X0248199Y0038460D01*
X0246298Y0039458D02*
X0243702Y0039458D01*
X0244701Y0040457D02*
X0245299Y0040457D01*
X0251801Y0038460D02*
X0258199Y0038460D01*
X0256298Y0039458D02*
X0253702Y0039458D01*
X0254701Y0040457D02*
X0255299Y0040457D01*
X0261801Y0038460D02*
X0308199Y0038460D01*
X0306298Y0039458D02*
X0263702Y0039458D01*
X0264701Y0040457D02*
X0305299Y0040457D01*
X0304709Y0041455D02*
X0265291Y0041455D01*
X0265704Y0042454D02*
X0304296Y0042454D01*
X0304100Y0043452D02*
X0265900Y0043452D01*
X0265900Y0044451D02*
X0304100Y0044451D01*
X0304100Y0045449D02*
X0265900Y0045449D01*
X0265900Y0046448D02*
X0304100Y0046448D01*
X0304100Y0047446D02*
X0265900Y0047446D01*
X0265900Y0048445D02*
X0304100Y0048445D01*
X0304100Y0049443D02*
X0265900Y0049443D01*
X0265747Y0050442D02*
X0304253Y0050442D01*
X0304666Y0051440D02*
X0265334Y0051440D01*
X0264805Y0052439D02*
X0305195Y0052439D01*
X0306194Y0053437D02*
X0263806Y0053437D01*
X0262052Y0054436D02*
X0307948Y0054436D01*
X0312052Y0054436D02*
X0317948Y0054436D01*
X0316194Y0053437D02*
X0313806Y0053437D01*
X0314805Y0052439D02*
X0315195Y0052439D01*
X0322052Y0054436D02*
X0327948Y0054436D01*
X0326194Y0053437D02*
X0323806Y0053437D01*
X0324805Y0052439D02*
X0325195Y0052439D01*
X0332052Y0054436D02*
X0337948Y0054436D01*
X0336194Y0053437D02*
X0333806Y0053437D01*
X0334805Y0052439D02*
X0335195Y0052439D01*
X0342052Y0054436D02*
X0346000Y0054436D01*
X0346000Y0053437D02*
X0343806Y0053437D01*
X0344805Y0052439D02*
X0345195Y0052439D01*
X0346265Y0055434D02*
X0251844Y0055434D01*
X0252842Y0054436D02*
X0257948Y0054436D01*
X0256194Y0053437D02*
X0253841Y0053437D01*
X0254805Y0052439D02*
X0255195Y0052439D01*
X0250845Y0056433D02*
X0346776Y0056433D01*
X0347775Y0057432D02*
X0249847Y0057432D01*
X0248848Y0058430D02*
X0348773Y0058430D01*
X0350532Y0059429D02*
X0247850Y0059429D01*
X0246851Y0060427D02*
X0416201Y0060427D01*
X0416201Y0059429D02*
X0398468Y0059429D01*
X0400227Y0058430D02*
X0416201Y0058430D01*
X0416201Y0057432D02*
X0401225Y0057432D01*
X0403740Y0056433D02*
X0416201Y0056433D01*
X0416201Y0055434D02*
X0405361Y0055434D01*
X0406321Y0054436D02*
X0416201Y0054436D01*
X0416201Y0053437D02*
X0406734Y0053437D01*
X0407100Y0052439D02*
X0416201Y0052439D01*
X0416201Y0051440D02*
X0407100Y0051440D01*
X0407098Y0050442D02*
X0416201Y0050442D01*
X0416201Y0049443D02*
X0406685Y0049443D01*
X0406240Y0048445D02*
X0416201Y0048445D01*
X0416201Y0047446D02*
X0405242Y0047446D01*
X0403453Y0046448D02*
X0416201Y0046448D01*
X0416201Y0041455D02*
X0402691Y0041455D01*
X0403570Y0040457D02*
X0416201Y0040457D01*
X0416201Y0039458D02*
X0403983Y0039458D01*
X0404200Y0038460D02*
X0416201Y0038460D01*
X0416201Y0037461D02*
X0404200Y0037461D01*
X0403950Y0036463D02*
X0416201Y0036463D01*
X0416201Y0035464D02*
X0403537Y0035464D01*
X0403500Y0034466D02*
X0416201Y0034466D01*
X0416201Y0033467D02*
X0403500Y0033467D01*
X0403500Y0032469D02*
X0416201Y0032469D01*
X0416201Y0031470D02*
X0403500Y0031470D01*
X0403500Y0030472D02*
X0416201Y0030472D01*
X0400000Y0051500D02*
X0400000Y0053000D01*
X0397500Y0055500D01*
X0351500Y0055500D01*
X0350000Y0054000D01*
X0350000Y0046500D01*
X0338199Y0038460D02*
X0331801Y0038460D01*
X0333702Y0039458D02*
X0336298Y0039458D01*
X0335299Y0040457D02*
X0334701Y0040457D01*
X0328199Y0038460D02*
X0321801Y0038460D01*
X0323702Y0039458D02*
X0326298Y0039458D01*
X0325299Y0040457D02*
X0324701Y0040457D01*
X0318199Y0038460D02*
X0311801Y0038460D01*
X0313702Y0039458D02*
X0316298Y0039458D01*
X0315299Y0040457D02*
X0314701Y0040457D01*
X0341642Y0021485D02*
X0351671Y0021485D01*
X0350673Y0022484D02*
X0342640Y0022484D01*
X0343639Y0023482D02*
X0349674Y0023482D01*
X0349100Y0024481D02*
X0344637Y0024481D01*
X0345636Y0025479D02*
X0349100Y0025479D01*
X0349100Y0026478D02*
X0346635Y0026478D01*
X0347633Y0027476D02*
X0349100Y0027476D01*
X0349100Y0028475D02*
X0348632Y0028475D01*
X0358374Y0031470D02*
X0366626Y0031470D01*
X0365628Y0030472D02*
X0359372Y0030472D01*
X0360371Y0029473D02*
X0364629Y0029473D01*
X0364100Y0028475D02*
X0360900Y0028475D01*
X0360900Y0027476D02*
X0364100Y0027476D01*
X0364100Y0026478D02*
X0360900Y0026478D01*
X0360900Y0025479D02*
X0364100Y0025479D01*
X0364100Y0024481D02*
X0360900Y0024481D01*
X0360326Y0023482D02*
X0364674Y0023482D01*
X0365673Y0022484D02*
X0359327Y0022484D01*
X0358329Y0021485D02*
X0366671Y0021485D01*
X0380500Y0066418D02*
X0396619Y0066418D01*
X0394788Y0067417D02*
X0380500Y0067417D01*
X0375000Y0071500D02*
X0370000Y0076500D01*
X0375000Y0071500D02*
X0400000Y0071500D01*
X0400000Y0086500D01*
X0370000Y0116500D01*
X0364100Y0116344D02*
X0350300Y0116344D01*
X0350300Y0117342D02*
X0349700Y0117342D01*
X0349700Y0118341D02*
X0350300Y0118341D01*
X0350300Y0119339D02*
X0349700Y0119339D01*
X0349700Y0120338D02*
X0350300Y0120338D01*
X0351678Y0120338D02*
X0365494Y0120338D01*
X0366492Y0121336D02*
X0342993Y0121336D01*
X0341995Y0120338D02*
X0348322Y0120338D01*
X0347324Y0119339D02*
X0340996Y0119339D01*
X0339998Y0118341D02*
X0346325Y0118341D01*
X0352676Y0119339D02*
X0364495Y0119339D01*
X0364100Y0118341D02*
X0353675Y0118341D01*
X0353900Y0117342D02*
X0364100Y0117342D01*
X0364100Y0115345D02*
X0353900Y0115345D01*
X0353362Y0114347D02*
X0364100Y0114347D01*
X0367766Y0084391D02*
X0367840Y0084391D01*
X0330000Y0083500D02*
X0330000Y0076500D01*
X0314314Y0072409D02*
X0313521Y0072409D01*
X0313839Y0073408D02*
X0314100Y0073408D01*
X0314100Y0074406D02*
X0313900Y0074406D01*
X0313900Y0075405D02*
X0314100Y0075405D01*
X0310300Y0077402D02*
X0309700Y0077402D01*
X0309700Y0078400D02*
X0310300Y0078400D01*
X0310300Y0079399D02*
X0309700Y0079399D01*
X0309700Y0080397D02*
X0310300Y0080397D01*
X0310300Y0081396D02*
X0309700Y0081396D01*
X0309700Y0082394D02*
X0310300Y0082394D01*
X0286798Y0062424D02*
X0244854Y0062424D01*
X0245853Y0061426D02*
X0288379Y0061426D01*
X0285799Y0063423D02*
X0282438Y0063423D01*
X0283437Y0064421D02*
X0284801Y0064421D01*
X0280300Y0064421D02*
X0279700Y0064421D01*
X0279700Y0063423D02*
X0280300Y0063423D01*
X0279700Y0062600D02*
X0279700Y0066200D01*
X0276100Y0066200D01*
X0276100Y0064885D01*
X0278385Y0062600D01*
X0279700Y0062600D01*
X0277562Y0063423D02*
X0243856Y0063423D01*
X0242857Y0064421D02*
X0276563Y0064421D01*
X0276100Y0065420D02*
X0241859Y0065420D01*
X0240860Y0066418D02*
X0279700Y0066418D01*
X0279700Y0065420D02*
X0280300Y0065420D01*
X0276100Y0067417D02*
X0239862Y0067417D01*
X0238863Y0068415D02*
X0276400Y0068415D01*
X0277398Y0069414D02*
X0237510Y0069414D01*
X0164017Y0128326D02*
X0144604Y0128326D01*
X0145602Y0129324D02*
X0163019Y0129324D01*
X0162020Y0130323D02*
X0146601Y0130323D01*
X0147600Y0131321D02*
X0161022Y0131321D01*
X0160023Y0132320D02*
X0148598Y0132320D01*
X0149597Y0133318D02*
X0159025Y0133318D01*
X0158026Y0134317D02*
X0150595Y0134317D01*
X0151594Y0135315D02*
X0157028Y0135315D01*
X0156029Y0136314D02*
X0152592Y0136314D01*
X0153591Y0137312D02*
X0155369Y0137312D01*
X0155000Y0138311D02*
X0154589Y0138311D01*
X0163000Y0171262D02*
X0171894Y0171262D01*
X0170896Y0172260D02*
X0163000Y0172260D01*
X0163000Y0173259D02*
X0169897Y0173259D01*
X0169100Y0174257D02*
X0163000Y0174257D01*
X0163000Y0175256D02*
X0169100Y0175256D01*
X0169100Y0176254D02*
X0163000Y0176254D01*
X0163000Y0177253D02*
X0169100Y0177253D01*
X0169100Y0178251D02*
X0163000Y0178251D01*
X0163000Y0179250D02*
X0169406Y0179250D01*
X0170405Y0180248D02*
X0163000Y0180248D01*
X0163000Y0181247D02*
X0171403Y0181247D01*
X0172402Y0182245D02*
X0163000Y0182245D01*
X0163000Y0183244D02*
X0173966Y0183244D01*
X0174964Y0184242D02*
X0163000Y0184242D01*
X0163000Y0185241D02*
X0175963Y0185241D01*
X0176961Y0186239D02*
X0163000Y0186239D01*
X0163000Y0187238D02*
X0177960Y0187238D01*
X0178958Y0188237D02*
X0163000Y0188237D01*
X0163000Y0189235D02*
X0179957Y0189235D01*
X0180955Y0190234D02*
X0163000Y0190234D01*
X0163000Y0191232D02*
X0181954Y0191232D01*
X0182952Y0192231D02*
X0163000Y0192231D01*
X0163000Y0193229D02*
X0163756Y0193229D01*
X0166244Y0193229D02*
X0183756Y0193229D01*
X0181529Y0194228D02*
X0168471Y0194228D01*
X0169470Y0195226D02*
X0174485Y0195226D01*
X0174616Y0195200D02*
X0173862Y0195350D01*
X0173153Y0195644D01*
X0172514Y0196071D01*
X0171971Y0196614D01*
X0171544Y0197253D01*
X0171250Y0197962D01*
X0171100Y0198716D01*
X0171100Y0201200D01*
X0174700Y0201200D01*
X0174700Y0201800D01*
X0174700Y0207800D01*
X0174616Y0207800D01*
X0173862Y0207650D01*
X0173153Y0207356D01*
X0172514Y0206929D01*
X0171971Y0206386D01*
X0171544Y0205747D01*
X0171250Y0205038D01*
X0171100Y0204284D01*
X0171100Y0201800D01*
X0174700Y0201800D01*
X0175300Y0201800D01*
X0175300Y0207800D01*
X0175384Y0207800D01*
X0176138Y0207650D01*
X0176847Y0207356D01*
X0177486Y0206929D01*
X0178029Y0206386D01*
X0178456Y0205747D01*
X0178750Y0205038D01*
X0178900Y0204284D01*
X0178900Y0201800D01*
X0175300Y0201800D01*
X0175300Y0201200D01*
X0178900Y0201200D01*
X0178900Y0198716D01*
X0178750Y0197962D01*
X0178456Y0197253D01*
X0178029Y0196614D01*
X0177486Y0196071D01*
X0176847Y0195644D01*
X0176138Y0195350D01*
X0175384Y0195200D01*
X0175300Y0195200D01*
X0175300Y0201200D01*
X0174700Y0201200D01*
X0174700Y0195200D01*
X0174616Y0195200D01*
X0174700Y0195226D02*
X0175300Y0195226D01*
X0175515Y0195226D02*
X0180530Y0195226D01*
X0179805Y0196225D02*
X0177640Y0196225D01*
X0178436Y0197223D02*
X0179391Y0197223D01*
X0179100Y0198222D02*
X0178802Y0198222D01*
X0178900Y0199220D02*
X0179100Y0199220D01*
X0179100Y0200219D02*
X0178900Y0200219D01*
X0179100Y0201217D02*
X0175300Y0201217D01*
X0174700Y0201217D02*
X0170900Y0201217D01*
X0170900Y0200219D02*
X0171100Y0200219D01*
X0171100Y0199220D02*
X0170900Y0199220D01*
X0170900Y0198222D02*
X0171198Y0198222D01*
X0171564Y0197223D02*
X0170609Y0197223D01*
X0170195Y0196225D02*
X0172360Y0196225D01*
X0174700Y0196225D02*
X0175300Y0196225D01*
X0175300Y0197223D02*
X0174700Y0197223D01*
X0174700Y0198222D02*
X0175300Y0198222D01*
X0175300Y0199220D02*
X0174700Y0199220D01*
X0174700Y0200219D02*
X0175300Y0200219D01*
X0175300Y0202216D02*
X0174700Y0202216D01*
X0174700Y0203214D02*
X0175300Y0203214D01*
X0175300Y0204213D02*
X0174700Y0204213D01*
X0174700Y0205211D02*
X0175300Y0205211D01*
X0175300Y0206210D02*
X0174700Y0206210D01*
X0174700Y0207208D02*
X0175300Y0207208D01*
X0177069Y0207208D02*
X0179984Y0207208D01*
X0179571Y0206210D02*
X0178147Y0206210D01*
X0178678Y0205211D02*
X0179157Y0205211D01*
X0179100Y0204213D02*
X0178900Y0204213D01*
X0178900Y0203214D02*
X0179100Y0203214D01*
X0179100Y0202216D02*
X0178900Y0202216D01*
X0171100Y0202216D02*
X0170900Y0202216D01*
X0170900Y0203214D02*
X0171100Y0203214D01*
X0171100Y0204213D02*
X0170900Y0204213D01*
X0170843Y0205211D02*
X0171322Y0205211D01*
X0171853Y0206210D02*
X0170429Y0206210D01*
X0170016Y0207208D02*
X0172931Y0207208D01*
X0169037Y0208207D02*
X0180963Y0208207D01*
X0182391Y0209205D02*
X0167609Y0209205D01*
X0163000Y0210204D02*
X0191518Y0210204D01*
X0190999Y0211202D02*
X0163000Y0211202D01*
X0163000Y0212201D02*
X0190585Y0212201D01*
X0190500Y0213199D02*
X0163000Y0213199D01*
X0163000Y0214198D02*
X0190500Y0214198D01*
X0190500Y0215196D02*
X0163000Y0215196D01*
X0163000Y0216195D02*
X0190500Y0216195D01*
X0190500Y0217193D02*
X0163000Y0217193D01*
X0163000Y0218192D02*
X0190500Y0218192D01*
X0190500Y0219190D02*
X0163000Y0219190D01*
X0163000Y0220189D02*
X0190500Y0220189D01*
X0190500Y0221187D02*
X0163000Y0221187D01*
X0163000Y0222186D02*
X0190500Y0222186D01*
X0190500Y0223184D02*
X0163000Y0223184D01*
X0168427Y0224183D02*
X0171573Y0224183D01*
X0170575Y0225181D02*
X0169425Y0225181D01*
X0178427Y0224183D02*
X0181573Y0224183D01*
X0180575Y0225181D02*
X0179425Y0225181D01*
X0188427Y0224183D02*
X0190500Y0224183D01*
X0190500Y0225181D02*
X0189425Y0225181D01*
X0187609Y0209205D02*
X0192391Y0209205D01*
X0190963Y0208207D02*
X0189037Y0208207D01*
X0200900Y0200219D02*
X0201503Y0200219D01*
X0200900Y0199220D02*
X0202502Y0199220D01*
X0203500Y0198222D02*
X0200900Y0198222D01*
X0200609Y0197223D02*
X0204499Y0197223D01*
X0205497Y0196225D02*
X0200500Y0196225D01*
X0200425Y0195226D02*
X0206496Y0195226D01*
X0207494Y0194228D02*
X0200012Y0194228D01*
X0199507Y0193229D02*
X0208493Y0193229D01*
X0209491Y0192231D02*
X0198509Y0192231D01*
X0197510Y0191232D02*
X0210490Y0191232D01*
X0211488Y0190234D02*
X0196512Y0190234D01*
X0195513Y0189235D02*
X0212487Y0189235D01*
X0213485Y0188237D02*
X0194515Y0188237D01*
X0193516Y0187238D02*
X0214484Y0187238D01*
X0215482Y0186239D02*
X0192518Y0186239D01*
X0191519Y0185241D02*
X0216481Y0185241D01*
X0217479Y0184242D02*
X0190521Y0184242D01*
X0189522Y0183244D02*
X0218478Y0183244D01*
X0219476Y0182245D02*
X0188524Y0182245D01*
X0187525Y0181247D02*
X0220000Y0181247D01*
X0220000Y0180248D02*
X0186527Y0180248D01*
X0185528Y0179250D02*
X0220000Y0179250D01*
X0220000Y0178251D02*
X0184530Y0178251D01*
X0183531Y0177253D02*
X0220000Y0177253D01*
X0220000Y0176254D02*
X0182533Y0176254D01*
X0181534Y0175256D02*
X0220000Y0175256D01*
X0220000Y0174257D02*
X0180900Y0174257D01*
X0180103Y0173259D02*
X0220000Y0173259D01*
X0269200Y0174956D02*
X0270000Y0175756D01*
X0271658Y0174098D01*
X0273826Y0173200D01*
X0276174Y0173200D01*
X0278342Y0174098D01*
X0280000Y0175756D01*
X0281658Y0174098D01*
X0283826Y0173200D01*
X0286174Y0173200D01*
X0288342Y0174098D01*
X0290000Y0175756D01*
X0291658Y0174098D01*
X0291895Y0174000D01*
X0291658Y0173902D01*
X0289998Y0172242D01*
X0289100Y0170074D01*
X0289100Y0162926D01*
X0289998Y0160758D01*
X0291658Y0159098D01*
X0293826Y0158200D01*
X0296174Y0158200D01*
X0298342Y0159098D01*
X0300000Y0160756D01*
X0301658Y0159098D01*
X0303826Y0158200D01*
X0306174Y0158200D01*
X0308342Y0159098D01*
X0310000Y0160756D01*
X0311000Y0159756D01*
X0311000Y0143244D01*
X0310000Y0142244D01*
X0308342Y0143902D01*
X0306174Y0144800D01*
X0303826Y0144800D01*
X0301658Y0143902D01*
X0300000Y0142244D01*
X0299000Y0143244D01*
X0299000Y0144296D01*
X0298391Y0145766D01*
X0283768Y0160389D01*
X0283862Y0160350D01*
X0284616Y0160200D01*
X0284700Y0160200D01*
X0284700Y0166200D01*
X0281100Y0166200D01*
X0281100Y0163716D01*
X0281250Y0162962D01*
X0281289Y0162868D01*
X0269200Y0174956D01*
X0269500Y0175256D02*
X0270500Y0175256D01*
X0269899Y0174257D02*
X0271499Y0174257D01*
X0270898Y0173259D02*
X0273684Y0173259D01*
X0271897Y0172260D02*
X0283009Y0172260D01*
X0283153Y0172356D02*
X0282514Y0171929D01*
X0281971Y0171386D01*
X0281544Y0170747D01*
X0281250Y0170038D01*
X0281100Y0169284D01*
X0281100Y0166800D01*
X0284700Y0166800D01*
X0284700Y0172800D01*
X0284616Y0172800D01*
X0283862Y0172650D01*
X0283153Y0172356D01*
X0283684Y0173259D02*
X0276316Y0173259D01*
X0278501Y0174257D02*
X0281499Y0174257D01*
X0280500Y0175256D02*
X0279500Y0175256D01*
X0284700Y0172260D02*
X0285300Y0172260D01*
X0285300Y0172800D02*
X0285300Y0166800D01*
X0284700Y0166800D01*
X0284700Y0166200D01*
X0285300Y0166200D01*
X0285300Y0166800D01*
X0288900Y0166800D01*
X0288900Y0169284D01*
X0288750Y0170038D01*
X0288456Y0170747D01*
X0288029Y0171386D01*
X0287486Y0171929D01*
X0286847Y0172356D01*
X0286138Y0172650D01*
X0285384Y0172800D01*
X0285300Y0172800D01*
X0286316Y0173259D02*
X0291015Y0173259D01*
X0291499Y0174257D02*
X0288501Y0174257D01*
X0289500Y0175256D02*
X0290500Y0175256D01*
X0290016Y0172260D02*
X0286991Y0172260D01*
X0288112Y0171262D02*
X0289592Y0171262D01*
X0289179Y0170263D02*
X0288657Y0170263D01*
X0288900Y0169265D02*
X0289100Y0169265D01*
X0289100Y0168266D02*
X0288900Y0168266D01*
X0288900Y0167268D02*
X0289100Y0167268D01*
X0289100Y0166269D02*
X0285300Y0166269D01*
X0285300Y0166200D02*
X0288900Y0166200D01*
X0288900Y0163716D01*
X0288750Y0162962D01*
X0288456Y0162253D01*
X0288029Y0161614D01*
X0287486Y0161071D01*
X0286847Y0160644D01*
X0286138Y0160350D01*
X0285384Y0160200D01*
X0285300Y0160200D01*
X0285300Y0166200D01*
X0284700Y0166269D02*
X0277888Y0166269D01*
X0278886Y0165271D02*
X0281100Y0165271D01*
X0281100Y0164272D02*
X0279885Y0164272D01*
X0280883Y0163274D02*
X0281188Y0163274D01*
X0284700Y0163274D02*
X0285300Y0163274D01*
X0285300Y0164272D02*
X0284700Y0164272D01*
X0284700Y0165271D02*
X0285300Y0165271D01*
X0285300Y0167268D02*
X0284700Y0167268D01*
X0284700Y0168266D02*
X0285300Y0168266D01*
X0285300Y0169265D02*
X0284700Y0169265D01*
X0284700Y0170263D02*
X0285300Y0170263D01*
X0285300Y0171262D02*
X0284700Y0171262D01*
X0281888Y0171262D02*
X0272895Y0171262D01*
X0273894Y0170263D02*
X0281343Y0170263D01*
X0281100Y0169265D02*
X0274892Y0169265D01*
X0275891Y0168266D02*
X0281100Y0168266D01*
X0281100Y0167268D02*
X0276889Y0167268D01*
X0284700Y0162275D02*
X0285300Y0162275D01*
X0285300Y0161277D02*
X0284700Y0161277D01*
X0284700Y0160278D02*
X0285300Y0160278D01*
X0285777Y0160278D02*
X0290478Y0160278D01*
X0289783Y0161277D02*
X0287692Y0161277D01*
X0288465Y0162275D02*
X0289370Y0162275D01*
X0289100Y0163274D02*
X0288812Y0163274D01*
X0288900Y0164272D02*
X0289100Y0164272D01*
X0289100Y0165271D02*
X0288900Y0165271D01*
X0291476Y0159280D02*
X0284877Y0159280D01*
X0284223Y0160278D02*
X0283879Y0160278D01*
X0285876Y0158281D02*
X0293630Y0158281D01*
X0296370Y0158281D02*
X0303630Y0158281D01*
X0301476Y0159280D02*
X0298524Y0159280D01*
X0299522Y0160278D02*
X0300478Y0160278D01*
X0306370Y0158281D02*
X0311000Y0158281D01*
X0311000Y0157283D02*
X0286874Y0157283D01*
X0287873Y0156284D02*
X0311000Y0156284D01*
X0311000Y0155286D02*
X0288871Y0155286D01*
X0289870Y0154287D02*
X0311000Y0154287D01*
X0311000Y0153289D02*
X0290868Y0153289D01*
X0291867Y0152290D02*
X0311000Y0152290D01*
X0311000Y0151292D02*
X0292865Y0151292D01*
X0293864Y0150293D02*
X0311000Y0150293D01*
X0311000Y0149295D02*
X0294862Y0149295D01*
X0295861Y0148296D02*
X0311000Y0148296D01*
X0311000Y0147298D02*
X0296859Y0147298D01*
X0297858Y0146299D02*
X0311000Y0146299D01*
X0311000Y0145301D02*
X0298584Y0145301D01*
X0298997Y0144302D02*
X0302624Y0144302D01*
X0301060Y0143303D02*
X0299000Y0143303D01*
X0299939Y0142305D02*
X0300061Y0142305D01*
X0307376Y0144302D02*
X0311000Y0144302D01*
X0311000Y0143303D02*
X0308940Y0143303D01*
X0309939Y0142305D02*
X0310061Y0142305D01*
X0315000Y0136500D02*
X0315000Y0166500D01*
X0310478Y0160278D02*
X0309522Y0160278D01*
X0308524Y0159280D02*
X0311000Y0159280D01*
X0325000Y0166500D02*
X0330000Y0161500D01*
X0389007Y0188237D02*
X0390993Y0188237D01*
X0392462Y0189235D02*
X0389000Y0189235D01*
X0389052Y0218192D02*
X0390948Y0218192D01*
X0392355Y0219190D02*
X0389000Y0219190D01*
X0352000Y0219500D02*
X0330000Y0241500D01*
X0310000Y0251500D02*
X0310000Y0271000D01*
X0315000Y0282500D02*
X0315000Y0286500D01*
X0320000Y0291500D01*
X0315000Y0282500D02*
X0246000Y0282500D01*
X0223000Y0259500D01*
X0218500Y0259500D01*
X0216500Y0257500D01*
X0221000Y0263000D02*
X0236000Y0278000D01*
X0238392Y0282097D02*
X0239940Y0282097D01*
X0239242Y0283095D02*
X0240938Y0283095D01*
X0241937Y0284094D02*
X0239798Y0284094D01*
X0240200Y0285092D02*
X0242935Y0285092D01*
X0244216Y0286091D02*
X0240200Y0286091D01*
X0235500Y0286000D02*
X0228000Y0286000D01*
X0224500Y0289500D01*
X0215000Y0302000D02*
X0224000Y0311000D01*
X0227500Y0311000D01*
X0216389Y0316046D02*
X0100636Y0316046D01*
X0101324Y0315047D02*
X0215391Y0315047D01*
X0214392Y0314049D02*
X0101737Y0314049D01*
X0102151Y0313050D02*
X0213394Y0313050D01*
X0212395Y0312052D02*
X0102200Y0312052D01*
X0102200Y0311053D02*
X0211397Y0311053D01*
X0210398Y0310055D02*
X0102195Y0310055D01*
X0101781Y0309056D02*
X0209400Y0309056D01*
X0208401Y0308058D02*
X0101367Y0308058D01*
X0100742Y0307059D02*
X0207402Y0307059D01*
X0206404Y0306061D02*
X0099743Y0306061D01*
X0098273Y0305062D02*
X0205405Y0305062D01*
X0204407Y0304064D02*
X0067891Y0304064D01*
X0067985Y0304291D02*
X0066798Y0301424D01*
X0064603Y0299230D01*
X0064057Y0299004D01*
X0064307Y0298754D01*
X0065047Y0296967D01*
X0065047Y0295033D01*
X0064307Y0293246D01*
X0064057Y0292996D01*
X0064603Y0292770D01*
X0066798Y0290576D01*
X0067985Y0287709D01*
X0067985Y0284606D01*
X0066798Y0281739D01*
X0066295Y0281236D01*
X0066798Y0280733D01*
X0067985Y0277866D01*
X0067985Y0274763D01*
X0066798Y0271897D01*
X0064603Y0269702D01*
X0061737Y0268515D01*
X0058634Y0268515D01*
X0055767Y0269702D01*
X0053573Y0271897D01*
X0052385Y0274763D01*
X0052385Y0277866D01*
X0053573Y0280733D01*
X0054075Y0281236D01*
X0053573Y0281739D01*
X0052385Y0284606D01*
X0052385Y0287709D01*
X0053573Y0290576D01*
X0055767Y0292770D01*
X0056313Y0292996D01*
X0056063Y0293246D01*
X0055323Y0295033D01*
X0055323Y0296967D01*
X0056063Y0298754D01*
X0056313Y0299004D01*
X0055767Y0299230D01*
X0053573Y0301424D01*
X0052385Y0304291D01*
X0052385Y0307394D01*
X0053573Y0310261D01*
X0054075Y0310764D01*
X0053573Y0311267D01*
X0052385Y0314134D01*
X0052385Y0317237D01*
X0053573Y0320103D01*
X0055767Y0322298D01*
X0058634Y0323485D01*
X0061737Y0323485D01*
X0064603Y0322298D01*
X0066798Y0320103D01*
X0067985Y0317237D01*
X0067985Y0314134D01*
X0066798Y0311267D01*
X0066295Y0310764D01*
X0066798Y0310261D01*
X0067985Y0307394D01*
X0067985Y0304291D01*
X0067985Y0305062D02*
X0081727Y0305062D01*
X0080257Y0306061D02*
X0067985Y0306061D01*
X0067985Y0307059D02*
X0079258Y0307059D01*
X0078633Y0308058D02*
X0067710Y0308058D01*
X0067296Y0309056D02*
X0078219Y0309056D01*
X0077805Y0310055D02*
X0066883Y0310055D01*
X0066584Y0311053D02*
X0077800Y0311053D01*
X0077800Y0312052D02*
X0067123Y0312052D01*
X0067536Y0313050D02*
X0077849Y0313050D01*
X0078263Y0314049D02*
X0067950Y0314049D01*
X0067985Y0315047D02*
X0078676Y0315047D01*
X0079364Y0316046D02*
X0067985Y0316046D01*
X0067985Y0317044D02*
X0080362Y0317044D01*
X0081982Y0318043D02*
X0067651Y0318043D01*
X0067237Y0319041D02*
X0350844Y0319041D01*
X0351258Y0320040D02*
X0066824Y0320040D01*
X0065862Y0321039D02*
X0351892Y0321039D01*
X0352965Y0322037D02*
X0064864Y0322037D01*
X0062822Y0323036D02*
X0416201Y0323036D01*
X0390000Y0291500D02*
X0390000Y0257500D01*
X0385500Y0253000D01*
X0350000Y0291500D02*
X0345500Y0296000D01*
X0359000Y0296500D02*
X0361000Y0296500D01*
X0364500Y0293000D01*
X0272500Y0268000D02*
X0238500Y0268000D01*
X0244200Y0242156D02*
X0245800Y0242156D01*
X0245800Y0240159D02*
X0244200Y0240159D01*
X0243600Y0239161D02*
X0246400Y0239161D01*
X0247398Y0238162D02*
X0242602Y0238162D01*
X0239600Y0241158D02*
X0230400Y0241158D01*
X0229600Y0241158D02*
X0213999Y0241158D01*
X0229600Y0240159D02*
X0230400Y0240159D01*
X0230400Y0239161D02*
X0229600Y0239161D01*
X0229600Y0238162D02*
X0230400Y0238162D01*
X0249600Y0238162D02*
X0250400Y0238162D01*
X0250400Y0239161D02*
X0249600Y0239161D01*
X0249600Y0240159D02*
X0250400Y0240159D01*
X0252602Y0238162D02*
X0257398Y0238162D01*
X0256400Y0239161D02*
X0253600Y0239161D01*
X0254200Y0240159D02*
X0255800Y0240159D01*
X0255800Y0242156D02*
X0254200Y0242156D01*
X0259600Y0240159D02*
X0260400Y0240159D01*
X0260400Y0239161D02*
X0259600Y0239161D01*
X0259600Y0238162D02*
X0260400Y0238162D01*
X0194422Y0294079D02*
X0064652Y0294079D01*
X0065047Y0295077D02*
X0195420Y0295077D01*
X0196419Y0296076D02*
X0065047Y0296076D01*
X0065003Y0297074D02*
X0197417Y0297074D01*
X0198416Y0298073D02*
X0064589Y0298073D01*
X0064220Y0299071D02*
X0199414Y0299071D01*
X0200413Y0300070D02*
X0065443Y0300070D01*
X0066442Y0301068D02*
X0201411Y0301068D01*
X0202410Y0302067D02*
X0067064Y0302067D01*
X0067477Y0303065D02*
X0203408Y0303065D01*
X0193423Y0293080D02*
X0064141Y0293080D01*
X0065292Y0292082D02*
X0102238Y0292082D01*
X0102556Y0292400D02*
X0099100Y0288944D01*
X0099100Y0284056D01*
X0102556Y0280600D01*
X0107444Y0280600D01*
X0110900Y0284056D01*
X0110900Y0288944D01*
X0107444Y0292400D01*
X0102556Y0292400D01*
X0101239Y0291083D02*
X0066290Y0291083D01*
X0067001Y0290085D02*
X0100241Y0290085D01*
X0099242Y0289086D02*
X0067415Y0289086D01*
X0067828Y0288088D02*
X0099100Y0288088D01*
X0099100Y0287089D02*
X0067985Y0287089D01*
X0067985Y0286091D02*
X0099100Y0286091D01*
X0099100Y0285092D02*
X0067985Y0285092D01*
X0067773Y0284094D02*
X0099100Y0284094D01*
X0100061Y0283095D02*
X0067359Y0283095D01*
X0066946Y0282097D02*
X0101060Y0282097D01*
X0102058Y0281098D02*
X0066433Y0281098D01*
X0067060Y0280100D02*
X0180443Y0280100D01*
X0181441Y0281098D02*
X0107942Y0281098D01*
X0108940Y0282097D02*
X0182440Y0282097D01*
X0183438Y0283095D02*
X0147110Y0283095D01*
X0146615Y0282600D02*
X0148900Y0284885D01*
X0148900Y0286200D01*
X0145300Y0286200D01*
X0145300Y0286800D01*
X0148900Y0286800D01*
X0148900Y0288115D01*
X0146615Y0290400D01*
X0145300Y0290400D01*
X0145300Y0286800D01*
X0144700Y0286800D01*
X0144700Y0290400D01*
X0143385Y0290400D01*
X0141100Y0288115D01*
X0141100Y0286800D01*
X0144700Y0286800D01*
X0144700Y0286200D01*
X0145300Y0286200D01*
X0145300Y0282600D01*
X0146615Y0282600D01*
X0145300Y0283095D02*
X0144700Y0283095D01*
X0144700Y0282600D02*
X0144700Y0286200D01*
X0141100Y0286200D01*
X0141100Y0284885D01*
X0143385Y0282600D01*
X0144700Y0282600D01*
X0144700Y0284094D02*
X0145300Y0284094D01*
X0145300Y0285092D02*
X0144700Y0285092D01*
X0144700Y0286091D02*
X0145300Y0286091D01*
X0145300Y0287089D02*
X0144700Y0287089D01*
X0144700Y0288088D02*
X0145300Y0288088D01*
X0145300Y0289086D02*
X0144700Y0289086D01*
X0144700Y0290085D02*
X0145300Y0290085D01*
X0146931Y0290085D02*
X0190428Y0290085D01*
X0191426Y0291083D02*
X0108761Y0291083D01*
X0109759Y0290085D02*
X0143069Y0290085D01*
X0142071Y0289086D02*
X0110758Y0289086D01*
X0110900Y0288088D02*
X0141100Y0288088D01*
X0141100Y0287089D02*
X0110900Y0287089D01*
X0110900Y0286091D02*
X0141100Y0286091D01*
X0141100Y0285092D02*
X0110900Y0285092D01*
X0110900Y0284094D02*
X0141891Y0284094D01*
X0142889Y0283095D02*
X0109939Y0283095D01*
X0107762Y0292082D02*
X0192425Y0292082D01*
X0189429Y0289086D02*
X0147929Y0289086D01*
X0148900Y0288088D02*
X0188431Y0288088D01*
X0187432Y0287089D02*
X0148900Y0287089D01*
X0148900Y0286091D02*
X0186434Y0286091D01*
X0185435Y0285092D02*
X0148900Y0285092D01*
X0148109Y0284094D02*
X0184437Y0284094D01*
X0179444Y0279101D02*
X0067474Y0279101D01*
X0067887Y0278103D02*
X0178446Y0278103D01*
X0177447Y0277104D02*
X0067985Y0277104D01*
X0067985Y0276105D02*
X0176449Y0276105D01*
X0175450Y0275107D02*
X0067985Y0275107D01*
X0067714Y0274108D02*
X0174452Y0274108D01*
X0173453Y0273110D02*
X0067300Y0273110D01*
X0066887Y0272111D02*
X0172455Y0272111D01*
X0171456Y0271113D02*
X0066014Y0271113D01*
X0065015Y0270114D02*
X0170458Y0270114D01*
X0169459Y0269116D02*
X0063187Y0269116D01*
X0057183Y0269116D02*
X0027500Y0269116D01*
X0027500Y0270114D02*
X0055355Y0270114D01*
X0054356Y0271113D02*
X0027500Y0271113D01*
X0027500Y0272111D02*
X0028100Y0272111D01*
X0027500Y0268117D02*
X0168461Y0268117D01*
X0167462Y0267119D02*
X0027500Y0267119D01*
X0027500Y0266120D02*
X0082135Y0266120D01*
X0081137Y0265122D02*
X0027500Y0265122D01*
X0027500Y0264123D02*
X0080138Y0264123D01*
X0079140Y0263125D02*
X0027500Y0263125D01*
X0027500Y0262126D02*
X0079000Y0262126D01*
X0079000Y0261128D02*
X0027500Y0261128D01*
X0027500Y0260129D02*
X0079000Y0260129D01*
X0079000Y0259131D02*
X0027500Y0259131D01*
X0027500Y0258132D02*
X0079000Y0258132D01*
X0079881Y0257134D02*
X0027500Y0257134D01*
X0027500Y0256135D02*
X0080150Y0256135D01*
X0079598Y0255137D02*
X0027500Y0255137D01*
X0027500Y0254138D02*
X0079184Y0254138D01*
X0079000Y0253140D02*
X0027500Y0253140D01*
X0027500Y0252141D02*
X0079000Y0252141D01*
X0079068Y0251143D02*
X0027500Y0251143D01*
X0027500Y0250144D02*
X0079481Y0250144D01*
X0079895Y0249146D02*
X0027500Y0249146D01*
X0027500Y0248147D02*
X0080868Y0248147D01*
X0082241Y0247149D02*
X0027500Y0247149D01*
X0027500Y0246150D02*
X0075372Y0246150D01*
X0074373Y0245152D02*
X0027500Y0245152D01*
X0027500Y0244153D02*
X0073375Y0244153D01*
X0072376Y0243155D02*
X0027500Y0243155D01*
X0027500Y0242156D02*
X0071378Y0242156D01*
X0070379Y0241158D02*
X0027500Y0241158D01*
X0027500Y0240159D02*
X0069381Y0240159D01*
X0068382Y0239161D02*
X0027500Y0239161D01*
X0027500Y0238162D02*
X0067384Y0238162D01*
X0066385Y0237164D02*
X0027500Y0237164D01*
X0027500Y0236165D02*
X0065387Y0236165D01*
X0064388Y0235167D02*
X0027500Y0235167D01*
X0027500Y0234168D02*
X0063945Y0234168D01*
X0063531Y0233170D02*
X0027500Y0233170D01*
X0027500Y0232171D02*
X0063500Y0232171D01*
X0063500Y0231172D02*
X0027500Y0231172D01*
X0027500Y0230174D02*
X0063500Y0230174D01*
X0063500Y0229175D02*
X0027500Y0229175D01*
X0027500Y0228177D02*
X0063500Y0228177D01*
X0063500Y0227178D02*
X0027500Y0227178D01*
X0027500Y0226180D02*
X0063500Y0226180D01*
X0063500Y0225181D02*
X0027500Y0225181D01*
X0027500Y0224183D02*
X0063500Y0224183D01*
X0063500Y0223184D02*
X0027500Y0223184D01*
X0027500Y0222186D02*
X0063500Y0222186D01*
X0063500Y0221187D02*
X0027500Y0221187D01*
X0027500Y0220189D02*
X0063500Y0220189D01*
X0063500Y0219190D02*
X0027500Y0219190D01*
X0027500Y0218192D02*
X0063500Y0218192D01*
X0063500Y0217193D02*
X0027500Y0217193D01*
X0027500Y0216195D02*
X0063500Y0216195D01*
X0063500Y0215196D02*
X0027500Y0215196D01*
X0027500Y0214198D02*
X0063500Y0214198D01*
X0063500Y0213199D02*
X0027500Y0213199D01*
X0027500Y0212201D02*
X0063500Y0212201D01*
X0063500Y0211202D02*
X0027500Y0211202D01*
X0027500Y0210204D02*
X0063500Y0210204D01*
X0063500Y0209205D02*
X0027500Y0209205D01*
X0027500Y0208207D02*
X0063500Y0208207D01*
X0063500Y0207208D02*
X0057636Y0207208D01*
X0058634Y0206210D02*
X0063500Y0206210D01*
X0063500Y0205211D02*
X0059633Y0205211D01*
X0060631Y0204213D02*
X0063500Y0204213D01*
X0063500Y0203214D02*
X0060900Y0203214D01*
X0060900Y0202216D02*
X0063500Y0202216D01*
X0063500Y0201217D02*
X0060900Y0201217D01*
X0060900Y0200219D02*
X0063500Y0200219D01*
X0063500Y0199220D02*
X0060900Y0199220D01*
X0060500Y0198222D02*
X0063500Y0198222D01*
X0063500Y0197223D02*
X0060500Y0197223D01*
X0060500Y0196225D02*
X0063500Y0196225D01*
X0063500Y0195226D02*
X0060500Y0195226D01*
X0060500Y0194228D02*
X0063500Y0194228D01*
X0063500Y0193229D02*
X0060500Y0193229D01*
X0060500Y0192231D02*
X0063500Y0192231D01*
X0063500Y0191232D02*
X0060500Y0191232D01*
X0061045Y0190234D02*
X0063500Y0190234D01*
X0063500Y0189235D02*
X0062043Y0189235D01*
X0063042Y0188237D02*
X0063500Y0188237D01*
X0055473Y0180248D02*
X0027500Y0180248D01*
X0027500Y0179250D02*
X0056472Y0179250D01*
X0057470Y0178251D02*
X0027500Y0178251D01*
X0027500Y0177253D02*
X0058469Y0177253D01*
X0060292Y0176254D02*
X0027500Y0176254D01*
X0027500Y0175256D02*
X0063500Y0175256D01*
X0063500Y0174257D02*
X0027500Y0174257D01*
X0027500Y0173259D02*
X0063500Y0173259D01*
X0063500Y0172260D02*
X0027500Y0172260D01*
X0027500Y0171262D02*
X0063500Y0171262D01*
X0063500Y0170263D02*
X0027500Y0170263D01*
X0027500Y0169265D02*
X0063500Y0169265D01*
X0074500Y0170263D02*
X0075419Y0170263D01*
X0074500Y0171262D02*
X0076418Y0171262D01*
X0077416Y0172260D02*
X0074500Y0172260D01*
X0074500Y0181247D02*
X0076909Y0181247D01*
X0075911Y0182245D02*
X0074500Y0182245D01*
X0074500Y0183244D02*
X0074912Y0183244D01*
X0074500Y0190234D02*
X0075390Y0190234D01*
X0074500Y0191232D02*
X0076388Y0191232D01*
X0077387Y0192231D02*
X0074500Y0192231D01*
X0074500Y0193229D02*
X0083756Y0193229D01*
X0081529Y0194228D02*
X0074500Y0194228D01*
X0074500Y0195226D02*
X0080530Y0195226D01*
X0079805Y0196225D02*
X0074500Y0196225D01*
X0074500Y0197223D02*
X0079391Y0197223D01*
X0079100Y0198222D02*
X0074500Y0198222D01*
X0074500Y0199220D02*
X0079100Y0199220D01*
X0079100Y0200219D02*
X0074500Y0200219D01*
X0074500Y0201217D02*
X0079100Y0201217D01*
X0079100Y0202216D02*
X0074500Y0202216D01*
X0074500Y0203214D02*
X0079100Y0203214D01*
X0079100Y0204213D02*
X0074500Y0204213D01*
X0074500Y0205211D02*
X0079157Y0205211D01*
X0079571Y0206210D02*
X0074500Y0206210D01*
X0074500Y0207208D02*
X0079984Y0207208D01*
X0080963Y0208207D02*
X0074500Y0208207D01*
X0074500Y0209205D02*
X0082391Y0209205D01*
X0074500Y0210204D02*
X0111518Y0210204D01*
X0110520Y0211202D02*
X0074500Y0211202D01*
X0074500Y0212201D02*
X0109521Y0212201D01*
X0108523Y0213199D02*
X0074500Y0213199D01*
X0074500Y0214198D02*
X0107524Y0214198D01*
X0106526Y0215196D02*
X0074500Y0215196D01*
X0074500Y0216195D02*
X0080436Y0216195D01*
X0078528Y0217193D02*
X0074500Y0217193D01*
X0074500Y0218192D02*
X0077530Y0218192D01*
X0076531Y0219190D02*
X0074500Y0219190D01*
X0074500Y0220189D02*
X0075533Y0220189D01*
X0074534Y0221187D02*
X0074500Y0221187D01*
X0087609Y0209205D02*
X0092391Y0209205D01*
X0090963Y0208207D02*
X0089037Y0208207D01*
X0097609Y0209205D02*
X0102391Y0209205D01*
X0100963Y0208207D02*
X0099037Y0208207D01*
X0107609Y0209205D02*
X0112517Y0209205D01*
X0113515Y0208207D02*
X0109037Y0208207D01*
X0110016Y0207208D02*
X0112931Y0207208D01*
X0111853Y0206210D02*
X0110429Y0206210D01*
X0110843Y0205211D02*
X0111322Y0205211D01*
X0111100Y0204213D02*
X0110900Y0204213D01*
X0110900Y0203214D02*
X0111100Y0203214D01*
X0111100Y0202216D02*
X0110900Y0202216D01*
X0110900Y0201217D02*
X0114700Y0201217D01*
X0114700Y0201200D02*
X0111100Y0201200D01*
X0111100Y0198716D01*
X0111250Y0197962D01*
X0111544Y0197253D01*
X0111971Y0196614D01*
X0112514Y0196071D01*
X0113153Y0195644D01*
X0113862Y0195350D01*
X0114616Y0195200D01*
X0114700Y0195200D01*
X0114700Y0201200D01*
X0115300Y0201200D02*
X0115300Y0195200D01*
X0115384Y0195200D01*
X0116138Y0195350D01*
X0116847Y0195644D01*
X0117486Y0196071D01*
X0118029Y0196614D01*
X0118456Y0197253D01*
X0118750Y0197962D01*
X0118900Y0198716D01*
X0118900Y0201200D01*
X0115300Y0201200D01*
X0115300Y0201217D02*
X0119100Y0201217D01*
X0119100Y0200219D02*
X0118900Y0200219D01*
X0118900Y0199220D02*
X0119100Y0199220D01*
X0119100Y0198222D02*
X0118802Y0198222D01*
X0118436Y0197223D02*
X0119391Y0197223D01*
X0119805Y0196225D02*
X0117640Y0196225D01*
X0115300Y0196225D02*
X0114700Y0196225D01*
X0114700Y0197223D02*
X0115300Y0197223D01*
X0115300Y0198222D02*
X0114700Y0198222D01*
X0114700Y0199220D02*
X0115300Y0199220D01*
X0115300Y0200219D02*
X0114700Y0200219D01*
X0111100Y0200219D02*
X0110900Y0200219D01*
X0110900Y0199220D02*
X0111100Y0199220D01*
X0111198Y0198222D02*
X0110900Y0198222D01*
X0110609Y0197223D02*
X0111564Y0197223D01*
X0112360Y0196225D02*
X0110195Y0196225D01*
X0109470Y0195226D02*
X0114485Y0195226D01*
X0114700Y0195226D02*
X0115300Y0195226D01*
X0115515Y0195226D02*
X0120530Y0195226D01*
X0121529Y0194228D02*
X0108471Y0194228D01*
X0104610Y0190234D02*
X0115390Y0190234D01*
X0116388Y0191232D02*
X0103612Y0191232D01*
X0102613Y0192231D02*
X0117387Y0192231D01*
X0114391Y0189235D02*
X0105609Y0189235D01*
X0105900Y0188237D02*
X0114100Y0188237D01*
X0114100Y0187238D02*
X0106540Y0187238D01*
X0107539Y0186239D02*
X0114100Y0186239D01*
X0114100Y0185241D02*
X0108537Y0185241D01*
X0109536Y0184242D02*
X0114100Y0184242D01*
X0114912Y0183244D02*
X0110534Y0183244D01*
X0111533Y0182245D02*
X0115911Y0182245D01*
X0116909Y0181247D02*
X0112531Y0181247D01*
X0101529Y0194228D02*
X0098471Y0194228D01*
X0099470Y0195226D02*
X0100530Y0195226D01*
X0093756Y0193229D02*
X0086244Y0193229D01*
X0088471Y0194228D02*
X0091529Y0194228D01*
X0090530Y0195226D02*
X0089470Y0195226D01*
X0118900Y0202216D02*
X0119100Y0202216D01*
X0126244Y0193229D02*
X0133756Y0193229D01*
X0131529Y0194228D02*
X0128471Y0194228D01*
X0129470Y0195226D02*
X0130530Y0195226D01*
X0136244Y0193229D02*
X0138951Y0193229D01*
X0138471Y0194228D02*
X0139949Y0194228D01*
X0139470Y0195226D02*
X0140530Y0195226D01*
X0154104Y0230174D02*
X0155000Y0230174D01*
X0155000Y0231172D02*
X0153106Y0231172D01*
X0152107Y0232171D02*
X0155000Y0232171D01*
X0155000Y0233170D02*
X0151109Y0233170D01*
X0150900Y0234168D02*
X0155000Y0234168D01*
X0155000Y0235167D02*
X0150861Y0235167D01*
X0152443Y0236165D02*
X0155000Y0236165D01*
X0155000Y0237164D02*
X0153442Y0237164D01*
X0153985Y0238162D02*
X0155000Y0238162D01*
X0155000Y0239161D02*
X0154398Y0239161D01*
X0154500Y0240159D02*
X0155000Y0240159D01*
X0155000Y0241158D02*
X0154500Y0241158D01*
X0154267Y0242156D02*
X0155000Y0242156D01*
X0155000Y0243155D02*
X0153854Y0243155D01*
X0153125Y0244153D02*
X0155000Y0244153D01*
X0155000Y0245152D02*
X0152127Y0245152D01*
X0151128Y0246150D02*
X0155000Y0246150D01*
X0155000Y0247149D02*
X0087759Y0247149D01*
X0089132Y0248147D02*
X0155000Y0248147D01*
X0155000Y0249146D02*
X0090105Y0249146D01*
X0090519Y0250144D02*
X0155000Y0250144D01*
X0155000Y0251143D02*
X0090932Y0251143D01*
X0091000Y0252141D02*
X0155000Y0252141D01*
X0155000Y0253140D02*
X0091000Y0253140D01*
X0090816Y0254138D02*
X0155142Y0254138D01*
X0155556Y0255137D02*
X0090402Y0255137D01*
X0089850Y0256135D02*
X0156478Y0256135D01*
X0157477Y0257134D02*
X0090119Y0257134D01*
X0091000Y0258132D02*
X0158475Y0258132D01*
X0159474Y0259131D02*
X0091000Y0259131D01*
X0091000Y0260129D02*
X0160472Y0260129D01*
X0161471Y0261128D02*
X0091000Y0261128D01*
X0091000Y0262126D02*
X0162469Y0262126D01*
X0163468Y0263125D02*
X0090860Y0263125D01*
X0089862Y0264123D02*
X0164467Y0264123D01*
X0165465Y0265122D02*
X0088863Y0265122D01*
X0087865Y0266120D02*
X0166464Y0266120D01*
X0091727Y0305062D02*
X0088273Y0305062D01*
X0089743Y0306061D02*
X0090257Y0306061D01*
X0090362Y0317044D02*
X0089638Y0317044D01*
X0088018Y0318043D02*
X0091982Y0318043D01*
X0057548Y0323036D02*
X0027500Y0323036D01*
X0027500Y0322037D02*
X0055506Y0322037D01*
X0054508Y0321039D02*
X0027500Y0321039D01*
X0027500Y0320040D02*
X0028466Y0320040D01*
X0032849Y0320040D02*
X0038308Y0320040D01*
X0037746Y0319807D02*
X0036378Y0318439D01*
X0035638Y0316652D01*
X0035638Y0314718D01*
X0036378Y0312931D01*
X0037746Y0311563D01*
X0039533Y0310823D01*
X0041467Y0310823D01*
X0043254Y0311563D01*
X0044622Y0312931D01*
X0045362Y0314718D01*
X0045362Y0316652D01*
X0044622Y0318439D01*
X0043254Y0319807D01*
X0041467Y0320547D01*
X0039533Y0320547D01*
X0037746Y0319807D01*
X0036980Y0319041D02*
X0034177Y0319041D01*
X0034944Y0318043D02*
X0036214Y0318043D01*
X0035800Y0317044D02*
X0035357Y0317044D01*
X0035520Y0316046D02*
X0035638Y0316046D01*
X0035638Y0315047D02*
X0035520Y0315047D01*
X0035243Y0314049D02*
X0035915Y0314049D01*
X0036328Y0313050D02*
X0034829Y0313050D01*
X0033901Y0312052D02*
X0037257Y0312052D01*
X0038976Y0311053D02*
X0032181Y0311053D01*
X0029134Y0311053D02*
X0027500Y0311053D01*
X0027500Y0310055D02*
X0053487Y0310055D01*
X0053786Y0311053D02*
X0042024Y0311053D01*
X0043743Y0312052D02*
X0053247Y0312052D01*
X0052834Y0313050D02*
X0044672Y0313050D01*
X0045085Y0314049D02*
X0052420Y0314049D01*
X0052385Y0315047D02*
X0045362Y0315047D01*
X0045362Y0316046D02*
X0052385Y0316046D01*
X0052385Y0317044D02*
X0045200Y0317044D01*
X0044786Y0318043D02*
X0052719Y0318043D01*
X0053133Y0319041D02*
X0044020Y0319041D01*
X0042692Y0320040D02*
X0053546Y0320040D01*
X0053074Y0309056D02*
X0027500Y0309056D01*
X0027500Y0308058D02*
X0052660Y0308058D01*
X0052385Y0307059D02*
X0027500Y0307059D01*
X0027500Y0306061D02*
X0052385Y0306061D01*
X0052385Y0305062D02*
X0027500Y0305062D01*
X0027500Y0304064D02*
X0052479Y0304064D01*
X0052893Y0303065D02*
X0027500Y0303065D01*
X0027500Y0302067D02*
X0053306Y0302067D01*
X0053928Y0301068D02*
X0043329Y0301068D01*
X0043540Y0300961D02*
X0042726Y0301375D01*
X0041858Y0301657D01*
X0041000Y0301793D01*
X0041000Y0296500D01*
X0046293Y0296500D01*
X0046157Y0297358D01*
X0045875Y0298226D01*
X0045461Y0299040D01*
X0044924Y0299778D01*
X0044278Y0300424D01*
X0043540Y0300961D01*
X0044633Y0300070D02*
X0054927Y0300070D01*
X0056150Y0299071D02*
X0045438Y0299071D01*
X0045925Y0298073D02*
X0055781Y0298073D01*
X0055367Y0297074D02*
X0046202Y0297074D01*
X0046293Y0295500D02*
X0041000Y0295500D01*
X0041000Y0296500D01*
X0040000Y0296500D01*
X0040000Y0301793D01*
X0039142Y0301657D01*
X0038274Y0301375D01*
X0037460Y0300961D01*
X0036722Y0300424D01*
X0036076Y0299778D01*
X0035539Y0299040D01*
X0035125Y0298226D01*
X0034843Y0297358D01*
X0034707Y0296500D01*
X0040000Y0296500D01*
X0040000Y0295500D01*
X0041000Y0295500D01*
X0041000Y0290207D01*
X0041858Y0290343D01*
X0042726Y0290625D01*
X0043540Y0291039D01*
X0044278Y0291576D01*
X0044924Y0292222D01*
X0045461Y0292960D01*
X0045875Y0293774D01*
X0046157Y0294642D01*
X0046293Y0295500D01*
X0046226Y0295077D02*
X0055323Y0295077D01*
X0055323Y0296076D02*
X0041000Y0296076D01*
X0041000Y0297074D02*
X0040000Y0297074D01*
X0040000Y0296076D02*
X0027500Y0296076D01*
X0027500Y0297074D02*
X0034798Y0297074D01*
X0035075Y0298073D02*
X0027500Y0298073D01*
X0027500Y0299071D02*
X0035562Y0299071D01*
X0036367Y0300070D02*
X0027500Y0300070D01*
X0027500Y0301068D02*
X0037671Y0301068D01*
X0040000Y0301068D02*
X0041000Y0301068D01*
X0041000Y0300070D02*
X0040000Y0300070D01*
X0040000Y0299071D02*
X0041000Y0299071D01*
X0041000Y0298073D02*
X0040000Y0298073D01*
X0040000Y0295500D02*
X0034707Y0295500D01*
X0034843Y0294642D01*
X0035125Y0293774D01*
X0035539Y0292960D01*
X0036076Y0292222D01*
X0036722Y0291576D01*
X0037460Y0291039D01*
X0038274Y0290625D01*
X0039142Y0290343D01*
X0040000Y0290207D01*
X0040000Y0295500D01*
X0040000Y0295077D02*
X0041000Y0295077D01*
X0041000Y0294079D02*
X0040000Y0294079D01*
X0040000Y0293080D02*
X0041000Y0293080D01*
X0041000Y0292082D02*
X0040000Y0292082D01*
X0040000Y0291083D02*
X0041000Y0291083D01*
X0043600Y0291083D02*
X0054080Y0291083D01*
X0053369Y0290085D02*
X0027500Y0290085D01*
X0027500Y0291083D02*
X0037400Y0291083D01*
X0036216Y0292082D02*
X0027500Y0292082D01*
X0027500Y0293080D02*
X0035478Y0293080D01*
X0035026Y0294079D02*
X0027500Y0294079D01*
X0027500Y0295077D02*
X0034774Y0295077D01*
X0027500Y0289086D02*
X0052955Y0289086D01*
X0052542Y0288088D02*
X0027500Y0288088D01*
X0027500Y0287089D02*
X0052385Y0287089D01*
X0052385Y0286091D02*
X0027500Y0286091D01*
X0027500Y0285092D02*
X0052385Y0285092D01*
X0052597Y0284094D02*
X0027500Y0284094D01*
X0027500Y0283095D02*
X0053011Y0283095D01*
X0053424Y0282097D02*
X0027500Y0282097D01*
X0027500Y0281098D02*
X0029499Y0281098D01*
X0027566Y0280100D02*
X0027500Y0280100D01*
X0031816Y0281098D02*
X0039342Y0281098D01*
X0039533Y0281177D02*
X0037746Y0280437D01*
X0036378Y0279069D01*
X0035638Y0277282D01*
X0035638Y0275348D01*
X0036378Y0273561D01*
X0037746Y0272193D01*
X0039533Y0271453D01*
X0041467Y0271453D01*
X0043254Y0272193D01*
X0044622Y0273561D01*
X0045362Y0275348D01*
X0045362Y0277282D01*
X0044622Y0279069D01*
X0043254Y0280437D01*
X0041467Y0281177D01*
X0039533Y0281177D01*
X0041658Y0281098D02*
X0053937Y0281098D01*
X0053310Y0280100D02*
X0043592Y0280100D01*
X0044590Y0279101D02*
X0052896Y0279101D01*
X0052483Y0278103D02*
X0045022Y0278103D01*
X0045362Y0277104D02*
X0052385Y0277104D01*
X0052385Y0276105D02*
X0045362Y0276105D01*
X0045262Y0275107D02*
X0052385Y0275107D01*
X0052656Y0274108D02*
X0044849Y0274108D01*
X0044171Y0273110D02*
X0053070Y0273110D01*
X0053484Y0272111D02*
X0043057Y0272111D01*
X0037943Y0272111D02*
X0033215Y0272111D01*
X0034329Y0273110D02*
X0036829Y0273110D01*
X0036151Y0274108D02*
X0035006Y0274108D01*
X0035420Y0275107D02*
X0035738Y0275107D01*
X0035638Y0276105D02*
X0035520Y0276105D01*
X0035520Y0277104D02*
X0035638Y0277104D01*
X0035978Y0278103D02*
X0035180Y0278103D01*
X0034748Y0279101D02*
X0036410Y0279101D01*
X0037408Y0280100D02*
X0033749Y0280100D01*
X0044784Y0292082D02*
X0055078Y0292082D01*
X0056229Y0293080D02*
X0045522Y0293080D01*
X0045974Y0294079D02*
X0055718Y0294079D01*
X0052364Y0207208D02*
X0027500Y0207208D01*
X0027500Y0206210D02*
X0051366Y0206210D01*
X0050367Y0205211D02*
X0027500Y0205211D01*
X0027500Y0204213D02*
X0049369Y0204213D01*
X0049100Y0203214D02*
X0027500Y0203214D01*
X0027500Y0202216D02*
X0049100Y0202216D01*
X0049100Y0201217D02*
X0027500Y0201217D01*
X0027500Y0200219D02*
X0049100Y0200219D01*
X0049100Y0199220D02*
X0027500Y0199220D01*
X0027500Y0198222D02*
X0049500Y0198222D01*
X0049500Y0197223D02*
X0042621Y0197223D01*
X0042444Y0197400D02*
X0037556Y0197400D01*
X0034100Y0193944D01*
X0034100Y0189056D01*
X0037556Y0185600D01*
X0042444Y0185600D01*
X0045900Y0189056D01*
X0045900Y0193944D01*
X0042444Y0197400D01*
X0043619Y0196225D02*
X0049500Y0196225D01*
X0049500Y0195226D02*
X0044618Y0195226D01*
X0045616Y0194228D02*
X0049500Y0194228D01*
X0049500Y0193229D02*
X0045900Y0193229D01*
X0045900Y0192231D02*
X0049500Y0192231D01*
X0049500Y0191232D02*
X0045900Y0191232D01*
X0045900Y0190234D02*
X0049500Y0190234D01*
X0049500Y0189235D02*
X0045900Y0189235D01*
X0045080Y0188237D02*
X0049500Y0188237D01*
X0049570Y0187238D02*
X0044082Y0187238D01*
X0043083Y0186239D02*
X0049983Y0186239D01*
X0050481Y0185241D02*
X0027500Y0185241D01*
X0027500Y0186239D02*
X0036917Y0186239D01*
X0035918Y0187238D02*
X0027500Y0187238D01*
X0027500Y0188237D02*
X0034920Y0188237D01*
X0034100Y0189235D02*
X0027500Y0189235D01*
X0027500Y0190234D02*
X0034100Y0190234D01*
X0034100Y0191232D02*
X0027500Y0191232D01*
X0027500Y0192231D02*
X0034100Y0192231D01*
X0034100Y0193229D02*
X0027500Y0193229D01*
X0027500Y0194228D02*
X0034384Y0194228D01*
X0035382Y0195226D02*
X0027500Y0195226D01*
X0027500Y0196225D02*
X0036381Y0196225D01*
X0037379Y0197223D02*
X0027500Y0197223D01*
X0027500Y0184242D02*
X0051479Y0184242D01*
X0052478Y0183244D02*
X0027500Y0183244D01*
X0027500Y0182245D02*
X0053476Y0182245D01*
X0054475Y0181247D02*
X0027500Y0181247D01*
X0074500Y0163274D02*
X0074882Y0163274D01*
X0074500Y0162275D02*
X0075881Y0162275D01*
X0076879Y0161277D02*
X0074500Y0161277D01*
X0103433Y0115345D02*
X0108330Y0115345D01*
X0107331Y0114347D02*
X0104431Y0114347D01*
X0105430Y0113348D02*
X0106333Y0113348D01*
D23*
X0295052Y0286543D02*
X0295081Y0287072D01*
X0295081Y0295703D01*
X0300000Y0300622D02*
X0300000Y0301500D01*
D24*
X0300000Y0300622D02*
X0295081Y0295703D01*
D25*
X0287301Y0261566D02*
X0287500Y0261500D01*
X0287500Y0261000D01*
M02*
