%
M48
M72
T01C0.01200
T02C0.02400
T03C0.03200
T04C0.03600
T05C0.03937
T06C0.04000
T07C0.04724
T08C0.05118
%
T01
X128500Y120000
X176000Y84500
X203500Y63500
X213000Y64500
X246500Y120500
X231500Y126000
X289500Y76000
X375000Y66500
X399500Y38000
X379000Y37000
X381500Y193000
X378500Y200000
X360000Y199500
X359000Y219500
X352000Y219500
X349000Y226500
X338000Y223500
X329000Y236500
X320000Y234000
X312500Y226500
X332500Y256000
X340500Y259500
X340500Y263500
X344500Y274500
X354500Y277500
X334000Y285000
X319000Y271000
X310000Y271000
X295052Y286543
X272500Y268000
X287301Y261566
X260000Y231000
X241500Y222500
X228500Y220500
X240000Y203500
X213500Y242500
X222000Y251500
X216500Y257500
X218500Y268500
X235500Y261000
X238500Y268000
X236000Y278000
X235500Y286000
X221500Y285000
X210000Y296500
X227500Y311000
X222000Y318500
X257000Y310500
X333500Y305000
X355500Y318000
X359000Y296500
X364500Y225000
X336000Y193000
X178000Y247500
X149000Y240500
X76000Y229000
X62000Y181500
T02
X400000Y71500
X400000Y51500
T03
X370000Y46500
X360000Y46500
X350000Y46500
X340000Y46500
X330000Y46500
X320000Y46500
X310000Y46500
X315000Y26500
X355000Y26500
X370000Y26500
X390000Y26500
X370000Y76500
X360000Y76500
X350000Y76500
X340000Y76500
X330000Y76500
X320000Y76500
X310000Y76500
X330000Y96500
X350000Y116500
X370000Y116500
X370000Y96500
X345000Y136500
X335000Y136500
X325000Y136500
X315000Y136500
X305000Y136500
X295000Y136500
X285000Y136500
X260000Y106500
X250000Y106500
X240000Y106500
X230000Y106500
X220000Y106500
X210000Y106500
X200000Y106500
X190000Y106500
X180000Y106500
X170000Y106500
X160000Y106500
X150000Y106500
X175000Y136500
X145000Y172500
X145000Y180500
X145000Y201500
X135000Y201500
X125000Y201500
X115000Y201500
X105000Y201500
X95000Y201500
X85000Y201500
X80000Y186500
X100000Y186500
X120000Y186500
X80000Y166500
X55000Y161500
X40000Y151500
X40000Y191500
X55000Y201500
X85000Y231500
X95000Y231500
X105000Y231500
X115000Y231500
X125000Y231500
X135000Y231500
X145000Y231500
X165000Y231500
X175000Y231500
X185000Y231500
X195000Y231500
X195000Y201500
X185000Y201500
X175000Y201500
X165000Y201500
X175000Y176500
X235000Y181500
X245000Y181500
X255000Y181500
X265000Y181500
X275000Y181500
X285000Y181500
X295000Y181500
X295000Y166500
X285000Y166500
X305000Y166500
X315000Y166500
X325000Y166500
X335000Y166500
X345000Y166500
X345000Y181500
X355000Y181500
X365000Y181500
X375000Y181500
X385000Y181500
X395000Y181500
X395000Y211500
X385000Y211500
X375000Y211500
X365000Y211500
X355000Y211500
X345000Y211500
X335000Y211500
X335000Y181500
X295000Y211500
X285000Y211500
X275000Y211500
X265000Y211500
X255000Y211500
X245000Y211500
X235000Y211500
X145000Y286500
X105000Y286500
X85000Y260500
X85000Y252500
X100000Y146500
X110000Y131500
X120000Y146500
X110000Y111500
X110000Y76500
X110000Y56500
X80000Y62500
X80000Y70500
X150000Y46500
X160000Y46500
X170000Y46500
X180000Y46500
X190000Y46500
X200000Y46500
X210000Y46500
X220000Y46500
X230000Y46500
X240000Y46500
X250000Y46500
X260000Y46500
X280000Y66500
X280000Y86500
T04
X280000Y241500
X290000Y241500
X300000Y241500
X300000Y251500
X290000Y251500
X280000Y251500
X270000Y251500
X260000Y251500
X250000Y251500
X250000Y241500
X260000Y241500
X270000Y241500
X240000Y241500
X230000Y241500
X230000Y251500
X240000Y251500
X240000Y291500
X230000Y291500
X230000Y301500
X240000Y301500
X250000Y301500
X260000Y301500
X270000Y301500
X270000Y291500
X260000Y291500
X250000Y291500
X280000Y291500
X290000Y291500
X300000Y291500
X300000Y301500
X290000Y301500
X280000Y301500
X310000Y301500
X320000Y301500
X330000Y301500
X340000Y301500
X340000Y291500
X330000Y291500
X320000Y291500
X310000Y291500
X350000Y291500
X360000Y291500
X370000Y291500
X370000Y301500
X360000Y301500
X350000Y301500
X380000Y301500
X390000Y301500
X390000Y291500
X380000Y291500
X380000Y251500
X390000Y251500
X390000Y241500
X380000Y241500
X370000Y241500
X360000Y241500
X350000Y241500
X350000Y251500
X360000Y251500
X370000Y251500
X340000Y251500
X330000Y251500
X320000Y251500
X310000Y251500
X310000Y241500
X320000Y241500
X330000Y241500
X340000Y241500
T05
X47520Y56657
X59331Y76343
X34528Y76343
T06
X185000Y271500
X195000Y271500
X95000Y311500
X85000Y311500
T07
X60185Y296000
X40500Y276315
X30657Y276315
X30657Y315685
X40500Y315685
T08
X60185Y315685
X60185Y305843
X40500Y296000
X60185Y286157
X60185Y276315
M30
